<svg width="52" height="52" fill="none" xmlns="http://www.w3.org/2000/svg"><g clip-path="url(#a)" fill="#000"><path d="M22.373 44.738c-1.107-.8-1.754-1.61-1.98-2.479-.84-3.242-3.547-5.608-6.586-5.608-3.038 0-5.847 2.366-6.686 5.61-.226.865-.873 1.677-1.981 2.478-1.35.978-1.966 2.489-1.61 3.946.427 1.753 2.373 3.312 5.036 3.312 1.126 0 2.195-.288 3.09-.834.595-.365 1.405-.558 2.149-.558.743 0 1.45.192 2.052.556.898.55 1.961.84 3.077.84 2.661 0 4.62-1.552 5.05-3.316.356-1.457-.263-2.97-1.61-3.947zM6.091 36.65c0-1.762-1.393-4.568-3.045-4.568S0 34.888 0 36.65a3.05 3.05 0 0 0 3.046 3.045 3.05 3.05 0 0 0 3.045-3.045zM24.467 32.082c-1.651 0-3.045 2.806-3.045 4.569a3.05 3.05 0 0 0 3.045 3.045 3.05 3.05 0 0 0 3.046-3.045c0-1.763-1.393-4.57-3.046-4.57zM15.33 30.559a3.05 3.05 0 0 0 3.046 3.046 3.05 3.05 0 0 0 3.046-3.046c0-1.762-1.394-4.569-3.046-4.569s-3.046 2.807-3.046 4.569zM9.137 33.605a3.05 3.05 0 0 0 3.046-3.046c0-1.762-1.394-4.569-3.046-4.569s-3.046 2.807-3.046 4.569a3.05 3.05 0 0 0 3.046 3.046zM46.841 18.748c-1.108-.8-1.755-1.712-1.98-2.58-.84-3.243-3.65-5.508-6.688-5.508s-5.746 2.265-6.585 5.509c-.226.865-.873 1.779-1.98 2.58-1.35.978-1.967 2.488-1.611 3.946.427 1.753 2.374 3.312 5.037 3.312 1.126 0 2.195-.289 3.09-.835a3.908 3.908 0 0 1 2.046-.557c.744 0 1.552.192 2.154.556a5.89 5.89 0 0 0 3.077.839c2.662 0 4.62-1.552 5.05-3.315.356-1.458-.262-2.97-1.61-3.947zM30.56 10.66c0-1.762-1.394-4.569-3.047-4.569-1.652 0-3.046 2.807-3.046 4.569a3.05 3.05 0 0 0 3.046 3.046 3.05 3.05 0 0 0 3.046-3.046zM48.935 6.091c-1.652 0-3.046 2.807-3.046 4.569a3.05 3.05 0 0 0 3.046 3.046 3.05 3.05 0 0 0 3.046-3.046c0-1.762-1.394-4.569-3.046-4.569zM39.798 4.569a3.05 3.05 0 0 0 3.045 3.045A3.05 3.05 0 0 0 45.89 4.57C45.89 2.806 44.496 0 42.843 0c-1.652 0-3.045 2.806-3.045 4.569zM30.56 4.569a3.05 3.05 0 0 0 3.045 3.045A3.05 3.05 0 0 0 36.65 4.57C36.65 2.806 35.257 0 33.605 0s-3.046 2.806-3.046 4.569z"/></g><defs><clipPath id="a"><path fill="#fff" d="M0 0h52v52H0z"/></clipPath></defs></svg>