<svg width="75" height="75" viewBox="0 0 75 75" fill="none" xmlns="http://www.w3.org/2000/svg">
<path d="M66.0645 0H8.93555C8.32881 0 7.83691 0.491748 7.83691 1.09863V73.9014C7.83691 74.5083 8.32881 75 8.93555 75H66.0645C66.6713 75 67.1631 74.5083 67.1631 73.9014V1.09863C67.1631 0.491748 66.6713 0 66.0645 0ZM10.0342 6.5918H18.8232C20.6407 6.5918 22.1191 8.07041 22.1191 9.8877V11.359C18.7564 11.8422 16.0903 14.5084 15.607 17.8711H15.1611C14.5544 17.8711 14.0625 18.3628 14.0625 18.9697C14.0625 19.5766 14.5544 20.0684 15.1611 20.0684H31.2744C31.8812 20.0684 32.373 19.5766 32.373 18.9697C32.373 18.3628 31.8812 17.8711 31.2744 17.8711H30.8285C30.3453 14.5084 27.6791 11.8422 24.3164 11.359V9.8877C24.3164 6.85869 21.8522 4.39453 18.8232 4.39453H10.0342V2.19727H36.4014V68.4082H10.0342V6.5918ZM23.2178 13.4766C25.8706 13.4766 28.09 15.3668 28.6003 17.8711H17.8351C18.3456 15.3668 20.5649 13.4766 23.2178 13.4766ZM64.9658 72.8027H10.0342V70.6055H64.9658V72.8027ZM64.9658 68.4082H38.5986V2.19727H64.9658V68.4082Z" fill="black"/>
<path d="M41.8945 27.6123C41.2876 27.6123 40.7959 28.1041 40.7959 28.7109V41.8945C40.7959 42.5014 41.2876 42.9932 41.8945 42.9932C42.5014 42.9932 42.9932 42.5014 42.9932 41.8945V28.7109C42.9932 28.1041 42.5014 27.6123 41.8945 27.6123Z" fill="black"/>
<path d="M33.1055 27.6123C32.4987 27.6123 32.0068 28.1041 32.0068 28.7109V41.8945C32.0068 42.5014 32.4987 42.9932 33.1055 42.9932C33.7122 42.9932 34.2041 42.5014 34.2041 41.8945V28.7109C34.2041 28.1041 33.7122 27.6123 33.1055 27.6123Z" fill="black"/>
<path d="M23.2178 22.2656C22.611 22.2656 22.1191 22.7574 22.1191 23.3643V25.5615C22.1191 26.1684 22.611 26.6602 23.2178 26.6602C23.8245 26.6602 24.3164 26.1684 24.3164 25.5615V23.3643C24.3164 22.7574 23.8245 22.2656 23.2178 22.2656Z" fill="black"/>
<path d="M18.8232 22.2656C18.2165 22.2656 17.7246 22.7574 17.7246 23.3643V25.5615C17.7246 26.1684 18.2165 26.6602 18.8232 26.6602C19.43 26.6602 19.9219 26.1684 19.9219 25.5615V23.3643C19.9219 22.7574 19.43 22.2656 18.8232 22.2656Z" fill="black"/>
<path d="M27.6123 22.2656C27.0056 22.2656 26.5137 22.7574 26.5137 23.3643V25.5615C26.5137 26.1684 27.0056 26.6602 27.6123 26.6602C28.219 26.6602 28.7109 26.1684 28.7109 25.5615V23.3643C28.7109 22.7574 28.219 22.2656 27.6123 22.2656Z" fill="black"/>
<path d="M23.2178 28.8574C22.611 28.8574 22.1191 29.3492 22.1191 29.9561V32.1533C22.1191 32.7602 22.611 33.252 23.2178 33.252C23.8245 33.252 24.3164 32.7602 24.3164 32.1533V29.9561C24.3164 29.3492 23.8245 28.8574 23.2178 28.8574Z" fill="black"/>
<path d="M18.8232 28.8574C18.2165 28.8574 17.7246 29.3492 17.7246 29.9561V32.1533C17.7246 32.7602 18.2165 33.252 18.8232 33.252C19.43 33.252 19.9219 32.7602 19.9219 32.1533V29.9561C19.9219 29.3492 19.43 28.8574 18.8232 28.8574Z" fill="black"/>
<path d="M27.6123 28.8574C27.0056 28.8574 26.5137 29.3492 26.5137 29.9561V32.1533C26.5137 32.7602 27.0056 33.252 27.6123 33.252C28.219 33.252 28.7109 32.7602 28.7109 32.1533V29.9561C28.7109 29.3492 28.219 28.8574 27.6123 28.8574Z" fill="black"/>
<path d="M23.2178 35.4492C22.611 35.4492 22.1191 35.941 22.1191 36.5479V38.7451C22.1191 39.352 22.611 39.8438 23.2178 39.8438C23.8245 39.8438 24.3164 39.352 24.3164 38.7451V36.5479C24.3164 35.941 23.8245 35.4492 23.2178 35.4492Z" fill="black"/>
<path d="M18.8232 35.4492C18.2165 35.4492 17.7246 35.941 17.7246 36.5479V38.7451C17.7246 39.352 18.2165 39.8438 18.8232 39.8438C19.43 39.8438 19.9219 39.352 19.9219 38.7451V36.5479C19.9219 35.941 19.43 35.4492 18.8232 35.4492Z" fill="black"/>
<path d="M27.6123 35.4492C27.0056 35.4492 26.5137 35.941 26.5137 36.5479V38.7451C26.5137 39.352 27.0056 39.8438 27.6123 39.8438C28.219 39.8438 28.7109 39.352 28.7109 38.7451V36.5479C28.7109 35.941 28.219 35.4492 27.6123 35.4492Z" fill="black"/>
<path d="M23.2178 42.041C22.611 42.041 22.1191 42.5328 22.1191 43.1396V45.3369C22.1191 45.9438 22.611 46.4355 23.2178 46.4355C23.8245 46.4355 24.3164 45.9438 24.3164 45.3369V43.1396C24.3164 42.5328 23.8245 42.041 23.2178 42.041Z" fill="black"/>
<path d="M18.8232 42.041C18.2165 42.041 17.7246 42.5328 17.7246 43.1396V45.3369C17.7246 45.9438 18.2165 46.4355 18.8232 46.4355C19.43 46.4355 19.9219 45.9438 19.9219 45.3369V43.1396C19.9219 42.5328 19.43 42.041 18.8232 42.041Z" fill="black"/>
<path d="M27.6123 42.041C27.0056 42.041 26.5137 42.5328 26.5137 43.1396V45.3369C26.5137 45.9438 27.0056 46.4355 27.6123 46.4355C28.219 46.4355 28.7109 45.9438 28.7109 45.3369V43.1396C28.7109 42.5328 28.219 42.041 27.6123 42.041Z" fill="black"/>
<path d="M23.2178 48.6328C22.611 48.6328 22.1191 49.1246 22.1191 49.7314V51.9287C22.1191 52.5356 22.611 53.0273 23.2178 53.0273C23.8245 53.0273 24.3164 52.5356 24.3164 51.9287V49.7314C24.3164 49.1246 23.8245 48.6328 23.2178 48.6328Z" fill="black"/>
<path d="M18.8232 48.6328C18.2165 48.6328 17.7246 49.1246 17.7246 49.7314V51.9287C17.7246 52.5356 18.2165 53.0273 18.8232 53.0273C19.43 53.0273 19.9219 52.5356 19.9219 51.9287V49.7314C19.9219 49.1246 19.43 48.6328 18.8232 48.6328Z" fill="black"/>
<path d="M27.6123 48.6328C27.0056 48.6328 26.5137 49.1246 26.5137 49.7314V51.9287C26.5137 52.5356 27.0056 53.0273 27.6123 53.0273C28.219 53.0273 28.7109 52.5356 28.7109 51.9287V49.7314C28.7109 49.1246 28.219 48.6328 27.6123 48.6328Z" fill="black"/>
<path d="M23.2178 55.2246C22.611 55.2246 22.1191 55.7164 22.1191 56.3232V58.5205C22.1191 59.1274 22.611 59.6191 23.2178 59.6191C23.8245 59.6191 24.3164 59.1274 24.3164 58.5205V56.3232C24.3164 55.7164 23.8245 55.2246 23.2178 55.2246Z" fill="black"/>
<path d="M18.8232 55.2246C18.2165 55.2246 17.7246 55.7164 17.7246 56.3232V58.5205C17.7246 59.1274 18.2165 59.6191 18.8232 59.6191C19.43 59.6191 19.9219 59.1274 19.9219 58.5205V56.3232C19.9219 55.7164 19.43 55.2246 18.8232 55.2246Z" fill="black"/>
<path d="M27.6123 55.2246C27.0056 55.2246 26.5137 55.7164 26.5137 56.3232V58.5205C26.5137 59.1274 27.0056 59.6191 27.6123 59.6191C28.219 59.6191 28.7109 59.1274 28.7109 58.5205V56.3232C28.7109 55.7164 28.219 55.2246 27.6123 55.2246Z" fill="black"/>
<path d="M23.2178 61.8164C22.611 61.8164 22.1191 62.3082 22.1191 62.915V65.1123C22.1191 65.7192 22.611 66.2109 23.2178 66.2109C23.8245 66.2109 24.3164 65.7192 24.3164 65.1123V62.915C24.3164 62.3082 23.8245 61.8164 23.2178 61.8164Z" fill="black"/>
<path d="M18.8232 61.8164C18.2165 61.8164 17.7246 62.3082 17.7246 62.915V65.1123C17.7246 65.7192 18.2165 66.2109 18.8232 66.2109C19.43 66.2109 19.9219 65.7192 19.9219 65.1123V62.915C19.9219 62.3082 19.43 61.8164 18.8232 61.8164Z" fill="black"/>
<path d="M27.6123 61.8164C27.0056 61.8164 26.5137 62.3082 26.5137 62.915V65.1123C26.5137 65.7192 27.0056 66.2109 27.6123 66.2109C28.219 66.2109 28.7109 65.7192 28.7109 65.1123V62.915C28.7109 62.3082 28.219 61.8164 27.6123 61.8164Z" fill="black"/>
</svg>
