<svg width="49" height="52" fill="none" xmlns="http://www.w3.org/2000/svg"><g clip-path="url(#a)" fill="#000"><path d="M17.855 31.352a1.086 1.086 0 0 0-.14-.365 1.023 1.023 0 0 0-.119-.155.91.91 0 0 0-1.03-.22.91.91 0 0 0-.307.22 1.026 1.026 0 0 0-.258.52 1.071 1.071 0 0 0 .258.916.976.976 0 0 0 .307.22.905.905 0 0 0 .361.078.921.921 0 0 0 .67-.298 1.023 1.023 0 0 0 .258-.519 1.089 1.089 0 0 0 0-.397z"/><path d="M47.641 48.89h-1.959V33.576c0-1.676-1.27-3.04-2.83-3.04h-1.616V20.517c0-1.677-1.27-3.04-2.831-3.04H35.5v-2.95a3.757 3.757 0 0 0 1.77-1.078c1.164-1.25 1.457-3.156.728-4.741L35.404 3.06a.942.942 0 0 0-.849-.566c-.36 0-.688.22-.848.566l-2.595 5.647c-.729 1.585-.436 3.49.728 4.74.507.545 1.12.904 1.77 1.08v2.949h-8.29V13.11a3.757 3.757 0 0 0 1.77-1.08c1.164-1.25 1.457-3.155.728-4.74l-2.595-5.647a.942.942 0 0 0-.848-.566c-.36 0-.69.22-.849.566l-2.595 5.647c-.729 1.585-.436 3.49.728 4.74.507.545 1.121.904 1.77 1.08v4.366h-8.29V14.53a3.76 3.76 0 0 0 1.77-1.082c1.165-1.25 1.457-3.156.728-4.741L15.042 3.06a.942.942 0 0 0-.848-.566c-.36 0-.689.22-.848.566L10.75 8.708c-.729 1.585-.436 3.49.728 4.74a3.76 3.76 0 0 0 1.77 1.083v2.946h-2.903c-1.562 0-2.832 1.363-2.832 3.04v10.018H5.898c-1.56 0-2.831 1.364-2.831 3.04V48.891h-1.96c-.521 0-.945.454-.945 1.015 0 .561.424 1.016.946 1.016H47.64c.523 0 .946-.455.946-1.016 0-.56-.423-1.015-.946-1.015zM33.178 12.013c-.591-.634-.74-1.6-.37-2.405l1.748-3.802 1.747 3.802c.37.804.221 1.77-.37 2.405a1.96 1.96 0 0 1-.431.348c-.587.35-1.306.35-1.892 0a1.95 1.95 0 0 1-.432-.348zm-10.181-1.417c-.591-.634-.74-1.6-.37-2.406l1.748-3.8 1.747 3.8c.37.805.221 1.772-.37 2.406-.13.141-.277.256-.431.348-.587.35-1.306.35-1.892 0a1.959 1.959 0 0 1-.432-.348zm-10.181 1.417c-.59-.634-.74-1.6-.37-2.405l1.748-3.802 1.747 3.802c.37.804.222 1.77-.37 2.405-.13.141-.277.256-.431.348-.587.35-1.305.35-1.892 0a1.95 1.95 0 0 1-.432-.348zm-2.472 7.496h28.06c.519 0 .94.452.94 1.009v3.188c-.416.141-.865.206-1.395.206-1.41 0-2.054-.461-2.87-1.045-.906-.649-1.934-1.385-3.918-1.385-1.983 0-3.011.736-3.918 1.385-.815.584-1.459 1.045-2.869 1.045-1.41 0-2.054-.461-2.869-1.045-.907-.649-1.935-1.385-3.918-1.385s-3.011.736-3.918 1.385c-.815.584-1.459 1.045-2.869 1.045-.53 0-.978-.065-1.395-.206v-3.188c0-.557.421-1.01.94-1.01zM43.791 48.89H4.959V39.13c.804.158 1.316.524 1.923.959.907.65 1.935 1.385 3.918 1.385s3.011-.736 3.918-1.385c.815-.584 1.459-1.044 2.869-1.044 1.41 0 2.054.46 2.869 1.044.907.65 1.935 1.385 3.918 1.385s3.011-.736 3.918-1.385c.815-.584 1.459-1.044 2.87-1.044 1.41 0 2.053.46 2.868 1.044.907.649 1.935 1.385 3.919 1.385 1.983 0 3.011-.736 3.918-1.385.607-.435 1.12-.8 1.924-.96v9.762zm0-11.816c-1.39.19-2.222.786-2.973 1.323-.815.584-1.459 1.045-2.87 1.045-1.41 0-2.053-.461-2.868-1.044-.907-.65-1.936-1.386-3.919-1.386s-3.011.736-3.918 1.386c-.815.583-1.459 1.044-2.87 1.044-1.41 0-2.053-.461-2.868-1.044-.907-.65-1.935-1.386-3.918-1.386s-3.011.736-3.918 1.386c-.815.583-1.459 1.044-2.87 1.044-1.41 0-2.053-.461-2.868-1.044-.75-.538-1.584-1.134-2.972-1.324v-3.5c0-.556.421-1.009.94-1.009h7.258c.522 0 .946-.455.946-1.016 0-.56-.424-1.015-.946-1.015H9.405v-4.736a6.46 6.46 0 0 0 1.395.143c1.983 0 3.011-.736 3.918-1.385.815-.584 1.459-1.044 2.869-1.044 1.41 0 2.054.46 2.869 1.044.907.649 1.935 1.385 3.918 1.385s3.011-.736 3.918-1.385c.815-.584 1.459-1.044 2.87-1.044 1.41 0 2.053.46 2.868 1.044.907.65 1.935 1.385 3.919 1.385.5 0 .96-.048 1.395-.143v4.736H20.698c-.522 0-.946.455-.946 1.015 0 .561.424 1.016.946 1.016h22.153c.518 0 .94.453.94 1.009v3.5z"/><path d="M9.387 46.367a1.08 1.08 0 0 0-.141-.365.973.973 0 0 0-.425-.374.906.906 0 0 0-.177-.058.915.915 0 0 0-.971.432 1.103 1.103 0 0 0-.141.365 1.081 1.081 0 0 0 .258.917c.176.19.42.298.67.298a.877.877 0 0 0 .361-.078.938.938 0 0 0 .306-.22 1.063 1.063 0 0 0 .206-.33 1.08 1.08 0 0 0 .054-.587zM19.552 43.33a1.086 1.086 0 0 0-.14-.365.92.92 0 0 0-.425-.374.873.873 0 0 0-.724 0 .916.916 0 0 0-.308.22 1.003 1.003 0 0 0-.204.33 1.077 1.077 0 0 0 .204 1.107.974.974 0 0 0 .308.219.908.908 0 0 0 .361.078.886.886 0 0 0 .525-.172.974.974 0 0 0 .35-.456 1.086 1.086 0 0 0 .053-.587zM30.486 46.367a1.08 1.08 0 0 0-.258-.52.98.98 0 0 0-.307-.219.873.873 0 0 0-.724 0 .947.947 0 0 0-.424.374 1.113 1.113 0 0 0-.141.365 1.08 1.08 0 0 0 .259.918.92.92 0 0 0 .306.219.957.957 0 0 0 .363.078.921.921 0 0 0 .786-.452 1.104 1.104 0 0 0 .16-.564c0-.067-.007-.133-.02-.199zM41.218 43.938a1.08 1.08 0 0 0-.259-.52.922.922 0 0 0-.668-.298.923.923 0 0 0-.787.452 1.08 1.08 0 0 0 0 1.128c.035.055.074.107.117.155a.983.983 0 0 0 .484.277c.062.013.123.02.186.02a.92.92 0 0 0 .786-.452 1.054 1.054 0 0 0 .16-.564c0-.066-.007-.133-.02-.198zM31.807 27.336a1.131 1.131 0 0 0-.141-.364 1.028 1.028 0 0 0-.262-.282.943.943 0 0 0-.34-.15.873.873 0 0 0-.546.057.919.919 0 0 0-.308.22 1.07 1.07 0 0 0 0 1.436.925.925 0 0 0 .854.278.95.95 0 0 0 .34-.152.925.925 0 0 0 .262-.28 1.064 1.064 0 0 0 .159-.564c0-.066-.006-.133-.018-.199zM19.457 25.953a1.086 1.086 0 0 0-.14-.365 1.01 1.01 0 0 0-.262-.28.98.98 0 0 0-.34-.152.874.874 0 0 0-.547.058.98.98 0 0 0-.307.22 1.07 1.07 0 0 0-.204.33 1.086 1.086 0 0 0 .087.952c.035.055.073.107.117.154a.98.98 0 0 0 .484.277.88.88 0 0 0 .71-.15c.052-.038.1-.08.144-.127.044-.047.082-.1.117-.154a1.104 1.104 0 0 0 .141-.366 1.078 1.078 0 0 0 0-.397z"/></g><defs><clipPath id="a"><path fill="#fff" transform="translate(.162)" d="M0 0h48.425v52H0z"/></clipPath></defs></svg>