<svg width="37" height="35" viewBox="0 0 37 35" fill="none" xmlns="http://www.w3.org/2000/svg">
<path d="M32.6641 2.73438H30.9297V0H28.0391V2.73438H8.96094V0H6.07031V2.73438H4.33594C1.9451 2.73438 0 4.57434 0 6.83594V30.8984C0 33.16 1.9451 35 4.33594 35H32.6641C35.0549 35 37 33.16 37 30.8984V6.83594C37 4.57434 35.0549 2.73438 32.6641 2.73438ZM34.1094 30.8984C34.1094 31.6523 33.461 32.2656 32.6641 32.2656H4.33594C3.53899 32.2656 2.89062 31.6523 2.89062 30.8984V12.8516H34.1094V30.8984ZM34.1094 10.1172H2.89062V6.83594C2.89062 6.08207 3.53899 5.46875 4.33594 5.46875H6.07031V8.20312H8.96094V5.46875H28.0391V8.20312H30.9297V5.46875H32.6641C33.461 5.46875 34.1094 6.08207 34.1094 6.83594V10.1172Z" fill="black"/>
<path d="M8.38281 15.7227H5.49219V18.457H8.38281V15.7227Z" fill="black"/>
<path d="M14.1641 15.7227H11.2734V18.457H14.1641V15.7227Z" fill="black"/>
<path d="M19.9453 15.7227H17.0547V18.457H19.9453V15.7227Z" fill="black"/>
<path d="M25.7266 15.7227H22.8359V18.457H25.7266V15.7227Z" fill="black"/>
<path d="M31.5078 15.7227H28.6172V18.457H31.5078V15.7227Z" fill="black"/>
<path d="M8.38281 21.1914H5.49219V23.9258H8.38281V21.1914Z" fill="black"/>
<path d="M14.1641 21.1914H11.2734V23.9258H14.1641V21.1914Z" fill="black"/>
<path d="M19.9453 21.1914H17.0547V23.9258H19.9453V21.1914Z" fill="black"/>
<path d="M25.7266 21.1914H22.8359V23.9258H25.7266V21.1914Z" fill="black"/>
<path d="M8.38281 26.6602H5.49219V29.3945H8.38281V26.6602Z" fill="black"/>
<path d="M14.1641 26.6602H11.2734V29.3945H14.1641V26.6602Z" fill="black"/>
<path d="M19.9453 26.6602H17.0547V29.3945H19.9453V26.6602Z" fill="black"/>
<path d="M25.7266 26.6602H22.8359V29.3945H25.7266V26.6602Z" fill="black"/>
<path d="M31.8906 27H29V29.7344H31.8906V27Z" fill="black"/>
<path d="M31.5078 21.1914H28.6172V23.9258H31.5078V21.1914Z" fill="black"/>
</svg>
