<svg width="37" height="35" fill="none" xmlns="http://www.w3.org/2000/svg"><path d="M32.664 2.734H30.93V0h-2.89v2.734H8.96V0H6.07v2.734H4.336C1.946 2.734 0 4.574 0 6.836v24.062C0 33.16 1.945 35 4.336 35h28.328C35.054 35 37 33.16 37 30.898V6.836c0-2.262-1.945-4.102-4.336-4.102zm1.445 28.164c0 .754-.648 1.368-1.445 1.368H4.336c-.797 0-1.445-.614-1.445-1.368V12.852h31.218v18.046zm0-20.78H2.891V6.835c0-.754.648-1.367 1.445-1.367H6.07v2.734h2.89V5.47h19.08v2.734h2.89V5.47h1.734c.797 0 1.445.613 1.445 1.367v3.281z" fill="#000"/><path d="M8.383 15.723h-2.89v2.734h2.89v-2.734zM14.164 15.723h-2.89v2.734h2.89v-2.734zM19.945 15.723h-2.89v2.734h2.89v-2.734zM25.727 15.723h-2.891v2.734h2.89v-2.734zM31.508 15.723h-2.89v2.734h2.89v-2.734zM8.383 21.191h-2.89v2.735h2.89V21.19zM14.164 21.191h-2.89v2.735h2.89V21.19zM19.945 21.191h-2.89v2.735h2.89V21.19zM25.727 21.191h-2.891v2.735h2.89V21.19zM8.383 26.66h-2.89v2.735h2.89V26.66zM14.164 26.66h-2.89v2.735h2.89V26.66zM19.945 26.66h-2.89v2.735h2.89V26.66zM25.727 26.66h-2.891v2.735h2.89V26.66zM31.89 27H29v2.734h2.89V27zM31.508 21.191h-2.89v2.735h2.89V21.19z" fill="#000"/></svg>