<svg width="75" height="78" viewBox="0 0 75 78" fill="none" xmlns="http://www.w3.org/2000/svg">
<path d="M41.8945 17.4871C42.7035 17.4871 43.3594 16.8121 43.3594 15.9796C43.3594 15.147 42.7035 14.472 41.8945 14.472C41.0855 14.472 40.4297 15.147 40.4297 15.9796C40.4297 16.8121 41.0855 17.4871 41.8945 17.4871Z" fill="black"/>
<path d="M33.1055 17.4871C33.9145 17.4871 34.5703 16.8121 34.5703 15.9796C34.5703 15.147 33.9145 14.472 33.1055 14.472C32.2965 14.472 31.6406 15.147 31.6406 15.9796C31.6406 16.8121 32.2965 17.4871 33.1055 17.4871Z" fill="black"/>
<path d="M44.9707 44.3207C45.6179 43.8213 45.749 42.8762 45.2637 42.2102C44.7784 41.5442 43.8602 41.4093 43.2129 41.9087C40.7459 43.8128 39.3311 46.7251 39.3311 49.8985C39.3311 53.072 40.7459 55.9842 43.2129 57.8883C44.9351 59.2176 45.9229 61.2507 45.9229 63.4661C45.9229 65.6815 44.9351 67.7146 43.2129 69.0439C42.5657 69.5433 42.4346 70.4884 42.9199 71.1544C43.4029 71.8171 44.3205 71.9577 44.9707 71.4559C47.4376 69.5518 48.8525 66.6396 48.8525 63.4661C48.8525 60.2926 47.4376 57.3804 44.9707 55.4763C43.2485 54.147 42.2607 52.1139 42.2607 49.8985C42.2607 47.6831 43.2485 45.65 44.9707 44.3207Z" fill="black"/>
<path d="M58.1543 44.3207C58.8015 43.8213 58.9326 42.8762 58.4473 42.2102C57.9618 41.5442 57.0438 41.4093 56.3965 41.9087C53.9295 43.8128 52.5146 46.7251 52.5146 49.8985C52.5146 53.072 53.9295 55.9842 56.3965 57.8883C58.1187 59.2176 59.1064 61.2507 59.1064 63.4661C59.1064 65.6815 58.1187 67.7146 56.3965 69.0439C55.7493 69.5433 55.6182 70.4884 56.1035 71.1544C56.5865 71.8171 57.5041 71.9577 58.1543 71.4559C60.6212 69.5518 62.0361 66.6396 62.0361 63.4661C62.0361 60.2926 60.6212 57.3804 58.1543 55.4763C56.4321 54.147 55.4443 52.1139 55.4443 49.8985C55.4443 47.6831 56.4321 45.65 58.1543 44.3207Z" fill="black"/>
<path d="M31.7871 44.3208C32.4343 43.8214 32.5654 42.8763 32.0801 42.2103C31.5948 41.5443 30.6766 41.4092 30.0293 41.9088C27.5624 43.8129 26.1475 46.7251 26.1475 49.8986C26.1475 53.072 27.5624 55.9842 30.0293 57.8884C31.7515 59.2177 32.7393 61.2507 32.7393 63.4662C32.7393 65.6816 31.7515 67.7146 30.0293 69.0439C29.3821 69.5434 29.251 70.4884 29.7363 71.1545C30.2193 71.8172 31.1369 71.9578 31.7871 71.456C34.2541 69.5518 35.6689 66.6396 35.6689 63.4662C35.6689 60.2927 34.2541 57.3805 31.7871 55.4764C30.0649 54.147 29.0771 52.114 29.0771 49.8986C29.0771 47.6831 30.0649 45.6501 31.7871 44.3208Z" fill="black"/>
<path d="M18.6035 44.3208C19.2507 43.8214 19.3818 42.8763 18.8965 42.2103C18.411 41.5443 17.493 41.4092 16.8457 41.9088C14.3788 43.8129 12.9639 46.7251 12.9639 49.8986C12.9639 53.072 14.3788 55.9842 16.8457 57.8884C18.5679 59.2177 19.5557 61.2507 19.5557 63.4662C19.5557 65.6816 18.5679 67.7146 16.8457 69.0439C16.1985 69.5434 16.0674 70.4884 16.5527 71.1545C17.0357 71.8172 17.9533 71.9578 18.6035 71.456C21.0705 69.5518 22.4854 66.6396 22.4854 63.4662C22.4854 60.2927 21.0705 57.3805 18.6035 55.4764C16.8813 54.147 15.8936 52.114 15.8936 49.8986C15.8936 47.6831 16.8813 45.6501 18.6035 44.3208Z" fill="black"/>
<path d="M37.5 35.5772C38.309 35.5772 38.9648 34.9022 38.9648 34.0696C38.9648 33.2371 38.309 32.5621 37.5 32.5621C36.691 32.5621 36.0352 33.2371 36.0352 34.0696C36.0352 34.9022 36.691 35.5772 37.5 35.5772Z" fill="black"/>
<path d="M69.1406 5.427H5.85938C2.62852 5.427 0 8.13208 0 11.457V34.0697C0 34.9023 0.655811 35.5772 1.46484 35.5772H30.9082C31.7172 35.5772 32.373 34.9023 32.373 34.0697C32.373 33.2371 31.7172 32.5622 30.9082 32.5622H11.7188V26.5321H63.2812V32.5622H44.0918C43.2829 32.5622 42.627 33.2371 42.627 34.0697C42.627 34.9023 43.2829 35.5772 44.0918 35.5772H73.5352C74.344 35.5772 75 34.9023 75 34.0697V11.457C75 8.13208 72.3715 5.427 69.1406 5.427ZM72.0703 32.5622H66.2109V25.0246C66.2109 24.192 65.555 23.5171 64.7461 23.5171H10.2539C9.44487 23.5171 8.78906 24.192 8.78906 25.0246V32.5622H2.92969V11.457C2.92969 9.79456 4.24395 8.44202 5.85938 8.44202H69.1406C70.7561 8.44202 72.0703 9.79456 72.0703 11.457V32.5622Z" fill="black"/>
</svg>
