<svg width="34" height="37" fill="none" xmlns="http://www.w3.org/2000/svg"><path d="M30.016 0H3.984C1.787 0 0 1.945 0 4.336v28.328C0 35.054 1.787 37 3.984 37h26.032C32.213 37 34 35.055 34 32.664V4.336C34 1.946 32.213 0 30.016 0zm1.328 32.664c0 .797-.596 1.445-1.328 1.445h-7.57V22.33h4.103l.678-4.48h-4.782v-3.108c0-1.227.865-2.168 1.992-2.168h2.723v-4.48h-2.723c-3.381 0-6.107 2.98-6.107 6.66v3.096h-3.986v4.48h3.986v11.78H3.984c-.732 0-1.328-.649-1.328-1.446V4.336c0-.797.596-1.445 1.328-1.445h26.032c.732 0 1.328.648 1.328 1.445v28.328z" fill="#000"/></svg>