<svg width="341" height="132" fill="none" xmlns="http://www.w3.org/2000/svg"><path d="M54.36 80.896c.72-.288 1.32-.432 1.8-.432.768 0 1.344.288 1.728.864.384.576.576 1.32.576 2.232 0 1.44-.36 2.664-1.08 3.672-.672 1.008-1.848 1.92-3.528 2.736-2.832 1.344-6.504 2.424-11.016 3.24-4.512.768-8.952 1.152-13.32 1.152-6.048 0-11.112-.672-15.192-2.016-4.08-1.392-7.128-3.288-9.144-5.688-1.968-2.4-2.952-5.112-2.952-8.136 0-4.128 1.32-7.632 3.96-10.512C8.88 65.08 12.816 62.968 18 61.672c-2.832-.816-5.016-2.256-6.552-4.32-1.488-2.064-2.232-4.368-2.232-6.912 0-3.456 1.08-6.504 3.24-9.144 2.208-2.688 5.16-4.752 8.856-6.192 3.696-1.44 7.752-2.16 12.168-2.16 5.952 0 10.416 1.296 13.392 3.888 2.976 2.544 4.464 5.856 4.464 9.936 0 2.832-.528 5.136-1.584 6.912-1.008 1.728-2.472 2.592-4.392 2.592-1.344 0-2.4-.288-3.168-.864-.768-.624-1.152-1.536-1.152-2.736 0-.816.12-1.704.36-2.664.24-1.584.36-2.664.36-3.24 0-1.728-.648-3.12-1.944-4.176-1.296-1.104-3.456-1.656-6.48-1.656-4.08 0-7.344.864-9.792 2.592-2.448 1.728-3.672 4.056-3.672 6.984 0 2.256.912 4.128 2.736 5.616 1.872 1.44 4.896 2.232 9.072 2.376 1.056.048 1.8.288 2.232.72.432.432.648 1.152.648 2.16 0 3.168-1.44 4.776-4.32 4.824-3.984.096-7.296.648-9.936 1.656-2.592 1.008-4.488 2.304-5.688 3.888-1.152 1.536-1.728 3.192-1.728 4.968 0 2.976 1.392 5.232 4.176 6.768 2.784 1.488 7.2 2.232 13.248 2.232 3.984 0 8.184-.456 12.6-1.368 4.464-.96 8.28-2.112 11.448-3.456zm40.071-2.952c.624 0 1.104.288 1.44.864.384.576.576 1.368.576 2.376 0 1.92-.456 3.408-1.368 4.464-2.16 2.64-4.344 4.752-6.552 6.336-2.208 1.584-4.824 2.376-7.848 2.376-3.696 0-6.672-1.056-8.928-3.168-2.256-2.112-3.384-4.92-3.384-8.424 0-1.872.96-3.216 2.88-4.032 2.112-.912 3.624-1.872 4.536-2.88.912-1.056 1.368-2.328 1.368-3.816 0-.864-.192-1.512-.576-1.944-.336-.432-.768-.648-1.296-.648-1.296 0-2.736.936-4.32 2.808-1.536 1.872-2.976 4.296-4.32 7.272a50.813 50.813 0 0 0-3.168 9.072c-.528 2.256-1.152 3.792-1.872 4.608-.672.768-1.752 1.152-3.24 1.152-1.488 0-2.592-.528-3.312-1.584-.672-1.104-1.128-2.784-1.368-5.04-.24-2.256-.36-5.568-.36-9.936 0-7.392.744-15.096 2.232-23.112 1.536-8.016 3.768-14.736 6.696-20.16 2.976-5.472 6.528-8.208 10.656-8.208 2.208 0 3.984.96 5.328 2.88 1.392 1.872 2.088 4.32 2.088 7.344 0 4.848-1.416 9.888-4.248 15.12-2.832 5.184-7.44 11.256-13.824 18.216a133.802 133.802 0 0 0-.216 7.704c2.304-6 4.944-10.344 7.92-13.032 2.976-2.736 5.76-4.104 8.352-4.104 2.4 0 4.32.816 5.76 2.448 1.488 1.632 2.232 3.648 2.232 6.048 0 2.64-.672 5.064-2.016 7.272-1.344 2.208-3.648 4.176-6.912 5.904.192 1.296.768 2.352 1.728 3.168 1.008.768 2.208 1.152 3.6 1.152 1.488 0 2.928-.576 4.32-1.728 1.392-1.152 3.216-3.072 5.472-5.76.576-.672 1.224-1.008 1.944-1.008zm-23.04-44.496c-.864 0-1.824 1.248-2.88 3.744-1.056 2.448-2.088 5.784-3.096 10.008-.96 4.176-1.752 8.736-2.376 13.68a50.536 50.536 0 0 0 7.344-11.448c1.968-4.128 2.952-7.872 2.952-11.232 0-1.536-.168-2.712-.504-3.528-.336-.816-.816-1.224-1.44-1.224zm32.645 62.496c-2.496 0-4.416-.576-5.76-1.728-1.296-1.152-1.944-2.448-1.944-3.888 0-1.248.456-2.328 1.368-3.24.912-.912 2.255-1.368 4.032-1.368.624 0 1.344.072 2.16.216l1.944.216a8.88 8.88 0 0 0-.864-3.528 15.261 15.261 0 0 0-1.872-3.168 39.154 39.154 0 0 0-2.16-2.736c-1.489 2.832-2.977 5.184-4.465 7.056a49.634 49.634 0 0 1-4.751 5.328c-.865.864-1.776 1.296-2.737 1.296-.767 0-1.391-.264-1.871-.792-.48-.576-.72-1.272-.72-2.088 0-.96.335-1.848 1.007-2.664l.936-1.152c2.64-3.264 4.633-5.952 5.977-8.064.816-1.392 1.775-3.24 2.88-5.544a207.13 207.13 0 0 0 3.24-7.272c.912-2.112 2.808-3.168 5.688-3.168 1.344 0 2.28.12 2.808.36s.792.624.792 1.152c0 .288-.096.744-.288 1.368a10.405 10.405 0 0 1-.792 1.872c-.864 1.728-1.296 3.192-1.296 4.392 0 .72.24 1.512.72 2.376.528.864 1.32 1.944 2.376 3.24 1.536 2.016 2.688 3.744 3.456 5.184.816 1.392 1.224 2.928 1.224 4.608 0 .48-.048 1.152-.144 2.016 2.352-.912 5.112-3.336 8.28-7.272.576-.672 1.224-1.008 1.943-1.008.625 0 1.105.288 1.441.864.384.576.576 1.368.576 2.376 0 1.824-.456 3.312-1.368 4.464-2.4 2.976-4.704 5.016-6.912 6.12-2.16 1.056-4.848 1.632-8.064 1.728-1.92 1.632-4.2 2.448-6.84 2.448zm58.95-18c.624 0 1.104.288 1.44.864.384.576.576 1.368.576 2.376 0 1.92-.456 3.408-1.368 4.464-2.16 2.64-4.344 4.752-6.552 6.336-2.208 1.584-4.824 2.376-7.848 2.376-3.696 0-6.672-1.056-8.928-3.168-2.256-2.112-3.384-4.92-3.384-8.424 0-1.872.96-3.216 2.88-4.032 2.112-.912 3.624-1.872 4.536-2.88.912-1.056 1.368-2.328 1.368-3.816 0-.864-.192-1.512-.576-1.944-.336-.432-.768-.648-1.296-.648-1.296 0-2.736.936-4.32 2.808-1.536 1.872-2.976 4.296-4.32 7.272a50.813 50.813 0 0 0-3.168 9.072c-.528 2.256-1.152 3.792-1.872 4.608-.672.768-1.752 1.152-3.24 1.152-1.488 0-2.592-.528-3.312-1.584-.672-1.104-1.128-2.784-1.368-5.04-.24-2.256-.36-5.568-.36-9.936 0-7.392.744-15.096 2.232-23.112 1.536-8.016 3.768-14.736 6.696-20.16 2.976-5.472 6.528-8.208 10.656-8.208 2.208 0 3.984.96 5.328 2.88 1.392 1.872 2.088 4.32 2.088 7.344 0 4.848-1.416 9.888-4.248 15.12-2.832 5.184-7.44 11.256-13.824 18.216a133.802 133.802 0 0 0-.216 7.704c2.304-6 4.944-10.344 7.92-13.032 2.976-2.736 5.76-4.104 8.352-4.104 2.4 0 4.32.816 5.76 2.448 1.488 1.632 2.232 3.648 2.232 6.048 0 2.64-.672 5.064-2.016 7.272-1.344 2.208-3.648 4.176-6.912 5.904.192 1.296.768 2.352 1.728 3.168 1.008.768 2.208 1.152 3.6 1.152 1.488 0 2.928-.576 4.32-1.728 1.392-1.152 3.216-3.072 5.472-5.76.576-.672 1.224-1.008 1.944-1.008zm-23.04-44.496c-.864 0-1.824 1.248-2.88 3.744-1.056 2.448-2.088 5.784-3.096 10.008-.96 4.176-1.752 8.736-2.376 13.68a50.536 50.536 0 0 0 7.344-11.448c1.968-4.128 2.952-7.872 2.952-11.232 0-1.536-.168-2.712-.504-3.528-.336-.816-.816-1.224-1.44-1.224zM164.31 94.36c-1.824 0-3.12-.96-3.888-2.88-.72-1.92-1.08-4.992-1.08-9.216 0-6.24.888-12.168 2.664-17.784.432-1.392 1.128-2.4 2.088-3.024 1.008-.672 2.4-1.008 4.176-1.008.96 0 1.632.12 2.016.36.384.24.576.696.576 1.368 0 .768-.36 2.496-1.08 5.184-.48 1.92-.864 3.6-1.152 5.04-.288 1.44-.528 3.216-.72 5.328 1.584-4.128 3.36-7.488 5.328-10.08 1.968-2.592 3.888-4.44 5.76-5.544 1.92-1.104 3.672-1.656 5.256-1.656 3.12 0 4.68 1.56 4.68 4.68 0 .624-.216 2.136-.648 4.536-.384 1.92-.576 3.12-.576 3.6 0 1.68.6 2.52 1.8 2.52 1.344 0 3.072-1.056 5.184-3.168.624-.624 1.272-.936 1.944-.936.624 0 1.104.288 1.44.864.384.528.576 1.248.576 2.16 0 1.776-.48 3.168-1.44 4.176-1.344 1.392-2.928 2.592-4.752 3.6a11.782 11.782 0 0 1-5.688 1.44c-2.544 0-4.488-.648-5.832-1.944-1.296-1.296-1.944-3.048-1.944-5.256 0-.72.072-1.44.216-2.16.096-.96.144-1.608.144-1.944 0-.768-.264-1.152-.792-1.152-.72 0-1.68.816-2.88 2.448-1.152 1.584-2.304 3.696-3.456 6.336a51.718 51.718 0 0 0-2.808 8.352c-.528 2.256-1.152 3.792-1.872 4.608-.672.768-1.752 1.152-3.24 1.152zm59.766-16.416c.624 0 1.104.288 1.44.864.384.576.576 1.368.576 2.376 0 1.92-.456 3.408-1.368 4.464-1.776 2.16-4.296 4.152-7.56 5.976a20.674 20.674 0 0 1-10.368 2.736c-5.04 0-8.952-1.368-11.736-4.104-2.784-2.736-4.176-6.48-4.176-11.232 0-3.312.696-6.384 2.088-9.216 1.392-2.88 3.312-5.16 5.76-6.84 2.496-1.68 5.304-2.52 8.424-2.52 2.784 0 5.016.84 6.696 2.52 1.68 1.632 2.52 3.864 2.52 6.696 0 3.312-1.2 6.168-3.6 8.568-2.352 2.352-6.36 4.224-12.024 5.616 1.2 2.208 3.48 3.312 6.84 3.312 2.16 0 4.608-.744 7.344-2.232a24.701 24.701 0 0 0 7.2-5.976c.576-.672 1.224-1.008 1.944-1.008zm-18.144-10.44c-1.776 0-3.288 1.032-4.536 3.096-1.2 2.064-1.8 4.56-1.8 7.488v.144c2.832-.672 5.064-1.68 6.696-3.024 1.632-1.344 2.448-2.904 2.448-4.68 0-.912-.264-1.632-.792-2.16-.48-.576-1.152-.864-2.016-.864zm52.601 4.392c.624 0 1.104.312 1.44.936.336.624.504 1.416.504 2.376 0 1.2-.168 2.136-.504 2.808-.336.624-.864 1.056-1.584 1.296-2.88 1.008-6.048 1.584-9.504 1.728-.96 3.984-2.784 7.2-5.472 9.648-2.64 2.448-5.568 3.672-8.784 3.672-4.848 0-8.376-1.848-10.584-5.544-2.208-3.696-3.312-9.048-3.312-16.056 0-6.192.768-12.912 2.304-20.16 1.536-7.296 3.768-13.488 6.696-18.576 2.976-5.136 6.504-7.704 10.584-7.704 2.208 0 3.984.96 5.328 2.88 1.344 1.872 2.016 4.32 2.016 7.344 0 3.936-.744 7.848-2.232 11.736-1.488 3.888-3.96 7.968-7.416 12.24 3.216.24 5.832 1.584 7.848 4.032 2.016 2.4 3.216 5.376 3.6 8.928 2.256-.144 4.944-.624 8.064-1.44a3.191 3.191 0 0 1 1.008-.144zm-19.872-38.448c-.96 0-2.016 1.44-3.168 4.32-1.104 2.832-2.136 6.696-3.096 11.592-.96 4.896-1.68 10.248-2.16 16.056 3.168-5.808 5.688-10.92 7.56-15.336 1.92-4.464 2.88-8.424 2.88-11.88 0-1.536-.192-2.712-.576-3.528-.336-.816-.816-1.224-1.44-1.224zm-3.744 53.28c1.488 0 2.808-.624 3.96-1.872 1.152-1.248 1.92-3.048 2.304-5.4a10.218 10.218 0 0 1-3.456-3.96 12.027 12.027 0 0 1-1.152-5.184c0-.672.096-1.584.288-2.736h-.216c-1.968 0-3.624.984-4.968 2.952-1.296 1.92-1.944 4.512-1.944 7.776 0 2.736.504 4.824 1.512 6.264 1.056 1.44 2.28 2.16 3.672 2.16zm26.688 7.632c-2.16 0-3.936-.984-5.328-2.952-1.344-2.016-2.016-4.512-2.016-7.488 0-3.6.24-6.888.72-9.864.48-3.024 1.272-6.216 2.376-9.576.48-1.44 1.152-2.472 2.016-3.096.864-.624 2.232-.936 4.104-.936 1.056 0 1.776.168 2.16.504.432.336.648.84.648 1.512 0 .384-.264 1.68-.792 3.888a75.21 75.21 0 0 0-1.152 4.824c-.96 5.04-1.44 8.4-1.44 10.08 0 1.008.12 1.728.36 2.16.24.384.624.576 1.152.576.72 0 1.608-.72 2.664-2.16 1.104-1.44 2.256-3.624 3.456-6.552 1.248-2.928 2.448-6.528 3.6-10.8.384-1.44.96-2.472 1.728-3.096.816-.624 2.016-.936 3.6-.936 1.104 0 1.872.144 2.304.432.432.24.648.72.648 1.44 0 1.2-.6 4.488-1.8 9.864-1.344 6.144-2.016 9.936-2.016 11.376 0 .912.192 1.632.576 2.16.384.48.888.72 1.512.72.96 0 2.088-.576 3.384-1.728 1.344-1.2 3.12-3.12 5.328-5.76.576-.672 1.224-1.008 1.944-1.008.624 0 1.104.288 1.44.864.384.576.576 1.368.576 2.376 0 1.92-.456 3.408-1.368 4.464-2.064 2.544-4.296 4.632-6.696 6.264-2.352 1.632-5.04 2.448-8.064 2.448-2.304 0-4.008-.888-5.112-2.664-1.056-1.776-1.584-4.272-1.584-7.488-.816 3.264-2.04 5.784-3.672 7.56-1.632 1.728-3.384 2.592-5.256 2.592zm46.722-10.512c.528-.48 1.056-.72 1.584-.72.576 0 1.032.336 1.368 1.008.384.624.576 1.392.576 2.304 0 2.016-.72 3.624-2.16 4.824-2.496 2.064-5.328 3.096-8.496 3.096-4.56 0-7.896-1.896-10.008-5.688-2.112-3.84-3.168-8.832-3.168-14.976 0-5.856.744-12.528 2.232-20.016 1.536-7.488 3.768-13.92 6.696-19.296 2.976-5.376 6.504-8.064 10.584-8.064 2.304 0 4.104 1.08 5.4 3.24 1.344 2.112 2.016 5.16 2.016 9.144 0 5.712-1.584 12.336-4.752 19.872-3.12 7.536-7.392 14.976-12.816 22.32.336 1.968.936 3.384 1.8 4.248.864.864 2.04 1.296 3.528 1.296.816 0 1.728-.24 2.736-.72a11.428 11.428 0 0 0 2.88-1.872zm-2.376-50.4c-1.104 0-2.352 1.992-3.744 5.976-1.392 3.984-2.616 8.928-3.672 14.832s-1.632 11.568-1.728 16.992c3.408-5.616 6.12-11.232 8.136-16.848 2.016-5.664 3.024-10.824 3.024-15.48 0-3.648-.672-5.472-2.016-5.472zM140.837 132c-5.869 0-8.859-2.773-11.497-5.221-2.381-2.209-4.263-3.955-8.283-3.955-4.021 0-5.902 1.746-8.284 3.955-2.638 2.448-5.627 5.221-11.497 5.221s-8.859-2.773-11.497-5.221c-2.381-2.209-4.263-3.955-8.283-3.955s-5.901 1.746-8.283 3.955C70.576 129.227 67.586 132 61.716 132c-5.869 0-8.857-2.773-11.495-5.221-2.381-2.209-4.262-3.955-8.282-3.955-4.02 0-5.9 1.746-8.282 3.955C31.019 129.227 28.029 132 22.16 132c-5.87 0-8.86-2.773-11.497-5.221-2.382-2.209-4.263-3.955-8.283-3.955-1.314 0-2.38-1.08-2.38-2.412C0 119.08 1.066 118 2.38 118c5.869 0 8.859 2.773 11.497 5.221 2.381 2.209 4.263 3.955 8.283 3.955s5.901-1.746 8.283-3.955C33.08 120.773 36.07 118 41.939 118c5.87 0 8.858 2.773 11.496 5.221 2.381 2.209 4.262 3.955 8.281 3.955 4.02 0 5.902-1.746 8.284-3.955 2.637-2.448 5.627-5.221 11.496-5.221 5.87 0 8.859 2.773 11.497 5.221 2.382 2.209 4.263 3.955 8.283 3.955 4.021 0 5.902-1.746 8.284-3.955 2.637-2.448 5.627-5.221 11.497-5.221s8.859 2.773 11.497 5.221c2.382 2.209 4.263 3.955 8.283 3.955 4.021 0 5.903-1.746 8.285-3.955 2.638-2.448 5.628-5.221 11.498-5.221 1.314 0 2.38 1.08 2.38 2.412 0 1.332-1.066 2.412-2.38 2.412-4.021 0-5.902 1.746-8.285 3.955-2.638 2.448-5.627 5.221-11.498 5.221z" fill="#CBEBF8"/><path d="M299.837 132c-5.869 0-8.859-2.773-11.497-5.221-2.381-2.209-4.263-3.955-8.283-3.955-4.021 0-5.902 1.746-8.284 3.955-2.638 2.448-5.627 5.221-11.497 5.221s-8.859-2.773-11.497-5.221c-2.381-2.209-4.263-3.955-8.283-3.955s-5.901 1.746-8.283 3.955c-2.637 2.448-5.627 5.221-11.497 5.221-5.869 0-8.857-2.773-11.495-5.221-2.381-2.209-4.262-3.955-8.282-3.955-4.02 0-5.901 1.746-8.283 3.955-2.637 2.448-5.627 5.221-11.496 5.221-5.87 0-8.859-2.773-11.497-5.221-2.382-2.209-4.263-3.955-8.283-3.955-1.314 0-2.38-1.08-2.38-2.412 0-1.332 1.066-2.412 2.38-2.412 5.869 0 8.859 2.773 11.496 5.221 2.382 2.209 4.264 3.955 8.284 3.955 4.02 0 5.901-1.746 8.283-3.955 2.637-2.448 5.627-5.221 11.496-5.221 5.869 0 8.858 2.773 11.496 5.221 2.381 2.209 4.262 3.955 8.281 3.955 4.021 0 5.902-1.746 8.284-3.955 2.637-2.448 5.627-5.221 11.496-5.221 5.87 0 8.859 2.773 11.497 5.221 2.382 2.209 4.263 3.955 8.283 3.955 4.021 0 5.902-1.746 8.284-3.955 2.637-2.448 5.627-5.221 11.497-5.221s8.859 2.773 11.497 5.221c2.382 2.209 4.263 3.955 8.283 3.955 4.021 0 5.903-1.746 8.285-3.955 2.638-2.448 5.628-5.221 11.498-5.221 1.314 0 2.38 1.08 2.38 2.412 0 1.332-1.066 2.412-2.38 2.412-4.021 0-5.902 1.746-8.285 3.955-2.638 2.448-5.627 5.221-11.498 5.221z" fill="#CBEBF8"/></svg>