<svg width="341" height="132" viewBox="0 0 341 132" fill="none" xmlns="http://www.w3.org/2000/svg">
<path d="M54.36 80.896C55.08 80.608 55.68 80.464 56.16 80.464C56.928 80.464 57.504 80.752 57.888 81.328C58.272 81.904 58.464 82.648 58.464 83.56C58.464 85 58.104 86.224 57.384 87.232C56.712 88.24 55.536 89.152 53.856 89.968C51.024 91.312 47.352 92.392 42.84 93.208C38.328 93.976 33.888 94.36 29.52 94.36C23.472 94.36 18.408 93.688 14.328 92.344C10.248 90.952 7.2 89.056 5.184 86.656C3.216 84.256 2.232 81.544 2.232 78.52C2.232 74.392 3.552 70.888 6.192 68.008C8.88 65.08 12.816 62.968 18 61.672C15.168 60.856 12.984 59.416 11.448 57.352C9.96 55.288 9.216 52.984 9.216 50.44C9.216 46.984 10.296 43.936 12.456 41.296C14.664 38.608 17.616 36.544 21.312 35.104C25.008 33.664 29.064 32.944 33.48 32.944C39.432 32.944 43.896 34.24 46.872 36.832C49.848 39.376 51.336 42.688 51.336 46.768C51.336 49.6 50.808 51.904 49.752 53.68C48.744 55.408 47.28 56.272 45.36 56.272C44.016 56.272 42.96 55.984 42.192 55.408C41.424 54.784 41.04 53.872 41.04 52.672C41.04 51.856 41.16 50.968 41.4 50.008C41.64 48.424 41.76 47.344 41.76 46.768C41.76 45.04 41.112 43.648 39.816 42.592C38.52 41.488 36.36 40.936 33.336 40.936C29.256 40.936 25.992 41.8 23.544 43.528C21.096 45.256 19.872 47.584 19.872 50.512C19.872 52.768 20.784 54.64 22.608 56.128C24.48 57.568 27.504 58.36 31.68 58.504C32.736 58.552 33.48 58.792 33.912 59.224C34.344 59.656 34.56 60.376 34.56 61.384C34.56 64.552 33.12 66.16 30.24 66.208C26.256 66.304 22.944 66.856 20.304 67.864C17.712 68.872 15.816 70.168 14.616 71.752C13.464 73.288 12.888 74.944 12.888 76.72C12.888 79.696 14.28 81.952 17.064 83.488C19.848 84.976 24.264 85.72 30.312 85.72C34.296 85.72 38.496 85.264 42.912 84.352C47.376 83.392 51.192 82.24 54.36 80.896ZM94.4314 77.944C95.0554 77.944 95.5354 78.232 95.8714 78.808C96.2554 79.384 96.4474 80.176 96.4474 81.184C96.4474 83.104 95.9914 84.592 95.0794 85.648C92.9194 88.288 90.7354 90.4 88.5274 91.984C86.3194 93.568 83.7034 94.36 80.6794 94.36C76.9834 94.36 74.0074 93.304 71.7514 91.192C69.4954 89.08 68.3674 86.272 68.3674 82.768C68.3674 80.896 69.3274 79.552 71.2474 78.736C73.3594 77.824 74.8714 76.864 75.7834 75.856C76.6954 74.8 77.1514 73.528 77.1514 72.04C77.1514 71.176 76.9594 70.528 76.5754 70.096C76.2394 69.664 75.8074 69.448 75.2794 69.448C73.9834 69.448 72.5434 70.384 70.9594 72.256C69.4234 74.128 67.9834 76.552 66.6394 79.528C65.2954 82.456 64.2394 85.48 63.4714 88.6C62.9434 90.856 62.3194 92.392 61.5994 93.208C60.9274 93.976 59.8474 94.36 58.3594 94.36C56.8714 94.36 55.7674 93.832 55.0474 92.776C54.3754 91.672 53.9194 89.992 53.6794 87.736C53.4394 85.48 53.3194 82.168 53.3194 77.8C53.3194 70.408 54.0634 62.704 55.5514 54.688C57.0874 46.672 59.3194 39.952 62.2474 34.528C65.2234 29.056 68.7754 26.32 72.9034 26.32C75.1114 26.32 76.8874 27.28 78.2314 29.2C79.6234 31.072 80.3194 33.52 80.3194 36.544C80.3194 41.392 78.9034 46.432 76.0714 51.664C73.2394 56.848 68.6314 62.92 62.2474 69.88C62.1034 72.376 62.0314 74.944 62.0314 77.584C64.3354 71.584 66.9754 67.24 69.9514 64.552C72.9274 61.816 75.7114 60.448 78.3034 60.448C80.7034 60.448 82.6234 61.264 84.0634 62.896C85.5514 64.528 86.2954 66.544 86.2954 68.944C86.2954 71.584 85.6234 74.008 84.2794 76.216C82.9354 78.424 80.6314 80.392 77.3674 82.12C77.5594 83.416 78.1354 84.472 79.0954 85.288C80.1034 86.056 81.3034 86.44 82.6954 86.44C84.1834 86.44 85.6234 85.864 87.0154 84.712C88.4074 83.56 90.2314 81.64 92.4874 78.952C93.0634 78.28 93.7114 77.944 94.4314 77.944ZM71.3914 33.448C70.5274 33.448 69.5674 34.696 68.5114 37.192C67.4554 39.64 66.4234 42.976 65.4154 47.2C64.4554 51.376 63.6634 55.936 63.0394 60.88C66.0154 57.376 68.4634 53.56 70.3834 49.432C72.3514 45.304 73.3354 41.56 73.3354 38.2C73.3354 36.664 73.1674 35.488 72.8314 34.672C72.4954 33.856 72.0154 33.448 71.3914 33.448ZM104.036 95.944C101.54 95.944 99.6195 95.368 98.2755 94.216C96.9795 93.064 96.3315 91.768 96.3315 90.328C96.3315 89.08 96.7875 88 97.6995 87.088C98.6115 86.176 99.9555 85.72 101.732 85.72C102.356 85.72 103.076 85.792 103.892 85.936C104.756 86.032 105.404 86.104 105.836 86.152C105.788 84.904 105.5 83.728 104.972 82.624C104.492 81.52 103.868 80.464 103.1 79.456C102.332 78.4 101.612 77.488 100.94 76.72C99.4515 79.552 97.9635 81.904 96.4755 83.776C95.0355 85.648 93.4515 87.424 91.7235 89.104C90.8595 89.968 89.9475 90.4 88.9875 90.4C88.2195 90.4 87.5955 90.136 87.1155 89.608C86.6355 89.032 86.3955 88.336 86.3955 87.52C86.3955 86.56 86.7315 85.672 87.4035 84.856L88.3395 83.704C90.9795 80.44 92.9715 77.752 94.3155 75.64C95.1315 74.248 96.0915 72.4 97.1955 70.096C98.2995 67.744 99.3795 65.32 100.436 62.824C101.348 60.712 103.244 59.656 106.124 59.656C107.468 59.656 108.404 59.776 108.932 60.016C109.46 60.256 109.724 60.64 109.724 61.168C109.724 61.456 109.628 61.912 109.436 62.536C109.244 63.16 108.98 63.784 108.644 64.408C107.78 66.136 107.348 67.6 107.348 68.8C107.348 69.52 107.588 70.312 108.068 71.176C108.596 72.04 109.388 73.12 110.444 74.416C111.98 76.432 113.132 78.16 113.9 79.6C114.716 80.992 115.124 82.528 115.124 84.208C115.124 84.688 115.076 85.36 114.98 86.224C117.332 85.312 120.092 82.888 123.26 78.952C123.836 78.28 124.484 77.944 125.203 77.944C125.828 77.944 126.308 78.232 126.644 78.808C127.028 79.384 127.22 80.176 127.22 81.184C127.22 83.008 126.764 84.496 125.852 85.648C123.452 88.624 121.148 90.664 118.94 91.768C116.78 92.824 114.092 93.4 110.876 93.496C108.956 95.128 106.676 95.944 104.036 95.944ZM162.986 77.944C163.61 77.944 164.09 78.232 164.426 78.808C164.81 79.384 165.002 80.176 165.002 81.184C165.002 83.104 164.546 84.592 163.634 85.648C161.474 88.288 159.29 90.4 157.082 91.984C154.874 93.568 152.258 94.36 149.234 94.36C145.538 94.36 142.562 93.304 140.306 91.192C138.05 89.08 136.922 86.272 136.922 82.768C136.922 80.896 137.882 79.552 139.802 78.736C141.914 77.824 143.426 76.864 144.338 75.856C145.25 74.8 145.706 73.528 145.706 72.04C145.706 71.176 145.514 70.528 145.13 70.096C144.794 69.664 144.362 69.448 143.834 69.448C142.538 69.448 141.098 70.384 139.514 72.256C137.978 74.128 136.538 76.552 135.194 79.528C133.85 82.456 132.794 85.48 132.026 88.6C131.498 90.856 130.874 92.392 130.154 93.208C129.482 93.976 128.402 94.36 126.914 94.36C125.426 94.36 124.322 93.832 123.602 92.776C122.93 91.672 122.474 89.992 122.234 87.736C121.994 85.48 121.874 82.168 121.874 77.8C121.874 70.408 122.618 62.704 124.106 54.688C125.642 46.672 127.874 39.952 130.802 34.528C133.778 29.056 137.33 26.32 141.458 26.32C143.666 26.32 145.442 27.28 146.786 29.2C148.178 31.072 148.874 33.52 148.874 36.544C148.874 41.392 147.458 46.432 144.626 51.664C141.794 56.848 137.186 62.92 130.802 69.88C130.658 72.376 130.586 74.944 130.586 77.584C132.89 71.584 135.53 67.24 138.506 64.552C141.482 61.816 144.266 60.448 146.858 60.448C149.258 60.448 151.178 61.264 152.618 62.896C154.106 64.528 154.85 66.544 154.85 68.944C154.85 71.584 154.178 74.008 152.834 76.216C151.49 78.424 149.186 80.392 145.922 82.12C146.114 83.416 146.69 84.472 147.65 85.288C148.658 86.056 149.858 86.44 151.25 86.44C152.738 86.44 154.178 85.864 155.57 84.712C156.962 83.56 158.786 81.64 161.042 78.952C161.618 78.28 162.266 77.944 162.986 77.944ZM139.946 33.448C139.082 33.448 138.122 34.696 137.066 37.192C136.01 39.64 134.978 42.976 133.97 47.2C133.01 51.376 132.218 55.936 131.594 60.88C134.57 57.376 137.018 53.56 138.938 49.432C140.906 45.304 141.89 41.56 141.89 38.2C141.89 36.664 141.722 35.488 141.386 34.672C141.05 33.856 140.57 33.448 139.946 33.448ZM164.31 94.36C162.486 94.36 161.19 93.4 160.422 91.48C159.702 89.56 159.342 86.488 159.342 82.264C159.342 76.024 160.23 70.096 162.006 64.48C162.438 63.088 163.134 62.08 164.094 61.456C165.102 60.784 166.494 60.448 168.27 60.448C169.23 60.448 169.902 60.568 170.286 60.808C170.67 61.048 170.862 61.504 170.862 62.176C170.862 62.944 170.502 64.672 169.782 67.36C169.302 69.28 168.918 70.96 168.63 72.4C168.342 73.84 168.102 75.616 167.91 77.728C169.494 73.6 171.27 70.24 173.238 67.648C175.206 65.056 177.126 63.208 178.998 62.104C180.918 61 182.67 60.448 184.254 60.448C187.374 60.448 188.934 62.008 188.934 65.128C188.934 65.752 188.718 67.264 188.286 69.664C187.902 71.584 187.71 72.784 187.71 73.264C187.71 74.944 188.31 75.784 189.51 75.784C190.854 75.784 192.582 74.728 194.694 72.616C195.318 71.992 195.966 71.68 196.638 71.68C197.262 71.68 197.742 71.968 198.078 72.544C198.462 73.072 198.654 73.792 198.654 74.704C198.654 76.48 198.174 77.872 197.214 78.88C195.87 80.272 194.286 81.472 192.462 82.48C190.686 83.44 188.79 83.92 186.774 83.92C184.23 83.92 182.286 83.272 180.942 81.976C179.646 80.68 178.998 78.928 178.998 76.72C178.998 76 179.07 75.28 179.214 74.56C179.31 73.6 179.358 72.952 179.358 72.616C179.358 71.848 179.094 71.464 178.566 71.464C177.846 71.464 176.886 72.28 175.686 73.912C174.534 75.496 173.382 77.608 172.23 80.248C171.078 82.888 170.142 85.672 169.422 88.6C168.894 90.856 168.27 92.392 167.55 93.208C166.878 93.976 165.798 94.36 164.31 94.36ZM224.076 77.944C224.7 77.944 225.18 78.232 225.516 78.808C225.9 79.384 226.092 80.176 226.092 81.184C226.092 83.104 225.636 84.592 224.724 85.648C222.948 87.808 220.428 89.8 217.164 91.624C213.948 93.448 210.492 94.36 206.796 94.36C201.756 94.36 197.844 92.992 195.06 90.256C192.276 87.52 190.884 83.776 190.884 79.024C190.884 75.712 191.58 72.64 192.972 69.808C194.364 66.928 196.284 64.648 198.732 62.968C201.228 61.288 204.036 60.448 207.156 60.448C209.94 60.448 212.172 61.288 213.852 62.968C215.532 64.6 216.372 66.832 216.372 69.664C216.372 72.976 215.172 75.832 212.772 78.232C210.42 80.584 206.412 82.456 200.748 83.848C201.948 86.056 204.228 87.16 207.588 87.16C209.748 87.16 212.196 86.416 214.932 84.928C217.716 83.392 220.116 81.4 222.132 78.952C222.708 78.28 223.356 77.944 224.076 77.944ZM205.932 67.504C204.156 67.504 202.644 68.536 201.396 70.6C200.196 72.664 199.596 75.16 199.596 78.088V78.232C202.428 77.56 204.66 76.552 206.292 75.208C207.924 73.864 208.74 72.304 208.74 70.528C208.74 69.616 208.476 68.896 207.948 68.368C207.468 67.792 206.796 67.504 205.932 67.504ZM258.533 71.896C259.157 71.896 259.637 72.208 259.973 72.832C260.309 73.456 260.477 74.248 260.477 75.208C260.477 76.408 260.309 77.344 259.973 78.016C259.637 78.64 259.109 79.072 258.389 79.312C255.509 80.32 252.341 80.896 248.885 81.04C247.925 85.024 246.101 88.24 243.413 90.688C240.773 93.136 237.845 94.36 234.629 94.36C229.781 94.36 226.253 92.512 224.045 88.816C221.837 85.12 220.733 79.768 220.733 72.76C220.733 66.568 221.501 59.848 223.037 52.6C224.573 45.304 226.805 39.112 229.733 34.024C232.709 28.888 236.237 26.32 240.317 26.32C242.525 26.32 244.301 27.28 245.645 29.2C246.989 31.072 247.661 33.52 247.661 36.544C247.661 40.48 246.917 44.392 245.429 48.28C243.941 52.168 241.469 56.248 238.013 60.52C241.229 60.76 243.845 62.104 245.861 64.552C247.877 66.952 249.077 69.928 249.461 73.48C251.717 73.336 254.405 72.856 257.525 72.04C257.813 71.944 258.149 71.896 258.533 71.896ZM238.661 33.448C237.701 33.448 236.645 34.888 235.493 37.768C234.389 40.6 233.357 44.464 232.397 49.36C231.437 54.256 230.717 59.608 230.237 65.416C233.405 59.608 235.925 54.496 237.797 50.08C239.717 45.616 240.677 41.656 240.677 38.2C240.677 36.664 240.485 35.488 240.101 34.672C239.765 33.856 239.285 33.448 238.661 33.448ZM234.917 86.728C236.405 86.728 237.725 86.104 238.877 84.856C240.029 83.608 240.797 81.808 241.181 79.456C239.693 78.448 238.541 77.128 237.725 75.496C236.957 73.864 236.573 72.136 236.573 70.312C236.573 69.64 236.669 68.728 236.861 67.576H236.645C234.677 67.576 233.021 68.56 231.677 70.528C230.381 72.448 229.733 75.04 229.733 78.304C229.733 81.04 230.237 83.128 231.245 84.568C232.301 86.008 233.525 86.728 234.917 86.728ZM261.605 94.36C259.445 94.36 257.669 93.376 256.277 91.408C254.933 89.392 254.261 86.896 254.261 83.92C254.261 80.32 254.501 77.032 254.981 74.056C255.461 71.032 256.253 67.84 257.357 64.48C257.837 63.04 258.509 62.008 259.373 61.384C260.237 60.76 261.605 60.448 263.477 60.448C264.533 60.448 265.253 60.616 265.637 60.952C266.069 61.288 266.285 61.792 266.285 62.464C266.285 62.848 266.021 64.144 265.493 66.352C265.013 68.128 264.629 69.736 264.341 71.176C263.381 76.216 262.901 79.576 262.901 81.256C262.901 82.264 263.021 82.984 263.261 83.416C263.501 83.8 263.885 83.992 264.413 83.992C265.133 83.992 266.021 83.272 267.077 81.832C268.181 80.392 269.333 78.208 270.533 75.28C271.781 72.352 272.981 68.752 274.133 64.48C274.517 63.04 275.093 62.008 275.861 61.384C276.677 60.76 277.877 60.448 279.461 60.448C280.565 60.448 281.333 60.592 281.765 60.88C282.197 61.12 282.413 61.6 282.413 62.32C282.413 63.52 281.813 66.808 280.613 72.184C279.269 78.328 278.597 82.12 278.597 83.56C278.597 84.472 278.789 85.192 279.173 85.72C279.557 86.2 280.061 86.44 280.685 86.44C281.645 86.44 282.773 85.864 284.069 84.712C285.413 83.512 287.189 81.592 289.397 78.952C289.973 78.28 290.621 77.944 291.341 77.944C291.965 77.944 292.445 78.232 292.781 78.808C293.165 79.384 293.357 80.176 293.357 81.184C293.357 83.104 292.901 84.592 291.989 85.648C289.925 88.192 287.693 90.28 285.293 91.912C282.941 93.544 280.253 94.36 277.229 94.36C274.925 94.36 273.221 93.472 272.117 91.696C271.061 89.92 270.533 87.424 270.533 84.208C269.717 87.472 268.493 89.992 266.861 91.768C265.229 93.496 263.477 94.36 261.605 94.36ZM308.327 83.848C308.855 83.368 309.383 83.128 309.911 83.128C310.487 83.128 310.943 83.464 311.279 84.136C311.663 84.76 311.855 85.528 311.855 86.44C311.855 88.456 311.135 90.064 309.695 91.264C307.199 93.328 304.367 94.36 301.199 94.36C296.639 94.36 293.303 92.464 291.191 88.672C289.079 84.832 288.023 79.84 288.023 73.696C288.023 67.84 288.767 61.168 290.255 53.68C291.791 46.192 294.023 39.76 296.951 34.384C299.927 29.008 303.455 26.32 307.535 26.32C309.839 26.32 311.639 27.4 312.935 29.56C314.279 31.672 314.951 34.72 314.951 38.704C314.951 44.416 313.367 51.04 310.199 58.576C307.079 66.112 302.807 73.552 297.383 80.896C297.719 82.864 298.319 84.28 299.183 85.144C300.047 86.008 301.223 86.44 302.711 86.44C303.527 86.44 304.439 86.2 305.447 85.72C306.503 85.24 307.463 84.616 308.327 83.848ZM305.951 33.448C304.847 33.448 303.599 35.44 302.207 39.424C300.815 43.408 299.591 48.352 298.535 54.256C297.479 60.16 296.903 65.824 296.807 71.248C300.215 65.632 302.927 60.016 304.943 54.4C306.959 48.736 307.967 43.576 307.967 38.92C307.967 35.272 307.295 33.448 305.951 33.448Z" fill="#CBEBF8"/>
<path d="M140.837 132C134.968 132 131.978 129.227 129.34 126.779C126.959 124.57 125.077 122.824 121.057 122.824C117.036 122.824 115.155 124.57 112.773 126.779C110.135 129.227 107.146 132 101.276 132C95.4062 132 92.417 129.227 89.7792 126.779C87.3976 124.57 85.5164 122.824 81.496 122.824C77.476 122.824 75.5949 124.57 73.2133 126.779C70.5759 129.227 67.5862 132 61.7164 132C55.8474 132 52.8586 129.227 50.2212 126.779C47.8399 124.57 45.9588 122.824 41.9392 122.824C37.9192 122.824 36.0381 124.57 33.6565 126.779C31.019 129.227 28.0294 132 22.16 132C16.2902 132 13.3006 129.227 10.6628 126.779C8.28116 124.57 6.39965 122.824 2.37964 122.824C1.06568 122.824 0 121.744 0 120.412C0 119.08 1.06568 118 2.37964 118C8.24903 118 11.2387 120.773 13.8765 123.221C16.2581 125.43 18.1396 127.176 22.16 127.176C26.18 127.176 28.0611 125.43 30.4428 123.221C33.0802 120.773 36.0698 118 41.9392 118C47.8082 118 50.7974 120.773 53.4349 123.221C55.8161 125.43 57.6968 127.176 61.7164 127.176C65.7368 127.176 67.618 125.43 69.9996 123.221C72.637 120.773 75.6266 118 81.496 118C87.3658 118 90.355 120.773 92.9929 123.221C95.3745 125.43 97.256 127.176 101.276 127.176C105.297 127.176 107.178 125.43 109.56 123.221C112.197 120.773 115.187 118 121.057 118C126.927 118 129.916 120.773 132.554 123.221C134.936 125.43 136.817 127.176 140.837 127.176C144.858 127.176 146.74 125.43 149.122 123.221C151.76 120.773 154.75 118 160.62 118C161.934 118 163 119.08 163 120.412C163 121.744 161.934 122.824 160.62 122.824C156.599 122.824 154.718 124.57 152.335 126.779C149.697 129.227 146.708 132 140.837 132Z" fill="#CBEBF8"/>
<path d="M299.837 132C293.968 132 290.978 129.227 288.34 126.779C285.959 124.57 284.077 122.824 280.057 122.824C276.036 122.824 274.155 124.57 271.773 126.779C269.135 129.227 266.146 132 260.276 132C254.406 132 251.417 129.227 248.779 126.779C246.398 124.57 244.516 122.824 240.496 122.824C236.476 122.824 234.595 124.57 232.213 126.779C229.576 129.227 226.586 132 220.716 132C214.847 132 211.859 129.227 209.221 126.779C206.84 124.57 204.959 122.824 200.939 122.824C196.919 122.824 195.038 124.57 192.656 126.779C190.019 129.227 187.029 132 181.16 132C175.29 132 172.301 129.227 169.663 126.779C167.281 124.57 165.4 122.824 161.38 122.824C160.066 122.824 159 121.744 159 120.412C159 119.08 160.066 118 161.38 118C167.249 118 170.239 120.773 172.876 123.221C175.258 125.43 177.14 127.176 181.16 127.176C185.18 127.176 187.061 125.43 189.443 123.221C192.08 120.773 195.07 118 200.939 118C206.808 118 209.797 120.773 212.435 123.221C214.816 125.43 216.697 127.176 220.716 127.176C224.737 127.176 226.618 125.43 229 123.221C231.637 120.773 234.627 118 240.496 118C246.366 118 249.355 120.773 251.993 123.221C254.375 125.43 256.256 127.176 260.276 127.176C264.297 127.176 266.178 125.43 268.56 123.221C271.197 120.773 274.187 118 280.057 118C285.927 118 288.916 120.773 291.554 123.221C293.936 125.43 295.817 127.176 299.837 127.176C303.858 127.176 305.74 125.43 308.122 123.221C310.76 120.773 313.75 118 319.62 118C320.934 118 322 119.08 322 120.412C322 121.744 320.934 122.824 319.62 122.824C315.599 122.824 313.718 124.57 311.335 126.779C308.697 129.227 305.708 132 299.837 132Z" fill="#CBEBF8"/>
</svg>
