<svg width="52" height="52" fill="none" xmlns="http://www.w3.org/2000/svg"><path d="M26 0C11.64 0 0 11.64 0 26s11.64 26 26 26 26-11.64 26-26C51.984 11.647 40.353.016 26 0zm0 50.267C12.598 50.267 1.733 39.402 1.733 26S12.598 1.733 26 1.733 50.267 12.598 50.267 26C50.25 39.396 39.396 50.251 26 50.267z" fill="#000"/><path d="M40.914 9.473a.867.867 0 0 0-.303-.625A22.51 22.51 0 0 0 8.71 11.57a.674.674 0 0 0-.073.087c-6.973 8.422-6.884 20.637.21 28.957a.867.867 0 0 0 .626.303h.034c.23 0 .45-.091.613-.254l30.541-30.541a.867.867 0 0 0 .253-.65zM9.572 38.757a20.766 20.766 0 0 1 .056-25.566l5.502 1.832 2.04 4.755c.06.138.154.258.275.347l1.916 1.442c-1.743-.244-3.525-.52-4.883-.792a43.906 43.906 0 0 1-2.06-.478c-2.034-.508-3.64-.908-4.702-.08a2.553 2.553 0 0 0-.852 2.143c0 1.424.588 5.918 7.676 6.613l-1.092 1.144a.855.855 0 0 0-.217.4l-1.4 5.98-2.259 2.26zM23.4 19.917a.867.867 0 1 1 1.733 0 .873.873 0 0 1-.015.117c-.48.11-.935.306-1.346.577a.842.842 0 0 1-.372-.693zm4.52.494a4.053 4.053 0 0 0-1.04-.374.81.81 0 0 1-.013-.121.859.859 0 0 1 .866-.85.85.85 0 0 1 .83.7l-.643.645zm-4.48 4.479a2.746 2.746 0 0 1 2.573-3.223c.194.002.386.029.572.079l-3.144 3.144zm-6.597 4.18a43.588 43.588 0 0 0 2.508-.086l-5.2 5.196.71-3.034 1.982-2.075zm4.454-2.037a35.028 35.028 0 0 1-4.83.31c-.222 0-.434-.007-.656-.017-4.584-.152-7.214-1.962-7.214-4.966-.036-.27.03-.545.186-.77.396-.309 1.96.082 3.216.396.67.168 1.387.346 2.138.495 2.11.426 5.187.851 7.614 1.158-.056.29-.085.586-.087.882-.001.345.036.688.113 1.025.056.262.137.518.24.764l-.72.723zm8.58-8.58a2.563 2.563 0 0 0-3.01-.961v-5.359a.867.867 0 0 0-1.734 0v5.359a2.577 2.577 0 0 0-2.79 4.16l-3.671-2.763-2.102-4.901a.867.867 0 0 0-.52-.481l-5.2-1.733c7.337-7.833 19.432-8.787 27.907-2.2l-8.88 8.88zM41.88 11.339l-24.331 24.33-6.21 6.21a.867.867 0 0 0 .05 1.272 22.516 22.516 0 0 0 32.624-3.631c.01-.01.023-.014.032-.024a.716.716 0 0 0 .036-.066 22.508 22.508 0 0 0-.929-28.043.866.866 0 0 0-.625-.303.894.894 0 0 0-.647.255zm-6.381 16.004a33.96 33.96 0 0 1-5.894-.48l-.389-.406 3.085-3.086c1.655-.222 3.867-.546 5.564-.889.75-.149 1.473-.328 2.14-.496 1.256-.313 2.82-.704 3.216-.396.156.225.222.5.185.77 0 3.004-2.63 4.814-7.22 4.967-.22.008-.43.016-.687.016zm-7.766 9.516c0 5.608-1.126 5.608-1.733 5.608-.607 0-1.733 0-1.733-5.608 0-1.677.1-3.614.29-5.747l2.616-2.616c.338 2.776.525 5.567.56 8.363zm-10.47 1.548.449 4.285-1.22 1.793a20.79 20.79 0 0 1-3.25-2.058l4.02-4.02zm.824 6.814 1.24-1.816a.867.867 0 0 0 .145-.578l-.62-5.893.069-.18 3.756-3.757a58.137 58.137 0 0 0-.144 3.862c0 4.406.59 7.341 3.467 7.341 2.877 0 3.467-2.935 3.467-7.34a77.479 77.479 0 0 0-.53-8.184l1.758 1.836 2.455 6.42-.62 5.893c-.022.204.03.41.148.578l1.245 1.82a20.683 20.683 0 0 1-15.836-.006v.004zm17.428-.734-1.227-1.796.607-5.785a.872.872 0 0 0-.053-.4L32.25 29.73a.847.847 0 0 0-.183-.29l-.542-.565c1.15.115 2.36.18 3.629.195l1.993 2.086 1.246 4.538c.048.17.145.32.28.433l3.499 2.935a20.932 20.932 0 0 1-6.657 5.426zM46.8 26a20.679 20.679 0 0 1-3.59 11.668l-3.22-2.695-1.23-4.487a.849.849 0 0 0-.208-.37l-1.092-1.143c7.087-.694 7.676-5.19 7.676-6.613a2.553 2.553 0 0 0-.852-2.136c-1.062-.829-2.668-.428-4.703.08-.645.161-1.338.334-2.061.479-.954.192-2.08.38-3.18.546l8.088-8.086A20.8 20.8 0 0 1 46.8 26z" fill="#000"/></svg>