<svg width="38" height="37" fill="none" xmlns="http://www.w3.org/2000/svg"><g clip-path="url(#a)" fill="#000"><path d="M37.963 10.878c-.09-1.966-.416-3.317-.883-4.489a9.011 9.011 0 0 0-2.198-3.281A9.38 9.38 0 0 0 31.52.976C30.31.52 28.93.202 26.91.116 24.876.022 24.23 0 19.072 0c-5.16 0-5.806.022-7.832.108-2.02.087-3.407.405-4.61.86a9.3 9.3 0 0 0-3.37 2.14 9.09 9.09 0 0 0-2.19 3.274C.6 7.561.275 8.905.186 10.871c-.097 1.98-.12 2.61-.12 7.633s.023 5.652.112 7.625c.09 1.966.416 3.318.884 4.489a9.104 9.104 0 0 0 2.197 3.281c.95.94 2.1 1.67 3.363 2.133 1.21.455 2.59.773 4.61.86 2.026.086 2.672.108 7.831.108 5.16 0 5.805-.022 7.832-.108 2.019-.087 3.407-.405 4.61-.86 2.553-.962 4.572-2.928 5.56-5.414.467-1.178.794-2.523.883-4.489.09-1.973.111-2.602.111-7.625 0-5.024-.007-5.653-.096-7.626zM34.54 25.985c-.082 1.807-.394 2.782-.653 3.433a6.223 6.223 0 0 1-3.608 3.513c-.668.253-1.678.556-3.526.636-2.005.087-2.606.108-7.676.108s-5.679-.021-7.676-.108c-1.856-.08-2.858-.383-3.526-.636a5.866 5.866 0 0 1-2.182-1.38 5.74 5.74 0 0 1-1.418-2.126c-.26-.65-.572-1.633-.653-3.433-.09-1.952-.112-2.537-.112-7.474s.022-5.53.112-7.474c.081-1.807.393-2.782.653-3.433A5.612 5.612 0 0 1 5.7 5.486a5.917 5.917 0 0 1 2.183-1.38c.668-.253 1.677-.557 3.526-.637 2.004-.086 2.605-.108 7.675-.108 5.078 0 5.68.022 7.676.108 1.856.08 2.858.384 3.526.637a5.862 5.862 0 0 1 2.183 1.38c.63.6 1.113 1.323 1.418 2.125.26.65.571 1.633.653 3.433.089 1.952.111 2.537.111 7.474s-.022 5.515-.111 7.467z"/><path d="M19.07 8.999c-5.389 0-9.761 4.257-9.761 9.505 0 5.247 4.372 9.505 9.761 9.505 5.39 0 9.762-4.258 9.762-9.505 0-5.248-4.372-9.505-9.762-9.505zm0 15.67c-3.496 0-6.332-2.76-6.332-6.165 0-3.405 2.836-6.166 6.332-6.166 3.497 0 6.333 2.761 6.333 6.166 0 3.404-2.836 6.165-6.332 6.165zM31.497 8.623c0 1.226-1.02 2.22-2.279 2.22s-2.279-.994-2.279-2.22c0-1.225 1.02-2.219 2.279-2.219s2.28.994 2.28 2.22z"/></g><defs><clipPath id="a"><path fill="#fff" d="M0 0h38v37H0z"/></clipPath></defs></svg>