<svg width="52" height="52" fill="none" xmlns="http://www.w3.org/2000/svg"><g clip-path="url(#a)" fill="#000"><path d="M29.48 32.916a8.66 8.66 0 1 0 8.66-8.66 8.67 8.67 0 0 0-8.66 8.66zm8.66-6.928a6.928 6.928 0 1 1-6.928 6.928 6.936 6.936 0 0 1 6.928-6.928zM33.191 50.238h9.899v1.732H33.19v-1.732zM29.48 46.772H46.8v1.732H29.479v-1.732zM10.426 46.772h1.732v1.732h-1.732v-1.732zM5.23 48.504H6.96v1.732H5.23v-1.732z"/><path d="M10.512 41.896a65.592 65.592 0 0 0 8.333-25.636l8.054 8.007a.865.865 0 0 0 .747.24.865.865 0 0 0 .634-.467 8.455 8.455 0 0 0-1.586-9.772l-.708-.709h6.091a.866.866 0 0 0 .823-1.14 8.456 8.456 0 0 0-8.033-5.788h-1.126l4.326-4.35A.866.866 0 0 0 27.84.895a8.458 8.458 0 0 0-9.777 1.586l-.827.827c-.27.271-.52.56-.751.866a8.325 8.325 0 0 0-.744-.866l-.827-.827A8.454 8.454 0 0 0 5.143.895a.866.866 0 0 0-.227 1.386l4.33 4.35H8.109a8.456 8.456 0 0 0-8.032 5.788.866.866 0 0 0 .822 1.14h6.086l-.709.71A8.456 8.456 0 0 0 4.69 24.04a.866.866 0 0 0 1.386.227l7.5-7.456a46.941 46.941 0 0 1-9.054 22.888 32.32 32.32 0 0 0-3.535-.72l-.542-.055-.173 1.725.505.049c.866.124 1.727.299 2.583.497-.174.217-.347.438-.526.652l1.328 1.111a48.76 48.76 0 0 0 11.33-28.053l.997-.99.747.742A63.323 63.323 0 0 1 6.252 45.403l1.419.992c.68-.972 1.33-1.98 1.96-3.009a30.72 30.72 0 0 1 10.48 8.21L21.45 50.5a32.349 32.349 0 0 0-5.752-5.462h36.3v-1.732H13.131a31.94 31.94 0 0 0-2.62-1.41zm16.675-19.787-9.15-9.098a6.68 6.68 0 0 1 6.611 1.654l.828.828a6.724 6.724 0 0 1 1.712 6.616zm3.569-10.282h-7.171a8.446 8.446 0 0 0-5.365-.64 6.716 6.716 0 0 1 5.475-2.824h1.17a6.724 6.724 0 0 1 5.89 3.465zM18.457 4.533l.828-.827a6.73 6.73 0 0 1 6.62-1.712L20.77 7.157a8.448 8.448 0 0 0-4.089 3.21 6.556 6.556 0 0 1 1.778-5.835h-.003zm-4.77-.827.827.827c.385.394.72.835.996 1.312a8.241 8.241 0 0 0-.662 2.88 8.448 8.448 0 0 0-2.642-1.567L7.071 1.993a6.726 6.726 0 0 1 6.618 1.712h-.002zm-5.58 4.658h1.169a6.718 6.718 0 0 1 5.48 2.823 8.45 8.45 0 0 0-5.362.642H2.22A6.725 6.725 0 0 1 8.11 8.363h-.003zM5.788 22.11A6.724 6.724 0 0 1 7.5 15.493l.827-.828a6.62 6.62 0 0 1 4.696-1.932c.65 0 1.296.092 1.92.275l-9.155 9.101z"/></g><defs><clipPath id="a"><path fill="#fff" d="M0 0h52v52H0z"/></clipPath></defs></svg>