<svg width="75" height="75" viewBox="0 0 75 75" fill="none" xmlns="http://www.w3.org/2000/svg">
<path d="M72.6562 7.03125H2.34375C2.03295 7.03125 1.73488 7.15472 1.51511 7.37448C1.29534 7.59425 1.17188 7.89232 1.17188 8.20312V50.3906C1.17188 50.7014 1.29534 50.9995 1.51511 51.2193C1.73488 51.439 2.03295 51.5625 2.34375 51.5625H33.9844V53.9062H23.4375C23.1267 53.9062 22.8286 54.0297 22.6089 54.2495C22.3891 54.4693 22.2656 54.7673 22.2656 55.0781C22.2656 55.3889 22.3891 55.687 22.6089 55.9068C22.8286 56.1265 23.1267 56.25 23.4375 56.25H48.0469V65.0391C48.0477 65.8158 48.3566 66.5606 48.9058 67.1098C49.4551 67.6591 50.1998 67.968 50.9766 67.9688H66.2109C66.9877 67.968 67.7324 67.6591 68.2817 67.1098C68.8309 66.5606 69.1398 65.8158 69.1406 65.0391V51.5625H72.6562C72.9671 51.5625 73.2651 51.439 73.4849 51.2193C73.7047 50.9995 73.8281 50.7014 73.8281 50.3906V8.20312C73.8281 7.89232 73.7047 7.59425 73.4849 7.37448C73.2651 7.15472 72.9671 7.03125 72.6562 7.03125ZM38.6719 53.9062H36.3281V51.5625H38.6719V53.9062ZM48.0469 53.9062H41.0156V51.5625H48.0469V53.9062ZM48.0469 49.2188H3.51562V44.5312H48.0469V49.2188ZM66.7969 65.0391C66.7969 65.1945 66.7351 65.3435 66.6253 65.4534C66.5154 65.5633 66.3663 65.625 66.2109 65.625H50.9766C50.8212 65.625 50.6721 65.5633 50.5622 65.4534C50.4524 65.3435 50.3906 65.1945 50.3906 65.0391V28.7109C50.3906 28.5555 50.4524 28.4065 50.5622 28.2966C50.6721 28.1867 50.8212 28.125 50.9766 28.125H66.2109C66.3663 28.125 66.5154 28.1867 66.6253 28.2966C66.7351 28.4065 66.7969 28.5555 66.7969 28.7109V65.0391ZM71.4844 49.2188H69.1406V44.5312H71.4844V49.2188ZM71.4844 42.1875H69.1406V28.7109C69.1398 27.9342 68.8309 27.1894 68.2817 26.6402C67.7324 26.0909 66.9877 25.782 66.2109 25.7812H50.9766C50.1998 25.782 49.4551 26.0909 48.9058 26.6402C48.3566 27.1894 48.0477 27.9342 48.0469 28.7109V42.1875H3.51562V9.375H71.4844V42.1875Z" fill="black"/>
<path d="M39.8438 48.0469C40.1546 48.0469 40.4526 47.9234 40.6724 47.7036C40.8922 47.4839 41.0156 47.1858 41.0156 46.875C41.0156 46.5642 40.8922 46.2661 40.6724 46.0464C40.4526 45.8266 40.1546 45.7031 39.8438 45.7031H35.1562C34.8454 45.7031 34.5474 45.8266 34.3276 46.0464C34.1078 46.2661 33.9844 46.5642 33.9844 46.875C33.9844 47.1858 34.1078 47.4839 34.3276 47.7036C34.5474 47.9234 34.8454 48.0469 35.1562 48.0469H39.8438Z" fill="black"/>
<path d="M58.5938 32.8125C57.8984 32.8125 57.2187 33.0187 56.6406 33.405C56.0624 33.7913 55.6118 34.3404 55.3457 34.9828C55.0796 35.6251 55.01 36.332 55.1457 37.014C55.2813 37.696 55.6162 38.3224 56.1078 38.814C56.5995 39.3057 57.2259 39.6405 57.9079 39.7762C58.5899 39.9118 59.2967 39.8422 59.9391 39.5761C60.5815 39.31 61.1306 38.8594 61.5169 38.2813C61.9032 37.7032 62.1094 37.0234 62.1094 36.3281C62.1083 35.3961 61.7375 34.5025 61.0785 33.8434C60.4194 33.1843 59.5258 32.8136 58.5938 32.8125V32.8125ZM58.5938 37.5C58.362 37.5 58.1354 37.4313 57.9427 37.3025C57.75 37.1737 57.5998 36.9907 57.5111 36.7766C57.4224 36.5624 57.3992 36.3268 57.4444 36.0995C57.4896 35.8722 57.6012 35.6634 57.7651 35.4995C57.929 35.3356 58.1378 35.224 58.3651 35.1788C58.5924 35.1335 58.8281 35.1568 59.0422 35.2455C59.2563 35.3341 59.4394 35.4844 59.5681 35.6771C59.6969 35.8698 59.7656 36.0963 59.7656 36.3281C59.7653 36.6388 59.6417 36.9367 59.422 37.1564C59.2023 37.3761 58.9044 37.4997 58.5938 37.5Z" fill="black"/>
<path d="M56.25 44.5312H52.7344C52.4236 44.5312 52.1255 44.6547 51.9057 44.8745C51.686 45.0943 51.5625 45.3923 51.5625 45.7031V49.2188C51.5625 49.5296 51.686 49.8276 51.9057 50.0474C52.1255 50.2672 52.4236 50.3906 52.7344 50.3906H56.25C56.5608 50.3906 56.8589 50.2672 57.0786 50.0474C57.2984 49.8276 57.4219 49.5296 57.4219 49.2188V45.7031C57.4219 45.3923 57.2984 45.0943 57.0786 44.8745C56.8589 44.6547 56.5608 44.5312 56.25 44.5312ZM55.0781 48.0469H53.9062V46.875H55.0781V48.0469Z" fill="black"/>
<path d="M64.4531 44.5312H60.9375C60.6267 44.5312 60.3286 44.6547 60.1089 44.8745C59.8891 45.0943 59.7656 45.3923 59.7656 45.7031V49.2188C59.7656 49.5296 59.8891 49.8276 60.1089 50.0474C60.3286 50.2672 60.6267 50.3906 60.9375 50.3906H64.4531C64.7639 50.3906 65.062 50.2672 65.2818 50.0474C65.5015 49.8276 65.625 49.5296 65.625 49.2188V45.7031C65.625 45.3923 65.5015 45.0943 65.2818 44.8745C65.062 44.6547 64.7639 44.5312 64.4531 44.5312ZM63.2812 48.0469H62.1094V46.875H63.2812V48.0469Z" fill="black"/>
<path d="M56.25 51.5625H52.7344C52.4236 51.5625 52.1255 51.686 51.9057 51.9057C51.686 52.1255 51.5625 52.4236 51.5625 52.7344V56.25C51.5625 56.5608 51.686 56.8589 51.9057 57.0786C52.1255 57.2984 52.4236 57.4219 52.7344 57.4219H56.25C56.5608 57.4219 56.8589 57.2984 57.0786 57.0786C57.2984 56.8589 57.4219 56.5608 57.4219 56.25V52.7344C57.4219 52.4236 57.2984 52.1255 57.0786 51.9057C56.8589 51.686 56.5608 51.5625 56.25 51.5625ZM55.0781 55.0781H53.9062V53.9062H55.0781V55.0781Z" fill="black"/>
<path d="M64.4531 51.5625H60.9375C60.6267 51.5625 60.3286 51.686 60.1089 51.9057C59.8891 52.1255 59.7656 52.4236 59.7656 52.7344V56.25C59.7656 56.5608 59.8891 56.8589 60.1089 57.0786C60.3286 57.2984 60.6267 57.4219 60.9375 57.4219H64.4531C64.7639 57.4219 65.062 57.2984 65.2818 57.0786C65.5015 56.8589 65.625 56.5608 65.625 56.25V52.7344C65.625 52.4236 65.5015 52.1255 65.2818 51.9057C65.062 51.686 64.7639 51.5625 64.4531 51.5625ZM63.2812 55.0781H62.1094V53.9062H63.2812V55.0781Z" fill="black"/>
<path d="M56.25 58.5938H52.7344C52.4236 58.5938 52.1255 58.7172 51.9057 58.937C51.686 59.1568 51.5625 59.4548 51.5625 59.7656V63.2812C51.5625 63.5921 51.686 63.8901 51.9057 64.1099C52.1255 64.3297 52.4236 64.4531 52.7344 64.4531H56.25C56.5608 64.4531 56.8589 64.3297 57.0786 64.1099C57.2984 63.8901 57.4219 63.5921 57.4219 63.2812V59.7656C57.4219 59.4548 57.2984 59.1568 57.0786 58.937C56.8589 58.7172 56.5608 58.5938 56.25 58.5938ZM55.0781 62.1094H53.9062V60.9375H55.0781V62.1094Z" fill="black"/>
<path d="M64.4531 58.5938H60.9375C60.6267 58.5938 60.3286 58.7172 60.1089 58.937C59.8891 59.1568 59.7656 59.4548 59.7656 59.7656V63.2812C59.7656 63.5921 59.8891 63.8901 60.1089 64.1099C60.3286 64.3297 60.6267 64.4531 60.9375 64.4531H64.4531C64.7639 64.4531 65.062 64.3297 65.2818 64.1099C65.5015 63.8901 65.625 63.5921 65.625 63.2812V59.7656C65.625 59.4548 65.5015 59.1568 65.2818 58.937C65.062 58.7172 64.7639 58.5938 64.4531 58.5938ZM63.2812 62.1094H62.1094V60.9375H63.2812V62.1094Z" fill="black"/>
<path d="M58.5938 29.2969C57.2031 29.2969 55.8437 29.7093 54.6874 30.4819C53.5311 31.2545 52.6299 32.3526 52.0977 33.6374C51.5655 34.9222 51.4263 36.3359 51.6976 37.6999C51.9689 39.0638 52.6386 40.3166 53.6219 41.3C54.6052 42.2833 55.8581 42.953 57.222 43.2243C58.586 43.4956 59.9997 43.3563 61.2845 42.8242C62.5693 42.292 63.6674 41.3908 64.44 40.2345C65.2126 39.0782 65.625 37.7188 65.625 36.3281C65.6229 34.464 64.8815 32.6767 63.5633 31.3586C62.2452 30.0404 60.4579 29.2989 58.5938 29.2969V29.2969ZM58.5938 41.0156C57.6667 41.0156 56.7604 40.7407 55.9895 40.2256C55.2187 39.7106 54.6179 38.9785 54.2631 38.122C53.9083 37.2654 53.8155 36.3229 53.9963 35.4136C54.1772 34.5044 54.6236 33.6691 55.2792 33.0136C55.9347 32.358 56.77 31.9116 57.6793 31.7307C58.5886 31.5498 59.5311 31.6427 60.3876 31.9974C61.2441 32.3522 61.9762 32.953 62.4913 33.7239C63.0063 34.4947 63.2813 35.401 63.2813 36.3281C63.2799 37.5709 62.7855 38.7624 61.9068 39.6411C61.028 40.5199 59.8365 41.0142 58.5938 41.0156Z" fill="black"/>
</svg>
