<svg width="75" height="76" viewBox="0 0 75 76" fill="none" xmlns="http://www.w3.org/2000/svg">
<path d="M68.6665 37.8758H6.33336C5.78687 37.8758 5.24572 37.767 4.74083 37.5556C4.23593 37.3442 3.77718 37.0344 3.39075 36.6437C3.00432 36.2531 2.69778 35.7893 2.48865 35.279C2.27951 34.7686 2.17188 34.2216 2.17188 33.6691C2.17188 33.1167 2.27951 32.5697 2.48865 32.0593C2.69778 31.5489 3.00432 31.0852 3.39075 30.6945C3.77718 30.3039 4.23593 29.994 4.74083 29.7826C5.24572 29.5712 5.78687 29.4624 6.33336 29.4624H68.6644C69.2109 29.4624 69.7521 29.5712 70.257 29.7826C70.7619 29.994 71.2206 30.3039 71.6071 30.6945C71.9935 31.0852 72.3 31.5489 72.5092 32.0593C72.7183 32.5697 72.8259 33.1167 72.8259 33.6691C72.8259 34.2216 72.7183 34.7686 72.5092 35.279C72.3 35.7893 71.9935 36.2531 71.6071 36.6437C71.2206 37.0344 70.7619 37.3442 70.257 37.5556C69.7521 37.767 69.2109 37.8758 68.6644 37.8758H68.6665ZM6.33539 31.5115C5.76929 31.5115 5.22639 31.7388 4.8261 32.1434C4.42581 32.5481 4.20093 33.0969 4.20093 33.6691C4.20093 34.2414 4.42581 34.7902 4.8261 35.1948C5.22639 35.5995 5.76929 35.8268 6.33539 35.8268H68.6665C69.2326 35.8268 69.7755 35.5995 70.1758 35.1948C70.576 34.7902 70.8009 34.2414 70.8009 33.6691C70.8009 33.0969 70.576 32.5481 70.1758 32.1434C69.7755 31.7388 69.2326 31.5115 68.6665 31.5115H6.33539Z" fill="black"/>
<path d="M50.2701 56.1115H25.6833C21.6395 56.1215 17.6982 54.8262 14.4333 52.4144C11.1683 50.0025 8.75029 46.6001 7.53129 42.7025L5.78399 37.1628C5.73627 37.0094 5.72494 36.8469 5.75089 36.6882C5.77685 36.5296 5.83938 36.3794 5.93342 36.2497C6.02745 36.1201 6.15036 36.0146 6.29219 35.9418C6.43403 35.8691 6.59081 35.8311 6.74987 35.8309H68.3107C68.5795 35.8309 68.8373 35.9389 69.0274 36.131C69.2174 36.3231 69.3242 36.5837 69.3242 36.8555C69.3178 41.9614 67.3081 46.8562 63.736 50.4662C60.1639 54.0761 55.3212 56.1064 50.2701 56.1115V56.1115ZM8.13635 37.8759L9.46304 42.0765C10.5512 45.5596 12.711 48.6005 15.6277 50.7566C18.5444 52.9126 22.0659 54.0712 25.6793 54.0635H50.2701C54.6089 54.0582 58.7824 52.3809 61.9403 49.3732C65.0981 46.3655 67.0027 42.2537 67.2658 37.8759H8.13635Z" fill="black"/>
<path d="M44.4527 73.7662C44.4076 73.7661 44.3626 73.763 44.3179 73.757C44.0516 73.721 43.8102 73.5797 43.647 73.3639C43.4837 73.1482 43.4119 72.8757 43.4473 72.6064L45.7652 54.9517C45.7796 54.8158 45.8208 54.6842 45.8864 54.5646C45.9519 54.445 46.0404 54.3399 46.1468 54.2554C46.2531 54.171 46.3751 54.1089 46.5055 54.0728C46.636 54.0367 46.7722 54.0274 46.9063 54.0454C47.0403 54.0634 47.1695 54.1083 47.2861 54.1775C47.4027 54.2467 47.5044 54.3388 47.5853 54.4484C47.6662 54.558 47.7245 54.6828 47.7569 54.8155C47.7893 54.9482 47.7951 55.0862 47.774 55.2212L45.4571 72.8759C45.4249 73.1221 45.3053 73.3482 45.1206 73.512C44.9358 73.6758 44.6985 73.7661 44.4527 73.7662Z" fill="black"/>
<path d="M30.6083 73.7661C30.3629 73.7658 30.1259 73.6755 29.9414 73.512C29.7568 73.3484 29.6373 73.1227 29.6049 72.8768L27.2698 55.2221C27.2396 54.9555 27.3141 54.6876 27.4773 54.4759C27.6405 54.2643 27.8793 54.1258 28.1424 54.0902C28.4055 54.0547 28.6719 54.1249 28.8844 54.2858C29.0968 54.4466 29.2383 54.6854 29.2785 54.9506L31.6096 72.6053C31.6273 72.7387 31.6188 72.8744 31.5846 73.0044C31.5504 73.1345 31.4912 73.2565 31.4103 73.3635C31.3295 73.4704 31.2286 73.5602 31.1134 73.6277C30.9982 73.6952 30.871 73.7391 30.739 73.7569C30.6957 73.7628 30.652 73.7658 30.6083 73.7661Z" fill="black"/>
<path d="M39.8694 31.5114H35.1869C34.9181 31.5114 34.6603 31.4035 34.4703 31.2114C34.2802 31.0192 34.1734 30.7586 34.1734 30.4869V11.6171C34.1394 9.32654 34.9298 7.10147 36.3974 5.35592C37.865 3.61038 39.91 2.46323 42.1518 2.12792C43.4477 1.95629 44.7649 2.06603 46.0155 2.44982C47.2661 2.83361 48.4213 3.48261 49.4041 4.35353C50.3869 5.22444 51.1747 6.29724 51.7148 7.50031C52.2549 8.70339 52.5349 10.0091 52.5363 11.3303V11.8425C52.5355 12.6133 52.2325 13.3524 51.6938 13.898C51.1551 14.4435 50.4245 14.751 49.6619 14.7532H48.7113C47.9478 14.7524 47.2159 14.4455 46.6761 13.8998C46.1363 13.3541 45.8327 12.6142 45.8319 11.8425V11.4747C45.844 10.8808 45.6553 10.3005 45.2971 9.8296C44.9389 9.3587 44.4325 9.02539 43.8616 8.8847C43.5019 8.81049 43.1305 8.81797 42.774 8.90661C42.4176 8.99524 42.0851 9.16282 41.8005 9.39723C41.516 9.63163 41.2865 9.92701 41.1287 10.262C40.9709 10.597 40.8886 10.9633 40.8879 11.3343V30.4931C40.8863 30.7646 40.7781 31.0244 40.5872 31.2154C40.3962 31.4063 40.138 31.5128 39.8694 31.5114ZM36.2004 29.4624H38.8559V11.3282C38.8566 10.655 39.005 9.99036 39.2903 9.38209C39.5757 8.77383 39.9909 8.23707 40.506 7.81047C41.0212 7.38386 41.6235 7.07802 42.2696 6.91495C42.9158 6.75188 43.5896 6.73564 44.2427 6.8674C45.2794 7.09365 46.2062 7.67674 46.8648 8.51706C47.5234 9.35737 47.873 10.4028 47.8538 11.4747V11.8415C47.8538 12.07 47.9436 12.2892 48.1035 12.4508C48.2633 12.6123 48.4801 12.7031 48.7062 12.7031H49.6619C49.888 12.7031 50.1048 12.6123 50.2646 12.4508C50.4245 12.2892 50.5143 12.07 50.5143 11.8415V11.3292C50.5135 10.3014 50.2961 9.28563 49.8767 8.34936C49.4573 7.4131 48.8454 6.57786 48.0819 5.89922C47.3176 5.21304 46.4156 4.70211 45.4377 4.40147C44.4598 4.10083 43.4291 4.01761 42.4163 4.15752C40.6633 4.42925 39.0675 5.33513 37.9255 6.7068C36.7835 8.07847 36.173 9.82262 36.2075 11.6151L36.2004 29.4624Z" fill="black"/>
<path d="M48.893 31.5114H45.0477C44.7789 31.5114 44.5211 31.4035 44.331 31.2113C44.141 31.0192 44.0342 30.7586 44.0342 30.4869V24.8796C44.0353 23.8629 44.4353 22.8881 45.1465 22.1692C45.8577 21.4503 46.822 21.0459 47.8278 21.0448H54.2575C54.5263 21.0448 54.7841 21.1527 54.9742 21.3449C55.1642 21.537 55.271 21.7976 55.271 22.0693C55.2691 23.373 54.756 24.6228 53.844 25.5446C52.9321 26.4664 51.6958 26.9852 50.4061 26.9871H49.9136V30.4879C49.9134 30.623 49.8869 30.7567 49.8355 30.8813C49.784 31.006 49.7087 31.1191 49.6139 31.2142C49.519 31.3093 49.4065 31.3846 49.2828 31.4356C49.159 31.4866 49.0266 31.5123 48.893 31.5114ZM46.0612 29.4623H47.8855V25.9615C47.8855 25.6898 47.9923 25.4292 48.1824 25.2371C48.3725 25.0449 48.6302 24.937 48.899 24.937H50.4031C50.9778 24.9365 51.5388 24.76 52.0123 24.4308C52.4857 24.1016 52.8494 23.6351 53.0555 23.0928H47.8278C47.3594 23.0934 46.9104 23.2817 46.5792 23.6165C46.248 23.9512 46.0617 24.4051 46.0612 24.8786V29.4623Z" fill="black"/>
<path d="M29.6513 31.5116H25.805C25.5362 31.5116 25.2784 31.4036 25.0883 31.2115C24.8983 31.0194 24.7915 30.7588 24.7915 30.487V26.9862H24.2999C23.0102 26.9846 21.7737 26.466 20.8617 25.544C19.9497 24.6221 19.4367 23.3722 19.4351 22.0685C19.4351 21.7968 19.5418 21.5362 19.7319 21.344C19.922 21.1519 20.1798 21.0439 20.4486 21.0439H26.8773C27.8831 21.045 28.8474 21.4494 29.5586 22.1683C30.2698 22.8873 30.6698 23.862 30.6709 24.8788V30.486C30.671 30.6212 30.6447 30.755 30.5934 30.8798C30.5422 31.0046 30.467 31.118 30.3722 31.2133C30.2775 31.3086 30.165 31.3841 30.0412 31.4353C29.9175 31.4864 29.785 31.5124 29.6513 31.5116ZM26.8134 29.4625H28.6378V24.8798C28.6372 24.4063 28.4509 23.9524 28.1198 23.6177C27.7886 23.2829 27.3396 23.0946 26.8712 23.094H21.6425C21.8483 23.6362 22.2119 24.1027 22.6852 24.4319C23.1585 24.7611 23.7193 24.9376 24.2938 24.9382H25.7979C26.0667 24.9382 26.3245 25.0461 26.5146 25.2383C26.7046 25.4304 26.8114 25.691 26.8114 25.9627L26.8134 29.4625Z" fill="black"/>
</svg>
