<svg width="244" height="59" viewBox="0 0 244 59" fill="none" xmlns="http://www.w3.org/2000/svg">
<path d="M105.149 40.448C105.509 40.304 105.809 40.232 106.049 40.232C106.433 40.232 106.721 40.376 106.913 40.664C107.105 40.952 107.201 41.324 107.201 41.78C107.201 42.5 107.021 43.112 106.661 43.616C106.325 44.12 105.737 44.576 104.897 44.984C103.481 45.656 101.645 46.196 99.3888 46.604C97.1328 46.988 94.9128 47.18 92.7288 47.18C89.7048 47.18 87.1728 46.844 85.1328 46.172C83.0928 45.476 81.5688 44.528 80.5608 43.328C79.5768 42.128 79.0848 40.772 79.0848 39.26C79.0848 37.196 79.7448 35.444 81.0648 34.004C82.4088 32.54 84.3768 31.484 86.9688 30.836C85.5528 30.428 84.4608 29.708 83.6928 28.676C82.9488 27.644 82.5768 26.492 82.5768 25.22C82.5768 23.492 83.1168 21.968 84.1968 20.648C85.3008 19.304 86.7768 18.272 88.6248 17.552C90.4728 16.832 92.5008 16.472 94.7088 16.472C97.6848 16.472 99.9168 17.12 101.405 18.416C102.893 19.688 103.637 21.344 103.637 23.384C103.637 24.8 103.373 25.952 102.845 26.84C102.341 27.704 101.609 28.136 100.649 28.136C99.9768 28.136 99.4488 27.992 99.0648 27.704C98.6808 27.392 98.4888 26.936 98.4888 26.336C98.4888 25.928 98.5488 25.484 98.6688 25.004C98.7888 24.212 98.8488 23.672 98.8488 23.384C98.8488 22.52 98.5248 21.824 97.8768 21.296C97.2288 20.744 96.1488 20.468 94.6368 20.468C92.5968 20.468 90.9648 20.9 89.7408 21.764C88.5168 22.628 87.9048 23.792 87.9048 25.256C87.9048 26.384 88.3608 27.32 89.2728 28.064C90.2088 28.784 91.7208 29.18 93.8088 29.252C94.3368 29.276 94.7088 29.396 94.9248 29.612C95.1408 29.828 95.2488 30.188 95.2488 30.692C95.2488 32.276 94.5288 33.08 93.0888 33.104C91.0968 33.152 89.4408 33.428 88.1208 33.932C86.8248 34.436 85.8768 35.084 85.2768 35.876C84.7008 36.644 84.4128 37.472 84.4128 38.36C84.4128 39.848 85.1088 40.976 86.5008 41.744C87.8928 42.488 90.1008 42.86 93.1248 42.86C95.1168 42.86 97.2168 42.632 99.4248 42.176C101.657 41.696 103.565 41.12 105.149 40.448ZM125.184 38.972C125.496 38.972 125.736 39.116 125.904 39.404C126.096 39.692 126.192 40.088 126.192 40.592C126.192 41.552 125.964 42.296 125.508 42.824C124.428 44.144 123.336 45.2 122.232 45.992C121.128 46.784 119.82 47.18 118.308 47.18C116.46 47.18 114.972 46.652 113.844 45.596C112.716 44.54 112.152 43.136 112.152 41.384C112.152 40.448 112.632 39.776 113.592 39.368C114.648 38.912 115.404 38.432 115.86 37.928C116.316 37.4 116.544 36.764 116.544 36.02C116.544 35.588 116.448 35.264 116.256 35.048C116.088 34.832 115.872 34.724 115.608 34.724C114.96 34.724 114.24 35.192 113.448 36.128C112.68 37.064 111.96 38.276 111.288 39.764C110.616 41.228 110.088 42.74 109.704 44.3C109.44 45.428 109.128 46.196 108.768 46.604C108.432 46.988 107.892 47.18 107.148 47.18C106.404 47.18 105.852 46.916 105.492 46.388C105.156 45.836 104.928 44.996 104.808 43.868C104.688 42.74 104.628 41.084 104.628 38.9C104.628 35.204 105 31.352 105.744 27.344C106.512 23.336 107.628 19.976 109.092 17.264C110.58 14.528 112.356 13.16 114.42 13.16C115.524 13.16 116.412 13.64 117.084 14.6C117.78 15.536 118.128 16.76 118.128 18.272C118.128 20.696 117.42 23.216 116.004 25.832C114.588 28.424 112.284 31.46 109.092 34.94C109.02 36.188 108.984 37.472 108.984 38.792C110.136 35.792 111.456 33.62 112.944 32.276C114.432 30.908 115.824 30.224 117.12 30.224C118.32 30.224 119.28 30.632 120 31.448C120.744 32.264 121.116 33.272 121.116 34.472C121.116 35.792 120.78 37.004 120.108 38.108C119.436 39.212 118.284 40.196 116.652 41.06C116.748 41.708 117.036 42.236 117.516 42.644C118.02 43.028 118.62 43.22 119.316 43.22C120.06 43.22 120.78 42.932 121.476 42.356C122.172 41.78 123.084 40.82 124.212 39.476C124.5 39.14 124.824 38.972 125.184 38.972ZM113.664 16.724C113.232 16.724 112.752 17.348 112.224 18.596C111.696 19.82 111.18 21.488 110.676 23.6C110.196 25.688 109.8 27.968 109.488 30.44C110.976 28.688 112.2 26.78 113.16 24.716C114.144 22.652 114.636 20.78 114.636 19.1C114.636 18.332 114.552 17.744 114.384 17.336C114.216 16.928 113.976 16.724 113.664 16.724ZM129.987 47.972C128.739 47.972 127.779 47.684 127.107 47.108C126.459 46.532 126.135 45.884 126.135 45.164C126.135 44.54 126.363 44 126.819 43.544C127.275 43.088 127.947 42.86 128.835 42.86C129.147 42.86 129.507 42.896 129.915 42.968C130.347 43.016 130.671 43.052 130.887 43.076C130.863 42.452 130.719 41.864 130.455 41.312C130.215 40.76 129.903 40.232 129.519 39.728C129.135 39.2 128.775 38.744 128.439 38.36C127.695 39.776 126.951 40.952 126.207 41.888C125.487 42.824 124.695 43.712 123.831 44.552C123.399 44.984 122.943 45.2 122.463 45.2C122.079 45.2 121.767 45.068 121.526 44.804C121.286 44.516 121.166 44.168 121.166 43.76C121.166 43.28 121.334 42.836 121.671 42.428L122.139 41.852C123.459 40.22 124.455 38.876 125.127 37.82C125.535 37.124 126.015 36.2 126.567 35.048C127.119 33.872 127.659 32.66 128.187 31.412C128.643 30.356 129.591 29.828 131.031 29.828C131.703 29.828 132.171 29.888 132.435 30.008C132.699 30.128 132.831 30.32 132.831 30.584C132.831 30.728 132.783 30.956 132.687 31.268C132.591 31.58 132.459 31.892 132.291 32.204C131.859 33.068 131.643 33.8 131.643 34.4C131.643 34.76 131.763 35.156 132.003 35.588C132.267 36.02 132.663 36.56 133.191 37.208C133.959 38.216 134.535 39.08 134.919 39.8C135.327 40.496 135.531 41.264 135.531 42.104C135.531 42.344 135.507 42.68 135.459 43.112C136.635 42.656 138.015 41.444 139.599 39.476C139.887 39.14 140.211 38.972 140.57 38.972C140.883 38.972 141.123 39.116 141.291 39.404C141.483 39.692 141.579 40.088 141.579 40.592C141.579 41.504 141.351 42.248 140.895 42.824C139.695 44.312 138.543 45.332 137.439 45.884C136.359 46.412 135.015 46.7 133.407 46.748C132.447 47.564 131.307 47.972 129.987 47.972ZM159.462 38.972C159.774 38.972 160.014 39.116 160.182 39.404C160.374 39.692 160.47 40.088 160.47 40.592C160.47 41.552 160.242 42.296 159.786 42.824C158.706 44.144 157.614 45.2 156.51 45.992C155.406 46.784 154.098 47.18 152.586 47.18C150.738 47.18 149.25 46.652 148.122 45.596C146.994 44.54 146.43 43.136 146.43 41.384C146.43 40.448 146.91 39.776 147.87 39.368C148.926 38.912 149.682 38.432 150.138 37.928C150.594 37.4 150.822 36.764 150.822 36.02C150.822 35.588 150.726 35.264 150.534 35.048C150.366 34.832 150.15 34.724 149.886 34.724C149.238 34.724 148.518 35.192 147.726 36.128C146.958 37.064 146.238 38.276 145.566 39.764C144.894 41.228 144.366 42.74 143.982 44.3C143.718 45.428 143.406 46.196 143.046 46.604C142.71 46.988 142.17 47.18 141.426 47.18C140.682 47.18 140.13 46.916 139.77 46.388C139.434 45.836 139.206 44.996 139.086 43.868C138.966 42.74 138.906 41.084 138.906 38.9C138.906 35.204 139.278 31.352 140.022 27.344C140.79 23.336 141.906 19.976 143.37 17.264C144.858 14.528 146.634 13.16 148.698 13.16C149.802 13.16 150.69 13.64 151.362 14.6C152.058 15.536 152.406 16.76 152.406 18.272C152.406 20.696 151.698 23.216 150.282 25.832C148.866 28.424 146.562 31.46 143.37 34.94C143.298 36.188 143.262 37.472 143.262 38.792C144.414 35.792 145.734 33.62 147.222 32.276C148.71 30.908 150.102 30.224 151.398 30.224C152.598 30.224 153.558 30.632 154.278 31.448C155.022 32.264 155.394 33.272 155.394 34.472C155.394 35.792 155.058 37.004 154.386 38.108C153.714 39.212 152.562 40.196 150.93 41.06C151.026 41.708 151.314 42.236 151.794 42.644C152.298 43.028 152.898 43.22 153.594 43.22C154.338 43.22 155.058 42.932 155.754 42.356C156.45 41.78 157.362 40.82 158.49 39.476C158.778 39.14 159.102 38.972 159.462 38.972ZM147.942 16.724C147.51 16.724 147.03 17.348 146.502 18.596C145.974 19.82 145.458 21.488 144.954 23.6C144.474 25.688 144.078 27.968 143.766 30.44C145.254 28.688 146.478 26.78 147.438 24.716C148.422 22.652 148.914 20.78 148.914 19.1C148.914 18.332 148.83 17.744 148.662 17.336C148.494 16.928 148.254 16.724 147.942 16.724ZM160.124 47.18C159.212 47.18 158.564 46.7 158.18 45.74C157.82 44.78 157.64 43.244 157.64 41.132C157.64 38.012 158.084 35.048 158.972 32.24C159.188 31.544 159.536 31.04 160.016 30.728C160.52 30.392 161.216 30.224 162.104 30.224C162.584 30.224 162.92 30.284 163.112 30.404C163.304 30.524 163.4 30.752 163.4 31.088C163.4 31.472 163.22 32.336 162.86 33.68C162.62 34.64 162.428 35.48 162.284 36.2C162.14 36.92 162.02 37.808 161.924 38.864C162.716 36.8 163.604 35.12 164.588 33.824C165.572 32.528 166.532 31.604 167.468 31.052C168.428 30.5 169.304 30.224 170.096 30.224C171.656 30.224 172.436 31.004 172.436 32.564C172.436 32.876 172.328 33.632 172.112 34.832C171.92 35.792 171.824 36.392 171.824 36.632C171.824 37.472 172.124 37.892 172.724 37.892C173.396 37.892 174.26 37.364 175.316 36.308C175.628 35.996 175.952 35.84 176.288 35.84C176.6 35.84 176.84 35.984 177.008 36.272C177.2 36.536 177.296 36.896 177.296 37.352C177.296 38.24 177.056 38.936 176.576 39.44C175.904 40.136 175.112 40.736 174.2 41.24C173.312 41.72 172.364 41.96 171.356 41.96C170.084 41.96 169.112 41.636 168.44 40.988C167.792 40.34 167.468 39.464 167.468 38.36C167.468 38 167.504 37.64 167.576 37.28C167.624 36.8 167.648 36.476 167.648 36.308C167.648 35.924 167.516 35.732 167.252 35.732C166.892 35.732 166.412 36.14 165.812 36.956C165.236 37.748 164.66 38.804 164.084 40.124C163.508 41.444 163.04 42.836 162.68 44.3C162.416 45.428 162.104 46.196 161.744 46.604C161.408 46.988 160.868 47.18 160.124 47.18ZM190.007 38.972C190.319 38.972 190.559 39.116 190.727 39.404C190.919 39.692 191.015 40.088 191.015 40.592C191.015 41.552 190.787 42.296 190.331 42.824C189.443 43.904 188.183 44.9 186.551 45.812C184.943 46.724 183.215 47.18 181.367 47.18C178.847 47.18 176.891 46.496 175.499 45.128C174.107 43.76 173.411 41.888 173.411 39.512C173.411 37.856 173.759 36.32 174.455 34.904C175.151 33.464 176.111 32.324 177.335 31.484C178.583 30.644 179.987 30.224 181.547 30.224C182.939 30.224 184.055 30.644 184.895 31.484C185.735 32.3 186.155 33.416 186.155 34.832C186.155 36.488 185.555 37.916 184.355 39.116C183.179 40.292 181.175 41.228 178.343 41.924C178.943 43.028 180.083 43.58 181.763 43.58C182.843 43.58 184.067 43.208 185.435 42.464C186.827 41.696 188.027 40.7 189.035 39.476C189.323 39.14 189.647 38.972 190.007 38.972ZM180.935 33.752C180.047 33.752 179.291 34.268 178.667 35.3C178.067 36.332 177.767 37.58 177.767 39.044V39.116C179.183 38.78 180.299 38.276 181.115 37.604C181.931 36.932 182.339 36.152 182.339 35.264C182.339 34.808 182.207 34.448 181.943 34.184C181.703 33.896 181.367 33.752 180.935 33.752ZM207.235 35.948C207.547 35.948 207.787 36.104 207.955 36.416C208.123 36.728 208.207 37.124 208.207 37.604C208.207 38.204 208.123 38.672 207.955 39.008C207.787 39.32 207.523 39.536 207.163 39.656C205.723 40.16 204.139 40.448 202.411 40.52C201.931 42.512 201.019 44.12 199.675 45.344C198.355 46.568 196.891 47.18 195.283 47.18C192.859 47.18 191.095 46.256 189.991 44.408C188.887 42.56 188.335 39.884 188.335 36.38C188.335 33.284 188.719 29.924 189.487 26.3C190.255 22.652 191.371 19.556 192.835 17.012C194.323 14.444 196.087 13.16 198.127 13.16C199.231 13.16 200.119 13.64 200.791 14.6C201.463 15.536 201.799 16.76 201.799 18.272C201.799 20.24 201.427 22.196 200.683 24.14C199.939 26.084 198.703 28.124 196.975 30.26C198.583 30.38 199.891 31.052 200.899 32.276C201.907 33.476 202.507 34.964 202.699 36.74C203.827 36.668 205.171 36.428 206.731 36.02C206.875 35.972 207.043 35.948 207.235 35.948ZM197.299 16.724C196.819 16.724 196.291 17.444 195.715 18.884C195.163 20.3 194.647 22.232 194.167 24.68C193.687 27.128 193.327 29.804 193.087 32.708C194.671 29.804 195.931 27.248 196.867 25.04C197.827 22.808 198.307 20.828 198.307 19.1C198.307 18.332 198.211 17.744 198.019 17.336C197.851 16.928 197.611 16.724 197.299 16.724ZM195.427 43.364C196.171 43.364 196.831 43.052 197.407 42.428C197.983 41.804 198.367 40.904 198.559 39.728C197.815 39.224 197.239 38.564 196.831 37.748C196.447 36.932 196.255 36.068 196.255 35.156C196.255 34.82 196.303 34.364 196.399 33.788H196.291C195.307 33.788 194.479 34.28 193.807 35.264C193.159 36.224 192.835 37.52 192.835 39.152C192.835 40.52 193.087 41.564 193.591 42.284C194.119 43.004 194.731 43.364 195.427 43.364ZM208.771 47.18C207.691 47.18 206.803 46.688 206.107 45.704C205.435 44.696 205.099 43.448 205.099 41.96C205.099 40.16 205.219 38.516 205.459 37.028C205.699 35.516 206.095 33.92 206.647 32.24C206.887 31.52 207.223 31.004 207.655 30.692C208.087 30.38 208.771 30.224 209.707 30.224C210.235 30.224 210.595 30.308 210.787 30.476C211.003 30.644 211.111 30.896 211.111 31.232C211.111 31.424 210.979 32.072 210.715 33.176C210.475 34.064 210.283 34.868 210.139 35.588C209.659 38.108 209.419 39.788 209.419 40.628C209.419 41.132 209.479 41.492 209.599 41.708C209.719 41.9 209.911 41.996 210.175 41.996C210.535 41.996 210.979 41.636 211.507 40.916C212.059 40.196 212.635 39.104 213.235 37.64C213.859 36.176 214.459 34.376 215.035 32.24C215.227 31.52 215.515 31.004 215.899 30.692C216.307 30.38 216.907 30.224 217.699 30.224C218.251 30.224 218.635 30.296 218.851 30.44C219.067 30.56 219.175 30.8 219.175 31.16C219.175 31.76 218.875 33.404 218.275 36.092C217.603 39.164 217.267 41.06 217.267 41.78C217.267 42.236 217.363 42.596 217.555 42.86C217.747 43.1 217.999 43.22 218.311 43.22C218.791 43.22 219.355 42.932 220.003 42.356C220.675 41.756 221.563 40.796 222.667 39.476C222.955 39.14 223.279 38.972 223.639 38.972C223.951 38.972 224.191 39.116 224.359 39.404C224.551 39.692 224.647 40.088 224.647 40.592C224.647 41.552 224.419 42.296 223.963 42.824C222.931 44.096 221.815 45.14 220.615 45.956C219.439 46.772 218.095 47.18 216.583 47.18C215.431 47.18 214.579 46.736 214.027 45.848C213.499 44.96 213.235 43.712 213.235 42.104C212.827 43.736 212.215 44.996 211.399 45.884C210.583 46.748 209.707 47.18 208.771 47.18ZM232.132 41.924C232.396 41.684 232.66 41.564 232.924 41.564C233.212 41.564 233.44 41.732 233.608 42.068C233.8 42.38 233.896 42.764 233.896 43.22C233.896 44.228 233.536 45.032 232.816 45.632C231.568 46.664 230.152 47.18 228.568 47.18C226.288 47.18 224.62 46.232 223.564 44.336C222.508 42.416 221.98 39.92 221.98 36.848C221.98 33.92 222.352 30.584 223.096 26.84C223.864 23.096 224.98 19.88 226.444 17.192C227.932 14.504 229.696 13.16 231.736 13.16C232.888 13.16 233.788 13.7 234.436 14.78C235.108 15.836 235.444 17.36 235.444 19.352C235.444 22.208 234.652 25.52 233.068 29.288C231.508 33.056 229.372 36.776 226.66 40.448C226.828 41.432 227.128 42.14 227.56 42.572C227.992 43.004 228.58 43.22 229.324 43.22C229.732 43.22 230.188 43.1 230.692 42.86C231.22 42.62 231.7 42.308 232.132 41.924ZM230.944 16.724C230.392 16.724 229.768 17.72 229.072 19.712C228.376 21.704 227.764 24.176 227.236 27.128C226.708 30.08 226.42 32.912 226.372 35.624C228.076 32.816 229.432 30.008 230.44 27.2C231.448 24.368 231.952 21.788 231.952 19.46C231.952 17.636 231.616 16.724 230.944 16.724Z" fill="#63A7CC"/>
<path d="M61.1551 15.3066C58.6064 15.3066 57.3083 14.0589 56.1629 12.958C55.1287 11.9638 54.3117 11.1786 52.5659 11.1786C50.8202 11.1786 50.0032 11.9638 48.9688 12.958C47.8236 14.0589 46.5254 15.3066 43.9766 15.3066C41.4278 15.3066 40.1298 14.0589 38.9844 12.958C37.9502 11.9638 37.1334 11.1786 35.3876 11.1786C33.6421 11.1786 32.8252 11.9638 31.7911 12.958C30.6458 14.0589 29.3477 15.3066 26.7988 15.3066C24.2504 15.3066 22.9526 14.0589 21.8073 12.958C20.7733 11.9638 19.9565 11.1786 18.2111 11.1786C16.4655 11.1786 15.6487 11.9638 14.6145 12.958C13.4693 14.0589 12.1711 15.3066 9.62245 15.3066C7.07364 15.3066 5.77547 14.0589 4.63005 12.958C3.59589 11.9638 2.77906 11.1786 1.0333 11.1786C0.462747 11.1786 0 10.6928 0 10.0934C0 9.49426 0.462747 9.0083 1.0333 9.0083C3.58194 9.0083 4.88011 10.256 6.02552 11.3569C7.05969 12.3511 7.87668 13.1363 9.62245 13.1363C11.368 13.1363 12.1849 12.3511 13.219 11.3571C14.3643 10.256 15.6624 9.0083 18.2111 9.0083C20.7595 9.0083 22.0575 10.2562 23.2028 11.3571C24.2368 12.3512 25.0534 13.1363 26.7988 13.1363C28.5446 13.1363 29.3614 12.3511 30.3956 11.3571C31.5408 10.256 32.839 9.0083 35.3876 9.0083C37.9365 9.0083 39.2345 10.256 40.3799 11.3571C41.414 12.3511 42.231 13.1363 43.9766 13.1363C45.7226 13.1363 46.5394 12.3511 47.5735 11.3571C48.719 10.256 50.0171 9.0083 52.5659 9.0083C55.1147 9.0083 56.4129 10.256 57.5583 11.3571C58.5925 12.3511 59.4093 13.1363 61.1551 13.1363C62.9012 13.1363 63.7182 12.3511 64.7527 11.3569C65.8981 10.256 67.1964 9.0083 69.7454 9.0083C70.316 9.0083 70.7787 9.49426 70.7787 10.0934C70.7787 10.6928 70.316 11.1786 69.7454 11.1786C67.9993 11.1786 67.1823 11.9638 66.1478 12.958C65.0024 14.0589 63.7042 15.3066 61.1551 15.3066Z" fill="#63A7CC"/>
<path d="M61.1551 24.7111C58.6064 24.7111 57.3083 23.4634 56.1629 22.3625C55.1287 21.3684 54.3117 20.5831 52.5659 20.5831C50.8202 20.5831 50.0032 21.3684 48.9688 22.3625C47.8236 23.4634 46.5254 24.7111 43.9766 24.7111C41.4278 24.7111 40.1298 23.4634 38.9844 22.3625C37.9502 21.3684 37.1334 20.5831 35.3876 20.5831C33.6421 20.5831 32.8252 21.3684 31.7911 22.3625C30.6458 23.4634 29.3477 24.7111 26.7988 24.7111C24.2504 24.7111 22.9526 23.4634 21.8073 22.3625C20.7733 21.3684 19.9565 20.5831 18.2111 20.5831C16.4655 20.5831 15.6487 21.3684 14.6145 22.3625C13.4693 23.4634 12.1711 24.7111 9.62245 24.7111C7.07364 24.7111 5.77547 23.4634 4.63005 22.3625C3.59589 21.3684 2.77906 20.5831 1.0333 20.5831C0.462747 20.5831 0 20.0973 0 19.4979C0 18.8988 0.462747 18.4128 1.0333 18.4128C3.58194 18.4128 4.88011 19.6605 6.02552 20.7614C7.05969 21.7556 7.87668 22.5408 9.62245 22.5408C11.368 22.5408 12.1849 21.7556 13.219 20.7616C14.3643 19.6605 15.6624 18.4128 18.2111 18.4128C20.7595 18.4128 22.0575 19.6607 23.2028 20.7616C24.2368 21.7557 25.0534 22.5408 26.7988 22.5408C28.5446 22.5408 29.3614 21.7556 30.3956 20.7616C31.5408 19.6605 32.839 18.4128 35.3876 18.4128C37.9365 18.4128 39.2345 19.6605 40.3799 20.7616C41.414 21.7556 42.231 22.5408 43.9766 22.5408C45.7226 22.5408 46.5394 21.7556 47.5735 20.7616C48.719 19.6605 50.0171 18.4128 52.5659 18.4128C55.1147 18.4128 56.4129 19.6605 57.5583 20.7616C58.5925 21.7556 59.4093 22.5408 61.1551 22.5408C62.9012 22.5408 63.7182 21.7556 64.7527 20.7614C65.8981 19.6605 67.1964 18.4128 69.7454 18.4128C70.316 18.4128 70.7787 18.8988 70.7787 19.4979C70.7787 20.0973 70.316 20.5831 69.7454 20.5831C67.9993 20.5831 67.1823 21.3684 66.1478 22.3625C65.0024 23.4634 63.7042 24.7111 61.1551 24.7111Z" fill="#63A7CC"/>
<path d="M61.1551 43.5203C58.6064 43.5203 57.3083 42.2726 56.1629 41.1717C55.1287 40.1775 54.3117 39.3923 52.5659 39.3923C50.8202 39.3923 50.0032 40.1775 48.9688 41.1715C47.8236 42.2726 46.5254 43.5203 43.9766 43.5203C41.4278 43.5203 40.1298 42.2726 38.9844 41.1715C37.9502 40.1775 37.1334 39.3923 35.3876 39.3923C33.6421 39.3923 32.8252 40.1775 31.7911 41.1715C30.6458 42.2726 29.3477 43.5203 26.7988 43.5203C24.2504 43.5203 22.9526 42.2726 21.8073 41.1715C20.7733 40.1775 19.9565 39.3923 18.2111 39.3923C16.4655 39.3923 15.6487 40.1775 14.6145 41.1715C13.4693 42.2726 12.1711 43.5203 9.62245 43.5203C7.07364 43.5203 5.77547 42.2726 4.63005 41.1715C3.59589 40.1775 2.77889 39.3923 1.0333 39.3923C0.462747 39.3923 0 38.9063 0 38.3071C0 37.7078 0.462747 37.222 1.0333 37.222C3.58194 37.222 4.88011 38.4697 6.02552 39.5706C7.05969 40.5648 7.87668 41.35 9.62245 41.35C11.368 41.35 12.1849 40.5648 13.219 39.5706C14.3643 38.4697 15.6624 37.222 18.2111 37.222C20.7595 37.222 22.0575 38.4697 23.2028 39.5708C24.2368 40.5647 25.0534 41.35 26.7988 41.35C28.5446 41.35 29.3614 40.5648 30.3956 39.5706C31.5408 38.4697 32.839 37.222 35.3876 37.222C37.9365 37.222 39.2345 38.4697 40.3799 39.5706C41.414 40.5648 42.231 41.35 43.9766 41.35C45.7226 41.35 46.5394 40.5648 47.5735 39.5706C48.719 38.4697 50.0171 37.222 52.5659 37.222C55.1147 37.222 56.4129 38.4697 57.5583 39.5706C58.5925 40.5648 59.4093 41.35 61.1551 41.35C62.9012 41.35 63.7182 40.5648 64.7527 39.5706C65.8981 38.4697 67.1964 37.222 69.7454 37.222C70.316 37.222 70.7787 37.7078 70.7787 38.3071C70.7787 38.9063 70.316 39.3923 69.7454 39.3923C67.9993 39.3923 67.1823 40.1775 66.1478 41.1717C65.0024 42.2726 63.7042 43.5203 61.1551 43.5203Z" fill="#63A7CC"/>
<path d="M61.1551 34.1011C58.6064 34.1011 57.3083 32.8534 56.1629 31.7525C55.1287 30.7584 54.3117 29.9731 52.5659 29.9731C50.8202 29.9731 50.0032 30.7584 48.9688 31.7523C47.8236 32.8534 46.5254 34.1011 43.9766 34.1011C41.4278 34.1011 40.1298 32.8534 38.9844 31.7523C37.9502 30.7584 37.1334 29.9731 35.3876 29.9731C33.6421 29.9731 32.8252 30.7584 31.7911 31.7523C30.6458 32.8534 29.3477 34.1011 26.7988 34.1011C24.2504 34.1011 22.9526 32.8534 21.8073 31.7523C20.7733 30.7584 19.9565 29.9731 18.2111 29.9731C16.4655 29.9731 15.6487 30.7584 14.6145 31.7523C13.4693 32.8534 12.1711 34.1011 9.62245 34.1011C7.07364 34.1011 5.77547 32.8534 4.63005 31.7523C3.59589 30.7584 2.77889 29.9731 1.0333 29.9731C0.462747 29.9731 0 29.4871 0 28.888C0 28.2886 0.462747 27.8028 1.0333 27.8028C3.58194 27.8028 4.88011 29.0505 6.02552 30.1514C7.05969 31.1456 7.87668 31.9309 9.62245 31.9309C11.368 31.9309 12.1849 31.1456 13.219 30.1514C14.3643 29.0505 15.6624 27.8028 18.2111 27.8028C20.7595 27.8028 22.0575 29.0505 23.2028 30.1516C24.2368 31.1456 25.0534 31.9309 26.7988 31.9309C28.5446 31.9309 29.3614 31.1456 30.3956 30.1514C31.5408 29.0505 32.839 27.8028 35.3876 27.8028C37.9365 27.8028 39.2345 29.0505 40.3799 30.1514C41.414 31.1456 42.231 31.9309 43.9766 31.9309C45.7226 31.9309 46.5394 31.1456 47.5735 30.1514C48.719 29.0505 50.0171 27.8028 52.5659 27.8028C55.1147 27.8028 56.4129 29.0505 57.5583 30.1514C58.5925 31.1456 59.4093 31.9309 61.1551 31.9309C62.9012 31.9309 63.7182 31.1456 64.7527 30.1514C65.8981 29.0505 67.1964 27.8028 69.7454 27.8028C70.316 27.8028 70.7787 28.2886 70.7787 28.888C70.7787 29.4871 70.316 29.9731 69.7454 29.9731C67.9993 29.9731 67.1823 30.7584 66.1478 31.7525C65.0024 32.8534 63.7042 34.1011 61.1551 34.1011Z" fill="#63A7CC"/>
<path d="M61.1551 52.9248C58.6064 52.9248 57.3083 51.677 56.1629 50.5762C55.1287 49.582 54.3117 48.7967 52.5659 48.7967C50.8202 48.7967 50.0032 49.582 48.9688 50.576C47.8236 51.677 46.5254 52.9248 43.9766 52.9248C41.4278 52.9248 40.1298 51.677 38.9844 50.576C37.9502 49.582 37.1334 48.7967 35.3876 48.7967C33.6421 48.7967 32.8252 49.582 31.7911 50.576C30.6458 51.677 29.3477 52.9248 26.7988 52.9248C24.2504 52.9248 22.9526 51.677 21.8073 50.576C20.7733 49.582 19.9565 48.7967 18.2111 48.7967C16.4655 48.7967 15.6487 49.582 14.6145 50.576C13.4693 51.677 12.1711 52.9248 9.62245 52.9248C7.07364 52.9248 5.77547 51.677 4.63005 50.576C3.59589 49.582 2.77889 48.7967 1.0333 48.7967C0.462747 48.7967 0 48.3108 0 47.7116C0 47.112 0.462747 46.6264 1.0333 46.6264C3.58194 46.6264 4.88011 47.8742 6.02552 48.975C7.05969 49.9692 7.87668 50.7545 9.62245 50.7545C11.368 50.7545 12.1849 49.9692 13.219 48.975C14.3643 47.8742 15.6624 46.6264 18.2111 46.6264C20.7595 46.6264 22.0575 47.8742 23.2028 48.9752C24.2368 49.9692 25.0534 50.7545 26.7988 50.7545C28.5446 50.7545 29.3614 49.9692 30.3956 48.975C31.5408 47.8742 32.839 46.6264 35.3876 46.6264C37.9365 46.6264 39.2345 47.8742 40.3799 48.975C41.414 49.9692 42.231 50.7545 43.9766 50.7545C45.7226 50.7545 46.5394 49.9692 47.5735 48.975C48.719 47.8742 50.0171 46.6264 52.5659 46.6264C55.1147 46.6264 56.4129 47.8742 57.5583 48.975C58.5925 49.9692 59.4093 50.7545 61.1551 50.7545C62.9012 50.7545 63.7182 49.9692 64.7527 48.975C65.8981 47.8742 67.1964 46.6264 69.7454 46.6264C70.316 46.6264 70.7787 47.112 70.7787 47.7116C70.7787 48.3108 70.316 48.7967 69.7454 48.7967C67.9993 48.7967 67.1823 49.582 66.1478 50.5762C65.0024 51.677 63.7042 52.9248 61.1551 52.9248Z" fill="#63A7CC"/>
<path d="M144.033 58.8848C141.485 58.8848 140.186 57.5286 139.041 56.3321C138.007 55.2515 137.19 54.398 135.444 54.398C133.699 54.398 132.882 55.2515 131.847 56.3319C130.702 57.5286 129.404 58.8848 126.856 58.8848C124.307 58.8848 123.009 57.5286 121.864 56.3319C120.829 55.2515 120.013 54.398 118.267 54.398C116.522 54.398 115.705 55.2515 114.671 56.3319C113.525 57.5286 112.227 58.8848 109.679 58.8848C107.13 58.8848 105.833 57.5286 104.687 56.3319C103.653 55.2515 102.837 54.398 101.091 54.398C99.3458 54.398 98.5291 55.2515 97.495 56.3319C96.3498 57.5286 95.0517 58.8848 92.5032 58.8848C89.9545 58.8848 88.6564 57.5286 87.511 56.3319C86.4769 55.2515 85.66 54.398 83.9145 54.398C83.3439 54.398 82.8812 53.8698 82.8812 53.2185C82.8812 52.5671 83.3439 52.0391 83.9145 52.0391C86.463 52.0391 87.7611 53.3952 88.9064 54.5918C89.9405 55.6724 90.7575 56.5259 92.5032 56.5259C94.2487 56.5259 95.0654 55.6724 96.0996 54.5918C97.2447 53.3952 98.5428 52.0391 101.091 52.0391C103.64 52.0391 104.938 53.3952 106.083 54.592C107.117 55.6724 107.933 56.5259 109.679 56.5259C111.424 56.5259 112.241 55.6724 113.275 54.5918C114.42 53.3952 115.718 52.0391 118.267 52.0391C120.816 52.0391 122.114 53.3952 123.259 54.5918C124.293 55.6724 125.11 56.5259 126.856 56.5259C128.601 56.5259 129.418 55.6724 130.452 54.5918C131.598 53.3952 132.896 52.0391 135.444 52.0391C137.993 52.0391 139.291 53.3952 140.437 54.5918C141.471 55.6724 142.287 56.5259 144.033 56.5259C145.779 56.5259 146.596 55.6724 147.631 54.5918C148.776 53.3952 150.074 52.0391 152.623 52.0391C153.193 52.0391 153.656 52.5671 153.656 53.2185C153.656 53.8698 153.193 54.398 152.623 54.398C150.877 54.398 150.06 55.2515 149.026 56.3321C147.88 57.5286 146.582 58.8848 144.033 58.8848Z" fill="#63A7CC"/>
<path d="M144.033 9.98637C141.485 9.98637 140.186 8.6302 139.041 7.43364C138.007 6.35307 137.19 5.49953 135.444 5.49953C133.699 5.49953 132.882 6.35307 131.847 7.43345C130.702 8.6302 129.404 9.98637 126.856 9.98637C124.307 9.98637 123.009 8.6302 121.864 7.43345C120.829 6.35307 120.013 5.49953 118.267 5.49953C116.522 5.49953 115.705 6.35307 114.671 7.43345C113.525 8.6302 112.227 9.98637 109.679 9.98637C107.13 9.98637 105.833 8.6302 104.687 7.43345C103.653 6.35307 102.837 5.49953 101.091 5.49953C99.3458 5.49953 98.5291 6.35307 97.495 7.43345C96.3498 8.6302 95.0517 9.98637 92.5032 9.98637C89.9545 9.98637 88.6564 8.6302 87.511 7.43345C86.4769 6.35307 85.66 5.49953 83.9145 5.49953C83.3439 5.49953 82.8812 4.97133 82.8812 4.32008C82.8812 3.66863 83.3439 3.14062 83.9145 3.14062C86.463 3.14062 87.7611 4.4968 88.9064 5.69336C89.9405 6.77393 90.7575 7.62747 92.5032 7.62747C94.2487 7.62747 95.0654 6.77393 96.0996 5.69336C97.2447 4.4968 98.5428 3.14062 101.091 3.14062C103.64 3.14062 104.938 4.4968 106.083 5.69355C107.117 6.77393 107.933 7.62747 109.679 7.62747C111.424 7.62747 112.241 6.77393 113.275 5.69336C114.42 4.4968 115.718 3.14062 118.267 3.14062C120.816 3.14062 122.114 4.4968 123.259 5.69336C124.293 6.77393 125.11 7.62747 126.856 7.62747C128.601 7.62747 129.418 6.77393 130.452 5.69336C131.598 4.4968 132.896 3.14062 135.444 3.14062C137.993 3.14062 139.291 4.4968 140.437 5.69336C141.471 6.77393 142.287 7.62747 144.033 7.62747C145.779 7.62747 146.596 6.77393 147.631 5.69336C148.776 4.4968 150.074 3.14062 152.623 3.14062C153.193 3.14062 153.656 3.66863 153.656 4.32008C153.656 4.97133 153.193 5.49953 152.623 5.49953C150.877 5.49953 150.06 6.35307 149.026 7.43364C147.88 8.6302 146.582 9.98637 144.033 9.98637Z" fill="#63A7CC"/>
<path d="M212.946 58.8848C210.397 58.8848 209.099 57.5286 207.954 56.3321C206.919 55.2515 206.103 54.398 204.357 54.398C202.611 54.398 201.794 55.2515 200.76 56.3319C199.615 57.5286 198.317 58.8848 195.768 58.8848C193.219 58.8848 191.921 57.5286 190.776 56.3319C189.742 55.2515 188.925 54.398 187.179 54.398C185.434 54.398 184.617 55.2515 183.583 56.3319C182.438 57.5286 181.14 58.8848 178.591 58.8848C176.043 58.8848 174.745 57.5286 173.6 56.3319C172.566 55.2515 171.749 54.398 170.004 54.398C168.258 54.398 167.442 55.2515 166.407 56.3319C165.262 57.5286 163.964 58.8848 161.416 58.8848C158.867 58.8848 157.569 57.5286 156.424 56.3319C155.389 55.2515 154.572 54.398 152.827 54.398C152.256 54.398 151.794 53.8698 151.794 53.2185C151.794 52.5671 152.256 52.0391 152.827 52.0391C155.375 52.0391 156.674 53.3952 157.819 54.5918C158.853 55.6724 159.67 56.5259 161.416 56.5259C163.161 56.5259 163.978 55.6724 165.012 54.5918C166.157 53.3952 167.455 52.0391 170.004 52.0391C172.552 52.0391 173.85 53.3952 174.995 54.592C176.029 55.6724 176.846 56.5259 178.591 56.5259C180.337 56.5259 181.154 55.6724 182.188 54.5918C183.333 53.3952 184.631 52.0391 187.179 52.0391C189.728 52.0391 191.026 53.3952 192.171 54.5918C193.206 55.6724 194.022 56.5259 195.768 56.5259C197.514 56.5259 198.331 55.6724 199.365 54.5918C200.51 53.3952 201.808 52.0391 204.357 52.0391C206.906 52.0391 208.204 53.3952 209.349 54.5918C210.383 55.6724 211.2 56.5259 212.946 56.5259C214.692 56.5259 215.509 55.6724 216.543 54.5918C217.688 53.3952 218.987 52.0391 221.535 52.0391C222.106 52.0391 222.569 52.5671 222.569 53.2185C222.569 53.8698 222.106 54.398 221.535 54.398C219.789 54.398 218.972 55.2515 217.938 56.3321C216.793 57.5286 215.495 58.8848 212.946 58.8848Z" fill="#63A7CC"/>
<path d="M212.946 9.98637C210.397 9.98637 209.099 8.6302 207.954 7.43364C206.919 6.35307 206.103 5.49953 204.357 5.49953C202.611 5.49953 201.794 6.35307 200.76 7.43345C199.615 8.6302 198.317 9.98637 195.768 9.98637C193.219 9.98637 191.921 8.6302 190.776 7.43345C189.742 6.35307 188.925 5.49953 187.179 5.49953C185.434 5.49953 184.617 6.35307 183.583 7.43345C182.438 8.6302 181.14 9.98637 178.591 9.98637C176.043 9.98637 174.745 8.6302 173.6 7.43345C172.566 6.35307 171.749 5.49953 170.004 5.49953C168.258 5.49953 167.442 6.35307 166.407 7.43345C165.262 8.6302 163.964 9.98637 161.416 9.98637C158.867 9.98637 157.569 8.6302 156.424 7.43345C155.389 6.35307 154.572 5.49953 152.827 5.49953C152.256 5.49953 151.794 4.97133 151.794 4.32008C151.794 3.66863 152.256 3.14062 152.827 3.14062C155.375 3.14062 156.674 4.4968 157.819 5.69336C158.853 6.77393 159.67 7.62747 161.416 7.62747C163.161 7.62747 163.978 6.77393 165.012 5.69336C166.157 4.4968 167.455 3.14062 170.004 3.14062C172.552 3.14062 173.85 4.4968 174.995 5.69355C176.029 6.77393 176.846 7.62747 178.591 7.62747C180.337 7.62747 181.154 6.77393 182.188 5.69336C183.333 4.4968 184.631 3.14062 187.179 3.14062C189.728 3.14062 191.026 4.4968 192.171 5.69336C193.206 6.77393 194.022 7.62747 195.768 7.62747C197.514 7.62747 198.331 6.77393 199.365 5.69336C200.51 4.4968 201.808 3.14062 204.357 3.14062C206.906 3.14062 208.204 4.4968 209.349 5.69336C210.383 6.77393 211.2 7.62747 212.946 7.62747C214.692 7.62747 215.509 6.77393 216.543 5.69336C217.688 4.4968 218.987 3.14062 221.535 3.14062C222.106 3.14062 222.569 3.66863 222.569 4.32008C222.569 4.97133 222.106 5.49953 221.535 5.49953C219.789 5.49953 218.972 6.35307 217.938 7.43364C216.793 8.6302 215.495 9.98637 212.946 9.98637Z" fill="#63A7CC"/>
</svg>
