<svg width="253" height="59" viewBox="0 0 253 59" fill="none" xmlns="http://www.w3.org/2000/svg">
<path d="M114.149 40.448C114.509 40.304 114.809 40.232 115.049 40.232C115.433 40.232 115.721 40.376 115.913 40.664C116.105 40.952 116.201 41.324 116.201 41.78C116.201 42.5 116.021 43.112 115.661 43.616C115.325 44.12 114.737 44.576 113.897 44.984C112.481 45.656 110.645 46.196 108.389 46.604C106.133 46.988 103.913 47.18 101.729 47.18C98.7048 47.18 96.1728 46.844 94.1328 46.172C92.0928 45.476 90.5688 44.528 89.5608 43.328C88.5768 42.128 88.0848 40.772 88.0848 39.26C88.0848 37.196 88.7448 35.444 90.0648 34.004C91.4088 32.54 93.3768 31.484 95.9688 30.836C94.5528 30.428 93.4608 29.708 92.6928 28.676C91.9488 27.644 91.5768 26.492 91.5768 25.22C91.5768 23.492 92.1168 21.968 93.1968 20.648C94.3008 19.304 95.7768 18.272 97.6248 17.552C99.4728 16.832 101.501 16.472 103.709 16.472C106.685 16.472 108.917 17.12 110.405 18.416C111.893 19.688 112.637 21.344 112.637 23.384C112.637 24.8 112.373 25.952 111.845 26.84C111.341 27.704 110.609 28.136 109.649 28.136C108.977 28.136 108.449 27.992 108.065 27.704C107.681 27.392 107.489 26.936 107.489 26.336C107.489 25.928 107.549 25.484 107.669 25.004C107.789 24.212 107.849 23.672 107.849 23.384C107.849 22.52 107.525 21.824 106.877 21.296C106.229 20.744 105.149 20.468 103.637 20.468C101.597 20.468 99.9648 20.9 98.7408 21.764C97.5168 22.628 96.9048 23.792 96.9048 25.256C96.9048 26.384 97.3608 27.32 98.2728 28.064C99.2088 28.784 100.721 29.18 102.809 29.252C103.337 29.276 103.709 29.396 103.925 29.612C104.141 29.828 104.249 30.188 104.249 30.692C104.249 32.276 103.529 33.08 102.089 33.104C100.097 33.152 98.4408 33.428 97.1208 33.932C95.8248 34.436 94.8768 35.084 94.2768 35.876C93.7008 36.644 93.4128 37.472 93.4128 38.36C93.4128 39.848 94.1088 40.976 95.5008 41.744C96.8928 42.488 99.1008 42.86 102.125 42.86C104.117 42.86 106.217 42.632 108.425 42.176C110.657 41.696 112.565 41.12 114.149 40.448ZM134.184 38.972C134.496 38.972 134.736 39.116 134.904 39.404C135.096 39.692 135.192 40.088 135.192 40.592C135.192 41.552 134.964 42.296 134.508 42.824C133.428 44.144 132.336 45.2 131.232 45.992C130.128 46.784 128.82 47.18 127.308 47.18C125.46 47.18 123.972 46.652 122.844 45.596C121.716 44.54 121.152 43.136 121.152 41.384C121.152 40.448 121.632 39.776 122.592 39.368C123.648 38.912 124.404 38.432 124.86 37.928C125.316 37.4 125.544 36.764 125.544 36.02C125.544 35.588 125.448 35.264 125.256 35.048C125.088 34.832 124.872 34.724 124.608 34.724C123.96 34.724 123.24 35.192 122.448 36.128C121.68 37.064 120.96 38.276 120.288 39.764C119.616 41.228 119.088 42.74 118.704 44.3C118.44 45.428 118.128 46.196 117.768 46.604C117.432 46.988 116.892 47.18 116.148 47.18C115.404 47.18 114.852 46.916 114.492 46.388C114.156 45.836 113.928 44.996 113.808 43.868C113.688 42.74 113.628 41.084 113.628 38.9C113.628 35.204 114 31.352 114.744 27.344C115.512 23.336 116.628 19.976 118.092 17.264C119.58 14.528 121.356 13.16 123.42 13.16C124.524 13.16 125.412 13.64 126.084 14.6C126.78 15.536 127.128 16.76 127.128 18.272C127.128 20.696 126.42 23.216 125.004 25.832C123.588 28.424 121.284 31.46 118.092 34.94C118.02 36.188 117.984 37.472 117.984 38.792C119.136 35.792 120.456 33.62 121.944 32.276C123.432 30.908 124.824 30.224 126.12 30.224C127.32 30.224 128.28 30.632 129 31.448C129.744 32.264 130.116 33.272 130.116 34.472C130.116 35.792 129.78 37.004 129.108 38.108C128.436 39.212 127.284 40.196 125.652 41.06C125.748 41.708 126.036 42.236 126.516 42.644C127.02 43.028 127.62 43.22 128.316 43.22C129.06 43.22 129.78 42.932 130.476 42.356C131.172 41.78 132.084 40.82 133.212 39.476C133.5 39.14 133.824 38.972 134.184 38.972ZM122.664 16.724C122.232 16.724 121.752 17.348 121.224 18.596C120.696 19.82 120.18 21.488 119.676 23.6C119.196 25.688 118.8 27.968 118.488 30.44C119.976 28.688 121.2 26.78 122.16 24.716C123.144 22.652 123.636 20.78 123.636 19.1C123.636 18.332 123.552 17.744 123.384 17.336C123.216 16.928 122.976 16.724 122.664 16.724ZM138.987 47.972C137.739 47.972 136.779 47.684 136.107 47.108C135.459 46.532 135.135 45.884 135.135 45.164C135.135 44.54 135.363 44 135.819 43.544C136.275 43.088 136.947 42.86 137.835 42.86C138.147 42.86 138.507 42.896 138.915 42.968C139.347 43.016 139.671 43.052 139.887 43.076C139.863 42.452 139.719 41.864 139.455 41.312C139.215 40.76 138.903 40.232 138.519 39.728C138.135 39.2 137.775 38.744 137.439 38.36C136.695 39.776 135.951 40.952 135.207 41.888C134.487 42.824 133.695 43.712 132.831 44.552C132.399 44.984 131.943 45.2 131.463 45.2C131.079 45.2 130.767 45.068 130.526 44.804C130.286 44.516 130.166 44.168 130.166 43.76C130.166 43.28 130.334 42.836 130.671 42.428L131.139 41.852C132.459 40.22 133.455 38.876 134.127 37.82C134.535 37.124 135.015 36.2 135.567 35.048C136.119 33.872 136.659 32.66 137.187 31.412C137.643 30.356 138.591 29.828 140.031 29.828C140.703 29.828 141.171 29.888 141.435 30.008C141.699 30.128 141.831 30.32 141.831 30.584C141.831 30.728 141.783 30.956 141.687 31.268C141.591 31.58 141.459 31.892 141.291 32.204C140.859 33.068 140.643 33.8 140.643 34.4C140.643 34.76 140.763 35.156 141.003 35.588C141.267 36.02 141.663 36.56 142.191 37.208C142.959 38.216 143.535 39.08 143.919 39.8C144.327 40.496 144.531 41.264 144.531 42.104C144.531 42.344 144.507 42.68 144.459 43.112C145.635 42.656 147.015 41.444 148.599 39.476C148.887 39.14 149.211 38.972 149.57 38.972C149.883 38.972 150.123 39.116 150.291 39.404C150.483 39.692 150.579 40.088 150.579 40.592C150.579 41.504 150.351 42.248 149.895 42.824C148.695 44.312 147.543 45.332 146.439 45.884C145.359 46.412 144.015 46.7 142.407 46.748C141.447 47.564 140.307 47.972 138.987 47.972ZM168.462 38.972C168.774 38.972 169.014 39.116 169.182 39.404C169.374 39.692 169.47 40.088 169.47 40.592C169.47 41.552 169.242 42.296 168.786 42.824C167.706 44.144 166.614 45.2 165.51 45.992C164.406 46.784 163.098 47.18 161.586 47.18C159.738 47.18 158.25 46.652 157.122 45.596C155.994 44.54 155.43 43.136 155.43 41.384C155.43 40.448 155.91 39.776 156.87 39.368C157.926 38.912 158.682 38.432 159.138 37.928C159.594 37.4 159.822 36.764 159.822 36.02C159.822 35.588 159.726 35.264 159.534 35.048C159.366 34.832 159.15 34.724 158.886 34.724C158.238 34.724 157.518 35.192 156.726 36.128C155.958 37.064 155.238 38.276 154.566 39.764C153.894 41.228 153.366 42.74 152.982 44.3C152.718 45.428 152.406 46.196 152.046 46.604C151.71 46.988 151.17 47.18 150.426 47.18C149.682 47.18 149.13 46.916 148.77 46.388C148.434 45.836 148.206 44.996 148.086 43.868C147.966 42.74 147.906 41.084 147.906 38.9C147.906 35.204 148.278 31.352 149.022 27.344C149.79 23.336 150.906 19.976 152.37 17.264C153.858 14.528 155.634 13.16 157.698 13.16C158.802 13.16 159.69 13.64 160.362 14.6C161.058 15.536 161.406 16.76 161.406 18.272C161.406 20.696 160.698 23.216 159.282 25.832C157.866 28.424 155.562 31.46 152.37 34.94C152.298 36.188 152.262 37.472 152.262 38.792C153.414 35.792 154.734 33.62 156.222 32.276C157.71 30.908 159.102 30.224 160.398 30.224C161.598 30.224 162.558 30.632 163.278 31.448C164.022 32.264 164.394 33.272 164.394 34.472C164.394 35.792 164.058 37.004 163.386 38.108C162.714 39.212 161.562 40.196 159.93 41.06C160.026 41.708 160.314 42.236 160.794 42.644C161.298 43.028 161.898 43.22 162.594 43.22C163.338 43.22 164.058 42.932 164.754 42.356C165.45 41.78 166.362 40.82 167.49 39.476C167.778 39.14 168.102 38.972 168.462 38.972ZM156.942 16.724C156.51 16.724 156.03 17.348 155.502 18.596C154.974 19.82 154.458 21.488 153.954 23.6C153.474 25.688 153.078 27.968 152.766 30.44C154.254 28.688 155.478 26.78 156.438 24.716C157.422 22.652 157.914 20.78 157.914 19.1C157.914 18.332 157.83 17.744 157.662 17.336C157.494 16.928 157.254 16.724 156.942 16.724ZM169.124 47.18C168.212 47.18 167.564 46.7 167.18 45.74C166.82 44.78 166.64 43.244 166.64 41.132C166.64 38.012 167.084 35.048 167.972 32.24C168.188 31.544 168.536 31.04 169.016 30.728C169.52 30.392 170.216 30.224 171.104 30.224C171.584 30.224 171.92 30.284 172.112 30.404C172.304 30.524 172.4 30.752 172.4 31.088C172.4 31.472 172.22 32.336 171.86 33.68C171.62 34.64 171.428 35.48 171.284 36.2C171.14 36.92 171.02 37.808 170.924 38.864C171.716 36.8 172.604 35.12 173.588 33.824C174.572 32.528 175.532 31.604 176.468 31.052C177.428 30.5 178.304 30.224 179.096 30.224C180.656 30.224 181.436 31.004 181.436 32.564C181.436 32.876 181.328 33.632 181.112 34.832C180.92 35.792 180.824 36.392 180.824 36.632C180.824 37.472 181.124 37.892 181.724 37.892C182.396 37.892 183.26 37.364 184.316 36.308C184.628 35.996 184.952 35.84 185.288 35.84C185.6 35.84 185.84 35.984 186.008 36.272C186.2 36.536 186.296 36.896 186.296 37.352C186.296 38.24 186.056 38.936 185.576 39.44C184.904 40.136 184.112 40.736 183.2 41.24C182.312 41.72 181.364 41.96 180.356 41.96C179.084 41.96 178.112 41.636 177.44 40.988C176.792 40.34 176.468 39.464 176.468 38.36C176.468 38 176.504 37.64 176.576 37.28C176.624 36.8 176.648 36.476 176.648 36.308C176.648 35.924 176.516 35.732 176.252 35.732C175.892 35.732 175.412 36.14 174.812 36.956C174.236 37.748 173.66 38.804 173.084 40.124C172.508 41.444 172.04 42.836 171.68 44.3C171.416 45.428 171.104 46.196 170.744 46.604C170.408 46.988 169.868 47.18 169.124 47.18ZM199.007 38.972C199.319 38.972 199.559 39.116 199.727 39.404C199.919 39.692 200.015 40.088 200.015 40.592C200.015 41.552 199.787 42.296 199.331 42.824C198.443 43.904 197.183 44.9 195.551 45.812C193.943 46.724 192.215 47.18 190.367 47.18C187.847 47.18 185.891 46.496 184.499 45.128C183.107 43.76 182.411 41.888 182.411 39.512C182.411 37.856 182.759 36.32 183.455 34.904C184.151 33.464 185.111 32.324 186.335 31.484C187.583 30.644 188.987 30.224 190.547 30.224C191.939 30.224 193.055 30.644 193.895 31.484C194.735 32.3 195.155 33.416 195.155 34.832C195.155 36.488 194.555 37.916 193.355 39.116C192.179 40.292 190.175 41.228 187.343 41.924C187.943 43.028 189.083 43.58 190.763 43.58C191.843 43.58 193.067 43.208 194.435 42.464C195.827 41.696 197.027 40.7 198.035 39.476C198.323 39.14 198.647 38.972 199.007 38.972ZM189.935 33.752C189.047 33.752 188.291 34.268 187.667 35.3C187.067 36.332 186.767 37.58 186.767 39.044V39.116C188.183 38.78 189.299 38.276 190.115 37.604C190.931 36.932 191.339 36.152 191.339 35.264C191.339 34.808 191.207 34.448 190.943 34.184C190.703 33.896 190.367 33.752 189.935 33.752ZM216.235 35.948C216.547 35.948 216.787 36.104 216.955 36.416C217.123 36.728 217.207 37.124 217.207 37.604C217.207 38.204 217.123 38.672 216.955 39.008C216.787 39.32 216.523 39.536 216.163 39.656C214.723 40.16 213.139 40.448 211.411 40.52C210.931 42.512 210.019 44.12 208.675 45.344C207.355 46.568 205.891 47.18 204.283 47.18C201.859 47.18 200.095 46.256 198.991 44.408C197.887 42.56 197.335 39.884 197.335 36.38C197.335 33.284 197.719 29.924 198.487 26.3C199.255 22.652 200.371 19.556 201.835 17.012C203.323 14.444 205.087 13.16 207.127 13.16C208.231 13.16 209.119 13.64 209.791 14.6C210.463 15.536 210.799 16.76 210.799 18.272C210.799 20.24 210.427 22.196 209.683 24.14C208.939 26.084 207.703 28.124 205.975 30.26C207.583 30.38 208.891 31.052 209.899 32.276C210.907 33.476 211.507 34.964 211.699 36.74C212.827 36.668 214.171 36.428 215.731 36.02C215.875 35.972 216.043 35.948 216.235 35.948ZM206.299 16.724C205.819 16.724 205.291 17.444 204.715 18.884C204.163 20.3 203.647 22.232 203.167 24.68C202.687 27.128 202.327 29.804 202.087 32.708C203.671 29.804 204.931 27.248 205.867 25.04C206.827 22.808 207.307 20.828 207.307 19.1C207.307 18.332 207.211 17.744 207.019 17.336C206.851 16.928 206.611 16.724 206.299 16.724ZM204.427 43.364C205.171 43.364 205.831 43.052 206.407 42.428C206.983 41.804 207.367 40.904 207.559 39.728C206.815 39.224 206.239 38.564 205.831 37.748C205.447 36.932 205.255 36.068 205.255 35.156C205.255 34.82 205.303 34.364 205.399 33.788H205.291C204.307 33.788 203.479 34.28 202.807 35.264C202.159 36.224 201.835 37.52 201.835 39.152C201.835 40.52 202.087 41.564 202.591 42.284C203.119 43.004 203.731 43.364 204.427 43.364ZM217.771 47.18C216.691 47.18 215.803 46.688 215.107 45.704C214.435 44.696 214.099 43.448 214.099 41.96C214.099 40.16 214.219 38.516 214.459 37.028C214.699 35.516 215.095 33.92 215.647 32.24C215.887 31.52 216.223 31.004 216.655 30.692C217.087 30.38 217.771 30.224 218.707 30.224C219.235 30.224 219.595 30.308 219.787 30.476C220.003 30.644 220.111 30.896 220.111 31.232C220.111 31.424 219.979 32.072 219.715 33.176C219.475 34.064 219.283 34.868 219.139 35.588C218.659 38.108 218.419 39.788 218.419 40.628C218.419 41.132 218.479 41.492 218.599 41.708C218.719 41.9 218.911 41.996 219.175 41.996C219.535 41.996 219.979 41.636 220.507 40.916C221.059 40.196 221.635 39.104 222.235 37.64C222.859 36.176 223.459 34.376 224.035 32.24C224.227 31.52 224.515 31.004 224.899 30.692C225.307 30.38 225.907 30.224 226.699 30.224C227.251 30.224 227.635 30.296 227.851 30.44C228.067 30.56 228.175 30.8 228.175 31.16C228.175 31.76 227.875 33.404 227.275 36.092C226.603 39.164 226.267 41.06 226.267 41.78C226.267 42.236 226.363 42.596 226.555 42.86C226.747 43.1 226.999 43.22 227.311 43.22C227.791 43.22 228.355 42.932 229.003 42.356C229.675 41.756 230.563 40.796 231.667 39.476C231.955 39.14 232.279 38.972 232.639 38.972C232.951 38.972 233.191 39.116 233.359 39.404C233.551 39.692 233.647 40.088 233.647 40.592C233.647 41.552 233.419 42.296 232.963 42.824C231.931 44.096 230.815 45.14 229.615 45.956C228.439 46.772 227.095 47.18 225.583 47.18C224.431 47.18 223.579 46.736 223.027 45.848C222.499 44.96 222.235 43.712 222.235 42.104C221.827 43.736 221.215 44.996 220.399 45.884C219.583 46.748 218.707 47.18 217.771 47.18ZM241.132 41.924C241.396 41.684 241.66 41.564 241.924 41.564C242.212 41.564 242.44 41.732 242.608 42.068C242.8 42.38 242.896 42.764 242.896 43.22C242.896 44.228 242.536 45.032 241.816 45.632C240.568 46.664 239.152 47.18 237.568 47.18C235.288 47.18 233.62 46.232 232.564 44.336C231.508 42.416 230.98 39.92 230.98 36.848C230.98 33.92 231.352 30.584 232.096 26.84C232.864 23.096 233.98 19.88 235.444 17.192C236.932 14.504 238.696 13.16 240.736 13.16C241.888 13.16 242.788 13.7 243.436 14.78C244.108 15.836 244.444 17.36 244.444 19.352C244.444 22.208 243.652 25.52 242.068 29.288C240.508 33.056 238.372 36.776 235.66 40.448C235.828 41.432 236.128 42.14 236.56 42.572C236.992 43.004 237.58 43.22 238.324 43.22C238.732 43.22 239.188 43.1 239.692 42.86C240.22 42.62 240.7 42.308 241.132 41.924ZM239.944 16.724C239.392 16.724 238.768 17.72 238.072 19.712C237.376 21.704 236.764 24.176 236.236 27.128C235.708 30.08 235.42 32.912 235.372 35.624C237.076 32.816 238.432 30.008 239.44 27.2C240.448 24.368 240.952 21.788 240.952 19.46C240.952 17.636 240.616 16.724 239.944 16.724Z" fill="#63A7CC"/>
<path d="M61.1551 15.3066C58.6064 15.3066 57.3083 14.0589 56.1629 12.958C55.1287 11.9638 54.3117 11.1786 52.5659 11.1786C50.8202 11.1786 50.0032 11.9638 48.9688 12.958C47.8236 14.0589 46.5254 15.3066 43.9766 15.3066C41.4278 15.3066 40.1298 14.0589 38.9844 12.958C37.9502 11.9638 37.1334 11.1786 35.3876 11.1786C33.6421 11.1786 32.8252 11.9638 31.7911 12.958C30.6458 14.0589 29.3477 15.3066 26.7988 15.3066C24.2504 15.3066 22.9526 14.0589 21.8073 12.958C20.7733 11.9638 19.9565 11.1786 18.2111 11.1786C16.4655 11.1786 15.6487 11.9638 14.6145 12.958C13.4693 14.0589 12.1711 15.3066 9.62245 15.3066C7.07364 15.3066 5.77547 14.0589 4.63005 12.958C3.59589 11.9638 2.77906 11.1786 1.0333 11.1786C0.462747 11.1786 0 10.6928 0 10.0934C0 9.49426 0.462747 9.0083 1.0333 9.0083C3.58194 9.0083 4.88011 10.256 6.02552 11.3569C7.05969 12.3511 7.87668 13.1363 9.62245 13.1363C11.368 13.1363 12.1849 12.3511 13.219 11.3571C14.3643 10.256 15.6624 9.0083 18.2111 9.0083C20.7595 9.0083 22.0575 10.2562 23.2028 11.3571C24.2368 12.3512 25.0534 13.1363 26.7988 13.1363C28.5446 13.1363 29.3614 12.3511 30.3956 11.3571C31.5408 10.256 32.839 9.0083 35.3876 9.0083C37.9365 9.0083 39.2345 10.256 40.3799 11.3571C41.414 12.3511 42.231 13.1363 43.9766 13.1363C45.7226 13.1363 46.5394 12.3511 47.5735 11.3571C48.719 10.256 50.0171 9.0083 52.5659 9.0083C55.1147 9.0083 56.4129 10.256 57.5583 11.3571C58.5925 12.3511 59.4093 13.1363 61.1551 13.1363C62.9012 13.1363 63.7182 12.3511 64.7527 11.3569C65.8981 10.256 67.1964 9.0083 69.7454 9.0083C70.316 9.0083 70.7787 9.49426 70.7787 10.0934C70.7787 10.6928 70.316 11.1786 69.7454 11.1786C67.9993 11.1786 67.1823 11.9638 66.1478 12.958C65.0024 14.0589 63.7042 15.3066 61.1551 15.3066Z" fill="#63A7CC"/>
<path d="M61.1551 24.7111C58.6064 24.7111 57.3083 23.4634 56.1629 22.3625C55.1287 21.3684 54.3117 20.5831 52.5659 20.5831C50.8202 20.5831 50.0032 21.3684 48.9688 22.3625C47.8236 23.4634 46.5254 24.7111 43.9766 24.7111C41.4278 24.7111 40.1298 23.4634 38.9844 22.3625C37.9502 21.3684 37.1334 20.5831 35.3876 20.5831C33.6421 20.5831 32.8252 21.3684 31.7911 22.3625C30.6458 23.4634 29.3477 24.7111 26.7988 24.7111C24.2504 24.7111 22.9526 23.4634 21.8073 22.3625C20.7733 21.3684 19.9565 20.5831 18.2111 20.5831C16.4655 20.5831 15.6487 21.3684 14.6145 22.3625C13.4693 23.4634 12.1711 24.7111 9.62245 24.7111C7.07364 24.7111 5.77547 23.4634 4.63005 22.3625C3.59589 21.3684 2.77906 20.5831 1.0333 20.5831C0.462747 20.5831 0 20.0973 0 19.4979C0 18.8988 0.462747 18.4128 1.0333 18.4128C3.58194 18.4128 4.88011 19.6605 6.02552 20.7614C7.05969 21.7556 7.87668 22.5408 9.62245 22.5408C11.368 22.5408 12.1849 21.7556 13.219 20.7616C14.3643 19.6605 15.6624 18.4128 18.2111 18.4128C20.7595 18.4128 22.0575 19.6607 23.2028 20.7616C24.2368 21.7557 25.0534 22.5408 26.7988 22.5408C28.5446 22.5408 29.3614 21.7556 30.3956 20.7616C31.5408 19.6605 32.839 18.4128 35.3876 18.4128C37.9365 18.4128 39.2345 19.6605 40.3799 20.7616C41.414 21.7556 42.231 22.5408 43.9766 22.5408C45.7226 22.5408 46.5394 21.7556 47.5735 20.7616C48.719 19.6605 50.0171 18.4128 52.5659 18.4128C55.1147 18.4128 56.4129 19.6605 57.5583 20.7616C58.5925 21.7556 59.4093 22.5408 61.1551 22.5408C62.9012 22.5408 63.7182 21.7556 64.7527 20.7614C65.8981 19.6605 67.1964 18.4128 69.7454 18.4128C70.316 18.4128 70.7787 18.8988 70.7787 19.4979C70.7787 20.0973 70.316 20.5831 69.7454 20.5831C67.9993 20.5831 67.1823 21.3684 66.1478 22.3625C65.0024 23.4634 63.7042 24.7111 61.1551 24.7111Z" fill="#63A7CC"/>
<path d="M61.1551 43.5203C58.6064 43.5203 57.3083 42.2726 56.1629 41.1717C55.1287 40.1775 54.3117 39.3923 52.5659 39.3923C50.8202 39.3923 50.0032 40.1775 48.9688 41.1715C47.8236 42.2726 46.5254 43.5203 43.9766 43.5203C41.4278 43.5203 40.1298 42.2726 38.9844 41.1715C37.9502 40.1775 37.1334 39.3923 35.3876 39.3923C33.6421 39.3923 32.8252 40.1775 31.7911 41.1715C30.6458 42.2726 29.3477 43.5203 26.7988 43.5203C24.2504 43.5203 22.9526 42.2726 21.8073 41.1715C20.7733 40.1775 19.9565 39.3923 18.2111 39.3923C16.4655 39.3923 15.6487 40.1775 14.6145 41.1715C13.4693 42.2726 12.1711 43.5203 9.62245 43.5203C7.07364 43.5203 5.77547 42.2726 4.63005 41.1715C3.59589 40.1775 2.77889 39.3923 1.0333 39.3923C0.462747 39.3923 0 38.9063 0 38.3071C0 37.7078 0.462747 37.222 1.0333 37.222C3.58194 37.222 4.88011 38.4697 6.02552 39.5706C7.05969 40.5648 7.87668 41.35 9.62245 41.35C11.368 41.35 12.1849 40.5648 13.219 39.5706C14.3643 38.4697 15.6624 37.222 18.2111 37.222C20.7595 37.222 22.0575 38.4697 23.2028 39.5708C24.2368 40.5647 25.0534 41.35 26.7988 41.35C28.5446 41.35 29.3614 40.5648 30.3956 39.5706C31.5408 38.4697 32.839 37.222 35.3876 37.222C37.9365 37.222 39.2345 38.4697 40.3799 39.5706C41.414 40.5648 42.231 41.35 43.9766 41.35C45.7226 41.35 46.5394 40.5648 47.5735 39.5706C48.719 38.4697 50.0171 37.222 52.5659 37.222C55.1147 37.222 56.4129 38.4697 57.5583 39.5706C58.5925 40.5648 59.4093 41.35 61.1551 41.35C62.9012 41.35 63.7182 40.5648 64.7527 39.5706C65.8981 38.4697 67.1964 37.222 69.7454 37.222C70.316 37.222 70.7787 37.7078 70.7787 38.3071C70.7787 38.9063 70.316 39.3923 69.7454 39.3923C67.9993 39.3923 67.1823 40.1775 66.1478 41.1717C65.0024 42.2726 63.7042 43.5203 61.1551 43.5203Z" fill="#63A7CC"/>
<path d="M61.1551 34.1011C58.6064 34.1011 57.3083 32.8534 56.1629 31.7525C55.1287 30.7584 54.3117 29.9731 52.5659 29.9731C50.8202 29.9731 50.0032 30.7584 48.9688 31.7523C47.8236 32.8534 46.5254 34.1011 43.9766 34.1011C41.4278 34.1011 40.1298 32.8534 38.9844 31.7523C37.9502 30.7584 37.1334 29.9731 35.3876 29.9731C33.6421 29.9731 32.8252 30.7584 31.7911 31.7523C30.6458 32.8534 29.3477 34.1011 26.7988 34.1011C24.2504 34.1011 22.9526 32.8534 21.8073 31.7523C20.7733 30.7584 19.9565 29.9731 18.2111 29.9731C16.4655 29.9731 15.6487 30.7584 14.6145 31.7523C13.4693 32.8534 12.1711 34.1011 9.62245 34.1011C7.07364 34.1011 5.77547 32.8534 4.63005 31.7523C3.59589 30.7584 2.77889 29.9731 1.0333 29.9731C0.462747 29.9731 0 29.4871 0 28.888C0 28.2886 0.462747 27.8028 1.0333 27.8028C3.58194 27.8028 4.88011 29.0505 6.02552 30.1514C7.05969 31.1456 7.87668 31.9309 9.62245 31.9309C11.368 31.9309 12.1849 31.1456 13.219 30.1514C14.3643 29.0505 15.6624 27.8028 18.2111 27.8028C20.7595 27.8028 22.0575 29.0505 23.2028 30.1516C24.2368 31.1456 25.0534 31.9309 26.7988 31.9309C28.5446 31.9309 29.3614 31.1456 30.3956 30.1514C31.5408 29.0505 32.839 27.8028 35.3876 27.8028C37.9365 27.8028 39.2345 29.0505 40.3799 30.1514C41.414 31.1456 42.231 31.9309 43.9766 31.9309C45.7226 31.9309 46.5394 31.1456 47.5735 30.1514C48.719 29.0505 50.0171 27.8028 52.5659 27.8028C55.1147 27.8028 56.4129 29.0505 57.5583 30.1514C58.5925 31.1456 59.4093 31.9309 61.1551 31.9309C62.9012 31.9309 63.7182 31.1456 64.7527 30.1514C65.8981 29.0505 67.1964 27.8028 69.7454 27.8028C70.316 27.8028 70.7787 28.2886 70.7787 28.888C70.7787 29.4871 70.316 29.9731 69.7454 29.9731C67.9993 29.9731 67.1823 30.7584 66.1478 31.7525C65.0024 32.8534 63.7042 34.1011 61.1551 34.1011Z" fill="#63A7CC"/>
<path d="M61.1551 52.9248C58.6064 52.9248 57.3083 51.677 56.1629 50.5762C55.1287 49.582 54.3117 48.7967 52.5659 48.7967C50.8202 48.7967 50.0032 49.582 48.9688 50.576C47.8236 51.677 46.5254 52.9248 43.9766 52.9248C41.4278 52.9248 40.1298 51.677 38.9844 50.576C37.9502 49.582 37.1334 48.7967 35.3876 48.7967C33.6421 48.7967 32.8252 49.582 31.7911 50.576C30.6458 51.677 29.3477 52.9248 26.7988 52.9248C24.2504 52.9248 22.9526 51.677 21.8073 50.576C20.7733 49.582 19.9565 48.7967 18.2111 48.7967C16.4655 48.7967 15.6487 49.582 14.6145 50.576C13.4693 51.677 12.1711 52.9248 9.62245 52.9248C7.07364 52.9248 5.77547 51.677 4.63005 50.576C3.59589 49.582 2.77889 48.7967 1.0333 48.7967C0.462747 48.7967 0 48.3108 0 47.7116C0 47.112 0.462747 46.6264 1.0333 46.6264C3.58194 46.6264 4.88011 47.8742 6.02552 48.975C7.05969 49.9692 7.87668 50.7545 9.62245 50.7545C11.368 50.7545 12.1849 49.9692 13.219 48.975C14.3643 47.8742 15.6624 46.6264 18.2111 46.6264C20.7595 46.6264 22.0575 47.8742 23.2028 48.9752C24.2368 49.9692 25.0534 50.7545 26.7988 50.7545C28.5446 50.7545 29.3614 49.9692 30.3956 48.975C31.5408 47.8742 32.839 46.6264 35.3876 46.6264C37.9365 46.6264 39.2345 47.8742 40.3799 48.975C41.414 49.9692 42.231 50.7545 43.9766 50.7545C45.7226 50.7545 46.5394 49.9692 47.5735 48.975C48.719 47.8742 50.0171 46.6264 52.5659 46.6264C55.1147 46.6264 56.4129 47.8742 57.5583 48.975C58.5925 49.9692 59.4093 50.7545 61.1551 50.7545C62.9012 50.7545 63.7182 49.9692 64.7527 48.975C65.8981 47.8742 67.1964 46.6264 69.7454 46.6264C70.316 46.6264 70.7787 47.112 70.7787 47.7116C70.7787 48.3108 70.316 48.7967 69.7454 48.7967C67.9993 48.7967 67.1823 49.582 66.1478 50.5762C65.0024 51.677 63.7042 52.9248 61.1551 52.9248Z" fill="#63A7CC"/>
<path d="M153.033 58.8848C150.485 58.8848 149.186 57.5286 148.041 56.3321C147.007 55.2515 146.19 54.398 144.444 54.398C142.699 54.398 141.882 55.2515 140.847 56.3319C139.702 57.5286 138.404 58.8848 135.856 58.8848C133.307 58.8848 132.009 57.5286 130.864 56.3319C129.829 55.2515 129.013 54.398 127.267 54.398C125.522 54.398 124.705 55.2515 123.671 56.3319C122.525 57.5286 121.227 58.8848 118.679 58.8848C116.13 58.8848 114.833 57.5286 113.687 56.3319C112.653 55.2515 111.837 54.398 110.091 54.398C108.346 54.398 107.529 55.2515 106.495 56.3319C105.35 57.5286 104.052 58.8848 101.503 58.8848C98.9545 58.8848 97.6564 57.5286 96.511 56.3319C95.4769 55.2515 94.66 54.398 92.9145 54.398C92.3439 54.398 91.8812 53.8698 91.8812 53.2185C91.8812 52.5671 92.3439 52.0391 92.9145 52.0391C95.463 52.0391 96.7611 53.3952 97.9064 54.5918C98.9405 55.6724 99.7575 56.5259 101.503 56.5259C103.249 56.5259 104.065 55.6724 105.1 54.5918C106.245 53.3952 107.543 52.0391 110.091 52.0391C112.64 52.0391 113.938 53.3952 115.083 54.592C116.117 55.6724 116.933 56.5259 118.679 56.5259C120.424 56.5259 121.241 55.6724 122.275 54.5918C123.42 53.3952 124.718 52.0391 127.267 52.0391C129.816 52.0391 131.114 53.3952 132.259 54.5918C133.293 55.6724 134.11 56.5259 135.856 56.5259C137.601 56.5259 138.418 55.6724 139.452 54.5918C140.598 53.3952 141.896 52.0391 144.444 52.0391C146.993 52.0391 148.291 53.3952 149.437 54.5918C150.471 55.6724 151.287 56.5259 153.033 56.5259C154.779 56.5259 155.596 55.6724 156.63 54.5918C157.776 53.3952 159.074 52.0391 161.623 52.0391C162.193 52.0391 162.656 52.5671 162.656 53.2185C162.656 53.8698 162.193 54.398 161.623 54.398C159.877 54.398 159.06 55.2515 158.026 56.3321C156.88 57.5286 155.582 58.8848 153.033 58.8848Z" fill="#63A7CC"/>
<path d="M153.033 9.98637C150.485 9.98637 149.186 8.6302 148.041 7.43364C147.007 6.35306 146.19 5.49953 144.444 5.49953C142.699 5.49953 141.882 6.35307 140.847 7.43345C139.702 8.6302 138.404 9.98637 135.856 9.98637C133.307 9.98637 132.009 8.6302 130.864 7.43345C129.829 6.35307 129.013 5.49953 127.267 5.49953C125.522 5.49953 124.705 6.35307 123.671 7.43345C122.525 8.6302 121.227 9.98637 118.679 9.98637C116.13 9.98637 114.833 8.6302 113.687 7.43345C112.653 6.35307 111.837 5.49953 110.091 5.49953C108.346 5.49953 107.529 6.35307 106.495 7.43345C105.35 8.6302 104.052 9.98637 101.503 9.98637C98.9545 9.98637 97.6564 8.6302 96.511 7.43345C95.4769 6.35307 94.66 5.49953 92.9145 5.49953C92.3439 5.49953 91.8812 4.97133 91.8812 4.32008C91.8812 3.66863 92.3439 3.14062 92.9145 3.14062C95.463 3.14062 96.7611 4.4968 97.9064 5.69336C98.9405 6.77393 99.7575 7.62747 101.503 7.62747C103.249 7.62747 104.065 6.77393 105.1 5.69336C106.245 4.4968 107.543 3.14062 110.091 3.14062C112.64 3.14062 113.938 4.4968 115.083 5.69355C116.117 6.77393 116.933 7.62747 118.679 7.62747C120.424 7.62747 121.241 6.77393 122.275 5.69336C123.42 4.4968 124.718 3.14062 127.267 3.14062C129.816 3.14062 131.114 4.4968 132.259 5.69336C133.293 6.77393 134.11 7.62747 135.856 7.62747C137.601 7.62747 138.418 6.77393 139.452 5.69336C140.598 4.4968 141.896 3.14062 144.444 3.14062C146.993 3.14062 148.291 4.4968 149.437 5.69336C150.471 6.77393 151.287 7.62747 153.033 7.62747C154.779 7.62747 155.596 6.77393 156.63 5.69336C157.776 4.4968 159.074 3.14062 161.623 3.14062C162.193 3.14062 162.656 3.66863 162.656 4.32008C162.656 4.97133 162.193 5.49953 161.623 5.49953C159.877 5.49953 159.06 6.35306 158.026 7.43364C156.88 8.6302 155.582 9.98637 153.033 9.98637Z" fill="#63A7CC"/>
<path d="M221.946 58.8848C219.397 58.8848 218.099 57.5286 216.954 56.3321C215.919 55.2515 215.103 54.398 213.357 54.398C211.611 54.398 210.794 55.2515 209.76 56.3319C208.615 57.5286 207.317 58.8848 204.768 58.8848C202.219 58.8848 200.921 57.5286 199.776 56.3319C198.742 55.2515 197.925 54.398 196.179 54.398C194.434 54.398 193.617 55.2515 192.583 56.3319C191.438 57.5286 190.14 58.8848 187.591 58.8848C185.043 58.8848 183.745 57.5286 182.6 56.3319C181.566 55.2515 180.749 54.398 179.004 54.398C177.258 54.398 176.442 55.2515 175.407 56.3319C174.262 57.5286 172.964 58.8848 170.416 58.8848C167.867 58.8848 166.569 57.5286 165.424 56.3319C164.389 55.2515 163.572 54.398 161.827 54.398C161.256 54.398 160.794 53.8698 160.794 53.2185C160.794 52.5671 161.256 52.0391 161.827 52.0391C164.375 52.0391 165.674 53.3952 166.819 54.5918C167.853 55.6724 168.67 56.5259 170.416 56.5259C172.161 56.5259 172.978 55.6724 174.012 54.5918C175.157 53.3952 176.455 52.0391 179.004 52.0391C181.552 52.0391 182.85 53.3952 183.995 54.592C185.029 55.6724 185.846 56.5259 187.591 56.5259C189.337 56.5259 190.154 55.6724 191.188 54.5918C192.333 53.3952 193.631 52.0391 196.179 52.0391C198.728 52.0391 200.026 53.3952 201.171 54.5918C202.206 55.6724 203.022 56.5259 204.768 56.5259C206.514 56.5259 207.331 55.6724 208.365 54.5918C209.51 53.3952 210.808 52.0391 213.357 52.0391C215.906 52.0391 217.204 53.3952 218.349 54.5918C219.383 55.6724 220.2 56.5259 221.946 56.5259C223.692 56.5259 224.509 55.6724 225.543 54.5918C226.688 53.3952 227.987 52.0391 230.535 52.0391C231.106 52.0391 231.569 52.5671 231.569 53.2185C231.569 53.8698 231.106 54.398 230.535 54.398C228.789 54.398 227.972 55.2515 226.938 56.3321C225.793 57.5286 224.495 58.8848 221.946 58.8848Z" fill="#63A7CC"/>
<path d="M221.946 9.98637C219.397 9.98637 218.099 8.6302 216.954 7.43364C215.919 6.35306 215.103 5.49953 213.357 5.49953C211.611 5.49953 210.794 6.35307 209.76 7.43345C208.615 8.6302 207.317 9.98637 204.768 9.98637C202.219 9.98637 200.921 8.6302 199.776 7.43345C198.742 6.35307 197.925 5.49953 196.179 5.49953C194.434 5.49953 193.617 6.35307 192.583 7.43345C191.438 8.6302 190.14 9.98637 187.591 9.98637C185.043 9.98637 183.745 8.6302 182.6 7.43345C181.566 6.35307 180.749 5.49953 179.004 5.49953C177.258 5.49953 176.442 6.35307 175.407 7.43345C174.262 8.6302 172.964 9.98637 170.416 9.98637C167.867 9.98637 166.569 8.6302 165.424 7.43345C164.389 6.35307 163.572 5.49953 161.827 5.49953C161.256 5.49953 160.794 4.97133 160.794 4.32008C160.794 3.66863 161.256 3.14062 161.827 3.14062C164.375 3.14062 165.674 4.4968 166.819 5.69336C167.853 6.77393 168.67 7.62747 170.416 7.62747C172.161 7.62747 172.978 6.77393 174.012 5.69336C175.157 4.4968 176.455 3.14062 179.004 3.14062C181.552 3.14062 182.85 4.4968 183.995 5.69355C185.029 6.77393 185.846 7.62747 187.591 7.62747C189.337 7.62747 190.154 6.77393 191.188 5.69336C192.333 4.4968 193.631 3.14062 196.179 3.14062C198.728 3.14062 200.026 4.4968 201.171 5.69336C202.206 6.77393 203.022 7.62747 204.768 7.62747C206.514 7.62747 207.331 6.77393 208.365 5.69336C209.51 4.4968 210.808 3.14062 213.357 3.14062C215.906 3.14062 217.204 4.4968 218.349 5.69336C219.383 6.77393 220.2 7.62747 221.946 7.62747C223.692 7.62747 224.509 6.77393 225.543 5.69336C226.688 4.4968 227.987 3.14062 230.535 3.14062C231.106 3.14062 231.569 3.66863 231.569 4.32008C231.569 4.97133 231.106 5.49953 230.535 5.49953C228.789 5.49953 227.972 6.35306 226.938 7.43364C225.793 8.6302 224.495 9.98637 221.946 9.98637Z" fill="#63A7CC"/>
</svg>
