<svg width="75" height="80" viewBox="0 0 75 80" fill="none" xmlns="http://www.w3.org/2000/svg">
<path d="M71.25 43.75H68.75H18.7631C18.7606 43.75 18.7581 43.75 18.7556 43.75H6.25H3.75C1.68219 43.75 0 45.4323 0 47.5C0 48.1903 0.559687 48.75 1.25 48.75C1.94031 48.75 2.5 48.1903 2.5 47.5C2.5 46.8108 3.06078 46.25 3.75 46.25H4.77437L1.87234 63.663C1.43328 66.298 1.94828 69.0106 3.32266 71.3011L5 74.0963V78.5938C5 79.3692 5.63094 80 6.40625 80H68.5938C69.3691 80 70 79.3692 70 78.5938V74.0963L71.6773 71.3011C73.0517 69.0106 73.5667 66.298 73.1277 63.663L70.2256 46.25H71.25C71.9392 46.25 72.5 46.8108 72.5 47.5C72.5 48.1903 73.0597 48.75 73.75 48.75C74.4403 48.75 75 48.1903 75 47.5C75 45.4323 73.3178 43.75 71.25 43.75ZM63.2836 70.0148L61.7923 72.5H58.0964L58.9795 70.2922C59.6647 68.5794 59.9192 66.7048 59.7155 64.8713L57.6466 46.25H61.4411L64.4117 64.0741C64.7531 66.1234 64.3525 68.2333 63.2836 70.0148ZM51.6567 72.5L52.4903 69.5797C52.8603 68.2841 52.9939 66.9459 52.8873 65.6022L51.353 46.25H55.1311L57.2308 65.1473C57.3892 66.5734 57.1914 68.0314 56.6583 69.3634L55.4038 72.5H51.6567ZM45.0723 72.5L45.3295 67.9294C45.3445 67.662 45.35 67.3905 45.3458 67.1219L45.0197 46.25H48.8452L50.3952 65.7998C50.478 66.8448 50.3742 67.8856 50.0864 68.8933L49.0569 72.5H45.0723ZM38.75 72.5V46.25H42.5194L42.8461 67.1609C42.8494 67.3698 42.8452 67.5813 42.8334 67.7892L42.5684 72.5H38.75ZM32.4242 72.5L32.1317 67.8213C32.1173 67.5894 32.112 67.3547 32.1161 67.1233L32.4786 46.25H36.25V72.5H32.4242ZM13.2077 72.5L11.7164 70.0148C10.6475 68.2334 10.2469 66.1236 10.5883 64.0741L13.5589 46.25H17.3534L15.2844 64.8713C15.0806 66.7048 15.3352 68.5794 16.0203 70.2922L16.9034 72.5H13.2077ZM19.5963 72.5L18.3416 69.3636C17.8086 68.0316 17.6106 66.5736 17.7691 65.1475L19.8689 46.25H23.6462L22.1019 65.5891C21.9939 66.9419 22.1292 68.2891 22.5042 69.5933L23.34 72.5H19.5963ZM25.9413 72.5L24.9069 68.9023C24.6152 67.8881 24.5098 66.8403 24.5939 65.788L26.1542 46.25H29.9781L29.6166 67.0798C29.6113 67.377 29.6181 67.6789 29.6367 67.977L29.9195 72.5H25.9413V72.5ZM4.33828 64.0741L7.30891 46.25H11.0245L8.12234 63.663C7.68328 66.298 8.19828 69.0106 9.57266 71.3011L10.292 72.5H6.95766L5.46641 70.0148C4.3975 68.2333 3.99687 66.1234 4.33828 64.0741ZM67.5 77.5H7.5V75H12.4987C12.4995 75 12.5003 75.0002 12.5011 75.0002C12.5019 75.0002 12.5027 75 12.5034 75H18.7462C18.7477 75 18.7489 75.0003 18.7503 75.0003C18.7525 75.0003 18.7547 75 18.7569 75H24.9956C24.9969 75 24.9981 75.0003 24.9994 75.0003C25.0008 75.0003 25.0023 75 25.0038 75H49.9963C49.9977 75 49.9992 75.0003 50.0006 75.0003C50.0019 75.0003 50.0031 75 50.0044 75H56.2431C56.2453 75 56.2475 75.0003 56.2497 75.0003C56.2511 75.0003 56.2523 75 56.2537 75H62.4966C62.4973 75 62.4981 75.0002 62.4989 75.0002C62.4997 75.0002 62.5005 75 62.5012 75H67.5V77.5ZM69.5336 70.0148L68.0423 72.5H64.708L65.4273 71.3011C66.8017 69.0106 67.3167 66.298 66.8777 63.663L63.9756 46.25H67.6911L70.6617 64.0741C71.0031 66.1234 70.6025 68.2333 69.5336 70.0148Z" fill="black"/>
<path d="M13.75 41.25C14.4403 41.25 15 40.6903 15 40V2.5H60V40C60 40.6903 60.5597 41.25 61.25 41.25C61.9403 41.25 62.5 40.6903 62.5 40V2.5C62.5 1.12156 61.3784 0 60 0H15C13.6216 0 12.5 1.12156 12.5 2.5V40C12.5 40.6903 13.0597 41.25 13.75 41.25Z" fill="black"/>
<path d="M56.25 41.25C56.9403 41.25 57.5 40.6903 57.5 40V6.25C57.5 5.55969 56.9403 5 56.25 5H18.75C18.0597 5 17.5 5.55969 17.5 6.25V40C17.5 40.6903 18.0597 41.25 18.75 41.25C19.4403 41.25 20 40.6903 20 40V21.25H32.4998C33.1902 21.25 33.7498 20.6903 33.7498 20C33.7498 19.3097 33.1902 18.75 32.4998 18.75H20V7.5H36.25V40C36.25 40.6903 36.8097 41.25 37.5 41.25C38.1903 41.25 38.75 40.6903 38.75 40V21.25H55V40C55 40.6903 55.5597 41.25 56.25 41.25ZM38.75 18.75V7.5H55V18.75H38.75Z" fill="black"/>
</svg>
