<svg width="34" height="37" viewBox="0 0 34 37" fill="none" xmlns="http://www.w3.org/2000/svg">
<path d="M30.0156 0H3.98438C1.78739 0 0 1.9451 0 4.33594V32.6641C0 35.0549 1.78739 37 3.98438 37H30.0156C32.2126 37 34 35.0549 34 32.6641V4.33594C34 1.9451 32.2126 0 30.0156 0ZM31.3438 32.6641C31.3438 33.461 30.748 34.1094 30.0156 34.1094H22.4453V22.3301H26.5486L27.2266 17.8496H22.4453V14.7422C22.4453 13.5155 23.3103 12.5742 24.4375 12.5742H27.1602V8.09375H24.4375C21.0559 8.09375 18.3296 11.0747 18.3296 14.7548V17.8496H14.3438V22.3301H18.3296V34.1094H3.98438C3.25205 34.1094 2.65625 33.461 2.65625 32.6641V4.33594C2.65625 3.53899 3.25205 2.89062 3.98438 2.89062H30.0156C30.748 2.89062 31.3438 3.53899 31.3438 4.33594V32.6641Z" fill="black"/>
</svg>
