<svg width="75" height="75" viewBox="0 0 75 75" fill="none" xmlns="http://www.w3.org/2000/svg">
<path d="M52.6588 0.732422H22.3416C21.4607 0.734807 20.5889 0.911243 19.7765 1.25159C18.964 1.59194 18.2268 2.08949 17.6072 2.71565C16.9876 3.34181 16.4979 4.08424 16.1661 4.90027C15.8343 5.7163 15.6671 6.58984 15.674 7.4707V63.7667C15.674 66.4748 17.1389 68.8132 19.4826 69.8832V73.3887C19.491 73.6255 19.5912 73.8497 19.7622 74.0138C19.9331 74.1779 20.1612 74.2689 20.3982 74.2676H25.9988C26.4843 74.2676 26.8068 73.874 26.8068 73.3887V70.459H48.1936V73.3887C48.1936 73.874 48.5158 74.2676 49.0016 74.2676H54.6022C54.8392 74.2689 55.0673 74.1779 55.2382 74.0138C55.4092 73.8497 55.5094 73.6255 55.5178 73.3887V69.8832C57.8615 68.8138 59.3264 66.4748 59.3264 63.7667V7.4707C59.3333 6.58984 59.1661 5.7163 58.8343 4.90027C58.5026 4.08424 58.0128 3.34181 57.3932 2.71565C56.7736 2.08949 56.0364 1.59194 55.2239 1.25159C54.4115 0.911243 53.5397 0.734807 52.6588 0.732422V0.732422ZM25.049 72.5098H21.2404V70.4202C21.6061 70.4594 21.9741 70.4724 22.3416 70.459H25.049V72.5098ZM26.5139 68.7012H23.7307V68.291C23.7325 67.4916 24.0106 66.7174 24.5178 66.0994C25.025 65.4815 25.7301 65.0578 26.5139 64.9002V68.7012ZM31.4943 68.7012H28.2717V64.8926H31.4943V68.7012ZM36.6213 68.7012H33.2522V64.8926H36.6213V68.7012ZM41.7482 68.7012H38.3791V64.8926H41.7482V68.7012ZM46.7287 68.7012H43.5061V64.8926H46.7287V68.7012ZM48.4865 68.7012V64.8731C50.0979 65.1536 51.4162 66.5793 51.4162 68.2917V68.7012H48.4865ZM53.76 72.5098H49.9514V70.459H52.6588C53.0263 70.4724 53.3943 70.4594 53.76 70.4202V72.5098ZM57.5686 63.7667C57.5804 64.9856 57.1362 66.1649 56.3231 67.073C55.51 67.9811 54.3868 68.5525 53.174 68.675V68.2917C53.174 65.4094 50.8191 63.1355 47.9368 63.1355H27.2092C24.3261 63.1348 21.9729 65.4094 21.9729 68.2917V68.6865C20.7318 68.599 19.5708 68.0413 18.7269 67.127C17.8831 66.2128 17.4198 65.011 17.4318 63.7668V22.8516H20.508V27.3974C20.508 28.2521 20.8475 29.0718 21.4519 29.6762C22.0563 30.2805 22.876 30.6201 23.7307 30.6201C24.5854 30.6201 25.4051 30.2805 26.0094 29.6762C26.6138 29.0718 26.9533 28.2521 26.9533 27.3974V22.8516H57.5686V63.7667ZM22.2658 27.3974V16.5527C22.2658 16.1642 22.4202 15.7916 22.6949 15.5169C22.9696 15.2422 23.3422 15.0879 23.7307 15.0879C24.1192 15.0879 24.4918 15.2422 24.7665 15.5169C25.0412 15.7916 25.1955 16.1642 25.1955 16.5527V27.3977C25.1955 27.7862 25.0412 28.1588 24.7665 28.4335C24.4918 28.7082 24.1192 28.8625 23.7307 28.8625C23.3422 28.8625 22.9696 28.7082 22.6949 28.4335C22.4202 28.1588 22.2658 27.7862 22.2658 27.3977V27.3974ZM57.5686 21.0938H26.9533V16.5527C26.9533 15.698 26.6138 14.8783 26.0094 14.274C25.4051 13.6696 24.5854 13.3301 23.7307 13.3301C22.876 13.3301 22.0563 13.6696 21.4519 14.274C20.8475 14.8783 20.508 15.698 20.508 16.5527V21.0938H17.4318V7.4707C17.4247 6.82062 17.5462 6.17554 17.7896 5.57266C18.0329 4.96978 18.3931 4.42103 18.8495 3.95804C19.306 3.49506 19.8495 3.12699 20.4488 2.87507C21.0482 2.62315 21.6914 2.49236 22.3416 2.49023H52.6588C53.309 2.49236 53.9522 2.62315 54.5516 2.87507C55.1509 3.12699 55.6944 3.49506 56.1509 3.95804C56.6073 4.42103 56.9675 4.96978 57.2108 5.57266C57.4542 6.17554 57.5757 6.82062 57.5686 7.4707V21.0938Z" fill="black"/>
<path d="M53.9062 13.4766H44.5312C44.1427 13.4766 43.7702 13.6309 43.4954 13.9056C43.2207 14.1803 43.0664 14.5529 43.0664 14.9414V17.5781C43.0664 17.9666 43.2207 18.3392 43.4954 18.6139C43.7702 18.8886 44.1427 19.043 44.5312 19.043H53.9062C54.2948 19.043 54.6673 18.8886 54.9421 18.6139C55.2168 18.3392 55.3711 17.9666 55.3711 17.5781V14.9414C55.3711 14.5529 55.2168 14.1803 54.9421 13.9056C54.6673 13.6309 54.2948 13.4766 53.9062 13.4766V13.4766ZM53.4668 17.2852H44.8242V15.2344H53.4668V17.2852Z" fill="black"/>
<path d="M19.9219 34.8788C19.6888 34.8788 19.4652 34.9714 19.3004 35.1362C19.1356 35.301 19.043 35.5246 19.043 35.7577V46.8622C19.043 47.0953 19.1356 47.3189 19.3004 47.4837C19.4652 47.6485 19.6888 47.7411 19.9219 47.7411C20.155 47.7411 20.3785 47.6485 20.5434 47.4837C20.7082 47.3189 20.8008 47.0953 20.8008 46.8622V35.7577C20.8008 35.5246 20.7082 35.301 20.5434 35.1362C20.3785 34.9714 20.155 34.8788 19.9219 34.8788V34.8788Z" fill="black"/>
<path d="M19.9219 31.1853C19.6888 31.1853 19.4652 31.2779 19.3004 31.4427C19.1356 31.6076 19.043 31.8311 19.043 32.0642V32.7723C19.043 33.0054 19.1356 33.229 19.3004 33.3938C19.4652 33.5586 19.6888 33.6512 19.9219 33.6512C20.155 33.6512 20.3785 33.5586 20.5434 33.3938C20.7082 33.229 20.8008 33.0054 20.8008 32.7723V32.0642C20.8008 31.8311 20.7082 31.6076 20.5434 31.4427C20.3785 31.2779 20.155 31.1853 19.9219 31.1853Z" fill="black"/>
</svg>
