<svg width="52" height="52" fill="none" xmlns="http://www.w3.org/2000/svg"><path d="m51.605 24.268-9.594-8.193c.01-.056.022-.112.033-.18V5.18a1.195 1.195 0 0 0-1.154-1.176h-5.358c-.616 0-1.12.549-1.12 1.176V9.62l-7.678-6.546a1.121 1.121 0 0 0-1.458 0L.406 24.257a1.12 1.12 0 0 0-.147 1.58 1.12 1.12 0 0 0 1.58.146l.023-.022L26.005 5.405l8.642 7.363 5.167 4.394 10.345 8.81a1.12 1.12 0 0 0 1.58-.123 1.131 1.131 0 0 0-.134-1.58zM39.791 14.181l-3.138-2.645v-5.28h3.138v7.925z" fill="#000"/><path d="m46.662 26.532-3.15-2.69L26.735 9.507a1.121 1.121 0 0 0-1.458 0L8.498 23.842l-3.15 2.69a1.12 1.12 0 0 0-.123 1.58 1.09 1.09 0 0 0 1.546.135l.012-.01 1.4-1.211V48.04a1.183 1.183 0 0 0 1.155 1.155h33.323a1.175 1.175 0 0 0 1.154-1.155V27.026l1.401 1.21c.202.168.449.27.718.27.325 0 .639-.147.852-.393a1.108 1.108 0 0 0-.124-1.58zm-16.174 20.41h-8.966V34.839h8.966v12.105zm2.242 0V33.752c0-.617-.46-1.155-1.076-1.155H20.356c-.616 0-1.076.538-1.076 1.155v13.192h-8.855V25.109l15.58-13.27 15.58 13.27v21.834H32.73z" fill="#000"/></svg>