<svg width="52" height="52" fill="none" xmlns="http://www.w3.org/2000/svg"><g clip-path="url(#a)" fill="#000"><path d="M40.625 52h-29.25A4.881 4.881 0 0 1 6.5 47.125v-22.75a4.881 4.881 0 0 1 4.875-4.875h29.25a4.881 4.881 0 0 1 4.875 4.875v22.75A4.881 4.881 0 0 1 40.625 52zm-29.25-29.25c-.895 0-1.625.728-1.625 1.625v22.75c0 .897.73 1.625 1.625 1.625h29.25c.895 0 1.625-.728 1.625-1.625v-22.75c0-.897-.73-1.625-1.625-1.625h-29.25z"/><path d="M37.375 22.75a1.626 1.626 0 0 1-1.625-1.625V13c0-5.375-4.375-9.75-9.75-9.75S16.25 7.625 16.25 13v8.125a1.626 1.626 0 0 1-3.25 0V13c0-7.17 5.83-13 13-13s13 5.83 13 13v8.125c0 .897-.728 1.625-1.625 1.625zM26 36.833a4.338 4.338 0 0 1-4.333-4.333A4.338 4.338 0 0 1 26 28.167a4.338 4.338 0 0 1 4.333 4.333A4.338 4.338 0 0 1 26 36.833zm0-5.416c-.596 0-1.083.485-1.083 1.083s.487 1.083 1.083 1.083 1.083-.485 1.083-1.083-.487-1.083-1.083-1.083z"/><path d="M26 43.333a1.626 1.626 0 0 1-1.625-1.625V35.75a1.626 1.626 0 0 1 3.25 0v5.958c0 .897-.728 1.625-1.625 1.625z"/></g><defs><clipPath id="a"><path fill="#fff" d="M0 0h52v52H0z"/></clipPath></defs></svg>