<svg width="253" height="59" fill="none" xmlns="http://www.w3.org/2000/svg"><path d="M114.149 40.448c.36-.144.66-.216.9-.216.384 0 .672.144.864.432.192.288.288.66.288 1.116 0 .72-.18 1.332-.54 1.836-.336.504-.924.96-1.764 1.368-1.416.672-3.252 1.212-5.508 1.62a39.643 39.643 0 0 1-6.66.576c-3.024 0-5.556-.336-7.596-1.008-2.04-.696-3.564-1.644-4.572-2.844-.984-1.2-1.476-2.556-1.476-4.068 0-2.064.66-3.816 1.98-5.256 1.344-1.464 3.312-2.52 5.904-3.168-1.416-.408-2.508-1.128-3.276-2.16a5.77 5.77 0 0 1-1.116-3.456c0-1.728.54-3.252 1.62-4.572 1.104-1.344 2.58-2.376 4.428-3.096 1.848-.72 3.876-1.08 6.084-1.08 2.976 0 5.208.648 6.696 1.944 1.488 1.272 2.232 2.928 2.232 4.968 0 1.416-.264 2.568-.792 3.456-.504.864-1.236 1.296-2.196 1.296-.672 0-1.2-.144-1.584-.432-.384-.312-.576-.768-.576-1.368 0-.408.06-.852.18-1.332.12-.792.18-1.332.18-1.62 0-.864-.324-1.56-.972-2.088-.648-.552-1.728-.828-3.24-.828-2.04 0-3.672.432-4.896 1.296-1.224.864-1.836 2.028-1.836 3.492 0 1.128.456 2.064 1.368 2.808.936.72 2.448 1.116 4.536 1.188.528.024.9.144 1.116.36.216.216.324.576.324 1.08 0 1.584-.72 2.388-2.16 2.412-1.992.048-3.648.324-4.968.828-1.296.504-2.244 1.152-2.844 1.944-.576.768-.864 1.596-.864 2.484 0 1.488.696 2.616 2.088 3.384 1.392.744 3.6 1.116 6.624 1.116 1.992 0 4.092-.228 6.3-.684 2.232-.48 4.14-1.056 5.724-1.728zm20.035-1.476c.312 0 .552.144.72.432.192.288.288.684.288 1.188 0 .96-.228 1.704-.684 2.232-1.08 1.32-2.172 2.376-3.276 3.168-1.104.792-2.412 1.188-3.924 1.188-1.848 0-3.336-.528-4.464-1.584-1.128-1.056-1.692-2.46-1.692-4.212 0-.936.48-1.608 1.44-2.016 1.056-.456 1.812-.936 2.268-1.44.456-.528.684-1.164.684-1.908 0-.432-.096-.756-.288-.972a.785.785 0 0 0-.648-.324c-.648 0-1.368.468-2.16 1.404-.768.936-1.488 2.148-2.16 3.636a25.406 25.406 0 0 0-1.584 4.536c-.264 1.128-.576 1.896-.936 2.304-.336.384-.876.576-1.62.576-.744 0-1.296-.264-1.656-.792-.336-.552-.564-1.392-.684-2.52-.12-1.128-.18-2.784-.18-4.968 0-3.696.372-7.548 1.116-11.556.768-4.008 1.884-7.368 3.348-10.08 1.488-2.736 3.264-4.104 5.328-4.104 1.104 0 1.992.48 2.664 1.44.696.936 1.044 2.16 1.044 3.672 0 2.424-.708 4.944-2.124 7.56-1.416 2.592-3.72 5.628-6.912 9.108a66.9 66.9 0 0 0-.108 3.852c1.152-3 2.472-5.172 3.96-6.516 1.488-1.368 2.88-2.052 4.176-2.052 1.2 0 2.16.408 2.88 1.224.744.816 1.116 1.824 1.116 3.024a6.86 6.86 0 0 1-1.008 3.636c-.672 1.104-1.824 2.088-3.456 2.952.096.648.384 1.176.864 1.584.504.384 1.104.576 1.8.576.744 0 1.464-.288 2.16-.864.696-.576 1.608-1.536 2.736-2.88.288-.336.612-.504.972-.504zm-11.52-22.248c-.432 0-.912.624-1.44 1.872-.528 1.224-1.044 2.892-1.548 5.004a69.423 69.423 0 0 0-1.188 6.84 25.268 25.268 0 0 0 3.672-5.724c.984-2.064 1.476-3.936 1.476-5.616 0-.768-.084-1.356-.252-1.764-.168-.408-.408-.612-.72-.612zm16.323 31.248c-1.248 0-2.208-.288-2.88-.864-.648-.576-.972-1.224-.972-1.944 0-.624.228-1.164.684-1.62.456-.456 1.128-.684 2.016-.684.312 0 .672.036 1.08.108l.972.108a4.44 4.44 0 0 0-.432-1.764 7.63 7.63 0 0 0-.936-1.584 19.577 19.577 0 0 0-1.08-1.368c-.744 1.416-1.488 2.592-2.232 3.528a24.817 24.817 0 0 1-2.376 2.664c-.432.432-.888.648-1.368.648-.384 0-.696-.132-.937-.396a1.577 1.577 0 0 1-.36-1.044c0-.48.168-.924.505-1.332l.468-.576c1.32-1.632 2.316-2.976 2.988-4.032.408-.696.888-1.62 1.44-2.772a103.105 103.105 0 0 0 1.62-3.636c.456-1.056 1.404-1.584 2.844-1.584.672 0 1.14.06 1.404.18s.396.312.396.576c0 .144-.048.372-.144.684a5.203 5.203 0 0 1-.396.936c-.432.864-.648 1.596-.648 2.196 0 .36.12.756.36 1.188.264.432.66.972 1.188 1.62.768 1.008 1.344 1.872 1.728 2.592.408.696.612 1.464.612 2.304 0 .24-.024.576-.072 1.008 1.176-.456 2.556-1.668 4.14-3.636.288-.336.612-.504.971-.504.313 0 .553.144.721.432.192.288.288.684.288 1.188 0 .912-.228 1.656-.684 2.232-1.2 1.488-2.352 2.508-3.456 3.06-1.08.528-2.424.816-4.032.864-.96.816-2.1 1.224-3.42 1.224zm29.475-9c.312 0 .552.144.72.432.192.288.288.684.288 1.188 0 .96-.228 1.704-.684 2.232-1.08 1.32-2.172 2.376-3.276 3.168-1.104.792-2.412 1.188-3.924 1.188-1.848 0-3.336-.528-4.464-1.584-1.128-1.056-1.692-2.46-1.692-4.212 0-.936.48-1.608 1.44-2.016 1.056-.456 1.812-.936 2.268-1.44.456-.528.684-1.164.684-1.908 0-.432-.096-.756-.288-.972a.785.785 0 0 0-.648-.324c-.648 0-1.368.468-2.16 1.404-.768.936-1.488 2.148-2.16 3.636a25.406 25.406 0 0 0-1.584 4.536c-.264 1.128-.576 1.896-.936 2.304-.336.384-.876.576-1.62.576-.744 0-1.296-.264-1.656-.792-.336-.552-.564-1.392-.684-2.52-.12-1.128-.18-2.784-.18-4.968 0-3.696.372-7.548 1.116-11.556.768-4.008 1.884-7.368 3.348-10.08 1.488-2.736 3.264-4.104 5.328-4.104 1.104 0 1.992.48 2.664 1.44.696.936 1.044 2.16 1.044 3.672 0 2.424-.708 4.944-2.124 7.56-1.416 2.592-3.72 5.628-6.912 9.108a66.9 66.9 0 0 0-.108 3.852c1.152-3 2.472-5.172 3.96-6.516 1.488-1.368 2.88-2.052 4.176-2.052 1.2 0 2.16.408 2.88 1.224.744.816 1.116 1.824 1.116 3.024a6.86 6.86 0 0 1-1.008 3.636c-.672 1.104-1.824 2.088-3.456 2.952.096.648.384 1.176.864 1.584.504.384 1.104.576 1.8.576.744 0 1.464-.288 2.16-.864.696-.576 1.608-1.536 2.736-2.88.288-.336.612-.504.972-.504zm-11.52-22.248c-.432 0-.912.624-1.44 1.872-.528 1.224-1.044 2.892-1.548 5.004a69.423 69.423 0 0 0-1.188 6.84 25.268 25.268 0 0 0 3.672-5.724c.984-2.064 1.476-3.936 1.476-5.616 0-.768-.084-1.356-.252-1.764-.168-.408-.408-.612-.72-.612zm12.182 30.456c-.912 0-1.56-.48-1.944-1.44-.36-.96-.54-2.496-.54-4.608 0-3.12.444-6.084 1.332-8.892.216-.696.564-1.2 1.044-1.512.504-.336 1.2-.504 2.088-.504.48 0 .816.06 1.008.18.192.12.288.348.288.684 0 .384-.18 1.248-.54 2.592-.24.96-.432 1.8-.576 2.52-.144.72-.264 1.608-.36 2.664.792-2.064 1.68-3.744 2.664-5.04.984-1.296 1.944-2.22 2.88-2.772.96-.552 1.836-.828 2.628-.828 1.56 0 2.34.78 2.34 2.34 0 .312-.108 1.068-.324 2.268-.192.96-.288 1.56-.288 1.8 0 .84.3 1.26.9 1.26.672 0 1.536-.528 2.592-1.584.312-.312.636-.468.972-.468.312 0 .552.144.72.432.192.264.288.624.288 1.08 0 .888-.24 1.584-.72 2.088a9.992 9.992 0 0 1-2.376 1.8c-.888.48-1.836.72-2.844.72-1.272 0-2.244-.324-2.916-.972-.648-.648-.972-1.524-.972-2.628 0-.36.036-.72.108-1.08.048-.48.072-.804.072-.972 0-.384-.132-.576-.396-.576-.36 0-.84.408-1.44 1.224-.576.792-1.152 1.848-1.728 3.168a25.859 25.859 0 0 0-1.404 4.176c-.264 1.128-.576 1.896-.936 2.304-.336.384-.876.576-1.62.576zm29.883-8.208c.312 0 .552.144.72.432.192.288.288.684.288 1.188 0 .96-.228 1.704-.684 2.232-.888 1.08-2.148 2.076-3.78 2.988a10.337 10.337 0 0 1-5.184 1.368c-2.52 0-4.476-.684-5.868-2.052-1.392-1.368-2.088-3.24-2.088-5.616 0-1.656.348-3.192 1.044-4.608.696-1.44 1.656-2.58 2.88-3.42 1.248-.84 2.652-1.26 4.212-1.26 1.392 0 2.508.42 3.348 1.26.84.816 1.26 1.932 1.26 3.348 0 1.656-.6 3.084-1.8 4.284-1.176 1.176-3.18 2.112-6.012 2.808.6 1.104 1.74 1.656 3.42 1.656 1.08 0 2.304-.372 3.672-1.116a12.35 12.35 0 0 0 3.6-2.988c.288-.336.612-.504.972-.504zm-9.072-5.22c-.888 0-1.644.516-2.268 1.548-.6 1.032-.9 2.28-.9 3.744v.072c1.416-.336 2.532-.84 3.348-1.512.816-.672 1.224-1.452 1.224-2.34 0-.456-.132-.816-.396-1.08-.24-.288-.576-.432-1.008-.432zm26.3 2.196c.312 0 .552.156.72.468.168.312.252.708.252 1.188 0 .6-.084 1.068-.252 1.404a1.342 1.342 0 0 1-.792.648c-1.44.504-3.024.792-4.752.864-.48 1.992-1.392 3.6-2.736 4.824-1.32 1.224-2.784 1.836-4.392 1.836-2.424 0-4.188-.924-5.292-2.772-1.104-1.848-1.656-4.524-1.656-8.028 0-3.096.384-6.456 1.152-10.08.768-3.648 1.884-6.744 3.348-9.288 1.488-2.568 3.252-3.852 5.292-3.852 1.104 0 1.992.48 2.664 1.44.672.936 1.008 2.16 1.008 3.672 0 1.968-.372 3.924-1.116 5.868-.744 1.944-1.98 3.984-3.708 6.12 1.608.12 2.916.792 3.924 2.016 1.008 1.2 1.608 2.688 1.8 4.464 1.128-.072 2.472-.312 4.032-.72.144-.048.312-.072.504-.072zm-9.936-19.224c-.48 0-1.008.72-1.584 2.16-.552 1.416-1.068 3.348-1.548 5.796-.48 2.448-.84 5.124-1.08 8.028 1.584-2.904 2.844-5.46 3.78-7.668.96-2.232 1.44-4.212 1.44-5.94 0-.768-.096-1.356-.288-1.764-.168-.408-.408-.612-.72-.612zm-1.872 26.64c.744 0 1.404-.312 1.98-.936.576-.624.96-1.524 1.152-2.7a5.109 5.109 0 0 1-1.728-1.98 6.013 6.013 0 0 1-.576-2.592c0-.336.048-.792.144-1.368h-.108c-.984 0-1.812.492-2.484 1.476-.648.96-.972 2.256-.972 3.888 0 1.368.252 2.412.756 3.132.528.72 1.14 1.08 1.836 1.08zm13.344 3.816c-1.08 0-1.968-.492-2.664-1.476-.672-1.008-1.008-2.256-1.008-3.744 0-1.8.12-3.444.36-4.932.24-1.512.636-3.108 1.188-4.788.24-.72.576-1.236 1.008-1.548.432-.312 1.116-.468 2.052-.468.528 0 .888.084 1.08.252.216.168.324.42.324.756 0 .192-.132.84-.396 1.944-.24.888-.432 1.692-.576 2.412-.48 2.52-.72 4.2-.72 5.04 0 .504.06.864.18 1.08.12.192.312.288.576.288.36 0 .804-.36 1.332-1.08.552-.72 1.128-1.812 1.728-3.276.624-1.464 1.224-3.264 1.8-5.4.192-.72.48-1.236.864-1.548.408-.312 1.008-.468 1.8-.468.552 0 .936.072 1.152.216.216.12.324.36.324.72 0 .6-.3 2.244-.9 4.932-.672 3.072-1.008 4.968-1.008 5.688 0 .456.096.816.288 1.08.192.24.444.36.756.36.48 0 1.044-.288 1.692-.864.672-.6 1.56-1.56 2.664-2.88.288-.336.612-.504.972-.504.312 0 .552.144.72.432.192.288.288.684.288 1.188 0 .96-.228 1.704-.684 2.232-1.032 1.272-2.148 2.316-3.348 3.132-1.176.816-2.52 1.224-4.032 1.224-1.152 0-2.004-.444-2.556-1.332-.528-.888-.792-2.136-.792-3.744-.408 1.632-1.02 2.892-1.836 3.78-.816.864-1.692 1.296-2.628 1.296zm23.361-5.256c.264-.24.528-.36.792-.36.288 0 .516.168.684.504.192.312.288.696.288 1.152 0 1.008-.36 1.812-1.08 2.412-1.248 1.032-2.664 1.548-4.248 1.548-2.28 0-3.948-.948-5.004-2.844-1.056-1.92-1.584-4.416-1.584-7.488 0-2.928.372-6.264 1.116-10.008.768-3.744 1.884-6.96 3.348-9.648 1.488-2.688 3.252-4.032 5.292-4.032 1.152 0 2.052.54 2.7 1.62.672 1.056 1.008 2.58 1.008 4.572 0 2.856-.792 6.168-2.376 9.936-1.56 3.768-3.696 7.488-6.408 11.16.168.984.468 1.692.9 2.124.432.432 1.02.648 1.764.648.408 0 .864-.12 1.368-.36a5.714 5.714 0 0 0 1.44-.936zm-1.188-25.2c-.552 0-1.176.996-1.872 2.988-.696 1.992-1.308 4.464-1.836 7.416s-.816 5.784-.864 8.496c1.704-2.808 3.06-5.616 4.068-8.424 1.008-2.832 1.512-5.412 1.512-7.74 0-1.824-.336-2.736-1.008-2.736zM61.155 15.307c-2.549 0-3.847-1.248-4.992-2.349-1.034-.994-1.851-1.78-3.597-1.78s-2.563.786-3.597 1.78c-1.145 1.1-2.444 2.349-4.992 2.349-2.55 0-3.847-1.248-4.993-2.349-1.034-.994-1.85-1.78-3.596-1.78s-2.563.786-3.597 1.78c-1.145 1.1-2.443 2.349-4.992 2.349s-3.846-1.248-4.992-2.349c-1.034-.994-1.85-1.78-3.596-1.78-1.745 0-2.562.786-3.596 1.78-1.146 1.1-2.444 2.349-4.993 2.349-2.548 0-3.847-1.248-4.992-2.349-1.034-.994-1.85-1.78-3.597-1.78-.57 0-1.033-.485-1.033-1.085 0-.599.463-1.085 1.033-1.085 2.549 0 3.847 1.248 4.993 2.349 1.034.994 1.85 1.78 3.596 1.78s2.563-.786 3.597-1.78c1.145-1.101 2.443-2.349 4.992-2.349s3.847 1.248 4.992 2.35c1.034.993 1.85 1.778 3.596 1.778s2.562-.785 3.597-1.779c1.145-1.101 2.443-2.349 4.992-2.349s3.846 1.248 4.992 2.35c1.034.993 1.851 1.778 3.597 1.778s2.562-.785 3.597-1.779c1.145-1.101 2.443-2.349 4.992-2.349s3.847 1.248 4.992 2.35c1.035.993 1.851 1.778 3.597 1.778s2.563-.785 3.598-1.78c1.145-1.1 2.443-2.348 4.992-2.348.571 0 1.034.486 1.034 1.085 0 .6-.463 1.086-1.034 1.086-1.746 0-2.563.785-3.597 1.779-1.146 1.1-2.444 2.349-4.993 2.349zM61.155 24.711c-2.549 0-3.847-1.248-4.992-2.348-1.034-.995-1.851-1.78-3.597-1.78s-2.563.785-3.597 1.78c-1.145 1.1-2.444 2.348-4.992 2.348-2.55 0-3.847-1.248-4.993-2.348-1.034-.995-1.85-1.78-3.596-1.78s-2.563.785-3.597 1.78c-1.145 1.1-2.443 2.348-4.992 2.348s-3.846-1.248-4.992-2.348c-1.034-.995-1.85-1.78-3.596-1.78-1.745 0-2.562.785-3.596 1.78-1.146 1.1-2.444 2.348-4.993 2.348-2.548 0-3.847-1.248-4.992-2.348-1.034-.995-1.85-1.78-3.597-1.78-.57 0-1.033-.486-1.033-1.085 0-.6.463-1.085 1.033-1.085 2.549 0 3.847 1.247 4.993 2.348 1.034.995 1.85 1.78 3.596 1.78s2.563-.785 3.597-1.78c1.145-1.1 2.443-2.348 4.992-2.348s3.847 1.248 4.992 2.349c1.034.994 1.85 1.779 3.596 1.779s2.562-.785 3.597-1.78c1.145-1.1 2.443-2.348 4.992-2.348s3.846 1.247 4.992 2.349c1.034.994 1.851 1.779 3.597 1.779s2.562-.785 3.597-1.78c1.145-1.1 2.443-2.348 4.992-2.348s3.847 1.247 4.992 2.349c1.035.994 1.851 1.779 3.597 1.779s2.563-.785 3.598-1.78c1.145-1.1 2.443-2.348 4.992-2.348.571 0 1.034.486 1.034 1.085 0 .6-.463 1.085-1.034 1.085-1.746 0-2.563.785-3.597 1.78-1.146 1.1-2.444 2.348-4.993 2.348zM61.155 43.52c-2.549 0-3.847-1.247-4.992-2.348-1.034-.994-1.851-1.78-3.597-1.78s-2.563.785-3.597 1.78c-1.145 1.1-2.444 2.348-4.992 2.348-2.55 0-3.847-1.247-4.993-2.349-1.034-.993-1.85-1.779-3.596-1.779s-2.563.785-3.597 1.78c-1.145 1.1-2.443 2.348-4.992 2.348s-3.846-1.247-4.992-2.349c-1.034-.993-1.85-1.779-3.596-1.779-1.745 0-2.562.785-3.596 1.78-1.146 1.1-2.444 2.348-4.993 2.348-2.548 0-3.847-1.247-4.992-2.349-1.034-.993-1.851-1.779-3.597-1.779-.57 0-1.033-.486-1.033-1.085 0-.6.463-1.085 1.033-1.085 2.549 0 3.847 1.248 4.993 2.349 1.034.994 1.85 1.779 3.596 1.779s2.563-.785 3.597-1.78c1.145-1.1 2.443-2.348 4.992-2.348s3.847 1.248 4.992 2.349c1.034.994 1.85 1.779 3.596 1.779s2.562-.785 3.597-1.78c1.145-1.1 2.443-2.348 4.992-2.348s3.846 1.248 4.992 2.349c1.034.994 1.851 1.779 3.597 1.779s2.562-.785 3.597-1.78c1.145-1.1 2.443-2.348 4.992-2.348s3.847 1.248 4.992 2.349c1.035.994 1.851 1.779 3.597 1.779s2.563-.785 3.598-1.78c1.145-1.1 2.443-2.348 4.992-2.348.571 0 1.034.486 1.034 1.085 0 .6-.463 1.085-1.034 1.085-1.746 0-2.563.785-3.597 1.78-1.146 1.1-2.444 2.348-4.993 2.348zM61.155 34.101c-2.549 0-3.847-1.248-4.992-2.348-1.034-.995-1.851-1.78-3.597-1.78s-2.563.785-3.597 1.78c-1.145 1.1-2.444 2.348-4.992 2.348-2.55 0-3.847-1.248-4.993-2.349-1.034-.994-1.85-1.779-3.596-1.779s-2.563.785-3.597 1.78c-1.145 1.1-2.443 2.348-4.992 2.348s-3.846-1.248-4.992-2.349c-1.034-.994-1.85-1.779-3.596-1.779-1.745 0-2.562.785-3.596 1.78-1.146 1.1-2.444 2.348-4.993 2.348-2.548 0-3.847-1.248-4.992-2.349-1.034-.994-1.851-1.779-3.597-1.779-.57 0-1.033-.486-1.033-1.085 0-.6.463-1.085 1.033-1.085 2.549 0 3.847 1.247 4.993 2.348 1.034.995 1.85 1.78 3.596 1.78s2.563-.785 3.597-1.78c1.145-1.1 2.443-2.348 4.992-2.348s3.847 1.247 4.992 2.349c1.034.994 1.85 1.779 3.596 1.779s2.562-.785 3.597-1.78c1.145-1.1 2.443-2.348 4.992-2.348s3.846 1.247 4.992 2.348c1.034.995 1.851 1.78 3.597 1.78s2.562-.785 3.597-1.78c1.145-1.1 2.443-2.348 4.992-2.348s3.847 1.247 4.992 2.348c1.035.995 1.851 1.78 3.597 1.78s2.563-.785 3.598-1.78c1.145-1.1 2.443-2.348 4.992-2.348.571 0 1.034.486 1.034 1.085 0 .6-.463 1.085-1.034 1.085-1.746 0-2.563.785-3.597 1.78-1.146 1.1-2.444 2.348-4.993 2.348zM61.155 52.925c-2.549 0-3.847-1.248-4.992-2.349-1.034-.994-1.851-1.78-3.597-1.78s-2.563.786-3.597 1.78c-1.145 1.101-2.444 2.349-4.992 2.349-2.55 0-3.847-1.248-4.993-2.349-1.034-.994-1.85-1.78-3.596-1.78s-2.563.786-3.597 1.78c-1.145 1.101-2.443 2.349-4.992 2.349s-3.846-1.248-4.992-2.349c-1.034-.994-1.85-1.78-3.596-1.78-1.745 0-2.562.786-3.596 1.78-1.146 1.101-2.444 2.349-4.993 2.349-2.548 0-3.847-1.248-4.992-2.349-1.034-.994-1.851-1.78-3.597-1.78-.57 0-1.033-.485-1.033-1.084 0-.6.463-1.086 1.033-1.086 2.549 0 3.847 1.248 4.993 2.349 1.034.994 1.85 1.78 3.596 1.78s2.563-.786 3.597-1.78c1.145-1.1 2.443-2.349 4.992-2.349s3.847 1.248 4.992 2.35c1.034.993 1.85 1.779 3.596 1.779s2.562-.786 3.597-1.78c1.145-1.1 2.443-2.349 4.992-2.349s3.846 1.248 4.992 2.349c1.034.994 1.851 1.78 3.597 1.78s2.562-.786 3.597-1.78c1.145-1.1 2.443-2.349 4.992-2.349s3.847 1.248 4.992 2.349c1.035.994 1.851 1.78 3.597 1.78s2.563-.786 3.598-1.78c1.145-1.1 2.443-2.349 4.992-2.349.571 0 1.034.486 1.034 1.086 0 .599-.463 1.085-1.034 1.085-1.746 0-2.563.785-3.597 1.78-1.146 1.1-2.444 2.348-4.993 2.348zM153.033 58.885c-2.548 0-3.847-1.356-4.992-2.553-1.034-1.08-1.851-1.934-3.597-1.934-1.745 0-2.562.853-3.597 1.934-1.145 1.197-2.443 2.553-4.991 2.553-2.549 0-3.847-1.356-4.992-2.553-1.035-1.08-1.851-1.934-3.597-1.934-1.745 0-2.562.853-3.596 1.934-1.146 1.197-2.444 2.553-4.992 2.553-2.549 0-3.846-1.356-4.992-2.553-1.034-1.08-1.85-1.934-3.596-1.934-1.745 0-2.562.853-3.596 1.934-1.145 1.197-2.443 2.553-4.992 2.553s-3.847-1.356-4.992-2.553c-1.034-1.08-1.851-1.934-3.596-1.934-.571 0-1.034-.528-1.034-1.18 0-.65.463-1.179 1.034-1.179 2.548 0 3.846 1.356 4.991 2.553 1.034 1.08 1.851 1.934 3.597 1.934s2.562-.854 3.597-1.934c1.145-1.197 2.443-2.553 4.991-2.553 2.549 0 3.847 1.356 4.992 2.553 1.034 1.08 1.85 1.934 3.596 1.934 1.745 0 2.562-.854 3.596-1.934 1.145-1.197 2.443-2.553 4.992-2.553s3.847 1.356 4.992 2.553c1.034 1.08 1.851 1.934 3.597 1.934 1.745 0 2.562-.854 3.596-1.934 1.146-1.197 2.444-2.553 4.992-2.553 2.549 0 3.847 1.356 4.993 2.553 1.034 1.08 1.85 1.934 3.596 1.934s2.563-.854 3.597-1.934c1.146-1.197 2.444-2.553 4.993-2.553.57 0 1.033.528 1.033 1.18 0 .65-.463 1.179-1.033 1.179-1.746 0-2.563.853-3.597 1.934-1.146 1.197-2.444 2.553-4.993 2.553zM153.033 9.986c-2.548 0-3.847-1.356-4.992-2.552-1.034-1.08-1.851-1.934-3.597-1.934-1.745 0-2.562.853-3.597 1.933-1.145 1.197-2.443 2.553-4.991 2.553-2.549 0-3.847-1.356-4.992-2.553-1.035-1.08-1.851-1.933-3.597-1.933-1.745 0-2.562.853-3.596 1.933-1.146 1.197-2.444 2.553-4.992 2.553-2.549 0-3.846-1.356-4.992-2.553-1.034-1.08-1.85-1.933-3.596-1.933-1.745 0-2.562.853-3.596 1.933-1.145 1.197-2.443 2.553-4.992 2.553s-3.847-1.356-4.992-2.553C95.477 6.353 94.66 5.5 92.915 5.5c-.571 0-1.034-.529-1.034-1.18 0-.651.463-1.18 1.034-1.18 2.548 0 3.846 1.357 4.991 2.553 1.034 1.08 1.851 1.934 3.597 1.934s2.562-.853 3.597-1.934c1.145-1.196 2.443-2.552 4.991-2.552 2.549 0 3.847 1.356 4.992 2.553 1.034 1.08 1.85 1.933 3.596 1.933 1.745 0 2.562-.853 3.596-1.934 1.145-1.196 2.443-2.552 4.992-2.552s3.847 1.356 4.992 2.552c1.034 1.08 1.851 1.934 3.597 1.934 1.745 0 2.562-.853 3.596-1.934 1.146-1.196 2.444-2.552 4.992-2.552 2.549 0 3.847 1.356 4.993 2.552 1.034 1.08 1.85 1.934 3.596 1.934s2.563-.853 3.597-1.934c1.146-1.196 2.444-2.552 4.993-2.552.57 0 1.033.528 1.033 1.18 0 .65-.463 1.179-1.033 1.179-1.746 0-2.563.853-3.597 1.934-1.146 1.196-2.444 2.552-4.993 2.552z" fill="#63A7CC"/><path d="M221.946 58.885c-2.549 0-3.847-1.356-4.992-2.553-1.035-1.08-1.851-1.934-3.597-1.934s-2.563.853-3.597 1.934c-1.145 1.197-2.443 2.553-4.992 2.553s-3.847-1.356-4.992-2.553c-1.034-1.08-1.851-1.934-3.597-1.934-1.745 0-2.562.853-3.596 1.934-1.145 1.197-2.443 2.553-4.992 2.553-2.548 0-3.846-1.356-4.991-2.553-1.034-1.08-1.851-1.934-3.596-1.934-1.746 0-2.562.853-3.597 1.934-1.145 1.197-2.443 2.553-4.991 2.553-2.549 0-3.847-1.356-4.992-2.553-1.035-1.08-1.852-1.934-3.597-1.934-.571 0-1.033-.528-1.033-1.18 0-.65.462-1.179 1.033-1.179 2.548 0 3.847 1.356 4.992 2.553 1.034 1.08 1.851 1.934 3.597 1.934 1.745 0 2.562-.854 3.596-1.934 1.145-1.197 2.443-2.553 4.992-2.553 2.548 0 3.846 1.356 4.991 2.553 1.034 1.08 1.851 1.934 3.596 1.934 1.746 0 2.563-.854 3.597-1.934 1.145-1.197 2.443-2.553 4.991-2.553 2.549 0 3.847 1.356 4.992 2.553 1.035 1.08 1.851 1.934 3.597 1.934s2.563-.854 3.597-1.934c1.145-1.197 2.443-2.553 4.992-2.553s3.847 1.356 4.992 2.553c1.034 1.08 1.851 1.934 3.597 1.934s2.563-.854 3.597-1.934c1.145-1.197 2.444-2.553 4.992-2.553.571 0 1.034.528 1.034 1.18 0 .65-.463 1.179-1.034 1.179-1.746 0-2.563.853-3.597 1.934-1.145 1.197-2.443 2.553-4.992 2.553zM221.946 9.986c-2.549 0-3.847-1.356-4.992-2.552-1.035-1.08-1.851-1.934-3.597-1.934s-2.563.853-3.597 1.933c-1.145 1.197-2.443 2.553-4.992 2.553s-3.847-1.356-4.992-2.553c-1.034-1.08-1.851-1.933-3.597-1.933-1.745 0-2.562.853-3.596 1.933-1.145 1.197-2.443 2.553-4.992 2.553-2.548 0-3.846-1.356-4.991-2.553-1.034-1.08-1.851-1.933-3.596-1.933-1.746 0-2.562.853-3.597 1.933-1.145 1.197-2.443 2.553-4.991 2.553-2.549 0-3.847-1.356-4.992-2.553-1.035-1.08-1.852-1.933-3.597-1.933-.571 0-1.033-.529-1.033-1.18 0-.651.462-1.18 1.033-1.18 2.548 0 3.847 1.357 4.992 2.553 1.034 1.08 1.851 1.934 3.597 1.934 1.745 0 2.562-.853 3.596-1.934 1.145-1.196 2.443-2.552 4.992-2.552 2.548 0 3.846 1.356 4.991 2.553 1.034 1.08 1.851 1.933 3.596 1.933 1.746 0 2.563-.853 3.597-1.934 1.145-1.196 2.443-2.552 4.991-2.552 2.549 0 3.847 1.356 4.992 2.552 1.035 1.08 1.851 1.934 3.597 1.934s2.563-.853 3.597-1.934c1.145-1.196 2.443-2.552 4.992-2.552s3.847 1.356 4.992 2.552c1.034 1.08 1.851 1.934 3.597 1.934s2.563-.853 3.597-1.934c1.145-1.196 2.444-2.552 4.992-2.552.571 0 1.034.528 1.034 1.18 0 .65-.463 1.179-1.034 1.179-1.746 0-2.563.853-3.597 1.934-1.145 1.196-2.443 2.552-4.992 2.552z" fill="#63A7CC"/></svg>