<svg width="200" height="176" fill="none" xmlns="http://www.w3.org/2000/svg"><path d="M169.241 112.315c-1.007 2.175-2.182 4.231-3.637 6.112a34.16 34.16 0 0 1-2.294 2.644c-.392.412-.84.823-1.288 1.176-.447.411-.895.705-1.231 1.175-.112.117 0 .411.168.353.56-.236.952-.647 1.399-.999.448-.353.84-.764 1.287-1.176.84-.881 1.679-1.822 2.407-2.821 1.455-1.939 2.63-4.054 3.413-6.346.112-.118-.168-.235-.224-.118z" fill="#1D1D1B"/><path d="M168.066 114.725c-1.679 1.998-3.525 3.878-5.372 5.7-.951.882-1.903 1.763-2.91 2.586l-1.511 1.234c-.503.411-1.063.764-1.455 1.234-.112.176.056.411.28.353.616-.177 1.119-.706 1.623-1.117.504-.353.951-.764 1.455-1.175a41.264 41.264 0 0 0 2.91-2.645c1.902-1.821 3.637-3.819 5.26-5.935.112-.118-.168-.411-.28-.235zM165.604 115.254a46.147 46.147 0 0 1-9.569 9.05c-1.008.706-2.127 1.352-3.078 2.116-.224.176-.112.588.168.47 1.007-.411 1.903-.999 2.798-1.645.895-.647 1.847-1.293 2.686-2.057a40.598 40.598 0 0 0 4.812-4.584 42.71 42.71 0 0 0 2.463-2.998c.28-.235-.056-.587-.28-.352z" fill="#1D1D1B"/><path d="M162.19 117.663c-2.238 1.646-4.42 3.291-6.659 4.937-1.119.823-2.182 1.645-3.302 2.468-.559.412-1.119.823-1.622 1.234-.28.177-.504.412-.784.588s-.559.411-.727.647c-.112.176.112.47.28.411.335-.118.615-.353.895-.588.28-.176.56-.411.783-.587.56-.412 1.064-.823 1.567-1.176 1.119-.823 2.183-1.645 3.302-2.468l6.547-4.937c.28-.235 0-.705-.28-.529zM158.721 118.192a45.87 45.87 0 0 1-11.696 8.581l-1.846.881c-.616.294-1.288.47-1.847.882-.168.117-.112.47.112.47.559-.059 1.119-.353 1.679-.588.559-.235 1.119-.529 1.678-.764a28.065 28.065 0 0 0 3.19-1.763c2.071-1.293 4.085-2.762 5.932-4.407 1.063-.941 2.07-1.94 3.078-2.939.224-.235-.056-.529-.28-.353zM153.796 119.661c-3.693 3.232-7.834 5.936-12.143 8.051l-1.847.882c-.615.294-1.287.529-1.902.881-.28.177-.056.588.224.471 1.175-.294 2.294-.882 3.357-1.352 1.119-.529 2.183-1.117 3.302-1.704 2.126-1.235 4.197-2.586 6.155-4.173 1.12-.881 2.127-1.763 3.19-2.703.224-.235-.112-.529-.336-.353zM147.137 121.718a101.584 101.584 0 0 1-12.367 7.699c-1.231.646-2.462 1.234-3.581 1.998-.112.117-.056.352.112.293 1.119-.352 2.238-.881 3.245-1.469l3.19-1.763a86.445 86.445 0 0 0 6.211-3.937 177.138 177.138 0 0 0 3.414-2.468c.112-.176-.056-.47-.224-.353zM141.261 122.717c-4.42 3.056-9.065 5.818-13.766 8.345-1.343.706-2.686 1.411-3.973 2.175-.168.117-.056.411.112.352 2.462-.94 4.812-2.292 7.107-3.643a136.74 136.74 0 0 0 6.883-4.232 223.938 223.938 0 0 0 3.805-2.644c.224-.177.056-.529-.168-.353zM133.595 125.42c-4.365 2.645-8.786 5.113-13.263 7.581-1.231.705-2.574 1.293-3.749 2.116-.224.117-.056.528.168.411 1.175-.47 2.238-1.117 3.357-1.704 1.12-.588 2.239-1.234 3.358-1.822 2.238-1.234 4.421-2.586 6.603-3.879 1.231-.764 2.519-1.527 3.75-2.291.224-.235 0-.588-.224-.412zM125.816 127.419c-4.588 2.527-9.177 5.054-13.71 7.639-.615.353-1.287.706-1.902 1.058-.616.353-1.288.705-1.847 1.176-.168.117 0 .411.168.352.615-.176 1.119-.529 1.679-.823.559-.293 1.175-.646 1.734-.94 1.119-.646 2.239-1.293 3.358-1.88l6.883-3.879c1.287-.705 2.574-1.469 3.861-2.233.224-.176 0-.588-.224-.47zM120.5 128.828a147.684 147.684 0 0 0-14.493 5.877c-1.343.647-2.687 1.293-3.974 1.999-.168.117-.056.411.112.352 2.351-.999 4.645-2.174 6.995-3.232a158.696 158.696 0 0 1 7.275-2.997c1.399-.529 2.742-1.058 4.141-1.528.28-.177.168-.588-.056-.471zM182.336 122.129c-5.932 5.172-12.143 10.108-18.467 14.751a305.657 305.657 0 0 1-19.418 12.988c-3.749 2.291-7.554 4.407-11.36 6.581-.224.118 0 .471.168.353 3.47-1.763 6.883-3.702 10.241-5.642 3.357-1.998 6.715-4.055 10.017-6.229 6.547-4.29 12.87-8.933 19.026-13.869a282.508 282.508 0 0 0 10.073-8.58c.224-.235-.112-.529-.28-.353zM179.426 121.601c-5.876 5.054-12.031 9.814-18.299 14.28a261.12 261.12 0 0 1-19.306 12.518c-3.693 2.174-7.499 4.231-11.248 6.346-.28.177-.056.588.224.471 3.469-1.646 6.827-3.526 10.185-5.466a215.039 215.039 0 0 0 9.905-6.053c6.435-4.172 12.758-8.638 18.802-13.457 3.414-2.704 6.715-5.524 9.961-8.404.112-.118-.112-.353-.224-.235z" fill="#1D1D1B"/><path d="M175.845 121.836c-6.324 5.054-12.759 9.991-19.362 14.633-6.548 4.701-13.263 9.05-20.034 13.399-3.805 2.468-7.723 4.76-11.584 7.169-.168.118 0 .412.168.294 7.051-3.82 13.934-8.11 20.649-12.576a359.758 359.758 0 0 0 19.754-14.104 381.781 381.781 0 0 0 10.633-8.521c.223-.059 0-.411-.224-.294zM168.178 124.539c-6.211 4.878-12.591 9.52-19.082 14.045a481.495 481.495 0 0 1-19.698 13.047c-3.75 2.351-7.555 4.642-11.36 6.993-.224.118 0 .47.224.353 6.883-3.703 13.598-7.934 20.145-12.224 6.604-4.349 13.039-8.815 19.363-13.575 3.581-2.704 7.106-5.407 10.576-8.228.28-.235.056-.587-.168-.411zM162.638 125.832c-3.022 2.174-5.988 4.349-9.01 6.523a516.194 516.194 0 0 1-9.121 6.406 562.3 562.3 0 0 1-18.411 12.164c-3.525 2.234-7.051 4.408-10.52 6.641-.224.176 0 .529.224.353 3.245-1.763 6.379-3.703 9.513-5.642a318.472 318.472 0 0 0 9.345-5.994 484.319 484.319 0 0 0 18.187-12.576c3.358-2.469 6.715-4.937 9.961-7.523.168-.176.056-.529-.168-.352zM155.867 126.302c-2.574 1.763-5.036 3.585-7.611 5.406-2.518 1.763-5.092 3.526-7.666 5.289a722.973 722.973 0 0 1-15.445 10.402c-2.91 1.939-5.876 3.761-8.73 5.818-.28.176-.056.588.224.47 2.686-1.528 5.26-3.291 7.834-4.936a580.859 580.859 0 0 0 7.723-5.172 553.559 553.559 0 0 0 15.277-10.637c2.854-2.056 5.708-4.054 8.45-6.229.392-.176.168-.588-.056-.411zM147.193 129.534c-4.197 2.703-8.394 5.406-12.535 8.11a1494.614 1494.614 0 0 0-12.423 8.168c-2.35 1.528-4.701 3.115-7.051 4.643-.28.176 0 .705.28.529 4.197-2.703 8.394-5.407 12.535-8.11 4.141-2.703 8.282-5.465 12.423-8.227a295.248 295.248 0 0 0 6.995-4.702c.28-.176.056-.588-.224-.411zM139.806 130.827c-3.917 2.703-7.89 5.406-11.863 8.11-3.973 2.703-7.946 5.347-11.92 7.992-2.238 1.469-4.532 2.88-6.659 4.584-.168.117-.056.411.168.352 2.126-1.116 4.085-2.468 6.1-3.761 2.014-1.293 3.973-2.644 5.987-3.937a534.695 534.695 0 0 0 11.864-8.11 463.502 463.502 0 0 0 6.603-4.701c.224-.235 0-.706-.28-.529zM130.629 134.47c-6.995 3.703-13.878 7.699-20.593 12.048-1.903 1.234-3.806 2.468-5.596 3.82-.224.176-.056.587.224.411 3.413-2.057 6.715-4.29 10.072-6.406 3.358-2.115 6.827-4.113 10.241-6.053a195.726 195.726 0 0 1 5.932-3.232c.336-.235.056-.764-.28-.588zM120.948 137.938a109.525 109.525 0 0 0-18.075 9.109c-1.623 1.058-3.246 2.116-4.757 3.291-.224.176 0 .529.224.353 2.798-1.881 5.652-3.703 8.562-5.348 2.91-1.646 5.932-3.233 8.953-4.584 1.735-.764 3.47-1.528 5.261-2.233.336-.177.168-.764-.168-.588zM14.904 155.744c-1.287 1.293-1.567 3.291-1.064 4.996.56 1.939 1.959 3.467 3.582 4.525a20.129 20.129 0 0 0 3.134 1.645c.223.118.391-.294.167-.411-2.014-1.293-4.308-2.233-5.652-4.408-1.119-1.763-1.399-4.407.112-6.053.224-.176-.056-.47-.28-.294z" fill="#1D1D1B"/><path d="M18.373 155.568c-1.399 3.997-.224 8.698 2.686 11.636.784.823 1.735 1.528 2.798 1.881.224.058.336-.235.168-.353-.783-.529-1.623-1.058-2.294-1.704-.672-.647-1.287-1.469-1.791-2.292a11.726 11.726 0 0 1-1.623-5.642 9.68 9.68 0 0 1 .448-3.349c0-.294-.28-.353-.392-.177z" fill="#1D1D1B"/><path d="M20.612 155.157c-1.064 4.172-.056 8.815 2.63 12.164.391.471.783.882 1.175 1.293.392.353.895.823 1.399.999.168.059.28-.176.168-.294-.336-.352-.784-.646-1.12-.999-.335-.352-.727-.705-1.007-1.057-.671-.764-1.23-1.646-1.678-2.527-.952-1.822-1.511-3.879-1.567-5.936-.056-1.175.056-2.35.335-3.526 0-.235-.28-.352-.335-.117z" fill="#1D1D1B"/><path d="M24.36 157.684c-1.79 2.938-1.734 6.876-.055 9.873.448.822 1.063 1.704 1.846 2.174.224.117.504-.118.336-.353-.28-.411-.671-.764-1.007-1.234-.28-.411-.56-.822-.783-1.293-.448-.94-.784-1.88-.952-2.938-.335-2.057-.056-4.29.952-6.111.111-.177-.168-.353-.336-.118z" fill="#1D1D1B"/><path d="M26.263 157.684a15.57 15.57 0 0 0-.671 7.169c.168 1.234.504 2.41.951 3.526.224.588.504 1.117.784 1.646.28.47.615 1.057 1.063 1.351.168.118.392-.059.336-.294-.112-.293-.28-.47-.392-.764-.112-.235-.28-.47-.392-.705-.28-.47-.56-.999-.783-1.528-.448-1.057-.784-2.233-1.007-3.408-.392-2.351-.28-4.701.503-6.993.112-.176-.336-.294-.392 0zM28.782 159.741a16.716 16.716 0 0 0-.504 6.229c.112 1.058.336 2.057.616 3.056.168.47.335.998.56 1.469.167.411.39.999.783 1.292.168.118.391 0 .336-.235-.056-.47-.336-.881-.504-1.292-.224-.471-.392-.941-.56-1.411-.335-.94-.56-1.939-.671-2.938a14.792 14.792 0 0 1 .391-6.052c.112-.294-.335-.412-.447-.118z" fill="#1D1D1B"/><path d="M30.908 160.798a16.843 16.843 0 0 0-1.007 5.759c0 1.94.336 3.997 1.231 5.642.112.235.504.059.448-.176-.28-.882-.56-1.763-.728-2.704-.224-.94-.28-1.88-.336-2.82-.055-1.881.168-3.82.784-5.583 0-.235-.336-.294-.392-.118zM33.706 162.268c-.056 1.822-.112 3.643-.168 5.406 0 .882-.056 1.763-.056 2.645v1.41c0 .412-.056.882.112 1.293.056.176.28.176.392 0 .168-.353.112-.823.112-1.234 0-.47 0-.94.056-1.41v-2.704c0-1.821 0-3.643-.056-5.406 0-.294-.392-.294-.392 0zM38.798 160.152c-.447 1.939-.95 3.937-1.398 5.877-.224.999-.448 1.939-.672 2.938l-.336 1.411c-.112.47-.28.999-.28 1.528 0 .235.392.411.504.117.224-.411.28-.94.392-1.41.112-.529.224-.999.336-1.528.223-.999.447-1.94.615-2.939.448-1.998.84-3.937 1.287-5.935.056-.235-.336-.353-.448-.059zM41.764 160.68c-.503 1.881-1.007 3.761-1.455 5.642-.223.94-.391 1.881-.615 2.762-.112.47-.168.999-.28 1.469-.056.47-.168.882-.056 1.352.056.176.28.176.392.058.224-.411.28-.822.336-1.292.056-.47.168-.941.223-1.411.168-.94.336-1.939.504-2.879.392-1.881.784-3.761 1.231-5.642.168-.176-.168-.294-.28-.059zM46.185 162.737a237.74 237.74 0 0 1-2.406 5.583c-.784 1.822-1.679 3.644-2.238 5.583-.056.235.223.352.335.176.952-1.763 1.68-3.643 2.407-5.465.783-1.822 1.51-3.702 2.294-5.524.28-.411-.224-.705-.392-.353zM40.421 128.947c-2.63 1.057-5.148 2.233-7.666 3.467l-3.694 1.939c-1.287.705-2.574 1.352-3.749 2.175-.224.176-.056.47.224.352 1.231-.587 2.462-1.293 3.693-1.998 1.232-.646 2.519-1.352 3.75-1.998 2.518-1.293 5.036-2.468 7.61-3.644.168 0 0-.352-.168-.293zM42.212 124.715c-4.42 2.116-8.842 4.231-13.262 6.406-1.232.587-2.519 1.175-3.694 1.939-.168.118-.056.47.168.411 1.12-.411 2.239-.999 3.302-1.527a85.925 85.925 0 0 0 3.301-1.646c2.183-1.116 4.421-2.233 6.604-3.35 1.23-.646 2.518-1.292 3.749-1.939.28-.059.056-.353-.168-.294zM41.317 123.305c-2.239 1.293-4.477 2.586-6.771 3.761a91.955 91.955 0 0 1-3.414 1.705c-.56.293-1.12.528-1.679.822-.56.294-1.231.47-1.735.882-.168.117-.055.411.168.411.616-.059 1.175-.47 1.735-.705s1.12-.529 1.679-.823a192.57 192.57 0 0 0 3.47-1.763 97.65 97.65 0 0 0 6.715-3.996c.168-.118 0-.411-.168-.294zM44.618 118.075c-2.182 1.351-4.364 2.762-6.491 4.113a98.518 98.518 0 0 1-3.19 2.057c-1.063.705-2.238 1.351-3.245 2.174-.224.176-.056.529.223.412 1.12-.588 2.183-1.293 3.246-1.998 1.063-.706 2.183-1.411 3.246-2.116a248.608 248.608 0 0 0 6.435-4.29c.28-.058.056-.47-.224-.352zM46.689 113.667a334.353 334.353 0 0 1-12.087 7.992c-1.176.706-2.35 1.411-3.47 2.233-.224.177-.056.471.224.353 1.063-.529 2.126-1.175 3.134-1.822 1.007-.646 2.014-1.293 3.077-1.939a135.045 135.045 0 0 0 5.988-4.055c1.12-.764 2.239-1.586 3.358-2.409.168-.176-.056-.529-.224-.353zM49.43 107.32c-5.819 4.114-11.639 8.227-17.403 12.341-1.623 1.175-3.301 2.35-4.868 3.526-.224.176 0 .529.224.352 2.966-1.939 5.82-4.054 8.674-6.111 2.91-2.057 5.82-4.173 8.73-6.229a366.577 366.577 0 0 1 4.924-3.526c.224-.118 0-.47-.28-.353zM39.414 130.005a75.82 75.82 0 0 1-16.06 9.461c-1.567.705-3.246 1.234-4.813 1.939-.28.118-.056.529.168.47 1.51-.352 2.966-.999 4.42-1.586a67.115 67.115 0 0 0 4.198-1.94 69.96 69.96 0 0 0 8.058-4.76 54.438 54.438 0 0 0 4.253-3.232c.168-.117 0-.529-.224-.352zM37.96 135.058c-5.373 2.175-10.745 4.349-16.061 6.582-1.511.647-2.966 1.234-4.421 1.94-.28.117-.056.587.168.47 2.686-.941 5.316-2.116 8.002-3.233 2.63-1.116 5.316-2.233 7.946-3.349l4.533-1.94c.224-.117.112-.587-.168-.47zM33.482 139.994c-4.756 2.175-9.849 3.703-14.997 4.585l-2.182.352c-.728.118-1.455.118-2.183.353-.28.117-.168.47.056.47.672.118 1.343 0 2.015-.118.615-.058 1.287-.176 1.902-.235 1.287-.176 2.575-.47 3.862-.764 2.574-.587 5.092-1.41 7.554-2.351 1.4-.529 2.798-1.175 4.141-1.822.336-.117.112-.587-.168-.47z" fill="#1D1D1B"/><path d="M33.147 141.053c-3.078.352-6.1.646-9.178.998-3.078.353-6.1.646-9.177 1.058-.84.117-1.68.235-2.518.293-.84.118-1.735.177-2.575.353-.28.059-.224.529.056.529 1.511 0 3.078-.235 4.59-.412 1.51-.117 3.02-.352 4.532-.47l9.065-1.057c1.735-.176 3.414-.411 5.149-.587.503 0 .503-.764.056-.705zM120.556 68.945c-2.35 1.763-4.7 3.526-7.051 5.348-1.175.881-2.294 1.822-3.413 2.762-.56.47-1.175.94-1.735 1.41s-1.119.94-1.623 1.528a.193.193 0 0 0 .224.294c.615-.352 1.175-.823 1.791-1.293.559-.47 1.119-.881 1.678-1.351 1.12-.94 2.239-1.822 3.358-2.762 2.294-1.88 4.589-3.761 6.939-5.525.224-.235.056-.587-.168-.41zM117.031 66.3c-2.966 4.35-6.436 8.287-10.297 11.813-1.063 1-2.238 1.94-3.302 2.938-.223.177.056.53.28.412 2.127-1.47 4.085-3.35 5.876-5.172a57.637 57.637 0 0 0 5.148-6.053 42.15 42.15 0 0 0 2.519-3.702c.167-.235-.112-.412-.224-.235zM115.072 62.187c-4.533 6.347-9.793 12.224-15.5 17.454-.784.764-1.624 1.47-2.463 2.175-.84.705-1.679 1.41-2.462 2.174-.168.176.056.411.224.294.839-.53 1.566-1.176 2.35-1.822l2.182-1.94a70.052 70.052 0 0 0 4.197-4.054 105.03 105.03 0 0 0 7.779-8.933 89.512 89.512 0 0 0 3.861-5.29c.168-.058-.056-.175-.168-.058zM112.722 62.657c-4.029 3.232-8.115 6.464-12.144 9.814-.112.118.056.353.168.235 4.085-3.173 8.059-6.464 12.088-9.697.224-.176.056-.47-.112-.352zM108.245 14.174a209.133 209.133 0 0 0-9.961 8.992 248.263 248.263 0 0 0-9.457 9.579 241.067 241.067 0 0 0-5.093 5.7c-.055.06.056.177.112.118 2.966-3.35 6.044-6.64 9.178-9.814 3.133-3.233 6.38-6.289 9.681-9.345a236.133 236.133 0 0 1 5.652-5.054c0-.176-.056-.235-.112-.176zM109.868 16.936c-3.805 2.82-7.555 5.641-11.248 8.697a239.173 239.173 0 0 0-10.8 9.462c-1.959 1.88-3.918 3.761-5.82 5.7-.168.177.056.412.224.236 3.413-3.291 6.883-6.582 10.408-9.756 3.526-3.173 7.219-6.23 10.912-9.226 2.071-1.646 4.197-3.35 6.38-4.937.168-.059.056-.235-.056-.176zM108.357 20.404c-5.037 4.172-10.017 8.403-14.886 12.752-4.868 4.349-9.68 8.815-14.325 13.458-2.63 2.585-5.205 5.171-7.723 7.874-.168.176.112.47.28.294 4.7-4.584 9.345-9.226 14.102-13.751a446.828 446.828 0 0 1 14.494-13.223 497.06 497.06 0 0 1 8.338-7.17c.056-.117-.168-.352-.28-.234zM106.846 26.515c-4.029 3.468-7.946 6.935-11.864 10.578a349.112 349.112 0 0 0-11.527 11.048c-2.127 2.116-4.197 4.29-6.268 6.465-.168.176.056.411.224.235 3.75-3.761 7.499-7.522 11.304-11.166a423.305 423.305 0 0 1 11.64-10.93 701.655 701.655 0 0 1 6.659-5.994c.224-.118 0-.353-.168-.236zM86.924 28.572a629.193 629.193 0 0 0-13.542 14.104c-4.421 4.702-8.786 9.52-13.15 14.34-2.463 2.762-4.925 5.465-7.276 8.345-.168.176.112.47.28.294 2.239-2.351 4.365-4.82 6.547-7.288 2.183-2.409 4.365-4.877 6.548-7.287 4.365-4.76 8.786-9.52 13.206-14.221a501.473 501.473 0 0 1 7.61-7.993c.169-.235-.055-.47-.223-.294z" fill="#1D1D1B"/><path d="M88.38 26.927C82.67 32.098 77.13 37.386 71.758 42.91c-5.372 5.524-10.632 11.166-15.669 16.984-2.854 3.291-5.652 6.582-8.282 9.99-.168.177.112.47.28.294 5.036-5.876 10.017-11.812 15.165-17.512 5.204-5.7 10.576-11.225 16.06-16.632a686.683 686.683 0 0 1 9.346-8.932c.056-.059-.168-.294-.28-.177z" fill="#1D1D1B"/><path d="M86.588 27.573a354.547 354.547 0 0 0-9.737 8.816 283.604 283.604 0 0 0-9.345 9.167c-3.078 3.115-6.1 6.347-9.066 9.58-2.965 3.231-5.82 6.522-8.673 9.872-2.854 3.35-5.596 6.817-8.338 10.343-.336.411-.616.823-.952 1.293-.112.176.168.411.28.235 1.455-1.645 2.742-3.409 4.141-5.113l4.197-5.113a356.847 356.847 0 0 1 17.627-19.569 351.954 351.954 0 0 1 18.915-18.1c.392-.353.84-.705 1.231-1.058.28-.176-.056-.529-.28-.353z" fill="#1D1D1B"/><path d="M78.027 33.861a202.883 202.883 0 0 0-18.02 16.455c-5.707 5.818-11.024 12.047-16.06 18.57-2.798 3.644-5.484 7.347-8.002 11.225-.168.235.167.412.335.235 4.645-6.758 9.57-13.281 14.886-19.51 5.26-6.23 10.912-12.048 16.788-17.63a193.24 193.24 0 0 1 10.296-9.05c.112-.177-.112-.412-.223-.295z" fill="#1D1D1B"/><path d="M63.533 49.846c-3.078 3.82-6.212 7.64-9.345 11.518-3.078 3.82-6.212 7.699-9.29 11.518-3.078 3.82-6.211 7.699-9.29 11.519-3.077 3.82-6.155 7.698-9.289 11.577-3.077 3.879-6.155 7.699-9.233 11.577-.392.47-.783.999-1.12 1.469-.167.177.113.47.28.294 3.19-3.761 6.268-7.64 9.346-11.46 3.078-3.82 6.212-7.698 9.29-11.518 3.077-3.879 6.155-7.698 9.289-11.577 3.078-3.879 6.155-7.699 9.233-11.577 3.078-3.879 6.156-7.757 9.234-11.577.391-.47.783-1 1.175-1.47.056-.235-.168-.47-.28-.293zM63.477 54.9A3080.88 3080.88 0 0 0 45.905 75.82a5723.369 5723.369 0 0 0-17.403 20.863c-3.246 3.878-6.603 7.757-9.681 11.812-.112.176.056.411.224.235 3.077-3.35 5.931-6.876 8.841-10.402 2.91-3.526 5.82-6.993 8.73-10.52a5711.536 5711.536 0 0 0 17.348-20.92c3.245-3.938 6.491-7.817 9.68-11.754.169-.176-.055-.353-.167-.235z" fill="#1D1D1B"/><path d="M62.805 55.723a1178.45 1178.45 0 0 0-11.024 12.811c-3.637 4.29-7.219 8.58-10.856 12.87a2536.26 2536.26 0 0 0-10.744 12.987 1184.487 1184.487 0 0 0-10.633 13.105c-3.525 4.408-7.05 8.757-10.464 13.223-.448.588-.84 1.117-1.287 1.704-.112.176.112.412.223.235 1.791-2.174 3.582-4.348 5.317-6.582 1.79-2.174 3.525-4.407 5.316-6.581 3.525-4.408 7.05-8.757 10.576-13.105 3.526-4.35 7.107-8.698 10.689-13.047 3.581-4.348 7.163-8.638 10.8-12.928 3.581-4.29 7.219-8.58 10.856-12.87l1.343-1.587c.168-.176 0-.411-.112-.235z" fill="#1D1D1B"/><path d="M46.017 67.711c-2.854 3.585-5.708 7.229-8.45 10.931a795.944 795.944 0 0 0-8.114 11.166c-2.686 3.76-5.26 7.58-7.834 11.459-2.574 3.879-5.037 7.758-7.499 11.695a366.098 366.098 0 0 0-7.107 11.871c-.28.529-.56.999-.84 1.528-.111.235.225.47.337.235 1.287-1.939 2.406-3.937 3.581-5.935 1.175-1.999 2.406-3.938 3.581-5.936a507.895 507.895 0 0 1 7.387-11.695 402.272 402.272 0 0 1 7.723-11.46 795.268 795.268 0 0 1 8.002-11.224c2.742-3.702 5.484-7.404 8.338-11.048.336-.47.727-.94 1.063-1.41.28-.118 0-.353-.168-.177z" fill="#1D1D1B"/><path d="M40.869 70.943a619.96 619.96 0 0 0-14.885 21.333c-4.813 7.17-9.458 14.515-13.934 21.861-1.288 2.057-2.519 4.173-3.75 6.288-1.23 2.116-2.518 4.173-3.581 6.406-.112.235.224.47.336.235 1.175-1.822 2.294-3.761 3.413-5.641l3.358-5.642c2.238-3.703 4.477-7.405 6.771-11.048a617.097 617.097 0 0 1 14.214-21.686c2.742-3.996 5.54-7.992 8.338-11.988.168-.118-.168-.294-.28-.118zM43.947 69.709c-4.645 6.934-9.402 13.87-14.046 20.804-4.7 6.934-9.346 13.869-14.046 20.804-1.343 1.939-2.63 3.937-3.973 5.876-1.287 1.94-2.63 3.879-3.862 5.936-.111.235.224.529.392.294 1.231-1.646 2.406-3.409 3.582-5.172 1.175-1.763 2.35-3.467 3.47-5.23 2.35-3.526 4.7-6.994 7.05-10.52 4.645-6.934 9.29-13.928 13.934-20.862 2.63-3.938 5.205-7.875 7.835-11.754.167-.176-.168-.353-.336-.176zM78.362 37.387c-3.413 3.761-6.77 7.581-10.128 11.4-3.358 3.82-6.716 7.64-10.017 11.46-3.302 3.82-6.604 7.7-9.905 11.578a962.16 962.16 0 0 0-9.793 11.695c-3.246 3.937-6.492 7.875-9.625 11.812-.392.47-.784 1-1.176 1.528-.168.177.112.47.28.294 3.302-3.879 6.492-7.816 9.737-11.695a960.343 960.343 0 0 1 9.793-11.695c3.246-3.878 6.548-7.757 9.85-11.636 3.3-3.878 6.659-7.698 9.96-11.518 3.302-3.82 6.66-7.64 10.073-11.46.448-.47.84-.94 1.287-1.41.112-.294-.168-.53-.336-.353z" fill="#1D1D1B"/><path d="M92.408 24.517a381.123 381.123 0 0 0-11.192 10.46c-3.637 3.585-7.219 7.229-10.688 10.99a320.972 320.972 0 0 0-10.185 11.4c-3.357 3.88-6.547 7.875-9.737 11.93-3.134 4.055-6.267 8.11-9.177 12.283-.336.529-.728 1.057-1.064 1.528-.167.176.168.411.336.176 3.022-4.172 6.1-8.286 9.29-12.341 3.133-4.055 6.379-7.992 9.68-11.871a382.699 382.699 0 0 1 10.13-11.46c3.469-3.76 6.994-7.404 10.576-11.048 3.581-3.585 7.275-7.11 10.968-10.578.448-.411.895-.881 1.399-1.293.112-.059-.168-.294-.336-.176zM120.109 159.329a130.429 130.429 0 0 1-23.448 9.227 121.474 121.474 0 0 1-24.678 4.348c-2.294.177-4.645.236-6.94.294-2.35.059-4.7-.058-7.05-.058-.28 0-.28.411 0 .47 2.07.235 4.197.235 6.323.235 2.127 0 4.197-.059 6.324-.177a112.15 112.15 0 0 0 12.535-1.41 120.263 120.263 0 0 0 24.286-6.641c4.421-1.704 8.674-3.761 12.871-5.994.112-.118-.056-.412-.223-.294z" fill="#1D1D1B"/><path d="M112.33 163.443a194.307 194.307 0 0 1-20.873 4.466c-6.995 1.117-14.046 1.763-21.097 2.057-2.015.059-3.973.118-5.988.176-2.014 0-3.973-.058-5.987 0-.28 0-.28.412 0 .412 1.79.176 3.581.176 5.372.176 1.79 0 3.525 0 5.316-.059 3.525-.117 7.107-.294 10.632-.646a170.463 170.463 0 0 0 21.041-3.291c3.917-.882 7.779-1.94 11.64-3.056.168 0 .112-.294-.056-.235z" fill="#1D1D1B"/><path d="M108.916 160.681a193.962 193.962 0 0 1-20.76 4.877c-6.996 1.234-14.047 2.057-21.154 2.527-3.973.235-8.002.294-11.975.411-.28 0-.28.471 0 .471 3.581.176 7.163 0 10.744-.177a160.37 160.37 0 0 0 10.577-.881 183.693 183.693 0 0 0 21.04-3.702c3.918-.94 7.723-2.057 11.584-3.291.168-.058.056-.294-.056-.235zM115.744 157.389c-4.477.94-9.01 1.705-13.543 2.469-4.532.705-9.065 1.41-13.654 1.939a263.347 263.347 0 0 1-13.71 1.41 530.01 530.01 0 0 1-13.654.882c-4.59.235-9.122.294-13.71.411-.56 0-1.12.059-1.735.059-.168 0-.168.294 0 .294 4.588.176 9.177.118 13.766-.059 4.589-.176 9.177-.411 13.766-.823 4.589-.352 9.177-.822 13.71-1.41 4.533-.588 9.066-1.175 13.598-1.998 4.533-.823 9.066-1.587 13.543-2.645l1.679-.353c.112 0 .056-.176-.056-.176z" fill="#1D1D1B"/><path d="M113.729 155.568c-7.611 1.646-15.277 2.88-23 3.82-7.666.941-15.389 1.47-23.167 1.646-4.365.117-8.73 0-13.095.059-.28 0-.28.47 0 .47 3.918.294 7.835.235 11.752.176 3.861-.059 7.722-.235 11.584-.529 7.722-.529 15.445-1.41 23.111-2.762 4.309-.764 8.618-1.587 12.871-2.586.28.059.168-.353-.056-.294zM116.247 151.866a319.216 319.216 0 0 1-23.67 3.35c-7.891.822-15.782 1.41-23.728 1.704-4.42.176-8.898.176-13.318.294-.336 0-.336.529 0 .529 3.973.117 8.002 0 11.975-.118 3.973-.117 7.946-.352 11.975-.587 7.89-.588 15.781-1.411 23.616-2.586 4.42-.647 8.897-1.47 13.262-2.293.112-.058.056-.352-.112-.293z" fill="#1D1D1B"/><path d="M123.41 148.163c-10.688 1.763-21.377 3.291-32.065 4.761-10.632 1.41-21.265 2.703-31.953 3.82-5.988.646-11.976 1.234-17.963 1.821-.28 0-.28.471 0 .471 10.744-.764 21.488-1.881 32.177-3.174 10.688-1.293 21.32-2.703 31.953-4.349a949.84 949.84 0 0 0 17.963-2.997c.168 0 .112-.353-.112-.353zM125.369 143.58c-11.304 1.704-22.552 3.291-33.856 4.936a6722.087 6722.087 0 0 0-33.632 5.054l-9.401 1.41c-3.19.471-6.38.882-9.57 1.528-.223.059-.167.471.056.471 2.798-.294 5.652-.764 8.45-1.176l8.394-1.234c5.652-.823 11.248-1.704 16.9-2.527 11.248-1.704 22.552-3.408 33.8-5.171 6.324-1 12.591-1.999 18.915-2.939.168-.117.112-.352-.056-.352zM120.052 141.406c-11.08 1.645-22.216 3.291-33.296 4.995l-33.072 5.112c-6.212.999-12.423 1.94-18.635 2.997-.224.059-.168.412.056.353 11.08-1.469 22.104-3.291 33.185-5.054 11.08-1.704 22.16-3.467 33.24-5.23 6.211-.999 12.423-2.057 18.634-3.056.112.059.056-.117-.112-.117z" fill="#1D1D1B"/><path d="M121.508 140.112c-6.38.764-12.703 1.528-19.083 2.41-6.323.881-12.647 1.821-18.97 2.82-6.324.999-12.647 2.116-18.97 3.233-6.324 1.175-12.592 2.35-18.915 3.643-6.324 1.293-12.647 2.645-18.915 4.114-.783.176-1.567.352-2.35.587-.28.059-.168.47.112.412 6.267-1.293 12.535-2.704 18.858-3.996a1066.404 1066.404 0 0 1 18.803-3.703 1064.524 1064.524 0 0 1 18.97-3.349c6.268-1.058 12.591-1.998 18.915-2.997 6.379-.941 12.759-1.881 19.194-2.704.784-.117 1.567-.176 2.351-.293.167.117.167-.177 0-.177zM132.811 1.714c-6.435.47-12.758 2.586-18.522 5.524-5.876 2.997-11.192 6.876-16.229 11.166-10.576 9.11-19.586 19.981-28.595 30.736a20493.576 20493.576 0 0 0-33.017 39.315c-5.26 6.23-10.576 12.459-15.669 18.806-4.924 6.17-9.68 12.517-13.71 19.334-1.902 3.233-3.861 6.759-4.197 10.637-.28 3.468 1.231 6.641 3.917 8.58 5.652 3.996 12.76 1.528 18.691-.117 1.79-.47 3.526-.941 5.428-.941 1.343 0 1.287-2.115 0-2.174-1.846-.059-3.75.059-5.596.411-1.847.353-3.637.941-5.428 1.411-2.798.705-5.708 1.175-8.562.47-2.406-.588-4.812-2.057-5.596-4.643-1.007-3.349.616-6.993 2.183-9.873 3.693-6.758 8.226-13.046 12.926-19.04 4.869-6.171 10.017-12.165 15.11-18.218A19488.604 19488.604 0 0 0 68.122 54.78C77.187 44.027 86.029 32.92 96.269 23.4c4.757-4.408 9.794-8.404 15.222-11.872 2.63-1.645 5.372-3.173 8.17-4.466 2.854-1.293 5.82-2.527 8.842-3.35 1.455-.411 2.965-.764 4.42-1.116.504-.059.392-.94-.112-.882z" fill="#1D1D1B"/><path d="M123.914 1.01c-11.696 6.053-22.776 13.223-33.408 21.156a289.745 289.745 0 0 0-29.939 25.8C51.166 57.308 42.38 67.3 34.21 77.877a306.879 306.879 0 0 0-22.272 33.38c-3.414 5.877-6.66 11.93-9.57 18.1-1.566 3.35-2.965 7.229-2.014 10.99.727 2.703 3.022 5.406 5.764 5.818a4.902 4.902 0 0 0 1.847 0c.671-.177 1.175-.529 1.734-.882.672-.411.056-1.469-.615-1.116-1.008.587-2.518.058-3.47-.353-1.175-.588-2.126-1.528-2.798-2.703-1.679-3.056-.503-6.935.784-9.873 1.343-3.115 2.966-6.171 4.532-9.168 1.511-2.88 3.078-5.759 4.701-8.639a302.304 302.304 0 0 1 21.433-32.674A303.33 303.33 0 0 1 59.56 51.315c9.065-9.226 18.69-17.924 28.82-25.858 4.98-3.937 10.128-7.698 15.332-11.283 5.316-3.643 10.744-6.993 16.173-10.402l4.029-2.468c.392-.059.224-.353 0-.294z" fill="#1D1D1B"/><path d="M118.038 7.416c1.679-2.35 4.421-3.76 7.051-4.466 2.63-.705 5.484-.47 8.058.47 5.82 2.116 9.625 8.228 11.024 14.222 1.847 7.757.28 15.984-1.902 23.506-2.015 6.876-4.757 13.517-8.282 19.687a96.898 96.898 0 0 1-6.492 9.99c-1.175 1.587-2.462 3.115-3.749 4.643-1.287 1.528-2.798 2.88-3.861 4.584-.504.823.503 1.822 1.287 1.352 1.567-1 2.798-2.586 4.029-3.996 1.175-1.41 2.35-2.821 3.469-4.232 2.295-2.997 4.421-6.111 6.324-9.402 3.805-6.523 6.883-13.517 9.065-20.804 2.407-7.992 4.141-16.69 2.407-25.034-1.399-6.7-5.372-13.223-11.528-16.044-3.134-1.469-6.715-1.704-10.073-.822-1.567.411-3.078 1.175-4.421 2.115-1.343 1-2.406 2.41-3.245 3.879-.112.411.559.764.839.352zM23.074 146.342c-5.708 1.469-10.689 4.877-14.55 9.461-.56.647 0 1.469.728 1.352 13.15-2.057 26.3-4.231 39.395-6.641a2171.738 2171.738 0 0 0 39.005-7.581c12.982-2.644 25.965-5.465 38.892-8.345a2203.077 2203.077 0 0 0 38.892-9.167c6.492-1.587 12.927-3.232 19.362-4.878 4.421-1.116 9.849-2.115 12.927-6.053a9.232 9.232 0 0 0 1.567-3.056c.168-.587-.224-1.175-.728-1.292-9.345-3.056-19.865-3.82-29.379-1.117-1.063.294-.615 1.939.448 1.763 4.701-.823 9.457-1.352 14.27-1.175a55.307 55.307 0 0 1 14.102 2.585c-.224-.411-.504-.881-.728-1.292-1.455 4.642-6.939 6.053-10.912 7.052a1008.853 1008.853 0 0 1-19.026 4.76c-12.759 3.114-25.518 6.17-38.333 9.05a2132.268 2132.268 0 0 1-38.332 8.286 2229.425 2229.425 0 0 1-38.445 7.581c-12.87 2.409-25.798 4.818-38.724 7.11-1.567.294-3.19.588-4.757.823.224.47.504.882.727 1.352 3.694-4.408 8.506-7.699 13.71-9.756.56-.235.392-.94-.111-.822z" fill="#1D1D1B"/><path d="M197.669 114.666c-11.863 8.639-23.895 17.101-36.262 24.976s-25.182 14.986-38.557 20.628c-13.486 5.7-27.532 9.931-41.97 12.047-14.325 2.115-29.043 2.115-43.313-.705-3.525-.706-6.995-1.528-10.464-2.586-3.19-.94-6.492-1.939-9.457-3.467-2.463-1.293-5.149-3.174-6.044-6.112-.672-2.292.28-5.172 2.07-6.641.84-.705 1.96-1.058 3.022-.823.728.118 1.287-.94.504-1.293-2.462-1.234-4.869-.058-6.38 2.116-1.566 2.233-2.07 5.407-1.007 7.934 2.574 6.347 10.24 8.403 15.949 10.166 14.493 4.467 29.77 5.818 44.824 4.702 15.221-1.117 30.274-4.643 44.656-9.991 14.214-5.289 27.812-12.282 40.795-20.274 6.603-4.055 13.039-8.345 19.362-12.812 6.156-4.407 12.367-8.815 18.131-13.751 1.455-1.234 2.966-2.468 4.477-3.703.224-.176-.056-.587-.336-.411z" fill="#1D1D1B"/><path d="M29.621 151.807c3.19-5.348 5.652-11.048 8.338-16.69 2.518-5.348 4.98-10.813 7.946-15.926 5.205-8.932 12.591-15.984 21.21-21.273 8.673-5.348 18.242-9.11 27.923-11.989 10.913-3.232 22.496-4.995 33.744-2.82 10.801 2.115 20.594 7.698 31.17 10.636 1.343.353 2.574.588 3.973.647 1.008.058 1.063-1.41.224-1.705-2.574-.999-5.316-1.586-7.946-2.468-2.63-.881-5.205-1.88-7.835-2.938-5.204-2.057-10.408-4.232-15.836-5.642-11.304-2.938-23.056-1.88-34.248 1-10.073 2.585-20.146 6.346-29.323 11.517-8.73 4.937-16.788 11.46-22.496 20.04-3.246 4.878-5.708 10.226-8.17 15.515-1.343 2.879-2.63 5.759-3.973 8.638-1.343 2.88-2.686 5.76-3.918 8.698-.56 1.469-1.175 2.88-1.678 4.349-.28.587.56.94.895.411z" fill="#1D1D1B"/><path d="M52.565 130.475c1.846-.529 3.637-1.352 5.428-2.116l5.372-2.292c3.525-1.469 7.05-2.821 10.632-4.173a290.259 290.259 0 0 1 21.88-7.228c7.387-2.116 14.83-3.996 22.329-5.524 7.386-1.528 14.829-2.821 22.216-4.349 4.197-.882 8.394-1.822 12.535-2.997 4.085-1.117 8.338-2.233 12.087-4.231.728-.412.224-1.587-.559-1.352-3.694.999-7.331 2.41-11.024 3.467a142.59 142.59 0 0 1-10.968 2.704c-7.443 1.645-14.942 2.938-22.441 4.407a303.455 303.455 0 0 0-44.04 12.341c-4.085 1.47-8.114 3.056-12.143 4.702-1.959.823-3.918 1.645-5.876 2.527-2.015.881-4.03 1.763-5.876 2.938-.448.47-.168 1.352.448 1.176zM163.142 101.208c.447 0 .895 0 1.343-.059.448-.058.839-.176 1.287-.176.392 0 .783.059 1.119.235.056.059.168.059.224.118.056 0 .112.117.056 0l.168.176s.112.176.056.059c.056.059.056.117.112.176l.056.118.056.117c0 .059.056.118.056.235 0 0 .055.235 0 .059v.411c0 .059 0 .118 0 0 0 .059-.056.118-.056.177 0 .058-.112.235 0 .058-.056.059-.168.294-.056.177-.056.059-.056.117-.112.117.167-.176-.056.059-.056 0 0 0-.056 0-.056.059.112-.059.112-.059 0 0-.056 0-.112.059-.224.059-.28.059-.504.352-.56.588-.112.293 0 .587.224.822.672.882 1.791 1.352 2.798 1.235-.224-.471-.504-.882-.727-1.352-.224.529-.504 1.058-.728 1.587a4.01 4.01 0 0 0-.224.881c-.056.294-.112.529-.112.823 0 .294.336.529.616.353.224-.118.336-.353.56-.529.223-.235.447-.412.559-.706.28-.529.56-.999.84-1.528.279-.529-.056-1.41-.728-1.351-.671.058-1.175-.118-1.623-.647-.112.47-.224.94-.391 1.469 1.846-.293 2.014-2.821 1.175-4.114-.56-.881-1.567-1.351-2.63-1.293-.56 0-1.12.118-1.679.353-.56.176-1.007.529-1.455.94-.168.118-.056.353.112.353z" fill="#1D1D1B"/><path d="M169.297 108.378c-2.014.353-3.973.881-5.987 1.41-1.959.471-3.862.999-5.82 1.528-3.917 1.058-7.779 2.175-11.696 3.291-7.666 2.175-15.389 4.349-23.055 6.583-7.611 2.174-15.222 4.29-22.944 5.876a185.09 185.09 0 0 1-23.447 3.468c-4.365.352-8.674.587-13.039.646-2.182.059-4.365 0-6.547 0-2.239-.059-4.533-.176-6.772-.176-1.119 0-1.063 1.645 0 1.763 3.974.47 8.003.411 11.976.353 3.917-.059 7.779-.177 11.696-.471 7.834-.529 15.668-1.586 23.447-3.056 7.834-1.528 15.557-3.584 23.223-5.759 7.667-2.174 15.333-4.408 23-6.641 4.365-1.293 8.786-2.527 13.151-3.879 2.126-.646 4.252-1.292 6.435-1.939 2.238-.705 4.477-1.352 6.603-2.233.392-.235.224-.882-.224-.764z" fill="#1D1D1B"/><path d="M167.675 110.435c.895 1.528 1.231 3.408 1.119 5.171a7.268 7.268 0 0 1-.616 2.41 7.718 7.718 0 0 1-.615 1.175c-.224.412-.56.764-.672 1.235-.112.528.28.94.784.822.503-.117.895-.587 1.231-.999.335-.411.615-.881.839-1.41a9.1 9.1 0 0 0 .783-3.233c.056-1.057-.056-2.174-.391-3.173-.336-1.058-.896-1.881-1.623-2.703-.448-.412-1.175.176-.839.705zM63.253 124.304c-1.679.411-3.246 1.41-4.533 2.527a17.082 17.082 0 0 0-1.79 1.763c-.504.588-1.455 1.645-1.064 2.527.056.176.28.235.392.235.448 0 .84-.47 1.063-.764.224-.294.448-.588.672-.823.503-.646 1.119-1.234 1.735-1.763 1.23-1.058 2.574-1.88 3.973-2.586.503-.411.112-1.293-.448-1.116zM68.234 124.01c-1.511.94-3.022 1.94-4.477 2.88-.728.47-1.455.94-2.183 1.352-.392.235-.727.529-1.119.822-.336.236-.672.471-.951.823-.224.294.112.647.448.588.391-.059.783-.411 1.175-.588.335-.235.671-.411 1.007-.646l2.182-1.587c1.4-1.058 2.854-2.057 4.253-3.115.28-.235 0-.764-.335-.529z" fill="#1D1D1B"/><path d="M71.703 121.777c-1.735 1.469-3.413 2.938-5.148 4.407-.84.705-1.679 1.469-2.518 2.175-.392.352-.84.705-1.232 1.057-.391.353-.95.706-1.175 1.235-.112.293.112.646.392.528.504-.176.84-.587 1.231-.881.448-.411.84-.764 1.287-1.175a91.735 91.735 0 0 0 2.518-2.351c1.68-1.528 3.358-3.115 5.037-4.643.224-.176-.112-.587-.392-.352zM81.72 118.133c-2.686 1.47-5.316 3.056-7.835 4.878-1.175.882-2.35 1.822-3.525 2.762-1.12.941-2.518 1.881-3.19 3.292-.112.235.112.646.392.529 1.287-.529 2.294-1.705 3.358-2.645a58.5 58.5 0 0 1 3.637-2.997c2.406-1.881 4.869-3.703 7.499-5.29.335-.176.056-.764-.336-.529zM131.916 6.829c1.063.47 2.071.881 3.022 1.528.951.646 1.847 1.351 2.63 2.174 1.679 1.645 2.966 3.702 3.917 5.876 2.295 5.113 2.463 10.99 1.679 16.514-.504 3.526-1.399 6.993-2.294 10.402-.056.294.335.411.447.117 1.959-6.17 3.582-12.693 3.022-19.275-.447-5.054-2.35-10.05-5.764-13.693-1.734-1.822-4.141-3.585-6.603-4.055-.112-.059-.28.294-.056.412z" fill="#1D1D1B"/><path d="M137.736 14.879c3.805 3.82 3.357 9.873 2.91 14.927-.56 6.406-1.791 12.811-3.582 18.982-.503 1.763-1.063 3.467-1.623 5.171-.615 1.705-1.287 3.35-1.846 5.113-.056.235.28.411.392.176 1.51-2.88 2.574-6.053 3.525-9.167a82.616 82.616 0 0 0 2.462-9.756c.616-3.232 1.119-6.523 1.399-9.814.28-2.88.448-5.759.112-8.639-.336-2.762-1.287-5.582-3.469-7.346-.168-.176-.448.118-.28.353z" fill="#1D1D1B"/><path d="M135.777 20.168c1.735 6.935 1.567 14.222.168 21.156-1.399 6.935-3.973 13.517-6.939 19.864-1.679 3.643-3.469 7.228-5.148 10.872-.112.235.224.47.336.235 6.827-12.283 13.318-25.976 13.486-40.491a41.55 41.55 0 0 0-1.511-11.753c-.112-.236-.504-.118-.392.117z" fill="#1D1D1B"/><path d="M132.979 24.752c-.224 14.986-3.917 29.795-10.968 42.842-1.959 3.643-4.197 7.052-6.491 10.46-.168.235.224.53.391.294 2.295-2.88 4.309-6.053 6.1-9.285 1.791-3.174 3.358-6.523 4.701-9.932a91.674 91.674 0 0 0 5.764-21.861c.559-4.114.783-8.345.727-12.518-.112-.117-.224-.117-.224 0z" fill="#1D1D1B"/><path d="M128.391 33.626c-2.407 13.987-7.275 27.503-14.046 39.785-1.903 3.467-4.085 6.758-6.1 10.167-.168.235.224.587.392.352 4.253-5.524 7.554-11.87 10.464-18.276 2.966-6.464 5.316-13.164 7.107-20.098a139.082 139.082 0 0 0 2.518-11.871c0-.176-.335-.294-.335-.059zM64.932 50.786c-1.735 1.587-3.246 3.408-4.757 5.113-1.567 1.763-3.133 3.467-4.644 5.23a819.533 819.533 0 0 0-9.178 10.696c-5.988 7.17-11.863 14.398-17.627 21.803a288.583 288.583 0 0 0-9.402 12.576c-.168.235.168.47.336.294 5.876-7.287 11.528-14.81 17.404-22.156A919.792 919.792 0 0 1 54.97 62.776a254.81 254.81 0 0 1 5.148-5.936c1.68-1.94 3.526-3.82 5.037-5.935.056-.118-.168-.236-.224-.118z" fill="#1D1D1B"/><path d="M54.355 58.954c-6.1 6.7-11.975 13.693-17.515 20.98-5.484 7.229-10.744 14.692-15.613 22.332a244.146 244.146 0 0 0-8.002 13.34c-.224.353.336.706.56.353 4.588-7.875 9.4-15.574 14.55-23.037 5.203-7.581 10.687-14.868 16.451-21.98a275.03 275.03 0 0 1 9.905-11.694c.112-.176-.168-.47-.336-.294zM121.731 32.158c.392 14.456-3.861 28.795-11.807 40.607a73.201 73.201 0 0 1-7.499 9.285c-.112.118.056.294.168.176 10.353-9.52 16.844-23.565 18.858-37.786.56-4.055.728-8.169.504-12.282 0-.177-.224-.177-.224 0zM115.072 10.413c3.022.117 6.044.999 8.73 2.468 1.343.705 2.574 1.587 3.749 2.586 1.175.999 2.127 2.174 3.19 3.29.224.236.615-.058.448-.352-1.623-2.703-4.421-4.76-7.107-6.17a20.102 20.102 0 0 0-8.954-2.293c-.336 0-.336.47-.056.47zM117.311 8.827c2.798-.706 5.707-.353 8.338.764a15.153 15.153 0 0 1 3.693 2.292c.504.47 1.007.94 1.455 1.41.503.529.839 1.234 1.399 1.763.168.176.503 0 .448-.235-.392-1.352-1.735-2.586-2.742-3.467a15.318 15.318 0 0 0-3.806-2.351c-2.798-1.175-5.932-1.41-8.841-.588-.336.06-.224.47.056.412zM123.522 4.77c2.518.588 4.981 1.763 7.107 3.291 2.182 1.587 3.805 3.644 5.484 5.76.168.234.448-.06.336-.294C135.33 11 133.259 9 131.077 7.473a18.27 18.27 0 0 0-7.443-3.114c-.224-.118-.336.294-.112.411zM131.245 4.829c2.574 2.997 5.148 5.994 7.834 8.874.224.235.504-.117.336-.352-2.518-3.056-5.149-5.936-7.779-8.933-.28-.235-.615.117-.391.411z" fill="#1D1D1B"/><path d="M117.534 47.143c-2.966 10.225-7.442 19.921-13.318 28.678-1.679 2.468-3.582 4.76-5.149 7.287-.167.293.224.529.392.352 1.847-1.763 3.358-3.996 4.813-6.111a107.227 107.227 0 0 0 4.309-6.876 95.392 95.392 0 0 0 6.715-14.398c1.063-2.88 1.959-5.818 2.742-8.756.056-.353-.392-.47-.504-.176zM111.099 46.907c-2.183 9.932-6.044 19.453-11.472 27.974a104.685 104.685 0 0 1-4.924 7.11c-.168.236.111.53.28.295 6.435-7.699 11.247-16.984 14.325-26.68.896-2.822 1.623-5.701 2.183-8.581.056-.294-.336-.411-.392-.117zM88.77 48.67c5.933 7.993 7.22 19.159 3.75 28.503-1.007 2.644-2.406 5.112-4.029 7.404-.112.177.168.412.336.236 3.301-3.762 5.204-8.874 5.876-13.87.671-5.112.168-10.402-1.68-15.162-1.007-2.645-2.405-5.113-4.14-7.228-.112-.06-.224.058-.112.117z" fill="#1D1D1B"/><path d="M86.756 53.725c3.918 6.523 4.141 15.338 1.008 22.273-.896 1.998-2.127 3.82-3.47 5.524-.224.293.112.646.392.411 2.742-2.703 4.477-6.582 5.372-10.343.84-3.879.84-8.051-.224-11.812-.615-2.175-1.51-4.232-2.742-6.112-.168-.235-.448-.118-.336.059zM85.133 60.365C83.79 70.18 80.49 79.76 75.564 88.221c-1.399 2.41-2.91 4.701-4.476 6.993-.112.177.167.412.28.235 3.021-3.76 5.483-8.227 7.554-12.635a76.22 76.22 0 0 0 4.868-13.986c.672-2.762 1.175-5.583 1.567-8.404.056-.176-.224-.294-.224-.059zM7.74 133.707c9.458-2.586 18.58-6.641 26.806-12.341 2.294-1.587 4.42-3.291 6.547-5.054.224-.177-.056-.588-.336-.412-7.722 6.112-16.284 11.166-25.35 14.692-2.574.999-5.148 1.939-7.778 2.703-.224.118-.168.529.112.412zM9.923 130.063c10.353-4.349 20.09-9.931 29.043-16.924 2.519-1.94 4.98-3.997 7.22-6.23.223-.235-.057-.646-.337-.47-2.182 1.704-4.364 3.526-6.547 5.23-2.238 1.705-4.477 3.409-6.771 4.995-4.589 3.174-9.401 6.053-14.326 8.698-2.798 1.469-5.596 2.938-8.45 4.231-.224.118-.056.529.168.47z" fill="#1D1D1B"/><path d="M9.252 133.296c8.114-2.234 15.836-5.583 23-10.05 2.014-1.234 4.028-2.527 5.875-4.055.28-.235-.056-.705-.392-.47-2.294 1.41-4.477 2.997-6.77 4.349-2.295 1.351-4.59 2.644-6.94 3.82a99.16 99.16 0 0 1-14.885 5.994c-.28.059-.168.529.112.412zM8.132 135.645c4.253 2.468 9.234.059 13.095-2.174a137.509 137.509 0 0 0 6.883-4.231c2.239-1.469 4.589-2.938 6.547-4.76.28-.235-.055-.705-.391-.529-2.183 1.293-4.197 2.938-6.324 4.349-2.07 1.351-4.14 2.703-6.267 3.996-3.861 2.291-8.898 5.465-13.375 3.114-.168-.059-.28.176-.168.235z" fill="#1D1D1B"/><path d="M9.643 138.996c4.03.529 8.115.059 11.976-1.293 3.693-1.352 7.442-3.585 10.073-6.641.28-.353-.168-.764-.448-.47-1.511 1.352-3.022 2.703-4.7 3.761-1.68 1.117-3.47 1.998-5.317 2.703-3.693 1.352-7.666 1.999-11.528 1.646-.28-.059-.223.294-.056.294zM82.391 59.601C80.49 72.59 74.11 84.695 65.044 93.686c-2.574 2.586-5.428 4.76-8.338 6.935-.168.117 0 .411.168.294 2.742-1.528 5.316-3.644 7.666-5.818a59.797 59.797 0 0 0 6.492-7.229c3.917-5.171 6.995-11.048 9.065-17.277 1.175-3.526 1.959-7.17 2.462-10.931.056-.118-.168-.176-.168-.059z" fill="#1D1D1B"/><path d="M75.844 67.241c-3.19 9.58-8.338 18.277-15.445 25.27a81.04 81.04 0 0 1-6.323 5.465c-.168.177 0 .47.167.353 8.17-5.524 14.718-13.81 18.86-22.978a57.365 57.365 0 0 0 2.965-8.051c.056-.176-.168-.235-.224-.059zM71.423 70.18a113.175 113.175 0 0 1-17.907 21.802c-1.903 1.822-3.917 3.467-5.876 5.23-.224.235.056.647.336.47 3.693-2.762 7.107-6.111 10.297-9.52 3.19-3.408 6.211-7.052 8.897-10.93 1.567-2.292 3.078-4.525 4.477-6.935 0-.117-.168-.235-.224-.117zM104.384 42.559c-.728 6.581-2.351 12.987-4.253 19.275-.056.176.168.176.224.059 2.35-6.17 3.693-12.753 4.365-19.334.056-.177-.28-.177-.336 0zM118.542 18.876c1.958 4.055 3.469 8.286 4.756 12.635.056.176.28.117.224-.059-1.007-4.466-2.686-8.698-4.701-12.753-.112-.235-.391-.058-.279.177zM132.755 16.584c4.757 8.286 5.708 18.746 2.854 27.914-.839 2.644-1.902 5.113-3.301 7.404-.112.177.168.294.28.177 5.428-8.169 6.659-18.864 3.861-28.267-.784-2.644-1.903-5.113-3.302-7.463-.168-.235-.504 0-.392.235z" fill="#1D1D1B"/><path d="M135.162 24.752c.559 14.516-3.358 29.207-11.024 41.313-2.127 3.409-4.645 6.582-7.275 9.638-.224.235.112.647.336.353 4.98-5.113 8.953-11.342 11.919-17.924 2.966-6.582 4.981-13.634 5.876-20.803a67.55 67.55 0 0 0 .336-12.577c.056-.176-.168-.176-.168 0z" fill="#1D1D1B"/><path d="M130.013 34.978a146.302 146.302 0 0 1-15.053 37.67c-1.902 3.29-3.973 6.522-6.044 9.696-.167.235.224.47.392.235 7.89-10.872 13.822-23.448 17.963-36.377a125.353 125.353 0 0 0 3.022-11.165c.112-.176-.224-.235-.28-.059zM25.368 148.34c1.343-.529 2.686-1.117 4.03-1.528-.057-.176-.057-.294-.113-.47-.671.176-1.287.529-1.902.823l-2.183 1.057c-1.399.706-2.798 1.411-4.197 2.175a137.074 137.074 0 0 0-4.029 2.233c-.727.411-1.399.823-2.07 1.234-.616.411-1.344.764-1.847 1.293-.224.235 0 .705.336.588.671-.177 1.287-.647 1.846-.999.672-.412 1.343-.764 1.959-1.176 1.343-.823 2.742-1.587 4.085-2.35 1.343-.764 2.686-1.47 4.03-2.175l2.014-1.058c.727-.352 1.51-.705 2.126-1.175.224-.176.056-.588-.224-.411-1.23.646-2.63 1.175-3.917 1.763-.112 0-.056.235.056.176z" fill="#1D1D1B"/><path d="M28.782 147.928c-2.407.529-4.813 1.234-7.051 2.233a36.074 36.074 0 0 0-3.302 1.763 13.82 13.82 0 0 0-1.51.999c-.449.353-1.008.705-1.288 1.176-.112.235.056.47.28.411.56-.118 1.007-.529 1.455-.823.503-.352 1.007-.705 1.51-.999a28.312 28.312 0 0 1 3.19-1.763 32.884 32.884 0 0 1 6.94-2.526c.167-.059.055-.529-.224-.471z" fill="#1D1D1B"/><path d="M27.27 149.103c-1.678.471-3.245 1.176-4.756 2.057-.727.412-1.455.941-2.126 1.47-.672.528-1.4 1.116-1.847 1.821-.168.294.168.647.448.47.671-.47 1.287-1.057 1.902-1.527.672-.529 1.343-1 2.07-1.411a19.494 19.494 0 0 1 4.534-1.998c.56-.118.335-1.058-.224-.882zM96.773 114.137c-8.45 2.88-16.62 6.465-24.566 10.578-2.295 1.176-4.589 2.41-6.771 3.82-.28.177-.056.647.28.471 2.574-1.176 5.092-2.586 7.666-3.879 2.518-1.293 5.092-2.586 7.666-3.761 5.205-2.469 10.52-4.702 15.837-6.876.168-.118.112-.412-.112-.353zM97.333 115.783c-4.757 1.645-9.457 3.408-14.046 5.524a147.627 147.627 0 0 0-6.827 3.35c-2.239 1.175-4.59 2.409-6.66 3.937-.335.235-.056.705.28.529 2.294-1.058 4.477-2.41 6.715-3.585a142.853 142.853 0 0 1 6.66-3.35c4.588-2.174 9.233-4.172 13.99-5.935.28-.118.168-.588-.112-.47zM98.732 118.075c-4.589 1.645-9.122 3.408-13.599 5.406-4.476 1.998-9.065 3.996-13.262 6.641-.336.235-.056.764.336.587 4.42-1.998 8.674-4.407 13.094-6.405 4.477-2.057 9.01-3.996 13.599-5.7.28-.177.167-.647-.168-.529zM96.493 120.131c-3.301 1.705-6.659 3.35-9.96 5.054l-4.87 2.468c-1.678.882-3.469 1.646-5.035 2.762-.224.177-.112.647.223.529 1.68-.587 3.246-1.586 4.813-2.409 1.679-.882 3.357-1.763 5.092-2.703 3.302-1.763 6.66-3.585 9.961-5.348.224-.059 0-.47-.224-.353zM97.389 123.481c-5.205 2.057-10.465 4.467-15.11 7.758-.335.235-.055.822.336.587 4.925-2.762 9.793-5.7 14.942-7.992.223-.059.055-.47-.168-.353zM167.395 104.852c-4.309 1.881-8.562 3.82-12.927 5.583-4.365 1.704-8.842 3.232-13.263 4.76-.335.117-.168.587.112.528 4.589-1.175 9.066-2.703 13.487-4.465 4.365-1.763 8.673-3.644 12.759-5.994.223-.118.055-.529-.168-.412zM166.611 102.443a436.997 436.997 0 0 0-9.289 3.408c-3.022 1.116-6.1 2.233-9.066 3.526-.223.117-.056.411.168.352 3.134-.94 6.156-2.174 9.178-3.349 3.022-1.176 6.099-2.351 9.121-3.585.224-.117.112-.47-.112-.352zM163.869 101.149c-4.085 1.293-8.17 2.586-12.199 3.879-2.015.647-4.085 1.293-6.1 1.998-1.958.647-3.973 1.176-5.875 2.057-.28.118-.056.588.223.529 2.071-.411 4.086-1.234 6.1-1.88a237.378 237.378 0 0 0 5.988-1.999c4.029-1.351 8.002-2.703 12.031-4.055.28-.176.112-.646-.168-.529zM159.672 100.327c-3.861.411-7.834 1.351-11.416 2.937-.167.059-.056.412.168.353 3.694-1.351 7.387-2.409 11.304-2.879.168 0 .168-.47-.056-.411zM37.511 135.881c-1.678 2.88-2.91 6.053-3.693 9.344-.28 1.234-.56 2.527-.336 3.761.168.822.84 1.939 1.791 1.645.28-.059.336-.47.056-.646-.392-.235-.672-.294-.84-.823-.167-.411-.223-.881-.223-1.352 0-1.234.391-2.585.671-3.761a43.325 43.325 0 0 1 2.798-7.992c.112-.176-.112-.352-.224-.176z" fill="#1D1D1B"/><path d="M36.336 141.112a12.944 12.944 0 0 0-2.742 5.582c-.224 1-.336 2.116-.28 3.115.056.94.112 2.116.728 2.88.168.176.392 0 .392-.177.111-.94-.224-1.88-.224-2.82-.056-.999 0-1.94.224-2.939.391-1.939 1.175-3.761 2.35-5.289.224-.235-.168-.705-.448-.352zM42.828 136.762c-2.127 1.822-3.582 4.349-4.197 7.229-.28 1.41-.392 2.821-.28 4.231.112 1.293.392 2.821 1.231 3.879.168.176.392 0 .336-.235-.168-1.293-.616-2.527-.728-3.82a14.128 14.128 0 0 1 .224-4.055c.56-2.645 1.847-5.054 3.75-6.876.223-.176-.113-.529-.336-.353zM44.954 138.29c-1.623 2.175-2.63 4.76-3.022 7.523-.112.646-.112 1.292-.112 1.939 0 .529 0 1.058.28 1.587.336.529 1.4 1.293 1.623.235.056-.294-.28-.412-.448-.177-.112.236-.503-.47-.56-.587-.167-.412-.111-.999-.055-1.469 0-1.058.168-2.057.392-3.115.447-1.998 1.287-3.938 2.462-5.583.168-.353-.336-.647-.56-.353z" fill="#1D1D1B"/><path d="M45.626 142.051c-.84 1.176-1.231 2.704-1.231 4.173.055 1.352.391 3.115 1.566 3.937.168.118.448-.058.392-.294-.224-.587-.504-1.116-.727-1.704a5.894 5.894 0 0 1-.336-1.939c0-1.293.336-2.586 1.063-3.644.336-.587-.392-.999-.727-.529zM48.76 141.347c-.112 1.116-.224 2.292-.336 3.408-.056.588-.112 1.116-.168 1.704-.056.529-.168 1.117-.056 1.645.056.235.447.353.56.059.223-.47.223-1.058.28-1.586l.167-1.763c.112-1.176.224-2.292.336-3.467.056-.529-.728-.529-.783 0zM52.62 142.581c-.391.47-.67.999-.783 1.587-.056.293-.112.587-.056.881 0 .176 0 .294.056.47 0 .177.056.294.168.471.112.235.448.117.448-.118-.056-.47-.112-.999 0-1.469.112-.471.336-.941.615-1.293.28-.353-.167-.823-.447-.529zM62.078 108.671c-1.79 2.234-2.127 5.348-1.287 8.11.392 1.352 1.063 2.645 2.014 3.703.448.528.952.94 1.511 1.292.504.353 1.287.823 1.903.764.28 0 .336-.352.112-.529-.504-.352-1.12-.47-1.623-.822-.56-.353-1.007-.764-1.455-1.234a9.365 9.365 0 0 1-1.903-3.35c-.783-2.527-.56-5.407 1.064-7.522.224-.294-.112-.705-.336-.412z" fill="#1D1D1B"/><path d="M65.044 110.2c-1.007 2.292-.84 4.937.112 7.229.951 2.174 2.854 4.349 5.26 4.584.168 0 .224-.294.112-.353-1.959-1.058-3.638-2.351-4.7-4.466-1.008-2.057-1.232-4.584-.337-6.759.112-.294-.335-.529-.447-.235zM68.066 110.905c.056 2.174.727 4.29 1.902 6.052.56.882 1.231 1.705 2.07 2.351.784.646 1.68 1.234 2.687 1.469.28.059.392-.294.168-.47-.784-.529-1.623-.999-2.35-1.645-.728-.647-1.4-1.352-1.96-2.175a11.062 11.062 0 0 1-1.902-5.582c0-.412-.615-.412-.615 0zM73.942 113.138c.055 2.586 1.79 5.172 4.308 5.583.224.059.28-.294.112-.353-2.014-.881-3.749-2.879-3.86-5.23-.057-.353-.56-.353-.56 0zM80.153 104.03c-1.231 2.056-1.623 4.583-1.231 6.934a12.255 12.255 0 0 0 1.175 3.409c.56.999 1.343 2.115 2.35 2.644.28.118.504-.176.28-.411-.727-.823-1.51-1.587-2.07-2.586a8.896 8.896 0 0 1-1.12-3.173c-.447-2.234-.112-4.643 1.064-6.641.112-.176-.28-.411-.448-.176zM87.484 103.442a17.187 17.187 0 0 0-.168 6.758c.392 2.174 1.231 4.466 2.742 6.111.112.118.336-.058.224-.176-1.063-1.88-2.015-3.761-2.519-5.935a14.785 14.785 0 0 1 0-6.641c.056-.176-.223-.294-.28-.117zM92.296 105.557c-1.175.999-1.678 2.645-1.51 4.173.055.763.28 1.527.671 2.174.336.588.951 1.41 1.623 1.587.28.058.448-.294.28-.471-.224-.235-.504-.411-.728-.646-.224-.235-.392-.529-.56-.764-.335-.588-.559-1.234-.615-1.88-.168-1.352.28-2.763 1.231-3.703.224-.352-.112-.705-.392-.47zM97.333 105.558c-1.903 1.057-2.127 4.055-.784 5.7.392.47.896.764 1.455.881.224.059.392-.293.168-.411-1.007-.529-1.623-1.528-1.79-2.703-.113-1.117.223-2.351 1.23-2.938.336-.177.057-.764-.28-.529zM101.418 106.263a7.269 7.269 0 0 0-.616 2.409c0 .412 0 .823.112 1.234a3 3 0 0 0 .448 1.176c.168.293.559.117.503-.235-.335-1.411-.391-2.88.224-4.173.168-.411-.447-.822-.671-.411zM144.563 94.626c.224 1.41.168 2.88-.168 4.29-.168.705-.448 1.352-.727 1.998-.168.294-.336.647-.504.882-.168.293-.392.587-.56.881-.055.235.112.529.336.353.56-.412.952-1.176 1.231-1.822.336-.705.56-1.41.728-2.174a10.549 10.549 0 0 0 0-4.584c-.056-.177-.392-.06-.336.176zM141.653 96.037c.056 1.116-.112 2.292-.336 3.408a8.67 8.67 0 0 1-.503 1.587c-.112.235-.168.529-.28.764-.112.294-.28.529-.336.882-.056.352.336.646.616.352.391-.411.671-1.058.839-1.645.168-.529.336-1.117.448-1.705.224-1.175.336-2.41.224-3.643-.056-.47-.728-.47-.672 0zM138.799 96.801a8.58 8.58 0 0 1-.615 3.938c-.28.587-.56 1.175-.952 1.704-.168.294-.391.529-.615.764a7.367 7.367 0 0 0-.616.764c-.112.235.112.528.336.411.615-.235 1.175-.882 1.567-1.41.447-.588.783-1.234 1.063-1.881.56-1.351.727-2.88.56-4.348-.112-.353-.728-.412-.728.058zM136.001 98.094c-.504.881-.951 1.704-1.455 2.586-.503.881-1.007 1.704-1.399 2.585-.168.353.28.588.448.294.559-.822 1.007-1.704 1.511-2.527.503-.881.951-1.704 1.455-2.585.168-.412-.392-.706-.56-.353zM119.997 80.581c-13.375 1.47-26.637 4.76-39.172 9.932-3.47 1.41-6.94 3.056-10.297 4.76-.168.118 0 .353.168.294 12.143-5.7 24.846-10.108 37.885-12.753 3.805-.764 7.554-1.41 11.416-1.88.223 0 .223-.353 0-.353z" fill="#1D1D1B"/><path d="M119.269 80.934c-9.009 2.233-17.907 4.877-26.58 8.11-2.463.94-4.981 1.822-7.388 2.82-.335.118-.224.706.168.588 4.421-1.469 8.73-3.114 13.15-4.642 4.422-1.47 8.843-2.88 13.263-4.232 2.519-.764 5.037-1.528 7.611-2.233.224 0 .112-.47-.224-.411zM118.598 82.52C107.741 85.81 97.053 89.69 86.7 94.333c-.224.117-.056.529.168.411 10.52-4.231 21.097-8.345 31.841-11.872.224-.058.112-.411-.111-.352zM175.789 108.437a160.15 160.15 0 0 0-4.029 2.703c-.672.47-1.287.881-1.959 1.351l-1.007.706c-.28.235-.616.47-.784.764-.168.235.112.47.336.47.336-.059.728-.294 1.007-.529l1.008-.705c.615-.47 1.231-.882 1.902-1.352l3.861-2.821c.392-.235.056-.822-.335-.587zM179.202 109.671c-1.679.999-3.413 1.939-5.092 2.938l-2.518 1.411c-.784.47-1.791.881-2.463 1.528-.335.294 0 .823.392.705.896-.235 1.735-.94 2.518-1.41.84-.47 1.679-.999 2.463-1.47l5.036-2.997c.56-.176.112-.999-.336-.705zM184.295 110.024c-3.022 1.41-6.044 2.82-9.122 4.231-1.455.705-2.91 1.41-4.421 2.115-.727.353-1.511.705-2.238 1.117-.727.352-1.511.705-2.127 1.234-.279.294.056.646.336.646.728-.117 1.511-.529 2.183-.881.727-.353 1.511-.705 2.238-1.058 1.511-.705 3.022-1.469 4.533-2.174 3.022-1.469 5.988-2.997 8.953-4.466.504-.294.112-.941-.335-.764zM189.163 110.258c-4.253 1.352-8.394 2.88-12.479 4.702-1.959.881-3.917 1.763-5.82 2.762l-3.022 1.586c-.951.529-1.958 1-2.742 1.763-.279.294 0 .823.392.706 1.007-.294 2.015-.941 2.966-1.411.951-.47 1.847-.94 2.798-1.469a189.15 189.15 0 0 1 5.932-2.88 158.023 158.023 0 0 1 12.255-4.936c.448-.176.224-.94-.28-.823z" fill="#1D1D1B"/><path d="M194.983 109.906c-5.204 1.645-10.352 3.467-15.389 5.524a199.49 199.49 0 0 0-7.387 3.174c-1.231.529-2.406 1.116-3.637 1.704-.616.294-1.287.646-1.903.94-.559.294-1.231.529-1.679 1.058-.167.235-.056.647.224.647.616 0 1.175-.353 1.679-.588.672-.294 1.287-.588 1.959-.882 1.231-.587 2.406-1.116 3.637-1.704 2.462-1.117 4.925-2.233 7.443-3.291 4.98-2.116 10.073-3.996 15.221-5.759.56-.059.336-.941-.168-.823z" fill="#1D1D1B"/><path d="M194.983 112.375a183.988 183.988 0 0 0-13.654 4.231 304.592 304.592 0 0 0-6.659 2.527c-1.064.411-2.127.881-3.19 1.351-1.007.412-2.239.823-3.078 1.587-.392.294.056.764.392.705.615-.059 1.175-.411 1.734-.646.504-.176 1.008-.412 1.512-.588 1.063-.47 2.126-.881 3.245-1.351a307.166 307.166 0 0 1 6.603-2.586 221.166 221.166 0 0 1 13.319-4.466c.504-.118.28-.941-.224-.764zM196.326 113.609c-5.428 1.763-10.912 3.173-16.228 5.288-.392.177-.28.823.168.706 5.484-1.411 10.856-3.467 16.284-5.23.447-.177.28-.941-.224-.764zM169.577 136.998c-7.89 2.468-15.837 4.819-23.895 6.875a335.036 335.036 0 0 1-24.007 5.113c-4.588.823-9.233 1.469-13.822 2.292-.392.059-.279.764.112.705 4.029-.293 8.114-.881 12.144-1.586 4.085-.647 8.17-1.411 12.199-2.292 8.114-1.705 16.116-3.644 24.063-6.053 4.476-1.352 8.953-2.762 13.374-4.408.448-.117.28-.764-.168-.646zM173.774 132.355c-4.98 3.056-10.856 3.878-16.452 4.995-6.324 1.234-12.591 2.468-18.915 3.702-3.581.706-7.107 1.352-10.688 2.175-.504.117-.28.881.224.764 6.435-.999 12.815-2.351 19.194-3.644 3.19-.646 6.38-1.234 9.569-1.881 2.91-.587 5.764-1.116 8.618-1.821 3.078-.823 6.044-1.94 8.73-3.703.336-.235.056-.764-.28-.587zM177.3 128.712c-5.149 2.703-10.745 4.172-16.397 5.288-5.875 1.117-11.807 1.881-17.683 2.88-3.525.588-7.051 1.116-10.576 1.822-.336.058-.224.646.056.587 6.323-.705 12.647-1.704 18.914-2.703 5.764-.881 11.528-1.763 17.068-3.526a43.989 43.989 0 0 0 8.841-3.82c.392-.176.112-.646-.223-.528z" fill="#1D1D1B"/><path d="M184.91 123.951c-8.953 4.408-18.355 7.699-28.148 9.168-2.798.412-5.652.705-8.45.882-.391 0-.391.587 0 .587 9.961-.058 20.034-2.468 29.267-6.346a66.993 66.993 0 0 0 7.667-3.82c.28-.177 0-.647-.336-.471zM151.838 147.282c-5.764 1.41-11.584 2.644-17.404 3.82-5.764 1.175-11.583 2.057-17.403 3.173-3.246.647-6.548 1.058-9.849 1.587-.336.059-.224.646.056.587 11.695-1.175 23.391-3.467 34.863-6.17 3.302-.764 6.547-1.645 9.849-2.527.336-.059.168-.529-.112-.47zM153.964 143.462c-9.849 2.527-19.754 4.819-29.714 6.934-2.854.588-5.708 1.117-8.506 1.822-.28.059-.168.47.112.412 5.036-.764 10.072-1.881 15.053-2.998a336.413 336.413 0 0 0 14.773-3.525c2.798-.706 5.596-1.47 8.394-2.234.224-.117.112-.47-.112-.411zM141.317 151.866c-13.598 4.055-27.588 7.111-41.578 9.168a863.84 863.84 0 0 1-12.2 1.645c-.335.059-.335.588 0 .529 7.108-.529 14.159-1.586 21.154-2.879 7.051-1.293 14.158-2.763 21.041-4.82 3.861-1.175 7.778-2.292 11.639-3.526.112.118.056-.117-.056-.117zM125.648 159.036c-11.695 2.409-23.447 4.29-35.254 5.876-3.302.471-6.604.941-9.961 1.352-.28.059-.28.529 0 .47 11.863-1.058 23.671-2.821 35.422-5.113 3.302-.646 6.66-1.351 9.961-2.115.336 0 .168-.588-.168-.47zM12.497 158.918c12.76 1.174 25.63 1.057 38.389.235 3.525-.235 7.05-.412 10.52-.999.336-.059.224-.588-.056-.588-3.19.177-6.323.529-9.513.764-3.19.235-6.323.411-9.513.529-6.323.235-12.703.294-19.082.117-3.582-.117-7.163-.235-10.745-.411-.224-.117-.224.294 0 .353zM23.13 157.154c11.64.235 23.28-.176 34.863-1.175 3.246-.294 6.491-.529 9.737-1.057.336-.059.224-.588-.056-.588-5.82.353-11.584.999-17.404 1.41-5.764.411-11.527.646-17.291.823-3.302.117-6.548.235-9.85.235-.167.059-.167.352 0 .352zM45.794 152.687c10.016.294 20.033-.117 29.994-1.116 2.742-.294 5.54-.646 8.282-1.116.28-.059.224-.529-.056-.47-4.924.47-9.849 1.057-14.773 1.41-4.925.352-9.905.646-14.886.705-2.853.059-5.707.117-8.561.059-.28.117-.28.528 0 .528zM76.907 147.634c3.75-.235 7.555-.47 11.304-.705 3.75-.235 7.555-.353 11.304-.705.224 0 .224-.412 0-.412-3.75.059-7.554.471-11.304.706-3.749.235-7.554.47-11.304.764-.224 0-.224.352 0 .352zM14.568 161.209c7.107 1.116 14.326 1.469 21.489 1.645 7.218.176 14.493 0 21.712-.47 4.03-.294 8.114-.587 12.143-1.292.336-.059.28-.705-.112-.646-3.581.235-7.106.646-10.688.881a334.14 334.14 0 0 1-10.856.528c-7.22.235-14.382.118-21.6-.293-4.03-.177-8.06-.529-12.088-.764-.168 0-.224.411 0 .411zM21.73 164.677c5.933.646 11.976.705 17.964.881 5.932.118 11.863.177 17.851.059 3.414-.059 6.771-.176 10.185-.352.28 0 .28-.47 0-.47-5.988 0-11.976.117-17.963.058-5.932-.058-11.864-.058-17.852-.293-3.357-.118-6.77-.235-10.184-.235-.224.058-.168.352 0 .352zM42.212 169.201c4.645.529 9.29.764 13.934.588 4.533-.118 9.234-.47 13.71-1.469.336-.058.224-.646-.056-.587-4.588.529-9.121 1.175-13.766 1.351-4.588.176-9.233.059-13.822-.352-.28-.059-.28.411 0 .469zM54.971 174.373c3.637-.235 7.33-.705 10.968-1.057 3.638-.353 7.331-.764 10.968-1.234.224-.059.28-.47 0-.411-3.693.293-7.386.646-11.08 1.057-3.637.411-7.275.646-10.856 1.175-.336 0-.28.47 0 .47z" fill="#1D1D1B"/><path d="M115.072 155.686c-11.304.998-22.664 1.88-33.912 3.407-.224.059-.28.411 0 .411 11.304-.705 22.608-2.056 33.912-3.29.336 0 .336-.528 0-.528zM140.59 139.29a2731.593 2731.593 0 0 1-36.99 6.993 660.5 660.5 0 0 0-10.52 1.998c-.168.058-.168.352.056.352 6.155-.822 12.311-1.998 18.411-3.114a2052.357 2052.357 0 0 0 18.69-3.644 661.48 661.48 0 0 0 10.465-2.233c.112-.117.056-.411-.112-.352zM184.351 121.895a239.432 239.432 0 0 1-31.898 7.346c-3.077.47-6.099.881-9.177 1.351-.336.059-.28.647.056.647 5.372-.412 10.744-1.352 16.06-2.351a218.166 218.166 0 0 0 16.005-3.761 160.324 160.324 0 0 0 9.01-2.762c.279-.176.223-.588-.056-.47zM133.987 51.432a54.163 54.163 0 0 1-13.263 21.04c-.839.822-1.735 1.586-2.63 2.35-.839.705-1.903 1.41-2.686 2.233-.224.235 0 .764.336.646.895-.41 1.678-1.116 2.462-1.763a38.968 38.968 0 0 0 2.294-2.056c1.567-1.47 3.022-3.056 4.421-4.76 2.686-3.292 5.036-6.935 6.883-10.873a57.807 57.807 0 0 0 2.63-6.758c.168-.235-.335-.411-.447-.059z" fill="#1D1D1B"/><path d="M136.281 52.197c-4.141 8.286-9.569 15.925-15.613 22.801-1.735 1.94-3.581 3.761-5.316 5.76-.336.352.168.822.503.528 3.526-2.938 6.548-6.582 9.402-10.225a112.052 112.052 0 0 0 7.722-11.46c1.343-2.291 2.574-4.7 3.75-7.11.111-.353-.28-.588-.448-.294zM32.363 136.88c-1.567.999-3.078 1.998-4.812 2.762a25.746 25.746 0 0 1-5.093 1.587c-1.79.352-3.581.529-5.428.529-1.79 0-3.525-.236-5.26-.471-.28 0-.28.412-.056.471 3.413 1.175 7.443.881 10.912.117 3.47-.764 7.107-2.35 9.905-4.701.168-.176-.056-.411-.168-.294zM54.691 96.507c-6.156 6.112-12.983 11.401-20.313 15.867a169.962 169.962 0 0 1-6.38 3.644c-.224.117 0 .411.168.294 7.667-3.703 14.885-8.757 21.32-14.457a113.28 113.28 0 0 0 5.373-5.113c.168-.176 0-.353-.168-.235zM51.501 95.331c-1.678 1.058-3.245 2.292-4.868 3.409-1.623 1.175-3.302 2.35-4.925 3.526-3.19 2.292-6.49 4.466-9.513 6.993-.224.177.056.588.336.412 3.358-2.175 6.491-4.643 9.737-6.994 1.623-1.175 3.19-2.351 4.757-3.526 1.567-1.175 3.19-2.233 4.644-3.526.168-.118 0-.353-.168-.294zM109.42 15.35c2.127-.06 4.197 0 6.324.234 2.126.235 4.253.764 6.379 1.175.28.059.392-.352.112-.47-3.973-1.527-8.562-1.762-12.815-1.527-.336.059-.336.646 0 .587zM129.734 99.27c1.231 1.351.895 3.819-.56 4.818-.224.176 0 .529.224.411 1.79-1.116 2.014-3.995.503-5.465-.111-.117-.335.118-.167.235zM125.984 100.033c.448.882.728 1.822.728 2.821 0 .999-.168 1.939-.336 2.879-.056.235.224.353.392.177 1.119-1.822.727-4.349-.336-6.112-.168-.294-.616-.059-.448.235zM124.641 101.914c-.112.529-.28.999-.392 1.527a5.51 5.51 0 0 1-.223.764c-.056.294-.168.529-.168.823 0 .294.392.411.559.176.056-.117.112-.235.168-.411 0-.118.056-.235.056-.353.056-.235.112-.529.168-.764.112-.528.224-.998.392-1.527.168-.529-.448-.705-.56-.235zM149.376 96.037c0 1.469-.112 2.997.055 4.466.056.411.504.411.56 0 .168-1.47.112-2.997.056-4.466.056-.47-.671-.47-.671 0zM65.491 122.423c-3.133.941-6.155 1.998-9.121 3.291-2.91 1.234-5.876 2.586-8.506 4.349-.168.118 0 .353.168.294 2.966-1.352 5.82-2.88 8.786-4.173 2.91-1.292 5.876-2.409 8.841-3.408.112-.059.056-.47-.168-.353zM88.939 110.964a248.085 248.085 0 0 0-31.785 11.401 193.559 193.559 0 0 0-8.563 4.055c-.167.058-.055.352.112.293 10.297-4.524 20.65-8.873 31.282-12.517 3.022-.999 6.044-1.998 9.066-2.938.168-.059.112-.352-.112-.294zM73.27 113.549c-7.555 3.233-15.11 6.465-22.552 9.874-.112.058-.056.235.056.176 7.555-3.174 15.053-6.523 22.608-9.873.112 0 0-.235-.112-.177zM68.457 110.376c-5.372 1.763-10.464 4.408-14.885 8.051-.056.059 0 .176.112.118 4.589-3.35 9.513-6.112 14.83-7.875.223-.059.167-.352-.057-.294zM151.838 104.088c-14.158 2.233-28.204 5.289-42.082 9.05-3.917 1.058-7.835 2.233-11.696 3.409-.28.059-.168.47.112.411 13.822-3.82 27.812-7.228 41.858-10.049 3.973-.823 7.947-1.528 11.92-2.292.335-.058.168-.529-.112-.529zM149.767 105.792c-15.556 3.467-31.001 7.346-46.446 11.283-4.365 1.117-8.674 2.174-12.983 3.408-.28.059-.168.529.112.47 7.778-1.645 15.501-3.643 23.223-5.582l23.168-5.818c4.309-1.116 8.673-2.233 12.982-3.408.224-.118.112-.411-.056-.353zM147.585 109.318c-10.856 3.703-21.88 6.759-32.961 9.521-3.189.764-6.323 1.528-9.513 2.292-.28.059-.168.529.112.47 5.596-1.117 11.136-2.527 16.676-3.996 5.54-1.47 11.024-3.056 16.452-4.819 3.134-1 6.212-2.057 9.29-3.115.224-.118.112-.412-.056-.353zM186.421 112.785a456.743 456.743 0 0 0-7.778 1.646c-.224.059-.112.352.056.294 2.574-.47 5.204-.999 7.778-1.528.336 0 .224-.47-.056-.412zM180.825 124.832c-15.389 4.055-31.058 7.347-46.838 9.462-4.421.588-8.842 1.117-13.263 1.646-.28.059-.336.529 0 .47 7.89-.529 15.781-1.528 23.559-2.821a313.482 313.482 0 0 0 23.447-4.76c4.421-1.058 8.786-2.351 13.095-3.703.28 0 .168-.352 0-.294zM114.456 22.46c4.421 6.758 4.869 15.515 1.847 22.978-.112.235.224.47.336.235 3.693-7.346 2.686-16.749-1.847-23.39-.168-.234-.503-.058-.336.177zM109.644 23.106c3.637 6.759 4.029 15.045 1.399 22.215-.112.294.392.529.504.235 3.077-7.229 2.35-15.926-1.623-22.626-.112-.117-.392 0-.28.176zM127.495 12.588c4.981 14.809-.112 30.5-6.771 43.722-1.959 3.82-4.029 7.523-5.988 11.401-.168.353.28.588.504.294 4.029-6.523 7.666-13.516 10.52-20.686 2.742-7.11 4.589-14.692 4.365-22.45-.112-4.23-.839-8.403-2.294-12.34-.056-.294-.392-.177-.336.059z" fill="#1D1D1B"/><path d="M136.225 18.111c.895 4.173.616 8.404-.224 12.576-.783 3.88-1.902 7.699-3.19 11.401-2.462 7.229-5.708 14.222-9.569 20.804-2.182 3.702-4.644 7.17-7.051 10.696-.224.352.28.764.56.411 2.518-2.938 4.645-6.23 6.659-9.579 2.015-3.291 3.805-6.758 5.484-10.226a117.844 117.844 0 0 0 4.365-10.695c1.343-3.879 2.518-7.816 3.302-11.871.895-4.525 1.119-9.168 0-13.693-.056-.176-.392-.059-.336.176zM10.539 123.717c4.7-2.234 9.29-4.937 13.654-7.817 4.309-2.879 8.618-5.876 12.535-9.344.168-.176-.056-.47-.28-.352-4.197 3.056-8.394 6.229-12.759 9.109-4.365 2.879-8.841 5.524-13.318 8.168-.168.118 0 .353.168.236zM20.332 112.433c13.374-8.58 26.189-18.16 38.22-28.679 3.358-2.938 6.716-5.994 9.905-9.168.224-.234-.112-.528-.335-.352-5.988 5.23-11.976 10.46-18.132 15.456a358.35 358.35 0 0 1-18.97 14.515 467.578 467.578 0 0 1-10.968 7.758c-.168.235.056.587.28.47zM81.832 49.963A262.023 262.023 0 0 1 62.75 69.18c-6.716 6.112-13.71 11.871-20.986 17.16-4.085 2.998-8.282 5.76-12.423 8.64-.28.175-.056.587.224.41 7.667-4.583 14.942-10.107 21.88-15.75 6.995-5.7 13.71-11.753 20.034-18.217 3.582-3.644 7.051-7.463 10.465-11.342.168-.059 0-.235-.112-.118zM19.436 99.622c-5.092 8.521-9.793 17.336-13.99 26.445-.56 1.234-1.119 2.527-1.678 3.761-.56 1.293-1.232 2.586-1.567 3.937-.112.353.391.588.56.235.67-1.057 1.118-2.233 1.622-3.349.504-1.117 1.007-2.292 1.511-3.409a240.902 240.902 0 0 1 3.134-6.699 289.856 289.856 0 0 1 6.715-13.223 312.294 312.294 0 0 1 4.085-7.463c.168-.235-.224-.53-.392-.235z" fill="#1D1D1B"/><path d="M17.366 105.557c-2.63 3.291-4.98 6.758-6.995 10.461a75.44 75.44 0 0 0-2.742 5.7c-.84 1.94-1.735 3.938-2.07 6.053-.057.412.447.705.67.294.896-1.822 1.512-3.879 2.295-5.759a64.086 64.086 0 0 1 2.63-5.642c1.959-3.761 4.141-7.346 6.66-10.637.167-.352-.224-.764-.448-.47z" fill="#1D1D1B"/><path d="M15.071 108.496c-2.406 3.878-4.588 7.816-6.49 11.988-1.904 4.055-3.75 8.286-4.813 12.635-.112.353.447.647.615.294 1.735-4.172 3.246-8.404 5.092-12.517a120.281 120.281 0 0 1 6.212-11.989c.224-.411-.336-.764-.616-.411zM27.159 144.99c-2.91.647-5.708 1.881-8.282 3.526-1.231.764-2.406 1.705-3.526 2.645-1.119.999-2.406 2.057-3.022 3.526-.112.235.112.588.392.411 1.175-.764 2.07-1.939 3.134-2.879a32.13 32.13 0 0 1 3.525-2.762c2.463-1.646 5.149-2.88 7.947-3.762.447-.176.28-.822-.168-.705z" fill="#1D1D1B"/><path d="M30.125 145.519c-2.575.764-5.037 1.763-7.331 3.173-2.239 1.293-4.645 2.939-6.324 4.996-.28.294.112.94.448.646 1.063-.764 2.015-1.704 3.022-2.468 1.063-.823 2.126-1.528 3.246-2.233a34.78 34.78 0 0 1 7.163-3.292c.503-.176.28-.94-.224-.822zM16.526 165.265c10.857 4.584 22.664 6.699 34.36 6.523 3.245-.059 6.603-.176 9.793-.764.336-.059.28-.646-.056-.646-2.91.117-5.764.352-8.674.411-2.91 0-5.82-.059-8.73-.294a104.55 104.55 0 0 1-17.067-2.821c-3.19-.823-6.38-1.763-9.514-2.88-.335-.176-.447.353-.112.471zM90.953 161.915c-8.17 1.41-16.452 2.35-24.678 3.173-.224 0-.224.352 0 .352 8.338-.411 16.62-1.527 24.846-2.937.336-.059.224-.646-.168-.588zM161.127 138.761c-9.457 1.469-18.914 3.114-28.316 4.819-9.345 1.704-18.69 3.584-28.036 5.524a308.23 308.23 0 0 0-7.834 1.704c-2.63.588-5.372 1.058-8.002 1.822-.28.059-.168.47.112.411 2.35-.352 4.7-.94 7.05-1.41 2.295-.47 4.645-.941 6.94-1.411 4.7-.94 9.401-1.939 14.158-2.879 9.345-1.881 18.69-3.644 28.036-5.407l15.948-2.997c.056 0 .056-.176-.056-.176zM143.388 134.764c-10.633 1.94-21.321 3.644-32.065 5.172-3.022.412-6.044.823-9.01 1.352-.336.059-.224.647.056.588 5.372-.529 10.689-1.352 16.005-2.175a477.271 477.271 0 0 0 15.948-2.762c3.022-.588 6.1-1.176 9.122-1.763.28-.118.168-.47-.056-.412z" fill="#1D1D1B"/></svg>