<svg width="200" height="176" viewBox="0 0 200 176" fill="none" xmlns="http://www.w3.org/2000/svg">
<path d="M169.241 112.315C168.234 114.49 167.059 116.546 165.604 118.427C164.877 119.367 164.093 120.249 163.31 121.071C162.918 121.483 162.47 121.894 162.022 122.247C161.575 122.658 161.127 122.952 160.791 123.422C160.679 123.539 160.791 123.833 160.959 123.775C161.519 123.539 161.911 123.128 162.358 122.776C162.806 122.423 163.198 122.012 163.645 121.6C164.485 120.719 165.324 119.778 166.052 118.779C167.507 116.84 168.682 114.725 169.465 112.433C169.577 112.315 169.297 112.198 169.241 112.315Z" fill="#1D1D1B"/>
<path d="M168.066 114.725C166.387 116.723 164.541 118.603 162.694 120.425C161.743 121.307 160.791 122.188 159.784 123.011C159.28 123.422 158.777 123.834 158.273 124.245C157.77 124.656 157.21 125.009 156.818 125.479C156.706 125.655 156.874 125.89 157.098 125.832C157.714 125.655 158.217 125.126 158.721 124.715C159.225 124.362 159.672 123.951 160.176 123.54C161.183 122.717 162.135 121.836 163.086 120.895C164.988 119.074 166.723 117.076 168.346 114.96C168.458 114.842 168.178 114.549 168.066 114.725Z" fill="#1D1D1B"/>
<path d="M165.604 115.254C162.862 118.721 159.616 121.777 156.035 124.304C155.027 125.01 153.908 125.656 152.957 126.42C152.733 126.596 152.845 127.008 153.125 126.89C154.132 126.479 155.028 125.891 155.923 125.245C156.818 124.598 157.77 123.952 158.609 123.188C160.344 121.777 161.967 120.249 163.421 118.604C164.261 117.663 165.1 116.664 165.884 115.606C166.164 115.371 165.828 115.019 165.604 115.254Z" fill="#1D1D1B"/>
<path d="M162.19 117.663C159.952 119.309 157.77 120.954 155.531 122.6C154.412 123.423 153.349 124.245 152.229 125.068C151.67 125.48 151.11 125.891 150.607 126.302C150.327 126.479 150.103 126.714 149.823 126.89C149.543 127.066 149.264 127.301 149.096 127.537C148.984 127.713 149.208 128.007 149.376 127.948C149.711 127.83 149.991 127.595 150.271 127.36C150.551 127.184 150.831 126.949 151.054 126.773C151.614 126.361 152.118 125.95 152.621 125.597C153.74 124.774 154.804 123.952 155.923 123.129C158.105 121.483 160.288 119.838 162.47 118.192C162.75 117.957 162.47 117.487 162.19 117.663Z" fill="#1D1D1B"/>
<path d="M158.721 118.192C155.307 121.66 151.278 124.598 147.025 126.773C146.41 127.067 145.794 127.36 145.179 127.654C144.563 127.948 143.891 128.124 143.332 128.536C143.164 128.653 143.22 129.006 143.444 129.006C144.003 128.947 144.563 128.653 145.123 128.418C145.682 128.183 146.242 127.889 146.801 127.654C147.921 127.125 148.984 126.538 149.991 125.891C152.062 124.598 154.076 123.129 155.923 121.484C156.986 120.543 157.993 119.544 159.001 118.545C159.225 118.31 158.945 118.016 158.721 118.192Z" fill="#1D1D1B"/>
<path d="M153.796 119.661C150.103 122.893 145.962 125.597 141.653 127.712C141.038 128.006 140.422 128.3 139.806 128.594C139.191 128.888 138.519 129.123 137.904 129.475C137.624 129.652 137.848 130.063 138.128 129.946C139.303 129.652 140.422 129.064 141.485 128.594C142.604 128.065 143.668 127.477 144.787 126.89C146.913 125.655 148.984 124.304 150.942 122.717C152.062 121.836 153.069 120.954 154.132 120.014C154.356 119.779 154.02 119.485 153.796 119.661Z" fill="#1D1D1B"/>
<path d="M147.137 121.718C143.164 124.598 139.023 127.184 134.77 129.417C133.539 130.063 132.308 130.651 131.189 131.415C131.077 131.532 131.133 131.767 131.301 131.708C132.42 131.356 133.539 130.827 134.546 130.239C135.61 129.652 136.673 129.064 137.736 128.476C139.862 127.242 141.933 125.949 143.947 124.539C145.123 123.716 146.242 122.894 147.361 122.071C147.473 121.895 147.305 121.601 147.137 121.718Z" fill="#1D1D1B"/>
<path d="M141.261 122.717C136.841 125.773 132.196 128.535 127.495 131.062C126.152 131.768 124.809 132.473 123.522 133.237C123.354 133.354 123.466 133.648 123.634 133.589C126.096 132.649 128.446 131.297 130.741 129.946C133.091 128.594 135.386 127.184 137.624 125.714C138.911 124.833 140.198 123.951 141.429 123.07C141.653 122.893 141.485 122.541 141.261 122.717Z" fill="#1D1D1B"/>
<path d="M133.595 125.42C129.23 128.065 124.809 130.533 120.332 133.001C119.101 133.706 117.758 134.294 116.583 135.117C116.359 135.234 116.527 135.645 116.751 135.528C117.926 135.058 118.989 134.411 120.108 133.824C121.228 133.236 122.347 132.59 123.466 132.002C125.704 130.768 127.887 129.416 130.069 128.123C131.3 127.359 132.588 126.596 133.819 125.832C134.043 125.597 133.819 125.244 133.595 125.42Z" fill="#1D1D1B"/>
<path d="M125.816 127.419C121.228 129.946 116.639 132.473 112.106 135.058C111.491 135.411 110.819 135.764 110.204 136.116C109.588 136.469 108.916 136.821 108.357 137.292C108.189 137.409 108.357 137.703 108.525 137.644C109.14 137.468 109.644 137.115 110.204 136.821C110.763 136.528 111.379 136.175 111.938 135.881C113.057 135.235 114.177 134.588 115.296 134.001C117.59 132.708 119.885 131.415 122.179 130.122C123.466 129.417 124.753 128.653 126.04 127.889C126.264 127.713 126.04 127.301 125.816 127.419Z" fill="#1D1D1B"/>
<path d="M120.5 128.828C115.576 130.533 110.763 132.472 106.007 134.705C104.664 135.352 103.32 135.998 102.033 136.704C101.865 136.821 101.977 137.115 102.145 137.056C104.496 136.057 106.79 134.882 109.14 133.824C111.547 132.766 113.953 131.767 116.415 130.827C117.814 130.298 119.157 129.769 120.556 129.299C120.836 129.122 120.724 128.711 120.5 128.828Z" fill="#1D1D1B"/>
<path d="M182.336 122.129C176.404 127.301 170.193 132.237 163.869 136.88C157.546 141.464 151.054 145.813 144.451 149.868C140.702 152.159 136.897 154.275 133.091 156.449C132.867 156.567 133.091 156.92 133.259 156.802C136.729 155.039 140.142 153.1 143.5 151.16C146.857 149.162 150.215 147.105 153.517 144.931C160.064 140.641 166.387 135.998 172.543 131.062C175.957 128.3 179.314 125.42 182.616 122.482C182.84 122.247 182.504 121.953 182.336 122.129Z" fill="#1D1D1B"/>
<path d="M179.426 121.601C173.55 126.655 167.395 131.415 161.127 135.881C154.86 140.348 148.424 144.52 141.821 148.399C138.128 150.573 134.322 152.63 130.573 154.745C130.293 154.922 130.517 155.333 130.797 155.216C134.266 153.57 137.624 151.69 140.982 149.75C144.339 147.811 147.641 145.813 150.887 143.697C157.322 139.525 163.645 135.059 169.689 130.24C173.103 127.536 176.404 124.716 179.65 121.836C179.762 121.718 179.538 121.483 179.426 121.601Z" fill="#1D1D1B"/>
<path d="M175.845 121.836C169.521 126.89 163.086 131.827 156.483 136.469C149.935 141.17 143.22 145.519 136.449 149.868C132.644 152.336 128.726 154.628 124.865 157.037C124.697 157.155 124.865 157.449 125.033 157.331C132.084 153.511 138.967 149.221 145.682 144.755C152.397 140.289 159.001 135.588 165.436 130.651C169.018 127.889 172.599 125.01 176.069 122.13C176.292 122.071 176.069 121.719 175.845 121.836Z" fill="#1D1D1B"/>
<path d="M168.178 124.539C161.967 129.417 155.587 134.059 149.096 138.584C142.604 143.11 136.057 147.458 129.398 151.631C125.648 153.982 121.843 156.273 118.038 158.624C117.814 158.742 118.038 159.094 118.262 158.977C125.145 155.274 131.86 151.043 138.407 146.753C145.011 142.404 151.446 137.938 157.77 133.178C161.351 130.474 164.876 127.771 168.346 124.95C168.626 124.715 168.402 124.363 168.178 124.539Z" fill="#1D1D1B"/>
<path d="M162.638 125.832C159.616 128.006 156.65 130.181 153.628 132.355C150.607 134.529 147.585 136.645 144.507 138.761C138.463 142.933 132.308 146.988 126.096 150.925C122.571 153.159 119.045 155.333 115.576 157.566C115.352 157.742 115.576 158.095 115.8 157.919C119.045 156.156 122.179 154.216 125.313 152.277C128.446 150.338 131.58 148.34 134.658 146.283C140.814 142.228 146.857 138.055 152.845 133.707C156.203 131.238 159.56 128.77 162.806 126.184C162.974 126.008 162.862 125.655 162.638 125.832Z" fill="#1D1D1B"/>
<path d="M155.867 126.302C153.293 128.065 150.831 129.887 148.256 131.708C145.738 133.471 143.164 135.234 140.59 136.997C135.497 140.523 130.349 143.991 125.145 147.399C122.235 149.338 119.269 151.16 116.415 153.217C116.135 153.393 116.359 153.805 116.639 153.687C119.325 152.159 121.899 150.396 124.473 148.751C127.048 147.047 129.622 145.342 132.196 143.579C137.344 140.112 142.436 136.586 147.473 132.942C150.327 130.886 153.181 128.888 155.923 126.713C156.315 126.537 156.091 126.125 155.867 126.302Z" fill="#1D1D1B"/>
<path d="M147.193 129.534C142.996 132.237 138.799 134.94 134.658 137.644C130.517 140.347 126.376 143.05 122.235 145.812C119.885 147.34 117.534 148.927 115.184 150.455C114.904 150.631 115.184 151.16 115.464 150.984C119.661 148.281 123.858 145.577 127.999 142.874C132.14 140.171 136.281 137.409 140.422 134.647C142.772 133.119 145.123 131.532 147.417 129.945C147.697 129.769 147.473 129.357 147.193 129.534Z" fill="#1D1D1B"/>
<path d="M139.806 130.827C135.889 133.53 131.916 136.233 127.943 138.937C123.97 141.64 119.997 144.284 116.023 146.929C113.785 148.398 111.491 149.809 109.364 151.513C109.196 151.63 109.308 151.924 109.532 151.865C111.658 150.749 113.617 149.397 115.632 148.104C117.646 146.811 119.605 145.46 121.619 144.167C125.593 141.522 129.566 138.819 133.483 136.057C135.665 134.529 137.904 132.942 140.086 131.356C140.31 131.121 140.086 130.65 139.806 130.827Z" fill="#1D1D1B"/>
<path d="M130.629 134.47C123.634 138.173 116.751 142.169 110.036 146.518C108.133 147.752 106.23 148.986 104.44 150.338C104.216 150.514 104.384 150.925 104.664 150.749C108.077 148.692 111.379 146.459 114.736 144.343C118.094 142.228 121.563 140.23 124.977 138.29C126.936 137.174 128.894 136.116 130.909 135.058C131.245 134.823 130.965 134.294 130.629 134.47Z" fill="#1D1D1B"/>
<path d="M120.948 137.938C114.68 140.406 108.581 143.462 102.873 147.047C101.25 148.105 99.6271 149.163 98.1162 150.338C97.8923 150.514 98.1161 150.867 98.34 150.691C101.138 148.81 103.992 146.988 106.902 145.343C109.812 143.697 112.834 142.11 115.855 140.759C117.59 139.995 119.325 139.231 121.116 138.526C121.452 138.349 121.284 137.762 120.948 137.938Z" fill="#1D1D1B"/>
<path d="M14.9036 155.744C13.6165 157.037 13.3367 159.035 13.8404 160.74C14.4 162.679 15.799 164.207 17.4218 165.265C18.4291 165.911 19.4364 166.44 20.5556 166.91C20.7794 167.028 20.9472 166.616 20.7234 166.499C18.7088 165.206 16.4145 164.266 15.0714 162.091C13.9522 160.328 13.6725 157.684 15.1834 156.038C15.4072 155.862 15.1274 155.568 14.9036 155.744Z" fill="#1D1D1B"/>
<path d="M18.3731 155.568C16.9741 159.565 18.1493 164.266 21.0592 167.204C21.8427 168.027 22.794 168.732 23.8572 169.085C24.0811 169.143 24.1929 168.85 24.0251 168.732C23.2416 168.203 22.4022 167.674 21.7307 167.028C21.0592 166.381 20.4437 165.559 19.94 164.736C18.9327 163.032 18.3731 161.092 18.3172 159.094C18.2612 157.978 18.429 156.802 18.7648 155.745C18.7648 155.451 18.485 155.392 18.3731 155.568Z" fill="#1D1D1B"/>
<path d="M20.6116 155.157C19.5483 159.329 20.5556 163.972 23.2417 167.321C23.6334 167.792 24.0252 168.203 24.4169 168.614C24.8086 168.967 25.3122 169.437 25.8159 169.613C25.9838 169.672 26.0956 169.437 25.9837 169.319C25.648 168.967 25.2003 168.673 24.8645 168.32C24.5288 167.968 24.1371 167.615 23.8573 167.263C23.1858 166.499 22.6262 165.617 22.1785 164.736C21.2272 162.914 20.6675 160.857 20.6116 158.8C20.5556 157.625 20.6675 156.45 20.9473 155.274C20.9473 155.039 20.6675 154.922 20.6116 155.157Z" fill="#1D1D1B"/>
<path d="M24.3608 157.684C22.5701 160.622 22.626 164.56 24.3048 167.557C24.7525 168.379 25.3681 169.261 26.1515 169.731C26.3754 169.848 26.6552 169.613 26.4873 169.378C26.2075 168.967 25.8157 168.614 25.48 168.144C25.2002 167.733 24.9204 167.322 24.6966 166.851C24.2489 165.911 23.9131 164.971 23.7452 163.913C23.4095 161.856 23.6893 159.623 24.6966 157.802C24.8085 157.625 24.5287 157.449 24.3608 157.684Z" fill="#1D1D1B"/>
<path d="M26.2634 157.684C25.48 159.976 25.2562 162.444 25.592 164.853C25.7598 166.087 26.0956 167.263 26.5433 168.379C26.7671 168.967 27.0469 169.496 27.3267 170.025C27.6065 170.495 27.9423 171.082 28.39 171.376C28.5578 171.494 28.7817 171.317 28.7257 171.082C28.6138 170.789 28.4459 170.612 28.334 170.318C28.2221 170.083 28.0542 169.848 27.9423 169.613C27.6625 169.143 27.3826 168.614 27.1588 168.085C26.7111 167.028 26.3754 165.852 26.1516 164.677C25.7598 162.326 25.8718 159.976 26.6552 157.684C26.7671 157.508 26.3194 157.39 26.2634 157.684Z" fill="#1D1D1B"/>
<path d="M28.7817 159.741C28.2221 161.739 28.0542 163.913 28.2781 165.97C28.39 167.028 28.6139 168.027 28.8937 169.026C29.0616 169.496 29.2294 170.024 29.4533 170.495C29.6212 170.906 29.8449 171.494 30.2367 171.787C30.4045 171.905 30.6284 171.787 30.5725 171.552C30.5165 171.082 30.2367 170.671 30.0688 170.26C29.845 169.789 29.6771 169.319 29.5092 168.849C29.1735 167.909 28.9496 166.91 28.8377 165.911C28.5579 163.913 28.6698 161.856 29.2294 159.859C29.3413 159.565 28.8936 159.447 28.7817 159.741Z" fill="#1D1D1B"/>
<path d="M30.9082 160.798C30.2367 162.62 29.9009 164.618 29.9009 166.557C29.9009 168.497 30.2367 170.554 31.132 172.199C31.244 172.434 31.6356 172.258 31.5797 172.023C31.2999 171.141 31.0201 170.26 30.8522 169.319C30.6284 168.379 30.5724 167.439 30.5164 166.499C30.4605 164.618 30.6843 162.679 31.2999 160.916C31.2999 160.681 30.9641 160.622 30.9082 160.798Z" fill="#1D1D1B"/>
<path d="M33.7062 162.268C33.6502 164.09 33.5943 165.911 33.5383 167.674C33.5383 168.556 33.4824 169.437 33.4824 170.319C33.4824 170.789 33.4824 171.259 33.4824 171.729C33.4824 172.141 33.4264 172.611 33.5942 173.022C33.6502 173.198 33.8741 173.198 33.986 173.022C34.1539 172.669 34.0979 172.199 34.0979 171.788C34.0979 171.318 34.0979 170.848 34.1538 170.378C34.1538 169.496 34.1538 168.556 34.1538 167.674C34.1538 165.853 34.1539 164.031 34.0979 162.268C34.0979 161.974 33.7062 161.974 33.7062 162.268Z" fill="#1D1D1B"/>
<path d="M38.7985 160.152C38.3509 162.091 37.8472 164.089 37.3995 166.029C37.1757 167.028 36.9519 167.968 36.728 168.967C36.6161 169.437 36.5041 169.908 36.3922 170.378C36.2803 170.848 36.1124 171.377 36.1124 171.906C36.1124 172.141 36.5042 172.317 36.6161 172.023C36.8399 171.612 36.8959 171.083 37.0078 170.613C37.1198 170.084 37.2317 169.614 37.3436 169.085C37.5674 168.086 37.7913 167.145 37.9591 166.146C38.4068 164.148 38.7986 162.209 39.2462 160.211C39.3022 159.976 38.9105 159.858 38.7985 160.152Z" fill="#1D1D1B"/>
<path d="M41.7644 160.68C41.2608 162.561 40.7571 164.441 40.3094 166.322C40.0856 167.262 39.9177 168.203 39.6939 169.084C39.582 169.554 39.526 170.083 39.4141 170.553C39.3581 171.023 39.2462 171.435 39.3581 171.905C39.4141 172.081 39.6379 172.081 39.7498 171.963C39.9737 171.552 40.0297 171.141 40.0856 170.671C40.1416 170.201 40.2535 169.73 40.3094 169.26C40.4773 168.32 40.6452 167.321 40.8131 166.381C41.2048 164.5 41.5966 162.62 42.0442 160.739C42.2121 160.563 41.8764 160.445 41.7644 160.68Z" fill="#1D1D1B"/>
<path d="M46.1852 162.737C45.4018 164.618 44.6184 166.44 43.779 168.32C42.9955 170.142 42.1002 171.964 41.5406 173.903C41.4846 174.138 41.7644 174.255 41.8763 174.079C42.8276 172.316 43.5552 170.436 44.2826 168.614C45.0661 166.792 45.7935 164.912 46.577 163.09C46.8568 162.679 46.3531 162.385 46.1852 162.737Z" fill="#1D1D1B"/>
<path d="M40.4214 128.947C37.7913 130.004 35.2731 131.18 32.7549 132.414C31.5237 133.06 30.2926 133.707 29.0615 134.353C27.7744 135.058 26.4874 135.705 25.3122 136.528C25.0884 136.704 25.2563 136.998 25.5361 136.88C26.7672 136.293 27.9983 135.587 29.2294 134.882C30.4605 134.236 31.7476 133.53 32.9787 132.884C35.4969 131.591 38.0151 130.416 40.5893 129.24C40.7571 129.24 40.5893 128.888 40.4214 128.947Z" fill="#1D1D1B"/>
<path d="M42.2121 124.715C37.7913 126.831 33.3704 128.946 28.9496 131.121C27.7185 131.708 26.4314 132.296 25.2563 133.06C25.0884 133.178 25.2003 133.53 25.4241 133.471C26.5433 133.06 27.6625 132.472 28.7258 131.944C29.845 131.415 30.9082 130.886 32.0274 130.298C34.2099 129.182 36.4482 128.065 38.6307 126.948C39.8618 126.302 41.1489 125.656 42.38 125.009C42.6598 124.95 42.4359 124.656 42.2121 124.715Z" fill="#1D1D1B"/>
<path d="M41.3167 123.305C39.0783 124.598 36.8399 125.891 34.5456 127.066C33.4264 127.654 32.2512 128.242 31.132 128.771C30.5724 129.064 30.0128 129.299 29.4532 129.593C28.8936 129.887 28.222 130.063 27.7184 130.475C27.5505 130.592 27.6625 130.886 27.8863 130.886C28.5019 130.827 29.0615 130.416 29.6211 130.181C30.1807 129.946 30.7403 129.652 31.2999 129.358C32.475 128.771 33.6502 128.183 34.7694 127.595C37.0638 126.361 39.3022 125.009 41.4846 123.599C41.6525 123.481 41.4846 123.188 41.3167 123.305Z" fill="#1D1D1B"/>
<path d="M44.6184 118.075C42.4359 119.426 40.2535 120.837 38.127 122.188C37.0638 122.893 36.0005 123.598 34.9373 124.245C33.874 124.95 32.6989 125.596 31.6916 126.419C31.4678 126.595 31.6356 126.948 31.9154 126.831C33.0346 126.243 34.0979 125.538 35.1611 124.833C36.2244 124.127 37.3436 123.422 38.4068 122.717C40.5893 121.307 42.7158 119.896 44.8422 118.427C45.122 118.369 44.8982 117.957 44.6184 118.075Z" fill="#1D1D1B"/>
<path d="M46.6889 113.667C42.7157 116.429 38.6866 119.074 34.6015 121.659C33.4263 122.365 32.2512 123.07 31.132 123.892C30.9082 124.069 31.076 124.363 31.3558 124.245C32.419 123.716 33.4823 123.07 34.4896 122.423C35.4969 121.777 36.5042 121.13 37.5674 120.484C39.582 119.191 41.5965 117.84 43.5551 116.429C44.6743 115.665 45.7935 114.843 46.9127 114.02C47.0806 113.844 46.8567 113.491 46.6889 113.667Z" fill="#1D1D1B"/>
<path d="M49.4309 107.32C43.6111 111.434 37.7913 115.547 32.0274 119.661C30.4045 120.836 28.7257 122.011 27.1588 123.187C26.935 123.363 27.1588 123.716 27.3827 123.539C30.3486 121.6 33.2025 119.485 36.0565 117.428C38.9664 115.371 41.8763 113.255 44.7862 111.199C46.4091 110.023 48.0319 108.848 49.7107 107.673C49.9346 107.555 49.7107 107.203 49.4309 107.32Z" fill="#1D1D1B"/>
<path d="M39.414 130.005C34.4336 133.824 29.0615 136.998 23.3535 139.466C21.7867 140.171 20.1079 140.7 18.541 141.405C18.2612 141.523 18.485 141.934 18.7088 141.875C20.2197 141.523 21.6747 140.876 23.1297 140.289C24.5287 139.701 25.9277 139.054 27.3267 138.349C30.1247 136.939 32.8108 135.352 35.3849 133.589C36.8399 132.59 38.2389 131.533 39.6379 130.357C39.8058 130.24 39.6379 129.828 39.414 130.005Z" fill="#1D1D1B"/>
<path d="M37.9591 135.058C32.587 137.233 27.2148 139.407 21.8986 141.64C20.3877 142.287 18.9327 142.874 17.4778 143.58C17.198 143.697 17.4218 144.167 17.6456 144.05C20.3317 143.109 22.9618 141.934 25.6479 140.817C28.278 139.701 30.9641 138.584 33.5942 137.468C35.1051 136.821 36.6161 136.175 38.127 135.528C38.3509 135.411 38.2389 134.941 37.9591 135.058Z" fill="#1D1D1B"/>
<path d="M33.4823 139.994C28.7257 142.169 23.6333 143.697 18.485 144.579C17.7575 144.696 17.0301 144.814 16.3026 144.931C15.5751 145.049 14.8476 145.049 14.1201 145.284C13.8403 145.401 13.9523 145.754 14.1761 145.754C14.8476 145.872 15.5191 145.754 16.1906 145.636C16.8062 145.578 17.4777 145.46 18.0933 145.401C19.3804 145.225 20.6675 144.931 21.9546 144.637C24.5287 144.05 27.0469 143.227 29.5092 142.286C30.9082 141.757 32.3072 141.111 33.6502 140.464C33.986 140.347 33.7621 139.877 33.4823 139.994Z" fill="#1D1D1B"/>
<path d="M33.1466 141.053C30.0688 141.405 27.047 141.699 23.9692 142.051C20.8913 142.404 17.8695 142.697 14.7917 143.109C13.9523 143.226 13.1129 143.344 12.2735 143.402C11.4341 143.52 10.5387 143.579 9.69934 143.755C9.41954 143.814 9.47549 144.284 9.75529 144.284C11.2662 144.284 12.8331 144.049 14.3441 143.872C15.855 143.755 17.3659 143.52 18.8768 143.402C21.8986 143.05 24.9205 142.697 27.9423 142.345C29.6771 142.169 31.3559 141.934 33.0907 141.758C33.5943 141.758 33.5943 140.994 33.1466 141.053Z" fill="#1D1D1B"/>
<path d="M120.556 68.9451C118.206 70.7081 115.856 72.4712 113.505 74.293C112.33 75.1745 111.211 76.1148 110.092 77.0551C109.532 77.5252 108.917 77.9954 108.357 78.4655C107.797 78.9357 107.238 79.4058 106.734 79.9935C106.622 80.1698 106.79 80.3461 106.958 80.2873C107.573 79.9347 108.133 79.4645 108.749 78.9944C109.308 78.5243 109.868 78.1129 110.427 77.6427C111.547 76.7025 112.666 75.8209 113.785 74.8807C116.079 73.0001 118.374 71.1195 120.724 69.3565C120.948 69.1214 120.78 68.7688 120.556 68.9451Z" fill="#1D1D1B"/>
<path d="M117.031 66.3006C114.065 70.6495 110.595 74.5869 106.734 78.113C105.671 79.1121 104.496 80.0524 103.432 81.0514C103.209 81.2278 103.488 81.5804 103.712 81.4628C105.839 79.9936 107.797 78.113 109.588 76.2912C111.435 74.4106 113.169 72.3538 114.736 70.2381C115.632 69.0627 116.471 67.8286 117.255 66.5357C117.422 66.3006 117.143 66.1243 117.031 66.3006Z" fill="#1D1D1B"/>
<path d="M115.072 62.187C110.539 68.534 105.279 74.4108 99.5713 79.6411C98.7878 80.4051 97.9483 81.1103 97.1089 81.8156C96.2695 82.5208 95.4302 83.226 94.6467 83.99C94.4789 84.1663 94.7027 84.4013 94.8705 84.2838C95.7099 83.7549 96.4374 83.1084 97.2208 82.462C97.9483 81.8155 98.6759 81.1691 99.4034 80.5227C100.858 79.2298 102.257 77.8781 103.6 76.4676C106.342 73.6468 108.972 70.6496 111.379 67.5349C112.722 65.8306 114.009 64.0676 115.24 62.2458C115.408 62.187 115.184 62.0695 115.072 62.187Z" fill="#1D1D1B"/>
<path d="M112.722 62.6569C108.693 65.8891 104.607 69.1214 100.578 72.4712C100.466 72.5887 100.634 72.8238 100.746 72.7062C104.831 69.5328 108.805 66.2418 112.834 63.0095C113.058 62.8332 112.89 62.5393 112.722 62.6569Z" fill="#1D1D1B"/>
<path d="M108.245 14.1739C104.831 17.0536 101.53 20.0508 98.284 23.1656C95.0384 26.2803 91.9045 29.4539 88.8267 32.745C87.092 34.6256 85.4132 36.5062 83.7344 38.4455C83.6785 38.5043 83.7904 38.6219 83.8463 38.5631C86.8122 35.2132 89.89 31.9222 93.0237 28.7486C96.1575 25.5163 99.4032 22.4604 102.705 19.4044C104.552 17.7001 106.454 15.9957 108.357 14.3502C108.357 14.1739 108.301 14.1151 108.245 14.1739Z" fill="#1D1D1B"/>
<path d="M109.868 16.9357C106.063 19.7566 102.313 22.5774 98.6198 25.6334C94.9264 28.6894 91.3451 31.8042 87.8196 35.0952C85.861 36.9758 83.9023 38.8564 81.9997 40.7957C81.8318 40.972 82.0557 41.2071 82.2236 41.0308C85.6372 37.7398 89.1066 34.4487 92.6321 31.2752C96.1576 28.1017 99.8509 25.0457 103.544 22.0485C105.615 20.403 107.741 18.6987 109.924 17.112C110.092 17.0532 109.98 16.8769 109.868 16.9357Z" fill="#1D1D1B"/>
<path d="M108.357 20.4036C103.32 24.576 98.3399 28.8072 93.4714 33.1559C88.6029 37.5047 83.7904 41.9709 79.1457 46.6135C76.5156 49.1992 73.9414 51.785 71.4232 54.4882C71.2553 54.6645 71.5351 54.9584 71.703 54.7821C76.4037 50.1983 81.0483 45.5557 85.8049 41.0307C90.5615 36.5056 95.374 32.0982 100.299 27.8082C103.041 25.3988 105.839 22.9893 108.637 20.6387C108.693 20.5211 108.469 20.2861 108.357 20.4036Z" fill="#1D1D1B"/>
<path d="M106.846 26.5154C102.817 29.9827 98.8996 33.4499 94.9824 37.0934C91.0652 40.6782 87.204 44.3804 83.4547 48.1415C81.3282 50.2571 79.2577 52.4314 77.1872 54.6058C77.0193 54.7821 77.2431 55.0172 77.411 54.8409C81.1603 51.0798 84.9096 47.3188 88.7149 43.6753C92.5202 39.973 96.3815 36.3295 100.355 32.7447C102.537 30.7466 104.775 28.7486 107.014 26.7505C107.238 26.633 107.014 26.3979 106.846 26.5154Z" fill="#1D1D1B"/>
<path d="M86.9242 28.5723C82.3354 33.2149 77.8027 37.9163 73.3818 42.6765C68.961 47.3779 64.5961 52.1969 60.2312 57.0158C57.769 59.7779 55.3068 62.4812 52.9564 65.3608C52.7885 65.5371 53.0683 65.8309 53.2362 65.6546C55.4746 63.3039 57.6011 60.8357 59.7835 58.3674C61.966 55.958 64.1484 53.4897 66.3308 51.0802C70.6957 46.3201 75.1166 41.5599 79.5375 36.8585C82.0557 34.1552 84.5738 31.5107 87.1479 28.8661C87.3158 28.6311 87.092 28.396 86.9242 28.5723Z" fill="#1D1D1B"/>
<path d="M88.3791 26.9265C82.6712 32.0981 77.1311 37.3872 71.7589 42.9113C66.3867 48.4355 61.1266 54.0772 56.0902 59.8952C53.2362 63.1862 50.4382 66.4772 47.8081 69.8857C47.6402 70.062 47.92 70.3558 48.0879 70.1795C53.1243 64.3027 58.1047 58.3672 63.253 52.6667C68.4573 46.9663 73.8294 41.4421 79.3135 36.0355C82.3913 33.0383 85.5252 30.0412 88.6589 27.1028C88.7149 27.044 88.4911 26.809 88.3791 26.9265Z" fill="#1D1D1B"/>
<path d="M86.5883 27.5734C83.2867 30.453 80.041 33.3914 76.8513 36.3885C73.6616 39.3856 70.5279 42.4415 67.506 45.5562C64.4282 48.6708 61.4063 51.903 58.4404 55.1352C55.4746 58.3674 52.6206 61.6583 49.7666 65.008C46.9127 68.3577 44.1706 71.825 41.4286 75.351C41.0928 75.7624 40.813 76.1737 40.4773 76.6439C40.3654 76.8202 40.6452 77.0553 40.7571 76.879C42.212 75.2335 43.4991 73.4705 44.8981 71.7662C46.2971 70.062 47.6961 68.3577 49.0951 66.6535C51.8931 63.3038 54.8031 59.9541 57.713 56.7219C60.6789 53.4309 63.6447 50.2575 66.7225 47.0841C69.7443 43.9694 72.8781 40.8548 76.0119 37.8577C79.1457 34.8605 82.3913 31.8634 85.637 28.9839C86.0287 28.6313 86.4764 28.2787 86.8681 27.9261C87.1479 27.7498 86.8121 27.3971 86.5883 27.5734Z" fill="#1D1D1B"/>
<path d="M78.0266 33.8612C71.7031 38.974 65.7153 44.4394 60.0074 50.3161C54.2995 56.1341 48.9832 62.3635 43.9468 68.8867C41.1488 72.5303 38.4628 76.2326 35.9446 80.1113C35.7767 80.3463 36.1124 80.5227 36.2803 80.3463C40.925 73.5881 45.8495 67.0649 51.1657 60.8355C56.4259 54.6062 62.0779 48.7882 67.9537 43.2053C71.2554 40.0906 74.7249 37.0347 78.2503 34.1551C78.3623 33.9788 78.1385 33.7437 78.0266 33.8612Z" fill="#1D1D1B"/>
<path d="M63.5329 49.8457C60.4551 53.6656 57.3213 57.4855 54.1876 61.3641C51.1097 65.184 47.976 69.0626 44.8982 72.8825C41.8204 76.7024 38.6866 80.581 35.6088 84.4009C32.531 88.2207 29.4532 92.0994 26.3194 95.978C23.2416 99.8567 20.1638 103.677 17.086 107.555C16.6943 108.025 16.3026 108.554 15.9668 109.024C15.7989 109.201 16.0787 109.494 16.2466 109.318C19.4363 105.557 22.5142 101.678 25.592 97.8586C28.6698 94.0387 31.8035 90.1601 34.8813 86.3402C37.9591 82.4615 41.0369 78.6417 44.1707 74.7631C47.2485 70.8844 50.3263 67.0645 53.4041 63.1859C56.4819 59.3073 59.5598 55.4286 62.6376 51.6088C63.0293 51.1386 63.4209 50.6097 63.8127 50.1396C63.8686 49.9045 63.6448 49.6694 63.5329 49.8457Z" fill="#1D1D1B"/>
<path d="M63.4769 54.8999C57.6011 61.8344 51.7252 68.8278 45.9054 75.8212C40.0856 82.7557 34.2657 89.7491 28.5018 96.6837C25.2562 100.562 21.8986 104.441 18.8208 108.496C18.7089 108.672 18.8767 108.907 19.0446 108.731C22.1224 105.381 24.9764 101.855 27.8863 98.3291C30.7962 94.8031 33.7061 91.3358 36.616 87.8097C42.4359 80.8164 48.1998 73.8818 53.9637 66.8885C57.2093 62.951 60.455 59.0724 63.6447 55.135C63.8126 54.9587 63.5889 54.7823 63.4769 54.8999Z" fill="#1D1D1B"/>
<path d="M62.8053 55.7231C59.1119 59.9543 55.4186 64.2442 51.7812 68.5342C48.1438 72.8242 44.5624 77.1141 40.925 81.4041C37.3436 85.6941 33.7621 90.0428 30.1806 94.3915C26.5992 98.7402 23.0737 103.089 19.5482 107.496C16.0227 111.904 12.4973 116.253 9.08372 120.719C8.63604 121.307 8.2443 121.836 7.79661 122.423C7.68469 122.599 7.90855 122.835 8.02047 122.658C9.81119 120.484 11.6019 118.31 13.3367 116.076C15.1274 113.902 16.8622 111.669 18.6529 109.495C22.1784 105.087 25.7039 100.738 29.2293 96.3896C32.7548 92.0409 36.3362 87.6921 39.9177 83.3434C43.4991 78.9947 47.0806 74.7047 50.718 70.4147C54.2994 66.1248 57.9368 61.8348 61.5742 57.5448C62.0219 57.0159 62.4696 56.4871 62.9173 55.9582C63.0852 55.7819 62.9172 55.5468 62.8053 55.7231Z" fill="#1D1D1B"/>
<path d="M46.0174 67.7113C43.1634 71.2961 40.3095 74.9397 37.5674 78.642C34.8254 82.3443 32.1393 86.0467 29.4532 89.8078C26.7671 93.5689 24.193 97.3887 21.6188 101.267C19.0446 105.146 16.5824 109.025 14.1201 112.962C11.6579 116.899 9.30753 120.837 7.01317 124.833C6.73337 125.362 6.45357 125.832 6.17377 126.361C6.06185 126.596 6.39766 126.831 6.50958 126.596C7.79666 124.657 8.91581 122.659 10.091 120.661C11.2661 118.662 12.4973 116.723 13.6724 114.725C16.0787 110.788 18.541 106.909 21.0592 103.03C23.5774 99.1518 26.1515 95.3319 28.7816 91.5708C31.4118 87.8097 34.0979 84.0486 36.784 80.3463C39.526 76.6439 42.2681 72.9416 45.122 69.298C45.4578 68.8279 45.8494 68.3578 46.1852 67.8876C46.465 67.7701 46.1852 67.535 46.0174 67.7113Z" fill="#1D1D1B"/>
<path d="M40.869 70.9432C35.7767 77.9366 30.7963 85.0474 25.9837 92.2758C21.1711 99.4455 16.5264 106.791 12.0496 114.137C10.7625 116.194 9.53145 118.31 8.30033 120.425C7.06921 122.541 5.78212 124.598 4.71888 126.831C4.60696 127.066 4.9427 127.301 5.05462 127.066C6.22978 125.244 7.34904 123.305 8.46824 121.425C9.58744 119.544 10.7066 117.663 11.8258 115.783C14.0642 112.08 16.3026 108.378 18.597 104.735C23.1857 97.3886 27.9423 90.1602 32.8109 83.0493C35.5529 79.0531 38.3508 75.0569 41.1488 71.0608C41.3167 70.9432 40.981 70.7669 40.869 70.9432Z" fill="#1D1D1B"/>
<path d="M43.9468 69.7088C39.3021 76.6434 34.5455 83.5781 29.9009 90.5127C25.2002 97.4473 20.5555 104.382 15.8549 111.317C14.5119 113.256 13.2248 115.254 11.8817 117.193C10.5947 119.133 9.25161 121.072 8.02049 123.129C7.90857 123.364 8.2443 123.658 8.41218 123.423C9.6433 121.777 10.8185 120.014 11.9936 118.251C13.1688 116.488 14.344 114.784 15.4632 113.021C17.8135 109.495 20.1638 106.027 22.5142 102.501C27.1588 95.5667 31.8035 88.5733 36.4482 81.6387C39.0783 77.7012 41.6525 73.7638 44.2826 69.8851C44.4505 69.7088 44.1147 69.5325 43.9468 69.7088Z" fill="#1D1D1B"/>
<path d="M78.3622 37.3869C74.9487 41.1481 71.5912 44.968 68.2335 48.7879C64.8759 52.6079 61.5183 56.4278 58.2166 60.2477C54.915 64.0677 51.6134 67.9464 48.3117 71.8251C45.0101 75.7038 41.7644 79.5824 38.5187 83.5199C35.273 87.4574 32.0274 91.3949 28.8936 95.3323C28.5019 95.8025 28.1101 96.3314 27.7184 96.8603C27.5505 97.0366 27.8303 97.3304 27.9982 97.1541C31.2998 93.2754 34.4896 89.3379 37.7353 85.4593C40.9809 81.5218 44.2266 77.6431 47.5283 73.7644C50.7739 69.8857 54.0756 66.007 57.3772 62.1283C60.6789 58.2496 64.0365 54.4297 67.3381 50.6097C70.6398 46.7898 73.9974 42.9699 77.4109 39.1499C77.8586 38.6798 78.2504 38.2097 78.6981 37.7395C78.81 37.4457 78.5301 37.2106 78.3622 37.3869Z" fill="#1D1D1B"/>
<path d="M92.4083 24.5168C88.603 27.9253 84.9096 31.3926 81.2163 34.9774C77.5789 38.5622 73.9974 42.2057 70.5279 45.9668C67.0583 49.6691 63.6448 53.489 60.3432 57.3676C56.9856 61.2462 53.7958 65.2424 50.6061 69.2973C47.4723 73.3522 44.3386 77.4072 41.4286 81.5797C41.0929 82.1086 40.7012 82.6374 40.3655 83.1076C40.1976 83.2839 40.5333 83.519 40.7012 83.2839C43.723 79.1115 46.8008 74.9978 49.9906 70.9428C53.1243 66.8879 56.37 62.9505 59.6717 59.0719C62.9733 55.1932 66.3308 51.3734 69.8004 47.6123C73.2699 43.8512 76.7954 40.2076 80.3769 36.5641C83.9583 32.9793 87.6516 29.4533 91.345 25.986C91.7926 25.5746 92.2403 25.1045 92.744 24.6931C92.8559 24.6344 92.5762 24.3993 92.4083 24.5168Z" fill="#1D1D1B"/>
<path d="M120.109 159.329C112.61 163.149 104.719 166.264 96.6612 168.556C88.6029 170.848 80.3209 172.317 71.9829 172.904C69.6885 173.081 67.3381 173.14 65.0438 173.198C62.6934 173.257 60.3432 173.14 57.9929 173.14C57.7131 173.14 57.7131 173.551 57.9929 173.61C60.0634 173.845 62.1899 173.845 64.3164 173.845C66.4429 173.845 68.5133 173.786 70.6398 173.668C74.8368 173.433 79.0338 172.963 83.1749 172.258C91.457 170.906 99.6271 168.673 107.461 165.617C111.882 163.913 116.135 161.856 120.332 159.623C120.444 159.505 120.276 159.211 120.109 159.329Z" fill="#1D1D1B"/>
<path d="M112.33 163.443C105.447 165.323 98.5079 166.793 91.457 167.909C84.462 169.026 77.4109 169.672 70.3599 169.966C68.3454 170.025 66.3868 170.084 64.3722 170.142C62.3577 170.142 60.3991 170.084 58.3845 170.142C58.1047 170.142 58.1047 170.554 58.3845 170.554C60.1753 170.73 61.966 170.73 63.7568 170.73C65.5475 170.73 67.2822 170.73 69.073 170.671C72.5984 170.554 76.1799 170.377 79.7054 170.025C86.7563 169.378 93.8072 168.262 100.746 166.734C104.663 165.852 108.525 164.794 112.386 163.678C112.554 163.678 112.498 163.384 112.33 163.443Z" fill="#1D1D1B"/>
<path d="M108.916 160.681C102.089 162.679 95.1503 164.324 88.1553 165.558C81.1602 166.792 74.1093 167.615 67.0023 168.085C63.0292 168.32 59.0001 168.379 55.0269 168.496C54.7471 168.496 54.7471 168.967 55.0269 168.967C58.6084 169.143 62.1898 168.967 65.7712 168.79C69.2967 168.614 72.8223 168.32 76.3478 167.909C83.3987 167.086 90.4496 165.852 97.3887 164.207C101.306 163.267 105.111 162.15 108.972 160.916C109.14 160.858 109.028 160.622 108.916 160.681Z" fill="#1D1D1B"/>
<path d="M115.744 157.389C111.267 158.329 106.734 159.094 102.201 159.858C97.6686 160.563 93.1357 161.268 88.547 161.797C84.0142 162.385 79.4255 162.855 74.8368 163.207C70.304 163.56 65.7153 163.854 61.1826 164.089C56.5938 164.324 52.0611 164.383 47.4724 164.5C46.9128 164.5 46.3532 164.559 45.7376 164.559C45.5697 164.559 45.5697 164.853 45.7376 164.853C50.3263 165.029 54.915 164.971 59.5038 164.794C64.0925 164.618 68.6813 164.383 73.27 163.971C77.8587 163.619 82.4474 163.149 86.9802 162.561C91.513 161.973 96.0456 161.386 100.578 160.563C105.111 159.74 109.644 158.976 114.121 157.918C114.68 157.801 115.24 157.683 115.8 157.565C115.912 157.565 115.856 157.389 115.744 157.389Z" fill="#1D1D1B"/>
<path d="M113.729 155.568C106.118 157.214 98.452 158.448 90.7295 159.388C83.063 160.329 75.3404 160.858 67.562 161.034C63.1971 161.151 58.8322 161.034 54.4674 161.093C54.1876 161.093 54.1876 161.563 54.4674 161.563C58.3846 161.857 62.3018 161.798 66.219 161.739C70.0802 161.68 73.9414 161.504 77.8027 161.21C85.5252 160.681 93.2477 159.8 100.914 158.448C105.223 157.684 109.532 156.861 113.785 155.862C114.065 155.921 113.953 155.509 113.729 155.568Z" fill="#1D1D1B"/>
<path d="M116.247 151.866C108.413 153.276 100.523 154.393 92.5762 155.216C84.6859 156.038 76.7954 156.626 68.8491 156.92C64.4282 157.096 59.9515 157.096 55.5306 157.214C55.1949 157.214 55.1949 157.743 55.5306 157.743C59.5038 157.86 63.5329 157.743 67.5061 157.625C71.4793 157.508 75.4524 157.273 79.4815 157.038C87.3719 156.45 95.2622 155.627 103.097 154.452C107.517 153.805 111.994 152.982 116.359 152.159C116.471 152.101 116.415 151.807 116.247 151.866Z" fill="#1D1D1B"/>
<path d="M123.41 148.163C112.722 149.926 102.033 151.454 91.345 152.924C80.7126 154.334 70.0803 155.627 59.3919 156.744C53.4042 157.39 47.4164 157.978 41.4287 158.565C41.1489 158.565 41.1489 159.036 41.4287 159.036C52.173 158.272 62.9173 157.155 73.6057 155.862C84.2941 154.569 94.9265 153.159 105.559 151.513C111.547 150.573 117.534 149.574 123.522 148.516C123.69 148.516 123.634 148.163 123.41 148.163Z" fill="#1D1D1B"/>
<path d="M125.369 143.58C114.065 145.284 102.817 146.871 91.5128 148.516C80.3208 150.162 69.0728 151.866 57.8808 153.57C54.7471 154.04 51.6133 154.51 48.4796 154.98C45.2899 155.451 42.1001 155.862 38.9104 156.508C38.6865 156.567 38.7425 156.979 38.9664 156.979C41.7644 156.685 44.6183 156.215 47.4163 155.803C50.2143 155.392 53.0123 154.98 55.8103 154.569C61.4623 153.746 67.0583 152.865 72.7103 152.042C83.9583 150.338 95.2622 148.634 106.51 146.871C112.834 145.871 119.101 144.872 125.425 143.932C125.593 143.815 125.537 143.58 125.369 143.58Z" fill="#1D1D1B"/>
<path d="M120.052 141.406C108.972 143.051 97.8363 144.697 86.7563 146.401C75.7321 148.105 64.708 149.809 53.6839 151.513C47.4723 152.512 41.2608 153.453 35.0492 154.51C34.8254 154.569 34.8813 154.922 35.1052 154.863C46.1853 153.394 57.2094 151.572 68.2895 149.809C79.3695 148.105 90.4497 146.342 101.53 144.579C107.741 143.58 113.953 142.522 120.164 141.523C120.276 141.582 120.22 141.406 120.052 141.406Z" fill="#1D1D1B"/>
<path d="M121.508 140.112C115.128 140.876 108.805 141.64 102.425 142.522C96.1016 143.403 89.7782 144.343 83.4547 145.342C77.1312 146.341 70.8076 147.458 64.4842 148.575C58.1607 149.75 51.8932 150.925 45.5697 152.218C39.2462 153.511 32.9228 154.863 26.6552 156.332C25.8718 156.508 25.0883 156.684 24.3049 156.919C24.0251 156.978 24.137 157.389 24.4168 157.331C30.6844 156.038 36.9519 154.627 43.2754 153.335C49.5429 152.042 55.8104 150.808 62.0779 149.632C68.4014 148.457 74.7249 147.34 81.0484 146.283C87.3159 145.225 93.6394 144.285 99.9629 143.286C106.342 142.345 112.722 141.405 119.157 140.582C119.941 140.465 120.724 140.406 121.508 140.289C121.675 140.406 121.675 140.112 121.508 140.112Z" fill="#1D1D1B"/>
<path d="M132.811 1.71424C126.376 2.18438 120.053 4.30002 114.289 7.2384C108.413 10.2355 103.097 14.1142 98.0602 18.4042C87.4838 27.5132 78.4743 38.3852 69.4647 49.1397C58.4406 62.2448 47.4165 75.35 36.4483 88.4552C31.188 94.6845 25.8718 100.914 20.7795 107.261C15.855 113.431 11.0984 119.778 7.06926 126.595C5.16662 129.828 3.20802 133.354 2.87226 137.232C2.59246 140.7 4.10338 143.873 6.78946 145.812C12.4414 149.808 19.5483 147.34 25.4801 145.695C27.2708 145.225 29.0056 144.754 30.9082 144.754C32.2513 144.754 32.1953 142.639 30.9082 142.58C29.0616 142.521 27.1589 142.639 25.3122 142.991C23.4655 143.344 21.6748 143.932 19.8841 144.402C17.0861 145.107 14.1762 145.577 11.3222 144.872C8.91593 144.284 6.50965 142.815 5.72621 140.229C4.71893 136.88 6.34178 133.236 7.90867 130.356C11.602 123.598 16.1348 117.31 20.8354 111.316C25.7039 105.145 30.8523 99.1508 35.9446 93.0978C46.689 80.3452 57.4332 67.5339 68.1216 54.7814C77.1871 44.0269 86.0288 32.9198 96.2695 23.3995C101.026 18.9919 106.063 14.9957 111.491 11.5284C114.121 9.88293 116.863 8.35499 119.661 7.06211C122.515 5.76922 125.481 4.53509 128.503 3.71235C129.958 3.30098 131.468 2.94836 132.923 2.59575C133.427 2.53698 133.315 1.65547 132.811 1.71424Z" fill="#1D1D1B"/>
<path d="M123.914 1.01017C112.218 7.06322 101.138 14.2328 90.5056 22.1664C79.9851 30.0413 69.9683 38.6801 60.567 47.9653C51.1657 57.3094 42.38 67.2998 34.2098 77.878C26.0956 88.4561 18.6529 99.6219 11.9377 111.258C8.52414 117.135 5.27847 123.188 2.36855 129.358C0.801667 132.708 -0.597321 136.587 0.354 140.348C1.08148 143.051 3.3758 145.754 6.11784 146.166C6.7334 146.283 7.34899 146.283 7.96455 146.166C8.63607 145.989 9.1397 145.637 9.6993 145.284C10.3708 144.873 9.75527 143.815 9.08375 144.168C8.07647 144.755 6.56551 144.226 5.61419 143.815C4.43903 143.227 3.48771 142.287 2.81619 141.112C1.13739 138.056 2.31256 134.177 3.59964 131.239C4.94268 128.124 6.56551 125.068 8.13239 122.071C9.64331 119.191 11.2102 116.312 12.8331 113.432C19.2685 102.09 26.4314 91.1594 34.2658 80.7576C42.1002 70.3557 50.5501 60.5416 59.5597 51.3151C68.6252 42.0886 78.2504 33.391 88.3792 25.4574C93.3596 21.52 98.5079 17.7589 103.712 14.1741C109.028 10.5305 114.456 7.18072 119.885 3.77221C121.228 2.94947 122.571 2.12675 123.914 1.30401C124.306 1.24524 124.138 0.951401 123.914 1.01017Z" fill="#1D1D1B"/>
<path d="M118.038 7.41641C119.717 5.06574 122.459 3.65535 125.089 2.95015C127.719 2.24495 130.573 2.48001 133.147 3.42028C138.967 5.53588 142.772 11.6476 144.171 17.6418C146.018 25.399 144.451 33.6264 142.269 41.1485C140.254 48.0242 137.512 54.6649 133.987 60.8354C132.028 64.3026 129.846 67.6523 127.495 70.8257C126.32 72.4124 125.033 73.9403 123.746 75.4683C122.459 76.9962 120.948 78.3479 119.885 80.0521C119.381 80.8748 120.388 81.8739 121.172 81.4037C122.739 80.4047 123.97 78.818 125.201 77.4076C126.376 75.9972 127.551 74.5868 128.67 73.1764C130.965 70.1793 133.091 67.0647 134.994 63.7737C138.799 57.2506 141.877 50.2574 144.059 42.9703C146.466 34.978 148.2 26.2805 146.466 17.9357C145.067 11.2363 141.094 4.71316 134.938 1.89236C131.804 0.423192 128.223 0.18811 124.865 1.06961C123.298 1.48098 121.787 2.24493 120.444 3.1852C119.101 4.18423 118.038 5.59466 117.199 7.06383C117.087 7.47519 117.758 7.82778 118.038 7.41641Z" fill="#1D1D1B"/>
<path d="M23.0738 146.342C17.3658 147.811 12.3854 151.219 8.52416 155.803C7.96455 156.45 8.52411 157.272 9.25159 157.155C22.4022 155.098 35.5528 152.924 48.6475 150.514C61.6862 148.105 74.6689 145.578 87.6517 142.933C100.634 140.289 113.617 137.468 126.544 134.588C139.527 131.65 152.509 128.594 165.436 125.421C171.928 123.834 178.363 122.189 184.798 120.543C189.219 119.427 194.647 118.428 197.725 114.49C198.453 113.55 198.956 112.551 199.292 111.434C199.46 110.847 199.068 110.259 198.564 110.142C189.219 107.086 178.699 106.322 169.185 109.025C168.122 109.319 168.57 110.964 169.633 110.788C174.334 109.965 179.09 109.436 183.903 109.613C188.66 109.848 193.416 110.729 198.005 112.198C197.781 111.787 197.501 111.317 197.277 110.906C195.822 115.548 190.338 116.959 186.365 117.958C180.042 119.603 173.718 121.19 167.339 122.718C154.58 125.832 141.821 128.888 129.006 131.768C116.247 134.647 103.488 137.409 90.6735 140.054C77.8586 142.698 65.0438 145.225 52.2289 147.635C39.3581 150.044 26.4314 152.453 13.5046 154.745C11.9377 155.039 10.3149 155.333 8.74801 155.568C8.97185 156.038 9.25161 156.45 9.47545 156.92C13.1688 152.512 17.9814 149.221 23.1857 147.164C23.7453 146.929 23.5774 146.224 23.0738 146.342Z" fill="#1D1D1B"/>
<path d="M197.669 114.666C185.806 123.305 173.774 131.767 161.407 139.642C149.04 147.517 136.225 154.628 122.85 160.27C109.364 165.97 95.3181 170.201 80.8804 172.317C66.5547 174.432 51.8372 174.432 37.5674 171.612C34.0419 170.906 30.5724 170.084 27.1029 169.026C23.9131 168.086 20.6115 167.087 17.6456 165.559C15.1833 164.266 12.4973 162.385 11.6019 159.447C10.9304 157.155 11.8817 154.275 13.6724 152.806C14.5118 152.101 15.6311 151.748 16.6943 151.983C17.4218 152.101 17.9814 151.043 17.1979 150.69C14.7357 149.456 12.3294 150.632 10.8185 152.806C9.25161 155.039 8.74794 158.213 9.81118 160.74C12.3853 167.087 20.0519 169.143 25.7598 170.906C40.2534 175.373 55.5306 176.724 70.5838 175.608C85.805 174.491 100.858 170.965 115.24 165.617C129.454 160.328 143.052 153.335 156.035 145.343C162.638 141.288 169.074 136.998 175.397 132.531C181.553 128.124 187.764 123.716 193.528 118.78C194.983 117.546 196.494 116.312 198.005 115.077C198.229 114.901 197.949 114.49 197.669 114.666Z" fill="#1D1D1B"/>
<path d="M29.6211 151.807C32.8108 146.459 35.273 140.759 37.9591 135.117C40.4773 129.769 42.9395 124.304 45.9054 119.191C51.1097 110.259 58.4965 103.207 67.1144 97.9176C75.7882 92.5698 85.3573 88.8087 95.0384 85.9291C105.951 82.6969 117.534 80.9339 128.782 83.1083C139.583 85.2239 149.376 90.8068 159.952 93.7452C161.295 94.0978 162.526 94.3328 163.925 94.3916C164.933 94.4504 164.988 92.9812 164.149 92.6874C161.575 91.6883 158.833 91.1006 156.203 90.2191C153.573 89.3376 150.998 88.3386 148.368 87.2808C143.164 85.2239 137.96 83.0495 132.532 81.6391C121.228 78.7007 109.476 79.7585 98.2841 82.6381C88.2113 85.2239 78.1384 88.985 68.9609 94.1565C60.2312 99.093 52.173 105.616 46.465 114.196C43.2193 119.074 40.7571 124.422 38.2949 129.711C36.9518 132.59 35.6648 135.47 34.3217 138.349C32.9787 141.229 31.6356 144.109 30.4045 147.047C29.8449 148.516 29.2294 149.927 28.7257 151.396C28.4459 151.983 29.2853 152.336 29.6211 151.807Z" fill="#1D1D1B"/>
<path d="M52.5647 130.475C54.4114 129.946 56.2021 129.123 57.9928 128.359C59.7836 127.595 61.5742 126.831 63.3649 126.067C66.8904 124.598 70.4159 123.246 73.9973 121.894C81.2162 119.191 88.491 116.782 95.8778 114.666C103.264 112.55 110.707 110.67 118.206 109.142C125.592 107.614 133.035 106.321 140.422 104.793C144.619 103.911 148.816 102.971 152.957 101.796C157.042 100.679 161.295 99.5627 165.044 97.5646C165.772 97.1532 165.268 95.9778 164.485 96.2129C160.791 97.212 157.154 98.6224 153.461 99.6802C149.823 100.738 146.186 101.62 142.493 102.384C135.05 104.029 127.551 105.322 120.052 106.791C105.111 109.788 90.3937 113.902 76.0119 119.132C71.9269 120.602 67.8978 122.188 63.8686 123.834C61.91 124.657 59.9514 125.479 57.9928 126.361C55.9783 127.242 53.9637 128.124 52.117 129.299C51.6694 129.769 51.9491 130.651 52.5647 130.475Z" fill="#1D1D1B"/>
<path d="M163.142 101.208C163.589 101.208 164.037 101.208 164.485 101.149C164.933 101.091 165.324 100.973 165.772 100.973C166.164 100.973 166.555 101.032 166.891 101.208C166.947 101.267 167.059 101.267 167.115 101.326C167.171 101.326 167.227 101.443 167.171 101.326C167.227 101.384 167.283 101.443 167.339 101.502C167.339 101.502 167.451 101.678 167.395 101.561C167.451 101.62 167.451 101.678 167.507 101.737C167.507 101.737 167.619 101.972 167.563 101.855C167.507 101.737 167.619 101.972 167.619 101.972C167.619 102.031 167.675 102.09 167.675 102.207C167.675 102.207 167.73 102.442 167.675 102.266C167.675 102.325 167.675 102.384 167.675 102.442C167.675 102.501 167.675 102.56 167.675 102.677C167.675 102.736 167.675 102.795 167.675 102.677C167.675 102.736 167.619 102.795 167.619 102.854C167.619 102.912 167.507 103.089 167.619 102.912C167.563 102.971 167.451 103.206 167.563 103.089C167.507 103.148 167.507 103.206 167.451 103.206C167.618 103.03 167.395 103.265 167.395 103.206C167.395 103.206 167.339 103.206 167.339 103.265C167.451 103.206 167.451 103.206 167.339 103.265C167.283 103.265 167.227 103.324 167.115 103.324C166.835 103.383 166.611 103.676 166.555 103.912C166.443 104.205 166.555 104.499 166.779 104.734C167.451 105.616 168.57 106.086 169.577 105.969C169.353 105.498 169.073 105.087 168.85 104.617C168.626 105.146 168.346 105.675 168.122 106.204C168.01 106.497 167.954 106.733 167.898 107.085C167.842 107.379 167.786 107.614 167.786 107.908C167.786 108.202 168.122 108.437 168.402 108.261C168.626 108.143 168.738 107.908 168.962 107.732C169.185 107.497 169.409 107.32 169.521 107.026C169.801 106.497 170.081 106.027 170.361 105.498C170.64 104.969 170.305 104.088 169.633 104.147C168.962 104.205 168.458 104.029 168.01 103.5C167.898 103.97 167.786 104.44 167.619 104.969C169.465 104.676 169.633 102.148 168.794 100.855C168.234 99.9739 167.227 99.5038 166.164 99.5625C165.604 99.5625 165.044 99.6801 164.485 99.9152C163.925 100.091 163.478 100.444 163.03 100.855C162.862 100.973 162.974 101.208 163.142 101.208Z" fill="#1D1D1B"/>
<path d="M169.297 108.378C167.283 108.731 165.324 109.259 163.31 109.788C161.351 110.259 159.448 110.787 157.49 111.316C153.573 112.374 149.711 113.491 145.794 114.607C138.128 116.782 130.405 118.956 122.739 121.19C115.128 123.364 107.517 125.48 99.795 127.066C92.0725 128.712 84.2381 129.887 76.3478 130.534C71.9829 130.886 67.6739 131.121 63.3091 131.18C61.1266 131.239 58.9441 131.18 56.7617 131.18C54.5233 131.121 52.2289 131.004 49.9905 131.004C48.8713 131.004 48.9273 132.649 49.9905 132.767C53.9637 133.237 57.9928 133.178 61.966 133.12C65.8832 133.061 69.7445 132.943 73.6617 132.649C81.4961 132.12 89.3304 131.063 97.1089 129.593C104.943 128.065 112.666 126.009 120.332 123.834C127.999 121.66 135.665 119.426 143.332 117.193C147.697 115.9 152.118 114.666 156.483 113.314C158.609 112.668 160.735 112.022 162.918 111.375C165.156 110.67 167.395 110.023 169.521 109.142C169.913 108.907 169.745 108.26 169.297 108.378Z" fill="#1D1D1B"/>
<path d="M167.675 110.435C168.57 111.963 168.906 113.843 168.794 115.606C168.738 116.429 168.514 117.252 168.178 118.016C168.01 118.427 167.786 118.839 167.563 119.191C167.339 119.603 167.003 119.955 166.891 120.426C166.779 120.954 167.171 121.366 167.675 121.248C168.178 121.131 168.57 120.661 168.906 120.249C169.241 119.838 169.521 119.368 169.745 118.839C170.193 117.84 170.472 116.723 170.528 115.606C170.584 114.549 170.472 113.432 170.137 112.433C169.801 111.375 169.241 110.552 168.514 109.73C168.066 109.318 167.339 109.906 167.675 110.435Z" fill="#1D1D1B"/>
<path d="M63.253 124.304C61.5742 124.715 60.0073 125.714 58.7203 126.831C58.1047 127.36 57.4892 127.947 56.9296 128.594C56.4259 129.182 55.4746 130.239 55.8663 131.121C55.9223 131.297 56.1461 131.356 56.258 131.356C56.7057 131.356 57.0974 130.886 57.3213 130.592C57.5451 130.298 57.769 130.004 57.9928 129.769C58.4965 129.123 59.112 128.535 59.7276 128.006C60.9587 126.948 62.3017 126.126 63.7007 125.42C64.2043 125.009 63.8126 124.127 63.253 124.304Z" fill="#1D1D1B"/>
<path d="M68.2336 124.01C66.7227 124.95 65.2117 125.95 63.7568 126.89C63.0293 127.36 62.3017 127.83 61.5742 128.242C61.1825 128.477 60.8468 128.771 60.455 129.064C60.1193 129.3 59.7835 129.535 59.5037 129.887C59.2799 130.181 59.6157 130.534 59.9515 130.475C60.3432 130.416 60.7349 130.064 61.1266 129.887C61.4624 129.652 61.7981 129.476 62.1338 129.241C62.8613 128.712 63.5889 128.183 64.3164 127.654C65.7154 126.596 67.1702 125.597 68.5693 124.539C68.8491 124.304 68.5693 123.775 68.2336 124.01Z" fill="#1D1D1B"/>
<path d="M71.7031 121.777C69.9683 123.246 68.2895 124.715 66.5548 126.184C65.7154 126.889 64.876 127.653 64.0366 128.359C63.6449 128.711 63.1971 129.064 62.8053 129.416C62.4136 129.769 61.8541 130.122 61.6303 130.651C61.5183 130.944 61.7422 131.297 62.022 131.179C62.5256 131.003 62.8613 130.592 63.2531 130.298C63.7007 129.887 64.0925 129.534 64.5402 129.123C65.3796 128.359 66.219 127.595 67.0584 126.772C68.7372 125.244 70.416 123.657 72.0948 122.129C72.3186 121.953 71.9829 121.542 71.7031 121.777Z" fill="#1D1D1B"/>
<path d="M81.7199 118.133C79.0338 119.603 76.4037 121.189 73.8855 123.011C72.7104 123.893 71.5352 124.833 70.36 125.773C69.2408 126.714 67.8418 127.654 67.1703 129.065C67.0584 129.3 67.2822 129.711 67.562 129.594C68.8491 129.065 69.8564 127.889 70.9196 126.949C72.0948 125.891 73.3259 124.892 74.557 123.952C76.9633 122.071 79.4256 120.249 82.0557 118.662C82.3915 118.486 82.1116 117.898 81.7199 118.133Z" fill="#1D1D1B"/>
<path d="M131.916 6.82857C132.979 7.2987 133.987 7.71009 134.938 8.35652C135.889 9.00296 136.785 9.70813 137.568 10.5309C139.247 12.1763 140.534 14.2332 141.485 16.4075C143.78 21.5202 143.948 27.3969 143.164 32.9209C142.66 36.4469 141.765 39.9142 140.87 43.3226C140.814 43.6165 141.205 43.734 141.317 43.4401C143.276 37.2697 144.899 30.7466 144.339 24.1647C143.892 19.1108 141.989 14.1156 138.575 10.4721C136.841 8.65034 134.434 6.88733 131.972 6.4172C131.86 6.35843 131.692 6.71104 131.916 6.82857Z" fill="#1D1D1B"/>
<path d="M137.736 14.879C141.541 18.6989 141.093 24.752 140.646 29.8059C140.086 36.2116 138.855 42.6172 137.064 48.7878C136.561 50.5508 136.001 52.2551 135.441 53.9593C134.826 55.6636 134.154 57.3091 133.595 59.0721C133.539 59.3071 133.875 59.4834 133.987 59.2484C135.497 56.3688 136.561 53.1953 137.512 50.0807C138.519 46.9072 139.359 43.6162 139.974 40.3253C140.59 37.0931 141.093 33.8021 141.373 30.5111C141.653 27.6315 141.821 24.752 141.485 21.8724C141.149 19.1103 140.198 16.2895 138.016 14.5264C137.848 14.3501 137.568 14.644 137.736 14.879Z" fill="#1D1D1B"/>
<path d="M135.777 20.168C137.512 27.1026 137.344 34.3897 135.945 41.3243C134.546 48.2589 131.972 54.8408 129.006 61.1877C127.327 64.8313 125.537 68.4161 123.858 72.0596C123.746 72.2947 124.082 72.5298 124.194 72.2947C131.021 60.0123 137.512 46.3195 137.68 31.804C137.736 27.8078 137.232 23.8704 136.169 20.0505C136.057 19.8154 135.665 19.933 135.777 20.168Z" fill="#1D1D1B"/>
<path d="M132.979 24.7522C132.755 39.7379 129.062 54.5473 122.011 67.5937C120.052 71.2373 117.814 74.6458 115.52 78.0543C115.352 78.2894 115.744 78.5832 115.911 78.3481C118.206 75.4685 120.22 72.2951 122.011 69.0629C123.802 65.8895 125.369 62.5397 126.712 59.1312C129.51 52.1379 131.468 44.7919 132.476 37.2697C133.035 33.156 133.259 28.9247 133.203 24.7522C133.091 24.6347 132.979 24.6347 132.979 24.7522Z" fill="#1D1D1B"/>
<path d="M128.391 33.6263C125.984 47.6127 121.116 61.1289 114.345 73.4111C112.442 76.8783 110.26 80.1693 108.245 83.5777C108.077 83.8128 108.469 84.1654 108.637 83.9303C112.89 78.4062 116.191 72.0595 119.101 65.654C122.067 59.1897 124.417 52.4903 126.208 45.5558C127.215 41.6773 128.055 37.6811 128.726 33.685C128.726 33.5087 128.391 33.3912 128.391 33.6263Z" fill="#1D1D1B"/>
<path d="M64.9318 50.786C63.197 52.3727 61.6861 54.1945 60.1752 55.8988C58.6083 57.6618 57.0415 59.3661 55.5306 61.1292C52.4528 64.6552 49.3749 68.2401 46.3531 71.8249C40.3654 78.9946 34.4896 86.2231 28.7257 93.6278C25.48 97.7416 22.3462 101.914 19.3244 106.204C19.1565 106.439 19.4923 106.674 19.6602 106.498C25.536 99.2108 31.1879 91.6885 37.0637 84.3425C42.9396 77.0553 48.8713 69.8856 54.971 62.7747C56.6498 60.7766 58.3845 58.7785 60.1193 56.8391C61.7981 54.8998 63.6448 53.0192 65.1557 50.9035C65.2117 50.786 64.9878 50.6685 64.9318 50.786Z" fill="#1D1D1B"/>
<path d="M54.3555 58.9543C48.2558 65.6538 42.38 72.6471 36.84 79.9343C31.3559 87.1628 26.0956 94.6263 21.2271 102.266C18.4291 106.615 15.743 111.081 13.2248 115.606C13.001 115.959 13.5606 116.312 13.7844 115.959C18.3732 108.084 23.1857 100.385 28.3341 92.922C33.5383 85.341 39.0224 78.0538 44.7863 70.9429C47.976 66.9467 51.2777 63.068 54.6912 59.2481C54.8031 59.0718 54.5234 58.778 54.3555 58.9543Z" fill="#1D1D1B"/>
<path d="M121.731 32.1576C122.123 46.6141 117.87 60.953 109.924 72.765C107.685 76.0559 105.167 79.1705 102.425 82.0501C102.313 82.1676 102.481 82.3439 102.593 82.2264C112.946 72.7063 119.437 58.6611 121.451 44.4397C122.011 40.3849 122.179 36.2712 121.955 32.1576C121.955 31.9813 121.731 31.9813 121.731 32.1576Z" fill="#1D1D1B"/>
<path d="M115.072 10.4126C118.094 10.5301 121.116 11.4116 123.802 12.8809C125.145 13.5861 126.376 14.4677 127.551 15.4667C128.726 16.4658 129.678 17.6412 130.741 18.7578C130.965 18.9929 131.356 18.6991 131.189 18.4052C129.566 15.7018 126.768 13.6449 124.082 12.2344C121.284 10.7652 118.206 10.0012 115.128 9.94238C114.792 9.94238 114.792 10.4126 115.072 10.4126Z" fill="#1D1D1B"/>
<path d="M117.311 8.82666C120.109 8.12147 123.018 8.47406 125.649 9.59061C126.992 10.1783 128.223 10.9422 129.342 11.8825C129.846 12.3526 130.349 12.8227 130.797 13.2928C131.3 13.8217 131.636 14.5269 132.196 15.0558C132.364 15.2321 132.699 15.0558 132.644 14.8208C132.252 13.4692 130.909 12.2351 129.902 11.3536C128.726 10.3546 127.439 9.59061 126.096 9.00295C123.298 7.82763 120.164 7.59257 117.255 8.41529C116.919 8.47406 117.031 8.88542 117.311 8.82666Z" fill="#1D1D1B"/>
<path d="M123.522 4.77016C126.04 5.35783 128.503 6.5332 130.629 8.06114C132.811 9.64786 134.434 11.7047 136.113 13.8203C136.281 14.0554 136.561 13.7615 136.449 13.5265C135.33 10.9995 133.259 9.00142 131.077 7.47347C128.838 5.88676 126.32 4.82892 123.634 4.35879C123.41 4.24125 123.298 4.65263 123.522 4.77016Z" fill="#1D1D1B"/>
<path d="M131.245 4.82902C133.819 7.82628 136.393 10.8235 139.079 13.7032C139.303 13.9383 139.583 13.5857 139.415 13.3506C136.897 10.2946 134.266 7.41488 131.636 4.41762C131.356 4.18254 131.021 4.53517 131.245 4.82902Z" fill="#1D1D1B"/>
<path d="M117.534 47.1426C114.568 57.368 110.092 67.0644 104.216 75.8206C102.537 78.2888 100.634 80.5807 99.0674 83.1077C98.8996 83.4015 99.2913 83.6366 99.4591 83.4603C101.306 81.6973 102.817 79.4641 104.272 77.3485C105.783 75.1154 107.238 72.8235 108.581 70.4729C111.211 65.8891 113.449 61.0702 115.296 56.0751C116.359 53.1955 117.255 50.2572 118.038 47.3189C118.094 46.9663 117.646 46.8488 117.534 47.1426Z" fill="#1D1D1B"/>
<path d="M111.099 46.9075C108.916 56.8392 105.055 66.3596 99.6271 74.8809C98.0602 77.3491 96.4373 79.6999 94.7026 81.9918C94.5347 82.2269 94.8145 82.5207 94.9824 82.2857C101.418 74.5871 106.23 65.3018 109.308 55.6051C110.204 52.7843 110.931 49.9047 111.491 47.025C111.547 46.7312 111.155 46.6137 111.099 46.9075Z" fill="#1D1D1B"/>
<path d="M88.7709 48.6702C94.7027 56.6626 95.9897 67.8286 92.5202 77.1727C91.5129 79.8173 90.1139 82.2855 88.4911 84.5775C88.3792 84.7538 88.6589 84.9889 88.8268 84.8126C92.1284 81.0514 94.0311 75.9386 94.7026 70.9433C95.3741 65.8305 94.8705 60.5413 93.0238 55.7811C92.0165 53.1365 90.6176 50.6683 88.8828 48.5526C88.7709 48.4939 88.659 48.6114 88.7709 48.6702Z" fill="#1D1D1B"/>
<path d="M86.7563 53.7246C90.6735 60.2478 90.8973 69.0629 87.7636 75.9975C86.8682 77.9956 85.6371 79.8174 84.2941 81.5216C84.0702 81.8155 84.406 82.168 84.6858 81.933C87.4278 79.2297 89.1626 75.351 90.058 71.5899C90.8974 67.7112 90.8973 63.5388 89.8341 59.7777C89.2185 57.6033 88.3232 55.5464 87.0921 53.6658C86.9242 53.4308 86.6444 53.5483 86.7563 53.7246Z" fill="#1D1D1B"/>
<path d="M85.1335 60.3655C83.7904 70.1796 80.4887 79.7586 75.5643 88.221C74.1653 90.6304 72.6543 92.9223 71.0875 95.2142C70.9755 95.3905 71.2553 95.6256 71.3673 95.4493C74.3891 91.6882 76.8513 87.2219 78.9219 82.8144C80.9924 78.3481 82.6152 73.6468 83.7904 68.8279C84.4619 66.0659 84.9655 63.2451 85.3573 60.4243C85.4132 60.248 85.1335 60.1305 85.1335 60.3655Z" fill="#1D1D1B"/>
<path d="M7.74068 133.707C17.1979 131.121 26.3194 127.066 34.5456 121.366C36.8399 119.779 38.9664 118.075 41.0929 116.312C41.3167 116.135 41.0369 115.724 40.7571 115.9C33.0346 122.012 24.4727 127.066 15.4072 130.592C12.833 131.591 10.2589 132.531 7.62879 133.295C7.40495 133.413 7.46088 133.824 7.74068 133.707Z" fill="#1D1D1B"/>
<path d="M9.92314 130.063C20.2757 125.714 30.0128 120.132 38.9664 113.139C41.4846 111.199 43.9468 109.142 46.1852 106.909C46.409 106.674 46.1293 106.263 45.8495 106.439C43.667 108.143 41.4846 109.965 39.3022 111.669C37.0638 113.374 34.8254 115.078 32.531 116.664C27.9423 119.838 23.1297 122.717 18.2052 125.362C15.4072 126.831 12.6092 128.3 9.75523 129.593C9.53139 129.711 9.6993 130.122 9.92314 130.063Z" fill="#1D1D1B"/>
<path d="M9.25158 133.296C17.3658 131.062 25.0883 127.713 32.2512 123.246C34.2658 122.012 36.2803 120.719 38.127 119.191C38.4068 118.956 38.071 118.486 37.7353 118.721C35.4409 120.131 33.2585 121.718 30.9641 123.07C28.6697 124.421 26.3754 125.714 24.025 126.89C19.2125 129.299 14.232 131.297 9.13968 132.884C8.85988 132.943 8.97178 133.413 9.25158 133.296Z" fill="#1D1D1B"/>
<path d="M8.13245 135.645C12.3854 138.113 17.3659 135.704 21.2271 133.471C23.5774 132.119 25.8718 130.709 28.1102 129.24C30.3486 127.771 32.6989 126.302 34.6575 124.48C34.9373 124.245 34.6016 123.775 34.2658 123.951C32.0834 125.244 30.0688 126.889 27.9423 128.3C25.8718 129.651 23.8013 131.003 21.6748 132.296C17.8136 134.587 12.7772 137.761 8.30036 135.41C8.13248 135.351 8.02053 135.586 8.13245 135.645Z" fill="#1D1D1B"/>
<path d="M9.64339 138.996C13.6725 139.525 17.7576 139.055 21.6189 137.703C25.3122 136.351 29.0615 134.118 31.6917 131.062C31.9715 130.709 31.5238 130.298 31.244 130.592C29.733 131.944 28.2221 133.295 26.5433 134.353C24.8645 135.47 23.0738 136.351 21.2271 137.056C17.5337 138.408 13.5606 139.055 9.69933 138.702C9.41953 138.643 9.47551 138.996 9.64339 138.996Z" fill="#1D1D1B"/>
<path d="M82.3914 59.6012C80.4887 72.5888 74.1093 84.6948 65.0438 93.6862C62.4696 96.272 59.6157 98.4464 56.7058 100.621C56.5379 100.738 56.7058 101.032 56.8737 100.915C59.6157 99.3867 62.1898 97.2711 64.5402 95.0967C66.8905 92.8635 69.073 90.4541 71.0316 87.8683C74.9488 82.6968 78.0266 76.82 80.0971 70.5907C81.2722 67.0646 82.0556 63.4211 82.5593 59.66C82.6152 59.5424 82.3914 59.4836 82.3914 59.6012Z" fill="#1D1D1B"/>
<path d="M75.8441 67.2412C72.6543 76.8202 67.506 85.5177 60.3991 92.511C58.3845 94.4503 56.2581 96.2721 54.0757 97.9764C53.9078 98.1527 54.0756 98.4465 54.2435 98.329C62.4137 92.8049 68.961 84.5187 73.1021 75.3511C74.2772 72.7653 75.2845 70.062 76.068 67.3C76.1239 67.1237 75.9 67.0649 75.8441 67.2412Z" fill="#1D1D1B"/>
<path d="M71.4233 70.1795C66.3869 78.1718 60.3432 85.5177 53.516 91.982C51.6134 93.8038 49.5988 95.4492 47.6402 97.2122C47.4164 97.4473 47.6962 97.8587 47.976 97.6824C51.6694 94.9203 55.0829 91.5706 58.2727 88.1622C61.4624 84.7537 64.4842 81.1101 67.1703 77.2315C68.7371 74.9396 70.2481 72.7065 71.6471 70.2971C71.6471 70.1795 71.4792 70.062 71.4233 70.1795Z" fill="#1D1D1B"/>
<path d="M104.384 42.5585C103.656 49.1403 102.033 55.5459 100.131 61.8339C100.075 62.0102 100.299 62.0102 100.355 61.8927C102.705 55.7222 104.048 49.1403 104.72 42.5585C104.776 42.3822 104.44 42.3822 104.384 42.5585Z" fill="#1D1D1B"/>
<path d="M118.542 18.8757C120.5 22.9307 122.011 27.1619 123.298 31.5107C123.354 31.687 123.578 31.6283 123.522 31.452C122.515 26.9856 120.836 22.7544 118.821 18.6994C118.709 18.4643 118.43 18.6406 118.542 18.8757Z" fill="#1D1D1B"/>
<path d="M132.755 16.5839C137.512 24.8699 138.463 35.3303 135.609 44.4978C134.77 47.1423 133.707 49.6105 132.308 51.9024C132.196 52.0787 132.476 52.1962 132.588 52.0787C138.016 43.9102 139.247 33.2147 136.449 23.8121C135.665 21.1677 134.546 18.6995 133.147 16.3488C132.979 16.1138 132.643 16.3488 132.755 16.5839Z" fill="#1D1D1B"/>
<path d="M135.162 24.7523C135.721 39.2677 131.804 53.9594 124.138 66.0654C122.011 69.4739 119.493 72.6473 116.863 75.7032C116.639 75.9382 116.975 76.3496 117.199 76.0558C122.179 70.9431 126.152 64.7138 129.118 58.1319C132.084 51.55 134.099 44.498 134.994 37.3285C135.498 33.156 135.609 28.9248 135.33 24.7523C135.386 24.576 135.162 24.576 135.162 24.7523Z" fill="#1D1D1B"/>
<path d="M130.013 34.978C126.768 48.2005 121.675 60.894 114.96 72.6473C113.058 75.9383 110.987 79.1704 108.916 82.3438C108.749 82.5789 109.14 82.814 109.308 82.5789C117.198 71.7071 123.13 59.1311 127.271 46.2024C128.447 42.5589 129.454 38.7978 130.293 35.0368C130.405 34.8605 130.069 34.8017 130.013 34.978Z" fill="#1D1D1B"/>
<path d="M25.3681 148.34C26.7112 147.811 28.0542 147.223 29.3972 146.812C29.3412 146.636 29.3413 146.518 29.2853 146.342C28.6138 146.518 27.9982 146.871 27.3827 147.165C26.6552 147.517 25.9277 147.87 25.2002 148.222C23.8012 148.928 22.4022 149.633 21.0032 150.397C19.6602 151.102 18.3171 151.866 16.9741 152.63C16.2466 153.041 15.5751 153.453 14.9036 153.864C14.2881 154.275 13.5605 154.628 13.0569 155.157C12.8331 155.392 13.0569 155.862 13.3926 155.745C14.0642 155.568 14.6798 155.098 15.2394 154.746C15.9109 154.334 16.5824 153.982 17.198 153.57C18.541 152.747 19.94 151.983 21.283 151.22C22.626 150.456 23.9691 149.75 25.3122 149.045C25.9837 148.692 26.6552 148.34 27.3267 147.987C28.0542 147.635 28.8377 147.282 29.4532 146.812C29.6771 146.636 29.5092 146.224 29.2294 146.401C27.9982 147.047 26.5992 147.576 25.3122 148.164C25.2002 148.164 25.2562 148.399 25.3681 148.34Z" fill="#1D1D1B"/>
<path d="M28.7816 147.928C26.3753 148.457 23.9691 149.162 21.7307 150.161C20.6115 150.69 19.4923 151.278 18.429 151.924C17.9254 152.218 17.3658 152.571 16.9181 152.923C16.4704 153.276 15.9108 153.628 15.631 154.099C15.5191 154.334 15.687 154.569 15.9108 154.51C16.4704 154.392 16.9181 153.981 17.3658 153.687C17.8694 153.335 18.3731 152.982 18.8767 152.688C19.884 152.042 20.9472 151.454 22.0664 150.925C24.3048 149.809 26.5992 148.986 29.0055 148.399C29.1734 148.34 29.0614 147.87 28.7816 147.928Z" fill="#1D1D1B"/>
<path d="M27.2707 149.103C25.5919 149.574 24.0251 150.279 22.5141 151.16C21.7867 151.572 21.0591 152.101 20.3876 152.63C19.7161 153.158 18.9887 153.746 18.541 154.451C18.3731 154.745 18.7088 155.098 18.9886 154.921C19.6601 154.451 20.2757 153.864 20.8913 153.394C21.5628 152.865 22.2343 152.394 22.9618 151.983C24.4167 151.102 25.9277 150.455 27.4946 149.985C28.0542 149.867 27.8303 148.927 27.2707 149.103Z" fill="#1D1D1B"/>
<path d="M96.7732 114.137C88.3232 117.017 80.1529 120.602 72.2066 124.715C69.9122 125.891 67.618 127.125 65.4355 128.535C65.1557 128.712 65.3796 129.182 65.7153 129.006C68.2895 127.83 70.8077 126.42 73.3818 125.127C75.9 123.834 78.4742 122.541 81.0483 121.366C86.2526 118.897 91.5688 116.664 96.885 114.49C97.0529 114.372 96.997 114.078 96.7732 114.137Z" fill="#1D1D1B"/>
<path d="M97.3328 115.783C92.5762 117.428 87.8755 119.191 83.2868 121.307C80.9924 122.365 78.6981 123.481 76.4597 124.657C74.2213 125.832 71.8709 127.066 69.8004 128.594C69.4646 128.829 69.7444 129.299 70.0802 129.123C72.3745 128.065 74.557 126.713 76.7954 125.538C78.9778 124.363 81.2163 123.246 83.4547 122.188C88.0434 120.014 92.6881 118.016 97.4447 116.253C97.7245 116.135 97.6126 115.665 97.3328 115.783Z" fill="#1D1D1B"/>
<path d="M98.7317 118.075C94.143 119.72 89.6102 121.483 85.1334 123.481C80.6566 125.479 76.0679 127.477 71.8709 130.122C71.5351 130.357 71.8149 130.886 72.2066 130.709C76.6274 128.711 80.8805 126.302 85.3013 124.304C89.7781 122.247 94.3108 120.308 98.8995 118.604C99.1793 118.427 99.0675 117.957 98.7317 118.075Z" fill="#1D1D1B"/>
<path d="M96.4933 120.131C93.1917 121.836 89.8341 123.481 86.5324 125.185C84.9096 126.008 83.2868 126.831 81.6639 127.653C79.9851 128.535 78.1944 129.299 76.6275 130.415C76.4037 130.592 76.5155 131.062 76.8513 130.944C78.5301 130.357 80.097 129.358 81.6639 128.535C83.3427 127.653 85.0214 126.772 86.7562 125.832C90.0579 124.069 93.4155 122.247 96.7171 120.484C96.941 120.425 96.7172 120.014 96.4933 120.131Z" fill="#1D1D1B"/>
<path d="M97.3887 123.481C92.1844 125.538 86.9242 127.948 82.2795 131.239C81.9437 131.474 82.2236 132.061 82.6153 131.826C87.5398 129.064 92.4083 126.126 97.5566 123.834C97.7804 123.775 97.6125 123.364 97.3887 123.481Z" fill="#1D1D1B"/>
<path d="M167.395 104.852C163.086 106.733 158.833 108.672 154.468 110.435C150.103 112.139 145.626 113.667 141.205 115.195C140.87 115.312 141.037 115.782 141.317 115.723C145.906 114.548 150.383 113.02 154.804 111.258C159.169 109.495 163.477 107.614 167.563 105.264C167.786 105.146 167.618 104.735 167.395 104.852Z" fill="#1D1D1B"/>
<path d="M166.611 102.443C163.477 103.559 160.4 104.676 157.322 105.851C154.3 106.967 151.222 108.084 148.256 109.377C148.033 109.494 148.2 109.788 148.424 109.729C151.558 108.789 154.58 107.555 157.602 106.38C160.624 105.204 163.701 104.029 166.723 102.795C166.947 102.678 166.835 102.325 166.611 102.443Z" fill="#1D1D1B"/>
<path d="M163.869 101.149C159.784 102.442 155.699 103.735 151.67 105.028C149.655 105.675 147.585 106.321 145.57 107.026C143.612 107.673 141.597 108.202 139.695 109.083C139.415 109.201 139.639 109.671 139.918 109.612C141.989 109.201 144.004 108.378 146.018 107.732C148.033 107.085 149.991 106.439 152.006 105.733C156.035 104.382 160.008 103.03 164.037 101.678C164.317 101.502 164.149 101.032 163.869 101.149Z" fill="#1D1D1B"/>
<path d="M159.672 100.327C155.811 100.738 151.838 101.678 148.256 103.264C148.089 103.323 148.2 103.676 148.424 103.617C152.118 102.266 155.811 101.208 159.728 100.738C159.896 100.738 159.896 100.268 159.672 100.327Z" fill="#1D1D1B"/>
<path d="M37.5114 135.881C35.8326 138.761 34.6015 141.934 33.818 145.225C33.5382 146.459 33.2584 147.752 33.4823 148.986C33.6502 149.808 34.3217 150.925 35.273 150.631C35.5528 150.572 35.6088 150.161 35.329 149.985C34.9373 149.75 34.6575 149.691 34.4896 149.162C34.3217 148.751 34.2657 148.281 34.2657 147.81C34.2657 146.576 34.6574 145.225 34.9372 144.049C35.6087 141.287 36.5601 138.584 37.7352 136.057C37.8472 135.881 37.6233 135.705 37.5114 135.881Z" fill="#1D1D1B"/>
<path d="M36.3362 141.112C34.9932 142.698 34.0419 144.638 33.5942 146.694C33.3703 147.694 33.2584 148.81 33.3144 149.809C33.3703 150.749 33.4263 151.925 34.0419 152.689C34.2098 152.865 34.4336 152.689 34.4336 152.512C34.5455 151.572 34.2098 150.632 34.2098 149.692C34.1538 148.693 34.2097 147.752 34.4336 146.753C34.8253 144.814 35.6088 142.992 36.7839 141.464C37.0078 141.229 36.616 140.759 36.3362 141.112Z" fill="#1D1D1B"/>
<path d="M42.8276 136.762C40.7011 138.584 39.2462 141.111 38.6306 143.991C38.3508 145.401 38.2389 146.812 38.3508 148.222C38.4627 149.515 38.7426 151.043 39.582 152.101C39.7499 152.277 39.9737 152.101 39.9177 151.866C39.7498 150.573 39.3021 149.339 39.1902 148.046C39.0783 146.694 39.1343 145.342 39.4141 143.991C39.9737 141.346 41.2608 138.937 43.1634 137.115C43.3873 136.939 43.0515 136.586 42.8276 136.762Z" fill="#1D1D1B"/>
<path d="M44.9541 138.29C43.3313 140.465 42.324 143.05 41.9323 145.813C41.8203 146.459 41.8204 147.105 41.8204 147.752C41.8204 148.281 41.8204 148.81 42.1002 149.339C42.4359 149.868 43.4992 150.632 43.723 149.574C43.779 149.28 43.4432 149.162 43.2753 149.397C43.1634 149.633 42.7717 148.927 42.7157 148.81C42.5478 148.398 42.6038 147.811 42.6598 147.341C42.6598 146.283 42.8276 145.284 43.0515 144.226C43.4991 142.228 44.3386 140.288 45.5137 138.643C45.6816 138.29 45.178 137.996 44.9541 138.29Z" fill="#1D1D1B"/>
<path d="M45.6256 142.051C44.7862 143.227 44.3945 144.755 44.3945 146.224C44.4505 147.576 44.7863 149.339 45.9614 150.161C46.1293 150.279 46.4091 150.103 46.3531 149.867C46.1293 149.28 45.8495 148.751 45.6256 148.163C45.4018 147.517 45.2899 146.87 45.2899 146.224C45.2899 144.931 45.6256 143.638 46.3531 142.58C46.6889 141.993 45.9614 141.581 45.6256 142.051Z" fill="#1D1D1B"/>
<path d="M48.7595 141.347C48.6475 142.463 48.5356 143.639 48.4237 144.755C48.3677 145.343 48.3118 145.871 48.2558 146.459C48.1999 146.988 48.0879 147.576 48.1999 148.104C48.2558 148.339 48.6475 148.457 48.7595 148.163C48.9833 147.693 48.9833 147.105 49.0393 146.577C49.0952 145.989 49.1511 145.401 49.2071 144.814C49.319 143.638 49.4309 142.522 49.5429 141.347C49.5988 140.818 48.8154 140.818 48.7595 141.347Z" fill="#1D1D1B"/>
<path d="M52.6207 142.581C52.229 143.051 51.9492 143.58 51.8373 144.168C51.7813 144.461 51.7253 144.755 51.7813 145.049C51.7813 145.225 51.7813 145.343 51.8373 145.519C51.8373 145.696 51.8932 145.813 52.0051 145.99C52.1171 146.225 52.4529 146.107 52.4529 145.872C52.3969 145.402 52.3409 144.873 52.4529 144.403C52.5648 143.932 52.7886 143.462 53.0684 143.11C53.3482 142.757 52.9005 142.287 52.6207 142.581Z" fill="#1D1D1B"/>
<path d="M62.0779 108.671C60.2872 110.905 59.9515 114.019 60.7909 116.781C61.1826 118.133 61.8541 119.426 62.8054 120.484C63.2531 121.012 63.7568 121.424 64.3164 121.776C64.8201 122.129 65.6034 122.599 66.219 122.54C66.4988 122.54 66.5547 122.188 66.3309 122.011C65.8273 121.659 65.2117 121.541 64.7081 121.189C64.1485 120.836 63.7008 120.425 63.2531 119.955C62.4137 119.014 61.7422 117.839 61.3505 116.605C60.5671 114.078 60.7908 111.198 62.4137 109.083C62.6375 108.789 62.3018 108.378 62.0779 108.671Z" fill="#1D1D1B"/>
<path d="M65.0438 110.2C64.0365 112.492 64.2045 115.137 65.1558 117.429C66.1071 119.603 68.0097 121.778 70.416 122.013C70.5839 122.013 70.6398 121.719 70.5279 121.66C68.5693 120.602 66.8905 119.309 65.8273 117.194C64.82 115.137 64.5961 112.61 65.4915 110.435C65.6034 110.141 65.1557 109.906 65.0438 110.2Z" fill="#1D1D1B"/>
<path d="M68.0657 110.905C68.1216 113.079 68.7931 115.195 69.9683 116.957C70.5279 117.839 71.1994 118.662 72.0388 119.308C72.8222 119.954 73.7176 120.542 74.7249 120.777C75.0047 120.836 75.1166 120.483 74.8928 120.307C74.1093 119.778 73.27 119.308 72.5425 118.662C71.815 118.015 71.1435 117.31 70.5839 116.487C69.4647 114.842 68.7931 112.903 68.6812 110.905C68.6812 110.493 68.0657 110.493 68.0657 110.905Z" fill="#1D1D1B"/>
<path d="M73.9415 113.138C73.9974 115.724 75.7322 118.31 78.2504 118.721C78.4742 118.78 78.5301 118.427 78.3622 118.368C76.3477 117.487 74.613 115.489 74.5011 113.138C74.4451 112.785 73.9415 112.785 73.9415 113.138Z" fill="#1D1D1B"/>
<path d="M80.1529 104.03C78.9218 106.086 78.5301 108.613 78.9219 110.964C79.1457 112.139 79.5375 113.315 80.0971 114.373C80.6567 115.372 81.4401 116.488 82.4474 117.017C82.7272 117.135 82.951 116.841 82.7272 116.606C81.9997 115.783 81.2163 115.019 80.6567 114.02C80.0971 113.08 79.7053 111.963 79.5375 110.847C79.0898 108.613 79.4255 106.204 80.6007 104.206C80.7126 104.03 80.3208 103.795 80.1529 104.03Z" fill="#1D1D1B"/>
<path d="M87.4837 103.442C86.9801 105.675 86.9241 107.967 87.3158 110.2C87.7076 112.374 88.547 114.666 90.0579 116.311C90.1699 116.429 90.3937 116.253 90.2817 116.135C89.2185 114.255 88.2672 112.374 87.7635 110.2C87.2599 108.025 87.2599 105.734 87.7635 103.559C87.8195 103.383 87.5397 103.265 87.4837 103.442Z" fill="#1D1D1B"/>
<path d="M92.2965 105.557C91.1213 106.556 90.6176 108.202 90.7854 109.73C90.8414 110.493 91.0653 111.257 91.4571 111.904C91.7928 112.492 92.4083 113.314 93.0798 113.491C93.3596 113.549 93.5275 113.197 93.3596 113.02C93.1358 112.785 92.856 112.609 92.6321 112.374C92.4083 112.139 92.2404 111.845 92.0725 111.61C91.7368 111.022 91.513 110.376 91.4571 109.73C91.2892 108.378 91.7368 106.967 92.6882 106.027C92.912 105.675 92.5763 105.322 92.2965 105.557Z" fill="#1D1D1B"/>
<path d="M97.3328 105.558C95.4302 106.615 95.2063 109.613 96.5493 111.258C96.941 111.728 97.4447 112.022 98.0043 112.139C98.2282 112.198 98.3961 111.846 98.1722 111.728C97.165 111.199 96.5493 110.2 96.3814 109.025C96.2695 107.908 96.6054 106.674 97.6126 106.087C97.9484 105.91 97.6686 105.323 97.3328 105.558Z" fill="#1D1D1B"/>
<path d="M101.418 106.263C101.082 107.027 100.858 107.85 100.802 108.672C100.802 109.084 100.802 109.495 100.914 109.906C100.97 110.318 101.138 110.729 101.362 111.082C101.53 111.375 101.921 111.199 101.865 110.847C101.53 109.436 101.474 107.967 102.089 106.674C102.257 106.263 101.642 105.852 101.418 106.263Z" fill="#1D1D1B"/>
<path d="M144.563 94.6259C144.787 96.0364 144.731 97.5055 144.395 98.916C144.227 99.6212 143.947 100.268 143.668 100.914C143.5 101.208 143.332 101.561 143.164 101.796C142.996 102.089 142.772 102.383 142.604 102.677C142.549 102.912 142.716 103.206 142.94 103.03C143.5 102.618 143.892 101.854 144.171 101.208C144.507 100.503 144.731 99.7975 144.899 99.0335C145.235 97.5056 145.235 95.9776 144.899 94.4496C144.843 94.2733 144.507 94.3909 144.563 94.6259Z" fill="#1D1D1B"/>
<path d="M141.653 96.0367C141.709 97.1533 141.541 98.3287 141.317 99.4453C141.205 99.9742 141.038 100.503 140.814 101.032C140.702 101.267 140.646 101.561 140.534 101.796C140.422 102.09 140.254 102.325 140.198 102.678C140.142 103.03 140.534 103.324 140.814 103.03C141.205 102.619 141.485 101.972 141.653 101.385C141.821 100.856 141.989 100.268 142.101 99.6803C142.325 98.505 142.437 97.2708 142.325 96.0367C142.269 95.5665 141.597 95.5665 141.653 96.0367Z" fill="#1D1D1B"/>
<path d="M138.799 96.8013C138.911 98.1529 138.687 99.5044 138.184 100.739C137.904 101.326 137.624 101.914 137.232 102.443C137.064 102.737 136.841 102.972 136.617 103.207C136.393 103.442 136.169 103.736 136.001 103.971C135.889 104.206 136.113 104.499 136.337 104.382C136.952 104.147 137.512 103.5 137.904 102.972C138.351 102.384 138.687 101.738 138.967 101.091C139.527 99.7395 139.694 98.2116 139.527 96.7425C139.415 96.3899 138.799 96.3312 138.799 96.8013Z" fill="#1D1D1B"/>
<path d="M136.001 98.0938C135.497 98.9754 135.05 99.7981 134.546 100.68C134.043 101.561 133.539 102.384 133.147 103.265C132.979 103.618 133.427 103.853 133.595 103.559C134.154 102.737 134.602 101.855 135.106 101.032C135.609 100.151 136.057 99.328 136.561 98.4465C136.729 98.0351 136.169 97.7412 136.001 98.0938Z" fill="#1D1D1B"/>
<path d="M119.997 80.5811C106.622 82.0503 93.3596 85.3413 80.8246 90.5129C77.3551 91.9233 73.8854 93.5688 70.5278 95.2731C70.36 95.3906 70.5279 95.6257 70.6958 95.5669C82.8391 89.8664 95.542 85.4588 108.581 82.8142C112.386 82.0502 116.135 81.4038 119.997 80.9337C120.22 80.9337 120.22 80.5811 119.997 80.5811Z" fill="#1D1D1B"/>
<path d="M119.269 80.9338C110.26 83.167 101.362 85.8115 92.6881 89.0438C90.2259 89.9841 87.7077 90.8656 85.3014 91.8646C84.9657 91.9822 85.0775 92.5699 85.4692 92.4523C89.8901 90.9831 94.199 89.3376 98.6198 87.8096C103.041 86.3404 107.462 84.93 111.882 83.5784C114.401 82.8144 116.919 82.0504 119.493 81.3451C119.717 81.3451 119.605 80.875 119.269 80.9338Z" fill="#1D1D1B"/>
<path d="M118.598 82.5198C107.741 85.811 97.0529 89.6899 86.7003 94.3328C86.4765 94.4504 86.6443 94.8618 86.8681 94.7442C97.3886 90.5127 107.965 86.3987 118.709 82.8724C118.933 82.8136 118.821 82.461 118.598 82.5198Z" fill="#1D1D1B"/>
<path d="M175.789 108.437C174.446 109.318 173.103 110.2 171.76 111.14C171.088 111.61 170.473 112.021 169.801 112.491C169.465 112.726 169.129 112.962 168.794 113.197C168.514 113.432 168.178 113.667 168.01 113.961C167.842 114.196 168.122 114.431 168.346 114.431C168.682 114.372 169.074 114.137 169.353 113.902C169.689 113.667 170.025 113.432 170.361 113.197C170.976 112.727 171.592 112.315 172.263 111.845C173.55 110.905 174.837 109.965 176.124 109.024C176.516 108.789 176.18 108.202 175.789 108.437Z" fill="#1D1D1B"/>
<path d="M179.202 109.671C177.523 110.67 175.789 111.61 174.11 112.609C173.271 113.08 172.431 113.55 171.592 114.02C170.808 114.49 169.801 114.901 169.129 115.548C168.794 115.842 169.129 116.371 169.521 116.253C170.417 116.018 171.256 115.313 172.039 114.843C172.879 114.373 173.718 113.844 174.502 113.373C176.18 112.374 177.859 111.375 179.538 110.376C180.098 110.2 179.65 109.377 179.202 109.671Z" fill="#1D1D1B"/>
<path d="M184.295 110.024C181.273 111.434 178.251 112.844 175.173 114.255C173.718 114.96 172.263 115.665 170.752 116.37C170.025 116.723 169.241 117.075 168.514 117.487C167.787 117.839 167.003 118.192 166.387 118.721C166.108 119.015 166.443 119.367 166.723 119.367C167.451 119.25 168.234 118.838 168.906 118.486C169.633 118.133 170.417 117.781 171.144 117.428C172.655 116.723 174.166 115.959 175.677 115.254C178.699 113.785 181.665 112.257 184.63 110.788C185.134 110.494 184.742 109.847 184.295 110.024Z" fill="#1D1D1B"/>
<path d="M189.163 110.258C184.91 111.61 180.769 113.138 176.684 114.96C174.725 115.841 172.767 116.723 170.864 117.722C169.857 118.251 168.85 118.78 167.842 119.308C166.891 119.837 165.884 120.308 165.1 121.071C164.821 121.365 165.1 121.894 165.492 121.777C166.499 121.483 167.507 120.836 168.458 120.366C169.409 119.896 170.305 119.426 171.256 118.897C173.215 117.898 175.173 116.958 177.188 116.017C181.217 114.196 185.302 112.55 189.443 111.081C189.891 110.905 189.667 110.141 189.163 110.258Z" fill="#1D1D1B"/>
<path d="M194.983 109.906C189.779 111.551 184.631 113.373 179.594 115.43C177.132 116.429 174.67 117.487 172.207 118.604C170.976 119.133 169.801 119.72 168.57 120.308C167.954 120.602 167.283 120.954 166.667 121.248C166.108 121.542 165.436 121.777 164.988 122.306C164.821 122.541 164.932 122.953 165.212 122.953C165.828 122.953 166.387 122.6 166.891 122.365C167.563 122.071 168.178 121.777 168.85 121.483C170.081 120.896 171.256 120.367 172.487 119.779C174.949 118.662 177.412 117.546 179.93 116.488C184.91 114.372 190.003 112.492 195.151 110.729C195.711 110.67 195.487 109.788 194.983 109.906Z" fill="#1D1D1B"/>
<path d="M194.983 112.375C190.394 113.609 185.806 115.019 181.329 116.606C179.09 117.429 176.908 118.251 174.67 119.133C173.606 119.544 172.543 120.014 171.48 120.484C170.473 120.896 169.241 121.307 168.402 122.071C168.01 122.365 168.458 122.835 168.794 122.776C169.409 122.717 169.969 122.365 170.528 122.13C171.032 121.954 171.536 121.718 172.04 121.542C173.103 121.072 174.166 120.661 175.285 120.191C177.468 119.309 179.706 118.428 181.888 117.605C186.309 115.959 190.73 114.49 195.207 113.139C195.711 113.021 195.487 112.198 194.983 112.375Z" fill="#1D1D1B"/>
<path d="M196.326 113.609C190.898 115.372 185.414 116.782 180.098 118.897C179.706 119.074 179.818 119.72 180.266 119.603C185.75 118.192 191.122 116.136 196.55 114.373C196.997 114.196 196.83 113.432 196.326 113.609Z" fill="#1D1D1B"/>
<path d="M169.577 136.998C161.687 139.466 153.74 141.817 145.682 143.873C137.736 145.872 129.734 147.576 121.675 148.986C117.087 149.809 112.442 150.455 107.853 151.278C107.461 151.337 107.574 152.042 107.965 151.983C111.994 151.69 116.079 151.102 120.109 150.397C124.194 149.75 128.279 148.986 132.308 148.105C140.422 146.4 148.424 144.461 156.371 142.052C160.847 140.7 165.324 139.29 169.745 137.644C170.193 137.527 170.025 136.88 169.577 136.998Z" fill="#1D1D1B"/>
<path d="M173.774 132.355C168.794 135.411 162.918 136.233 157.322 137.35C150.998 138.584 144.731 139.818 138.407 141.052C134.826 141.758 131.3 142.404 127.719 143.227C127.215 143.344 127.439 144.108 127.943 143.991C134.378 142.992 140.758 141.64 147.137 140.347C150.327 139.701 153.517 139.113 156.706 138.466C159.616 137.879 162.47 137.35 165.324 136.645C168.402 135.822 171.368 134.705 174.054 132.942C174.39 132.707 174.11 132.178 173.774 132.355Z" fill="#1D1D1B"/>
<path d="M177.3 128.712C172.151 131.415 166.555 132.884 160.903 134C155.028 135.117 149.096 135.881 143.22 136.88C139.695 137.468 136.169 137.996 132.644 138.702C132.308 138.76 132.42 139.348 132.7 139.289C139.023 138.584 145.347 137.585 151.614 136.586C157.378 135.705 163.142 134.823 168.682 133.06C171.76 132.12 174.725 130.827 177.523 129.24C177.915 129.064 177.635 128.594 177.3 128.712Z" fill="#1D1D1B"/>
<path d="M184.91 123.951C175.957 128.359 166.555 131.65 156.762 133.119C153.964 133.531 151.11 133.824 148.312 134.001C147.921 134.001 147.921 134.588 148.312 134.588C158.273 134.53 168.346 132.12 177.579 128.242C180.21 127.125 182.728 125.891 185.246 124.422C185.526 124.245 185.246 123.775 184.91 123.951Z" fill="#1D1D1B"/>
<path d="M151.838 147.282C146.074 148.692 140.254 149.926 134.434 151.102C128.67 152.277 122.851 153.159 117.031 154.275C113.785 154.922 110.483 155.333 107.182 155.862C106.846 155.921 106.958 156.508 107.238 156.449C118.933 155.274 130.629 152.982 142.101 150.279C145.403 149.515 148.648 148.634 151.95 147.752C152.286 147.693 152.118 147.223 151.838 147.282Z" fill="#1D1D1B"/>
<path d="M153.964 143.462C144.115 145.989 134.21 148.281 124.25 150.396C121.396 150.984 118.542 151.513 115.744 152.218C115.464 152.277 115.576 152.688 115.856 152.63C120.892 151.866 125.928 150.749 130.909 149.632C135.833 148.575 140.758 147.399 145.682 146.107C148.48 145.401 151.278 144.637 154.076 143.873C154.3 143.756 154.188 143.403 153.964 143.462Z" fill="#1D1D1B"/>
<path d="M141.317 151.866C127.719 155.921 113.729 158.977 99.739 161.034C95.6539 161.622 91.6249 162.15 87.5398 162.679C87.204 162.738 87.204 163.267 87.5398 163.208C94.6467 162.679 101.698 161.622 108.693 160.329C115.744 159.036 122.851 157.566 129.734 155.509C133.595 154.334 137.512 153.217 141.373 151.983C141.485 152.101 141.429 151.866 141.317 151.866Z" fill="#1D1D1B"/>
<path d="M125.648 159.036C113.953 161.445 102.201 163.326 90.3937 164.912C87.092 165.383 83.7904 165.853 80.4328 166.264C80.153 166.323 80.153 166.793 80.4328 166.734C92.2963 165.676 104.104 163.913 115.855 161.621C119.157 160.975 122.515 160.27 125.816 159.506C126.152 159.506 125.984 158.918 125.648 159.036Z" fill="#1D1D1B"/>
<path d="M12.4973 158.918C25.2562 160.092 38.127 159.975 50.8859 159.153C54.4114 158.918 57.9369 158.741 61.4064 158.154C61.7421 158.095 61.6302 157.566 61.3504 157.566C58.1607 157.743 55.027 158.095 51.8372 158.33C48.6475 158.565 45.5137 158.741 42.324 158.859C36.0005 159.094 29.621 159.153 23.2416 158.976C19.6601 158.859 16.0787 158.741 12.4973 158.565C12.2734 158.448 12.2734 158.859 12.4973 158.918Z" fill="#1D1D1B"/>
<path d="M23.1298 157.154C34.7694 157.389 46.4092 156.978 57.9929 155.979C61.2386 155.685 64.4842 155.45 67.7299 154.922C68.0657 154.863 67.9538 154.334 67.674 154.334C61.8542 154.687 56.0902 155.333 50.2704 155.744C44.5065 156.155 38.7426 156.39 32.9787 156.567C29.6771 156.684 26.4314 156.802 23.1298 156.802C22.9619 156.861 22.9619 157.154 23.1298 157.154Z" fill="#1D1D1B"/>
<path d="M45.7935 152.687C55.8104 152.981 65.8273 152.57 75.7882 151.571C78.5302 151.277 81.3281 150.925 84.0702 150.455C84.35 150.396 84.2941 149.926 84.0143 149.985C79.0898 150.455 74.1652 151.042 69.2407 151.395C64.3163 151.747 59.3359 152.041 54.3554 152.1C51.5015 152.159 48.6475 152.217 45.7935 152.159C45.5137 152.276 45.5137 152.687 45.7935 152.687Z" fill="#1D1D1B"/>
<path d="M76.9074 147.634C80.6567 147.399 84.462 147.164 88.2113 146.929C91.9606 146.694 95.7659 146.576 99.5152 146.224C99.739 146.224 99.739 145.812 99.5152 145.812C95.7659 145.871 91.9606 146.283 88.2113 146.518C84.462 146.753 80.6567 146.988 76.9074 147.282C76.6835 147.282 76.6835 147.634 76.9074 147.634Z" fill="#1D1D1B"/>
<path d="M14.5678 161.209C21.6747 162.325 28.8936 162.678 36.0565 162.854C43.2753 163.03 50.5502 162.854 57.769 162.384C61.7981 162.09 65.8832 161.797 69.9124 161.092C70.2481 161.033 70.1921 160.387 69.8003 160.446C66.2189 160.681 62.6935 161.092 59.1121 161.327C55.4747 161.562 51.8932 161.738 48.2558 161.855C41.0369 162.09 33.8741 161.973 26.6552 161.562C22.6261 161.385 18.5969 161.033 14.5678 160.798C14.3999 160.798 14.344 161.209 14.5678 161.209Z" fill="#1D1D1B"/>
<path d="M21.7307 164.677C27.6625 165.323 33.7061 165.382 39.6939 165.558C45.6256 165.676 51.5574 165.735 57.5451 165.617C60.9587 165.558 64.3163 165.441 67.7298 165.265C68.0096 165.265 68.0096 164.795 67.7298 164.795C61.7421 164.795 55.7544 164.912 49.7667 164.853C43.8349 164.795 37.9031 164.795 31.9154 164.56C28.5578 164.442 25.1443 164.325 21.7307 164.325C21.5069 164.383 21.5628 164.677 21.7307 164.677Z" fill="#1D1D1B"/>
<path d="M42.2121 169.201C46.8568 169.73 51.5015 169.965 56.1462 169.789C60.6789 169.671 65.3796 169.319 69.8564 168.32C70.1921 168.262 70.0802 167.674 69.8004 167.733C65.2116 168.262 60.679 168.908 56.0343 169.084C51.4456 169.26 46.8008 169.143 42.2121 168.732C41.9323 168.673 41.9323 169.143 42.2121 169.201Z" fill="#1D1D1B"/>
<path d="M54.971 174.373C58.6084 174.138 62.3017 173.668 65.9391 173.316C69.5766 172.963 73.27 172.552 76.9074 172.082C77.1312 172.023 77.1872 171.612 76.9074 171.671C73.214 171.964 69.5206 172.317 65.8273 172.728C62.1899 173.139 58.5524 173.374 54.971 173.903C54.6352 173.903 54.6912 174.373 54.971 174.373Z" fill="#1D1D1B"/>
<path d="M115.072 155.686C103.768 156.684 92.4082 157.566 81.1602 159.093C80.9364 159.152 80.8804 159.504 81.1602 159.504C92.4641 158.799 103.768 157.448 115.072 156.214C115.408 156.214 115.408 155.686 115.072 155.686Z" fill="#1D1D1B"/>
<path d="M140.59 139.29C128.279 141.699 115.911 144.05 103.6 146.283C100.075 146.929 96.6052 147.576 93.0797 148.281C92.9118 148.339 92.9119 148.633 93.1357 148.633C99.2913 147.811 105.447 146.635 111.547 145.519C117.758 144.344 124.026 143.11 130.237 141.875C133.707 141.17 137.232 140.406 140.702 139.642C140.814 139.525 140.758 139.231 140.59 139.29Z" fill="#1D1D1B"/>
<path d="M184.351 121.895C173.886 125.068 163.198 127.536 152.453 129.241C149.376 129.711 146.354 130.122 143.276 130.592C142.94 130.651 142.996 131.239 143.332 131.239C148.704 130.827 154.076 129.887 159.392 128.888C164.765 127.83 170.081 126.596 175.397 125.127C178.419 124.304 181.441 123.364 184.407 122.365C184.686 122.189 184.63 121.777 184.351 121.895Z" fill="#1D1D1B"/>
<path d="M133.987 51.4323C131.245 59.4247 126.656 66.6531 120.724 72.4711C119.885 73.2939 118.989 74.0578 118.094 74.8218C117.255 75.527 116.191 76.2322 115.408 77.055C115.184 77.2901 115.408 77.819 115.744 77.7014C116.639 77.2901 117.422 76.5849 118.206 75.9384C118.989 75.292 119.773 74.5868 120.5 73.8815C122.067 72.4124 123.522 70.8256 124.921 69.1213C127.607 65.8304 129.957 62.1868 131.804 58.2493C132.811 56.0749 133.707 53.783 134.434 51.4911C134.602 51.256 134.099 51.0797 133.987 51.4323Z" fill="#1D1D1B"/>
<path d="M136.281 52.1971C132.14 60.483 126.712 68.1225 120.668 74.9981C118.933 76.9374 117.087 78.7591 115.352 80.7571C115.016 81.1097 115.52 81.5799 115.855 81.286C119.381 78.3478 122.403 74.7043 125.257 71.0608C128.055 67.4173 130.629 63.5976 132.979 59.6015C134.322 57.3097 135.553 54.9003 136.729 52.4909C136.84 52.1383 136.449 51.9032 136.281 52.1971Z" fill="#1D1D1B"/>
<path d="M32.3631 136.88C30.7962 137.879 29.2853 138.878 27.5506 139.642C25.9277 140.347 24.193 140.876 22.4582 141.229C20.6675 141.581 18.8767 141.758 17.03 141.758C15.2393 141.758 13.5046 141.522 11.7698 141.287C11.49 141.287 11.49 141.699 11.7138 141.758C15.1274 142.933 19.1565 142.639 22.6261 141.875C26.0956 141.111 29.733 139.525 32.531 137.174C32.6989 136.998 32.475 136.763 32.3631 136.88Z" fill="#1D1D1B"/>
<path d="M54.6911 96.5068C48.5355 102.619 41.7084 107.908 34.3776 112.374C32.3071 113.608 30.1806 114.842 27.9982 116.018C27.7743 116.135 27.9982 116.429 28.1661 116.312C35.8326 112.609 43.0514 107.555 49.4868 101.855C51.3335 100.209 53.1242 98.5049 54.859 96.7419C55.0269 96.5656 54.859 96.3893 54.6911 96.5068Z" fill="#1D1D1B"/>
<path d="M51.5014 95.3311C49.8226 96.3889 48.2558 97.6231 46.6329 98.7397C45.0101 99.9151 43.3313 101.09 41.7084 102.266C38.5187 104.558 35.2171 106.732 32.1952 109.259C31.9714 109.436 32.2512 109.847 32.531 109.671C35.8886 107.496 39.0223 105.028 42.268 102.677C43.8909 101.502 45.4578 100.326 47.0246 99.1511C48.5915 97.9757 50.2144 96.9178 51.6693 95.6249C51.8372 95.5074 51.6693 95.2723 51.5014 95.3311Z" fill="#1D1D1B"/>
<path d="M109.42 15.3492C111.547 15.2905 113.617 15.3492 115.744 15.5842C117.87 15.8191 119.997 16.3478 122.123 16.7589C122.403 16.8177 122.515 16.4065 122.235 16.289C118.262 14.7619 113.673 14.5269 109.42 14.7618C109.084 14.8206 109.084 15.4079 109.42 15.3492Z" fill="#1D1D1B"/>
<path d="M129.734 99.2695C130.965 100.621 130.629 103.089 129.174 104.088C128.95 104.264 129.174 104.617 129.398 104.499C131.188 103.383 131.412 100.504 129.901 99.0345C129.79 98.9169 129.566 99.152 129.734 99.2695Z" fill="#1D1D1B"/>
<path d="M125.984 100.033C126.432 100.915 126.712 101.855 126.712 102.854C126.712 103.853 126.544 104.793 126.376 105.733C126.32 105.968 126.6 106.086 126.768 105.91C127.887 104.088 127.495 101.561 126.432 99.7981C126.264 99.5043 125.816 99.7394 125.984 100.033Z" fill="#1D1D1B"/>
<path d="M124.641 101.914C124.529 102.443 124.361 102.913 124.249 103.441C124.194 103.676 124.138 103.911 124.026 104.205C123.97 104.499 123.858 104.734 123.858 105.028C123.858 105.322 124.25 105.439 124.417 105.204C124.473 105.087 124.529 104.969 124.585 104.793C124.585 104.675 124.641 104.558 124.641 104.44C124.697 104.205 124.753 103.911 124.809 103.676C124.921 103.148 125.033 102.678 125.201 102.149C125.369 101.62 124.753 101.444 124.641 101.914Z" fill="#1D1D1B"/>
<path d="M149.376 96.0367C149.376 97.5059 149.264 99.0338 149.431 100.503C149.487 100.914 149.935 100.914 149.991 100.503C150.159 99.0338 150.103 97.5059 150.047 96.0367C150.103 95.5665 149.376 95.5665 149.376 96.0367Z" fill="#1D1D1B"/>
<path d="M65.4914 122.423C62.3577 123.364 59.3359 124.421 56.37 125.714C53.4601 126.948 50.4941 128.3 47.864 130.063C47.6961 130.181 47.8641 130.416 48.0319 130.357C50.9978 129.005 53.8518 127.477 56.8176 126.184C59.7276 124.892 62.6935 123.775 65.6593 122.776C65.7713 122.717 65.7153 122.306 65.4914 122.423Z" fill="#1D1D1B"/>
<path d="M88.9388 110.964C78.1385 114.02 67.5061 117.84 57.1535 122.365C54.2435 123.658 51.3895 125.009 48.5915 126.42C48.4237 126.478 48.5356 126.772 48.7034 126.713C59.0001 122.189 69.3528 117.84 79.9852 114.196C83.007 113.197 86.0288 112.198 89.0507 111.258C89.2186 111.199 89.1626 110.906 88.9388 110.964Z" fill="#1D1D1B"/>
<path d="M73.27 113.549C65.7154 116.782 58.1607 120.014 50.7181 123.423C50.6061 123.481 50.6621 123.658 50.774 123.599C58.3286 120.425 65.8273 117.076 73.3819 113.726C73.4938 113.726 73.3819 113.491 73.27 113.549Z" fill="#1D1D1B"/>
<path d="M68.4574 110.376C63.0852 112.139 57.9929 114.784 53.572 118.427C53.516 118.486 53.572 118.603 53.6839 118.545C58.2726 115.195 63.1972 112.433 68.5134 110.67C68.7372 110.611 68.6812 110.318 68.4574 110.376Z" fill="#1D1D1B"/>
<path d="M151.838 104.088C137.68 106.321 123.634 109.377 109.756 113.138C105.839 114.196 101.921 115.371 98.0602 116.547C97.7804 116.606 97.8924 117.017 98.1722 116.958C111.994 113.138 125.984 109.73 140.03 106.909C144.003 106.086 147.977 105.381 151.95 104.617C152.285 104.559 152.118 104.088 151.838 104.088Z" fill="#1D1D1B"/>
<path d="M149.767 105.792C134.211 109.259 118.766 113.138 103.321 117.075C98.9557 118.192 94.6468 119.249 90.3379 120.483C90.0581 120.542 90.17 121.012 90.4498 120.953C98.2282 119.308 105.951 117.31 113.673 115.371C121.396 113.432 129.118 111.492 136.841 109.553C141.15 108.437 145.514 107.32 149.823 106.145C150.047 106.027 149.935 105.734 149.767 105.792Z" fill="#1D1D1B"/>
<path d="M147.585 109.318C136.729 113.021 125.705 116.077 114.624 118.839C111.435 119.603 108.301 120.367 105.111 121.131C104.831 121.19 104.943 121.66 105.223 121.601C110.819 120.484 116.359 119.074 121.899 117.605C127.439 116.135 132.923 114.549 138.351 112.786C141.485 111.786 144.563 110.729 147.641 109.671C147.865 109.553 147.753 109.259 147.585 109.318Z" fill="#1D1D1B"/>
<path d="M186.421 112.785C183.847 113.314 181.273 113.843 178.643 114.431C178.419 114.49 178.531 114.783 178.699 114.725C181.273 114.255 183.903 113.726 186.477 113.197C186.813 113.197 186.701 112.727 186.421 112.785Z" fill="#1D1D1B"/>
<path d="M180.825 124.832C165.436 128.887 149.767 132.179 133.987 134.294C129.566 134.882 125.145 135.411 120.724 135.94C120.444 135.999 120.388 136.469 120.724 136.41C128.614 135.881 136.505 134.882 144.283 133.589C152.174 132.296 160.008 130.709 167.73 128.829C172.151 127.771 176.516 126.478 180.825 125.126C181.105 125.126 180.993 124.774 180.825 124.832Z" fill="#1D1D1B"/>
<path d="M114.456 22.4602C118.877 29.2184 119.325 37.9747 116.303 45.4381C116.191 45.6731 116.527 45.9082 116.639 45.6731C120.332 38.3273 119.325 28.9245 114.792 22.2838C114.624 22.0488 114.289 22.2251 114.456 22.4602Z" fill="#1D1D1B"/>
<path d="M109.644 23.1064C113.281 29.8648 113.673 38.1511 111.043 45.3208C110.931 45.6146 111.435 45.8497 111.547 45.5559C114.624 38.3274 113.897 29.6297 109.924 22.9301C109.812 22.8126 109.532 22.9301 109.644 23.1064Z" fill="#1D1D1B"/>
<path d="M127.495 12.5876C132.476 27.3969 127.383 43.0878 120.724 56.3104C118.765 60.1303 116.695 63.8326 114.736 67.7113C114.568 68.0639 115.016 68.2989 115.24 68.0051C119.269 61.4819 122.906 54.4886 125.76 47.319C128.502 40.2082 130.349 32.6272 130.125 24.8699C130.013 20.6387 129.286 16.4662 127.831 12.5288C127.775 12.235 127.439 12.3525 127.495 12.5876Z" fill="#1D1D1B"/>
<path d="M136.225 18.1113C137.12 22.2838 136.841 26.515 136.001 30.6875C135.218 34.5662 134.099 38.386 132.811 42.0884C130.349 49.3168 127.103 56.3101 123.242 62.892C121.06 66.5944 118.598 70.0617 116.191 73.5877C115.967 73.9403 116.471 74.3517 116.751 73.9991C119.269 71.0607 121.396 67.7697 123.41 64.42C125.425 61.129 127.215 57.6618 128.894 54.1945C130.517 50.7272 131.972 47.1424 133.259 43.4988C134.602 39.6202 135.777 35.6827 136.561 31.6278C137.456 27.1027 137.68 22.4601 136.561 17.935C136.505 17.7587 136.169 17.8762 136.225 18.1113Z" fill="#1D1D1B"/>
<path d="M10.5387 123.717C15.2394 121.483 19.8281 118.78 24.193 115.9C28.5019 113.021 32.8108 110.024 36.728 106.556C36.8959 106.38 36.6721 106.086 36.4482 106.204C32.2512 109.26 28.0542 112.433 23.6893 115.313C19.3244 118.192 14.8476 120.837 10.3708 123.481C10.2029 123.599 10.3708 123.834 10.5387 123.717Z" fill="#1D1D1B"/>
<path d="M20.3317 112.433C33.7062 103.853 46.521 94.2736 58.5524 83.7543C61.91 80.8159 65.2676 77.76 68.4573 74.5865C68.6812 74.3515 68.3454 74.0577 68.1215 74.234C62.1338 79.4642 56.1461 84.6945 49.9905 89.6898C43.8349 94.7437 37.5114 99.5627 31.0201 104.205C27.3827 106.85 23.7453 109.436 20.0519 111.963C19.884 112.198 20.1079 112.55 20.3317 112.433Z" fill="#1D1D1B"/>
<path d="M81.8318 49.9634C75.7881 56.7216 69.4087 63.1273 62.7495 69.1803C56.0343 75.2921 49.0393 81.0513 41.7645 86.3404C37.6794 89.3375 33.4823 92.0996 29.3413 94.9792C29.0615 95.1555 29.2853 95.5669 29.5651 95.3906C37.2317 90.8067 44.5065 85.2826 51.4455 79.6409C58.4405 73.9405 65.1557 67.8874 71.4792 61.423C75.0606 57.7794 78.5302 53.9596 81.9438 50.0809C82.1117 50.0221 81.9437 49.8458 81.8318 49.9634Z" fill="#1D1D1B"/>
<path d="M19.4364 99.6218C14.344 108.143 9.64335 116.958 5.44635 126.067C4.88675 127.301 4.32714 128.594 3.76754 129.828C3.20794 131.121 2.5364 132.414 2.20063 133.765C2.08871 134.118 2.59236 134.353 2.76024 134C3.43176 132.943 3.87945 131.767 4.38309 130.651C4.88673 129.534 5.39034 128.359 5.89399 127.242C6.90127 125.009 7.96456 122.717 9.0278 120.543C11.1543 116.076 13.3927 111.669 15.743 107.32C17.0861 104.793 18.4291 102.325 19.8281 99.8568C19.9959 99.6218 19.6042 99.3279 19.4364 99.6218Z" fill="#1D1D1B"/>
<path d="M17.3658 105.557C14.7357 108.848 12.3854 112.315 10.3708 116.018C9.36353 117.898 8.46823 119.779 7.62883 121.718C6.78943 123.658 5.89402 125.656 5.55826 127.771C5.5023 128.183 6.00598 128.476 6.22982 128.065C7.12519 126.243 7.74073 124.186 8.52417 122.306C9.30761 120.367 10.2029 118.486 11.1543 116.664C13.1129 112.903 15.2953 109.318 17.8135 106.027C17.9814 105.675 17.5897 105.263 17.3658 105.557Z" fill="#1D1D1B"/>
<path d="M15.0714 108.496C12.6652 112.374 10.4827 116.312 8.5801 120.484C6.67745 124.539 4.83079 128.77 3.76754 133.119C3.65562 133.472 4.21521 133.766 4.38309 133.413C6.11785 129.241 7.62876 125.009 9.47544 120.896C11.3221 116.782 13.3926 112.786 15.687 108.907C15.9108 108.496 15.3512 108.143 15.0714 108.496Z" fill="#1D1D1B"/>
<path d="M27.1588 144.99C24.2489 145.637 21.4509 146.871 18.8768 148.516C17.6457 149.28 16.4705 150.221 15.3513 151.161C14.2321 152.16 12.945 153.218 12.3294 154.687C12.2175 154.922 12.4414 155.275 12.7212 155.098C13.8963 154.334 14.7917 153.159 15.8549 152.219C16.9741 151.22 18.1493 150.279 19.3804 149.457C21.8427 147.811 24.5287 146.577 27.3267 145.695C27.7744 145.519 27.6065 144.873 27.1588 144.99Z" fill="#1D1D1B"/>
<path d="M30.1247 145.519C27.5505 146.283 25.0883 147.282 22.7939 148.692C20.5555 149.985 18.1492 151.631 16.4704 153.688C16.1906 153.982 16.5824 154.628 16.9181 154.334C17.9814 153.57 18.9327 152.63 19.94 151.866C21.0032 151.043 22.0664 150.338 23.1856 149.633C25.424 148.281 27.8303 147.164 30.3485 146.341C30.8522 146.165 30.6283 145.401 30.1247 145.519Z" fill="#1D1D1B"/>
<path d="M16.5264 165.265C27.3826 169.849 39.1902 171.964 50.8859 171.788C54.1315 171.729 57.4892 171.612 60.6789 171.024C61.0146 170.965 60.9587 170.378 60.6229 170.378C57.713 170.495 54.859 170.73 51.9491 170.789C49.0392 170.789 46.1293 170.73 43.2194 170.495C37.4555 170.025 31.7476 169.085 26.1516 167.674C22.9618 166.851 19.7721 165.911 16.6383 164.794C16.3026 164.618 16.1906 165.147 16.5264 165.265Z" fill="#1D1D1B"/>
<path d="M90.9532 161.915C82.7831 163.325 74.5011 164.265 66.2749 165.088C66.0511 165.088 66.0511 165.44 66.2749 165.44C74.613 165.029 82.895 163.913 91.1211 162.503C91.4569 162.444 91.3449 161.857 90.9532 161.915Z" fill="#1D1D1B"/>
<path d="M161.127 138.761C151.67 140.23 142.213 141.875 132.811 143.58C123.466 145.284 114.121 147.164 104.775 149.104C102.145 149.633 99.5152 150.22 96.941 150.808C94.3109 151.396 91.5689 151.866 88.9388 152.63C88.659 152.689 88.7709 153.1 89.0507 153.041C91.401 152.689 93.7513 152.101 96.1016 151.631C98.396 151.161 100.746 150.69 103.041 150.22C107.741 149.28 112.442 148.281 117.199 147.341C126.544 145.46 135.889 143.697 145.235 141.934C150.551 140.935 155.867 139.936 161.183 138.937C161.239 138.937 161.239 138.761 161.127 138.761Z" fill="#1D1D1B"/>
<path d="M143.388 134.764C132.755 136.704 122.067 138.408 111.323 139.936C108.301 140.348 105.279 140.759 102.313 141.288C101.977 141.347 102.089 141.935 102.369 141.876C107.741 141.347 113.058 140.524 118.374 139.701C123.69 138.878 129.062 137.938 134.322 136.939C137.344 136.351 140.422 135.763 143.444 135.176C143.724 135.058 143.612 134.706 143.388 134.764Z" fill="#1D1D1B"/>
</svg>
