<svg width="22" height="23" viewBox="0 0 22 23" fill="none" xmlns="http://www.w3.org/2000/svg">
<path d="M20.6587 16.522L17.6919 13.3803C16.6323 12.2583 14.831 12.7071 14.4071 14.1657C14.0893 15.1756 13.0297 15.7366 12.076 15.5122C9.95687 14.9512 7.09597 12.0339 6.56618 9.67759C6.2483 8.66771 6.88406 7.54567 7.83769 7.2091C9.21515 6.76029 9.63899 4.85282 8.5794 3.73078L5.61255 0.589071C4.76488 -0.196357 3.49337 -0.196357 2.75166 0.589071L0.738436 2.72095C-1.27479 4.96502 0.950354 10.9118 5.93043 16.1854C10.9105 21.459 16.5263 23.9275 18.6455 21.6834L20.6587 19.5515C21.4005 18.6539 21.4005 17.3075 20.6587 16.522Z" fill="black"/>
</svg>
