<svg width="37" height="35" fill="none" xmlns="http://www.w3.org/2000/svg"><path d="M31.581 22.626a18.61 18.61 0 0 0-7.03-4.172c2.803-1.826 4.644-4.881 4.644-8.337C29.195 4.54 24.397 0 18.5 0S7.805 4.539 7.805 10.117c0 3.456 1.84 6.511 4.644 8.337a18.61 18.61 0 0 0-7.03 4.172C1.924 25.93 0 30.326 0 35h2.89c0-8.142 7.003-14.766 15.61-14.766S34.11 26.858 34.11 35H37c0-4.674-1.924-9.069-5.419-12.374zM18.5 17.5c-4.303 0-7.805-3.312-7.805-7.383 0-4.07 3.502-7.383 7.805-7.383s7.805 3.312 7.805 7.383S22.803 17.5 18.5 17.5z" fill="#000"/></svg>